<?xml version="1.0" encoding="UTF-8"?>
<svg xmlns="http://www.w3.org/2000/svg" id="Layer_1" width="5in" height="5in" version="1.1" viewBox="0 0 360 360">
  <defs>
    <style>
      .st0 {
        fill: #00aa4f;
      }
    </style>
  </defs>
  <g>
    <path class="st0" d="M82.2,297.6v2.3h-4.6v15h-2.8v-15h-4.6v-2.3h12.1Z"></path>
    <path class="st0" d="M97.5,309.1h-10.5c0,1.1.5,2,1.2,2.6.7.7,1.6,1,2.7,1,1.5,0,2.6-.6,3.2-1.9h3.1c-.4,1.3-1.2,2.3-2.2,3.1-1.1.8-2.4,1.2-4,1.2s-2.5-.3-3.5-.9c-1-.6-1.8-1.4-2.4-2.5-.6-1.1-.9-2.3-.9-3.7s.3-2.6.9-3.7,1.4-1.9,2.4-2.5c1-.6,2.2-.9,3.6-.9s2.4.3,3.5.8c1,.6,1.8,1.4,2.4,2.4.6,1,.8,2.2.8,3.5s0,1,0,1.4ZM94.6,306.8c0-1-.4-1.9-1.1-2.5-.7-.6-1.6-.9-2.7-.9s-1.8.3-2.5.9c-.7.6-1.1,1.5-1.2,2.5h7.6Z"></path>
    <path class="st0" d="M103.6,303.5v7.6c0,.5.1.9.4,1.1.2.2.6.3,1.2.3h1.7v2.4h-2.2c-1.3,0-2.3-.3-2.9-.9-.7-.6-1-1.6-1-2.9v-7.6h-1.6v-2.3h1.6v-3.4h2.9v3.4h3.3v2.3h-3.3Z"></path>
    <path class="st0" d="M112,314.2c-1-.6-1.9-1.4-2.5-2.5s-.9-2.3-.9-3.7.3-2.6.9-3.7c.6-1.1,1.4-1.9,2.5-2.5,1.1-.6,2.2-.9,3.6-.9s2.5.3,3.6.9c1.1.6,1.9,1.4,2.5,2.5.6,1.1.9,2.3.9,3.7s-.3,2.6-.9,3.7c-.6,1.1-1.5,1.9-2.6,2.5-1.1.6-2.3.9-3.6.9s-2.5-.3-3.5-.9ZM117.6,312.1c.6-.3,1.2-.9,1.6-1.6.4-.7.6-1.5.6-2.5s-.2-1.8-.6-2.5c-.4-.7-.9-1.2-1.5-1.6-.6-.3-1.3-.5-2-.5s-1.4.2-2,.5c-.6.3-1.1.9-1.5,1.6s-.5,1.5-.5,2.5c0,1.5.4,2.6,1.1,3.4.8.8,1.7,1.2,2.8,1.2s1.4-.2,2.1-.5Z"></path>
    <path class="st0" d="M135.2,301.6c.9.4,1.5,1.1,2,2s.7,1.9.7,3.2v8.1h-2.8v-7.7c0-1.2-.3-2.2-.9-2.8-.6-.7-1.4-1-2.5-1s-1.9.3-2.5,1c-.6.7-.9,1.6-.9,2.8v7.7h-2.8v-13.7h2.8v1.6c.5-.6,1.1-1,1.8-1.3.7-.3,1.5-.5,2.3-.5s2,.2,2.9.7Z"></path>
    <path class="st0" d="M148.3,301.7c.8-1.3,1.9-2.4,3.2-3.1,1.4-.8,2.8-1.1,4.4-1.1s3.5.5,4.9,1.4c1.4.9,2.5,2.2,3.1,3.8h-3.4c-.4-.9-1.1-1.6-1.9-2-.8-.4-1.7-.7-2.8-.7s-2.2.3-3.1.8c-.9.5-1.6,1.3-2.1,2.2-.5,1-.8,2.1-.8,3.4s.3,2.4.8,3.4c.5,1,1.2,1.7,2.1,2.2.9.5,1.9.8,3.1.8s2-.2,2.8-.7c.8-.4,1.4-1.1,1.9-2h3.4c-.6,1.7-1.7,2.9-3.1,3.8-1.4.9-3.1,1.3-4.9,1.3s-3.1-.4-4.4-1.1c-1.3-.8-2.4-1.8-3.2-3.1-.8-1.3-1.2-2.9-1.2-4.5s.4-3.2,1.2-4.5Z"></path>
    <path class="st0" d="M169.7,314.2c-1-.6-1.9-1.4-2.5-2.5-.6-1.1-.9-2.3-.9-3.7s.3-2.6.9-3.7c.6-1.1,1.4-1.9,2.5-2.5,1.1-.6,2.2-.9,3.6-.9s2.5.3,3.6.9c1.1.6,1.9,1.4,2.5,2.5.6,1.1.9,2.3.9,3.7s-.3,2.6-.9,3.7c-.6,1.1-1.5,1.9-2.6,2.5-1.1.6-2.3.9-3.6.9s-2.5-.3-3.5-.9ZM175.2,312.1c.6-.3,1.2-.9,1.6-1.6.4-.7.6-1.5.6-2.5s-.2-1.8-.6-2.5c-.4-.7-.9-1.2-1.5-1.6s-1.3-.5-2-.5-1.4.2-2,.5c-.6.3-1.1.9-1.5,1.6s-.5,1.5-.5,2.5c0,1.5.4,2.6,1.1,3.4.8.8,1.7,1.2,2.8,1.2s1.4-.2,2.1-.5Z"></path>
    <path class="st0" d="M195.5,301.2v13.7h-2.8v-1.6c-.4.6-1,1-1.8,1.3-.7.3-1.5.5-2.3.5s-2-.2-2.9-.7-1.5-1.1-2-2c-.5-.9-.7-1.9-.7-3.2v-8.1h2.8v7.6c0,1.2.3,2.2.9,2.8.6.7,1.4,1,2.5,1s1.9-.3,2.5-1c.6-.7.9-1.6.9-2.8v-7.6h2.8Z"></path>
    <path class="st0" d="M209,301.6c.9.4,1.5,1.1,2,2,.5.9.7,1.9.7,3.2v8.1h-2.8v-7.7c0-1.2-.3-2.2-.9-2.8-.6-.7-1.4-1-2.5-1s-1.9.3-2.5,1c-.6.7-.9,1.6-.9,2.8v7.7h-2.8v-13.7h2.8v1.6c.5-.6,1.1-1,1.8-1.3.7-.3,1.5-.5,2.3-.5s2,.2,2.9.7Z"></path>
    <path class="st0" d="M218.6,303.5v7.6c0,.5.1.9.4,1.1.2.2.6.3,1.2.3h1.7v2.4h-2.2c-1.3,0-2.3-.3-2.9-.9-.7-.6-1-1.6-1-2.9v-7.6h-1.6v-2.3h1.6v-3.4h2.9v3.4h3.3v2.3h-3.3Z"></path>
    <path class="st0" d="M236.9,301.2l-8.4,20.1h-2.9l2.8-6.7-5.4-13.5h3.2l3.9,10.4,4-10.4h2.9Z"></path>
    <path class="st0" d="M244.8,311.1v-2.1l8.3-12h3.4v11.7h2.3v2.5h-2.3v3.8h-2.8v-3.8h-9ZM253.9,299.9l-5.9,8.8h5.9v-8.8Z"></path>
    <path class="st0" d="M272.1,304.7v2.4h-10.2v-2.4h10.2Z"></path>
    <path class="st0" d="M289.9,297.6v17.3h-2.8v-7.6h-8.1v7.6h-2.8v-17.3h2.8v7.4h8.1v-7.4h2.8Z"></path>
  </g>
  <path class="st0" d="M272.2,158.9c-23.2-13.9-38.6-4.4-64.4-8.1-3.4-.5-3.4-4.3,2.3-5.7,24.2-2.3,58.1,1,73.5-23.5,6.8-10.7,9.7-24.5,1-37.3-6.7-9.8-15.9-11.2-22.8-17.1-3.6-3.1-6-8.5-9.1-14.1-7.2-13-26.4-18.3-39.3-11.4-33.9,18.1-26.5,43.6-29.2,70.1.7,13.8-7,13.5-7.4,2-1-31.6-3.7-66.5-37.9-74.5-12.6-3-25,3.2-32.2,14.4-3.5,5.4-4,9.6-8.1,13.1-6.9,6.1-16.1,8.4-24.2,19.1-7.2,9.6-3.4,25.5,0,31.9,15.1,28.6,44.6,23.8,74.2,27.2,5.1.6,4.7,5.7,1.3,5.7-8.4,3-43.3-4-62.4,7.4-18.3,10.9-28.9,32.2-15.1,50.3,4.5,5.9,10.6,7.8,15.4,13.1,4.9,5.4,7,12.3,10.8,19.1,8,14.8,29.8,18,44.6,7.1,21.2-15.8,21.5-37,26.2-61.1.8-4.2,5.4-4.7,5.2-.8,1,15.2-3,32.4,1,56.3,3.7,22.1,11.5,31.9,11.9,32.4h20.8c-11.4-18.5-27.5-48.7-23.2-88.3.3-2.8,4.5-3.2,5.1.4,3.9,23,6.7,45.2,25.8,60.4,14.6,11.6,36.5,9,46-7,3.5-5.9,4.5-12.4,8.7-17.5,4.2-5.1,9.7-6.7,14.4-11.4,16.8-16.4,6.4-40.6-13.1-52.4ZM115.4,224.5l-5.9-7.2,12.5-10.2-10.8-13.2-12.5,10.2-5.9-7.2,32.6-26.6,5.9,7.2-14.1,11.5,10.8,13.2,14-11.5,5.9,7.1-32.6,26.7ZM148.1,104.9l-12.8-12.8-12.1,12,12.8,12.8-6.5,6.5-29.8-29.8,6.6-6.6,11.4,11.4,12.1-12-11.4-11.4,6.5-6.5,29.8,29.8-6.5,6.5ZM234.1,68.4l6.5,6.6-11.4,11.4,12.1,12.1,11.4-11.4,6.5,6.6-29.8,29.8-6.5-6.5,12.8-12.8-12.1-12-12.8,12.8-6.6-6.5,29.8-29.8ZM260.9,204.7l-12.4-10.4-11,13.1,12.4,10.4-5.9,7.1-32.3-27,5.9-7.1,13.9,11.6,10.9-13-13.9-11.7,5.9-7.1,32.2,27-5.9,7.1Z"></path>
</svg>
