<?xml version="1.0" encoding="UTF-8"?>
<svg xmlns="http://www.w3.org/2000/svg" id="Layer_2" width="500" height="500" version="1.1" viewBox="0 0 500 500">
  <defs>
    <style>
      .st0 {
        fill: #2f2070;
      }

      .st1 {
        letter-spacing: 0em;
      }

      .st2 {
        letter-spacing: 0em;
      }

      .st3 {
        letter-spacing: 0em;
      }

      .st4 {
        letter-spacing: 0em;
      }

      .st5 {
        fill: #d59a52;
        font-family: ProximaNovaCond-Regular, 'Proxima Nova Condensed';
        font-size: 24.3px;
      }

      .st6 {
        letter-spacing: 0em;
      }
    </style>
  </defs>
  <path class="st0" d="M310.2,245.4h-120.8l35.7-66.4,12.4,15.7c1.1,1.4.9,3.5-.6,4.6-1.4,1.1-3.5.9-4.6-.6l-6.2-7.9-25.8,48h98.8l-38.3-69.8-24.3,51.1c-.8,1.6-2.7,2.3-4.4,1.5-1.6-.8-2.3-2.7-1.5-4.4l29.8-62.6,49.7,90.7Z"></path>
  <g>
    <path class="st0" d="M470.5,260.1c-.2.8,1.1.8,1.8,1.2,1.5.9,2.2,2.1,2,3.9l-9.1,18.7c-.4.9-1.2.9-1.5,0l-9.3-18.9c-.3-1,.4-2.7,1.2-3.4.6-.5,2.3-.6,2.2-1.5h-54c-.1.8.2.5.7.6,1.8.5,3.2.4,4.2,2.3l.2,39.8c-.6,2.6-2.8,2.2-4.5,2.9-.5.2-.7,0-.6.7h37.1c0,0,.5-.5.4-.6-2.7-1.3-2-7.1,0-9-5.7-3.7-5.9,5.6-9,8-3.8-.3-8.7.6-12.4,0-1.3-.2-3.1-1.6-3.1-2.9v-19.5c3.3-.3,6.7.7,9.3,2.7,1.4,1.1,2.1,3,3.7,3.2v-12.6c0,0-.3-.9-.7-.7-2.9,4.1-7.2,6.6-12.4,6v-17.2c0-1.2,1.5-2.5,2.7-2.7,3.7-.5,8.7.2,12.6.2,2.9,1,3.2,12,8.8,8.2-1.5-2.4-1.9-5.7-.8-8.3,5.3.8,7.5,7.3,9.8,11.6,1.3,2.6,7.2,13.2,7.5,15.2.3,2,.3,12.8,0,14.7-.3,1.3-1.2,2-2.4,2.4-.9.3-2.6,0-2.6,1.2h18.2c-.3-1.3-2.2-.8-3.4-1.6-.6-.4-1.4-1.4-1.6-2.1-.4-1.5-.4-13.3,0-14.9,4.2-6.9,7.2-16.8,11.7-23.2,1.8-2.5,3.6-3.4,6.7-4v-.6h-13.3Z"></path>
    <path class="st0" d="M142.2,269.6c-1.3-2-1.9-4.9-1.3-7.3.3-1.1,1.1-1.3,1.3-2.3H16.1c0,.8.8,1,1.1,1.9.9,2.4,0,5.7-1.1,7.8,6.7,3.2,5.1-8.1,10.1-8.5,3.1-.3,7,0,10.1.3v40.8c0,0-.5,1.2-.6,1.4-1.1,1.8-3,1.7-4.8,2.2,0,.1.4.6.4.6h17.7c0-1.1-1.7-.9-2.6-1.2-1.4-.5-2.2-1.8-2.5-3.2.7-12.7-1-26.6,0-39.2,0-.5.2-1,.3-1.5h10.6c2.6,0,3.8,12.4,9.2,8.5-1.4-2.4-2.1-5.8-.9-8.4,1.8-.5,2.9,1.4,3.1,2.9v38c0,1-.9,2.1-1.7,2.6-1.2.7-3.1.3-3.4,1.6h37.2c0-.7-.6-.7-.9-1.2-1-1.6-.7-6.8.9-8.3-5.5-4.3-6.2,7.2-9,8-3.8-.2-8.5.5-12.1,0-.9-.1-3-1.5-3-2.4v-20c3.1-.2,6.4.6,8.9,2.6,1.1.9,2,2.3,2.9,3.1.4.3.5.4,1,.3v-13.3c-.4,0-.5,0-.9.2-.6.5-1.3,2-2.3,2.8-2.6,2.2-6.3,3.3-9.7,3v-17.7c0-.8,1.9-2,2.7-2.1,3.7-.5,8.6.2,12.3.1,3.1,1.8,2.8,9.3,7.2,9,3.6-.2,4.4-9.1,6.8-9.1h10.5l.4.4v40.6c0,.6-1.1,2.2-1.7,2.5-1.2.8-3.1.3-3.4,1.6h17.7c0,0,.5-.5.4-.6-3.1-.5-5-.9-5.4-4.4.7-12.5-.9-26,0-38.3,0-.6.3-1.2.3-1.8h10.6c2.8,0,3.7,12.6,9.2,8.4Z"></path>
    <path class="st0" d="M362.9,296.9c-5.5-4.2-6.2,7.1-8.8,8-3.8-.1-8.7.6-12.3,0-1.2-.2-2.2-1-2.7-2.1l-.2-39.2c.6-2.6,2.5-2.3,4.5-2.9.5-.2.7.1.6-.6h-18.2c-.1.7.1.5.6.7,2.2.6,4,.5,4.5,3.5v38.1c-1.7,5.8-7.5,2.2-9.3-1.5l-16.8-41.7c-1.7-.5-1.7-.1-2.2,1.2-5.2,12.4-8.9,27.2-14.6,39.1-1.2,2.5-2.3,3.8-4.7,5.2-.2.1-3.3,1.2-2.6,1.8h13.6c-.4-1.3-2.3-1.1-3.4-2.1-1.4-1.3-1.2-2.5-.8-4.2.6-2.4,2.1-4.9,2.8-7.3h17c.8,2.6,4.3,8.8,3.6,11-.6,1.7-3.5,1-3.9,2.5h53.4c0-.8-.8-1-1.2-1.8-.8-1.9-.3-6.1,1.2-7.7ZM308.8,291.6h-14.8c-.9-.3.2-2.6.4-3.3,1.8-5.4,4.1-10.8,6-16.2l.7-.7,8,19.6-.3.6Z"></path>
    <path class="st0" d="M160.1,259.1c-26,1-27.6,46.4-1.8,48.2,29,2,30.4-49.4,1.8-48.2ZM164,305.9c-8.1,2.4-12.5-6.6-14.1-13.1-1.9-8-4.1-30.8,7.5-32.6,5.5-.9,9.6,3.8,11.6,8.5,3.5,8.5,6.6,33.9-5,37.3Z"></path>
    <path class="st0" d="M213.2,260.1c-.1.6,0,.5.4.6,2.1,1.2,4.8.4,5.3,4.1v27.7c-.1,0-1,.3-1,.3l-23-32.7h-12.1c-.1.7.1.5.6.7,1.8.7,3.9.4,4.7,2.7v38.8c-.2,1.4-1.1,2.1-2.3,2.7-1,.4-2.8.3-2.9,1.5h13.3c0-1.2-2-1.1-2.9-1.5-1.4-.6-2.8-1.8-2.8-3.5v-34.2l1,.3,27.6,39.2,2.1.3v-43c0-.2.9-1.5,1.1-1.7,1.1-.9,3-1,4.2-1.5.4-.2.4,0,.4-.6h-13.6Z"></path>
    <path class="st0" d="M287,260.8c.3-.2.5,0,.4-.6h-13.6c-.1,1,1.6.9,2.3,1.2,1.9.9,2.5,2.5,2.1,4.5l-10.1,28.7-.7.2-11.7-29.8c-.3-1.6.6-2.9,1.8-3.7.7-.4,1.9-.4,1.8-1.2h-18.5c0,.9,1.4.9,2.2,1.4,2.7,1.6,3.9,3.1,5.2,5.9l15.6,39.7h1.8c0,.1,14.4-40,14.4-40,2-4.4,3.5-4.1,7-6.4Z"></path>
    <path class="st0" d="M400.9,304.9c-.8-1.9-.5-6.4,1.2-8-5.6-4.4-6.3,7.2-9,8-3.8-.2-8.5.5-12.1,0-4.5-.6-3-6.4-3-9.5.1-10.1-.6-21-.2-30.9.1-3.4,2.3-3.2,4.7-3.8.5-.1.7,0,.6-.6h-18.2c-.1.8.1.5.6.6,2.5.8,4,.5,4.5,3.8-.6,11.9.9,24.8,0,36.6-.1,1.7-.4,3.1-2.1,3.9-1,.5-2.9.1-3,1.4h37.2c0-.8-.8-.7-1.2-1.5Z"></path>
  </g>
  <text class="st5" transform="translate(114.8 337.5)">
    <tspan class="st3" x="0" y="0">CHAMBER</tspan>
    <tspan class="st1" x="101.2" y="0"> </tspan>
    <tspan class="st2" x="106" y="0">MUSIC</tspan>
    <tspan class="st4" x="171.1" y="0"> </tspan>
    <tspan class="st6" x="176.4" y="0">FESTIVAL</tspan>
  </text>
</svg>
