<?xml version="1.0" encoding="UTF-8"?>
<svg xmlns="http://www.w3.org/2000/svg" id="Layer_2" width="500" height="500" version="1.1" viewBox="0 0 500 500">
  <defs>
    <style>
      .st0 {
        fill: #050505;
      }

      .st1 {
        fill: #69be45;
      }
    </style>
  </defs>
  <path class="st0" d="M425.1,229c-11.6-85.5-85.2-151.3-174.1-150.6-94.3.8-171.5,77.4-172.8,171.7-1.4,97.4,77.1,176.8,174.2,176.8s93.2-20.2,124.9-52.7l10.6,9.4,5.8-37.3-37.7,6.2,12.1,12.1c-25.3,17.7-58,27.3-95,27.3-93.2,0-128.5-67.2-141.8-114.7-7.7-27.5-1.7-57,16.4-79s1.7-2,2.1-2.4c3.5-3,10-8.9,12.3-9.3s9.6,2.3,17.7-.8c8.1-3.1,10.8-33.4,10.8-38.1s.8-17.9,9.2-19.2c8.5-1.3,26.9,3.1,43.1,11.1,16.1,8.1,33.4,37.7,36.9,40s12.3,15.8,19.6,25.4c7.3,9.6,20.4,14.2,26.9,13.5,6.5-.8,18.1-11.9,20.4-14.6,2.3-2.7,3.8-3.1,9.6-5.4,5.8-2.3,13.8-1.5,19.6-2.3,5.8-.8,12.7,8.8,15,12.7,2.3,3.8,21.1,21.9,21.1,26.1s6,17.1,9.3,25.3c.6,1.4,2.7,1.1,2.8-.4.8-8.2,1.9-23.1.9-30.6Z"></path>
  <path class="st1" d="M125.9,141.8c-.4-.8-.5-.9-.7-.4-2.1,6.7-20.1,58.9-38.8,81.4-.8,1.2-.1,1.4,2.1.9,3-.7,6.5-1.5,10.4-2.4,4.9-.9,8-2.2,10.8-2.2-1.6,5.2-15.6,38.5-26.9,50.1-1.3,1.4-3.3,2.7-4,4.1-.1.7,2,.3,5.1-.5,3.6-1,8.1-2.5,11.2-3.6,4.2-1.4,10.8-4.1,14.9-5.4.2,0,.2,0,.2.3-1.9,4.1-19.8,41.9-30.7,50.8-1.5,1.2,1.2.6,2.5.5,5.1-.6,14.2-2.1,20.2-4.4,1.2-.3,1.9-.9,2.2-.3.8,16.3-16.3,39.2-35.7,52.1-1.2.9-2.8,1.9-3.8,2.7-.4.4-.6.5-.5.6,18,6.8,77.6,14.2,122.9,2.7,1.7-.5,4.5-.7,2.4-2.2-5.2-4.3-11.3-9.7-16.4-14.6-5.7-5.5-10.7-10.5-14.8-17.2-4.3-7-8.7-16.8-10.7-24.1,0-.7,1.4-.2,4.9.3,2.3.4,5.3.9,8.4,1.5,6.2,1,10.8,2.2,14.4,2.4-2.5-3.9-27-31.2-32.6-49.2,0-1.2,1.8-.2,4.7.6,6.3,1.9,19.4,4.8,25.1,4.3.9-.1.9-.4.5-.9-3.5-5-24.4-31.8-31.5-48.7-.2-1.3,1.2-1.1,3.9-.7,6.2.9,17.6,2.7,21.1,3.2,1.1.1,1.8.4,1.7.1-1.1-1.1-9.7-9.8-21.7-33.3-7.8-15.4-13.7-29.9-20.3-48.4h0Z"></path>
  <g>
    <polygon class="st0" points="163.5 248.5 181.8 248.5 181.8 320.2 197.2 320.2 197.2 248.5 215.5 248.5 215.5 236.1 163.5 236.1 163.5 248.5"></polygon>
    <polygon class="st0" points="252.7 298.2 238.2 236.1 222.6 236.1 242.4 320.2 262.1 320.2 281.7 236.1 267.1 236.1 252.7 298.2"></polygon>
    <path class="st0" d="M316,235.4c-15.5,0-24.4,8.1-24.4,22.2v41.2c0,14.1,8.9,22.2,24.4,22.2s24.6-8.1,24.6-22.2v-12.1h-14.8v12.5c0,6.4-3,9.4-9.5,9.4s-9.5-3.1-9.5-9.4v-42.2c0-6.3,3.1-9.4,9.5-9.4s9.5,3,9.5,9.4v9.8h14.8v-9.3c0-14.1-9-22.2-24.6-22.2Z"></path>
    <path class="st0" d="M403.9,316.8c-1.5-2.2-1.6-5.1-1.6-8.4v-12.4c0-8-2.9-13.5-8.7-16.7,5.7-3.2,8.5-8.6,8.5-16.4v-6.5c0-13.5-8.2-20.4-24.3-20.4h-24.3v84h15.4v-34.1h5.7c9,0,12.4,2.6,12.4,9.7v12.5c0,5.3.5,7.9,2.1,10.7l.6,1.1h16.5l-2.3-3.3ZM368.9,248.5h8.7c6.7,0,9.4,2.5,9.4,8.8v7.6c0,6.5-3.1,8.8-11.9,8.8h-6.1v-25.2Z"></path>
  </g>
</svg>
