<?xml version="1.0" encoding="UTF-8"?>
<svg xmlns="http://www.w3.org/2000/svg" xmlns:xlink="http://www.w3.org/1999/xlink" id="Layer_2" viewBox="0 0 216.3081 230.6369" class="default-logo" aria-label="Grand Targhee Ski &amp; Snowboard Foundation" role="img">
  <defs>
    <linearGradient id="New_Gradient_Swatch_2" x1="122.7024" y1="214.9928" x2="90.4794" y2="182.7697" gradientUnits="userSpaceOnUse">
      <stop offset="0" stop-color="#0f7bbb"></stop>
      <stop offset=".3796" stop-color="#20b1d0"></stop>
      <stop offset=".3829" stop-color="#21b2d1"></stop>
      <stop offset=".4966" stop-color="#4ec1da"></stop>
      <stop offset=".7442" stop-color="#ace2ed"></stop>
      <stop offset=".9175" stop-color="#e7f7fa"></stop>
      <stop offset="1" stop-color="#fff"></stop>
    </linearGradient>
    <linearGradient id="New_Gradient_Swatch_2-2" x1="106.6187" y1="0" x2="106.6187" y2="79.0798" xlink:href="#New_Gradient_Swatch_2"></linearGradient>
    <linearGradient id="New_Gradient_Swatch_2-3" x1="23.437" y1="55.9592" x2="76.5322" y2="55.9592" xlink:href="#New_Gradient_Swatch_2"></linearGradient>
    <linearGradient id="New_Gradient_Swatch_2-4" x1="189.8864" y1="166.1987" x2="122.4594" y2="166.1987" xlink:href="#New_Gradient_Swatch_2"></linearGradient>
    <linearGradient id="New_Gradient_Swatch_2-5" x1="24.0827" y1="166.0974" x2="88.5392" y2="166.0974" xlink:href="#New_Gradient_Swatch_2"></linearGradient>
    <linearGradient id="New_Gradient_Swatch_2-6" x1="189.2179" y1="55.9571" x2="136.1227" y2="55.9571" xlink:href="#New_Gradient_Swatch_2"></linearGradient>
  </defs>
  <g id="Components">
    <g id="_35f290df-3ab9-4ab2-a253-fd4b71fad503_1">
      <path d="m122.3261,212.0259l-14.6119-14.6119v-29.1757c0-.6185-.5014-1.1198-1.1198-1.1198s-1.1198.5014-1.1198,1.1198v29.1757l-14.6119,14.6119c-.4374.4373-.4374,1.1464,0,1.5837.2186.2187.5052.328.7918.328s.5732-.1093.7918-.328l13.0283-13.0283v12.3992l-7.7154,7.7154c-.4374.4373-.4374,1.1464,0,1.5837.2186.2187.5052.328.7918.328s.5732-.1094.7918-.328l6.1318-6.1318v13.3693c0,.6185.5014,1.1198,1.1198,1.1198s1.1198-.5014,1.1198-1.1198v-13.306l6.0684,6.0685c.2186.2187.5052.328.7918.328s.5732-.1094.7918-.328c.4374-.4373.4374-1.1464,0-1.5837l-7.6521-7.6521v-12.4625l13.0282,13.0283c.2186.2187.5052.328.7918.328s.5732-.1093.7918-.328c.4374-.4373.4374-1.1464,0-1.5837Z" style="fill:url(#New_Gradient_Swatch_2); stroke-width:0px;"></path>
      <path d="m122.3505,18.611l-14.6119,14.6119v44.737c0,.6185-.5014,1.1198-1.1198,1.1198s-1.1198-.5014-1.1198-1.1198v-44.737l-14.6119-14.6119c-.4374-.4373-.4374-1.1464,0-1.5837.2186-.2187.5052-.328.7918-.328s.5732.1093.7918.328l13.0283,13.0283v-12.3992l-7.7154-7.7154c-.4374-.4373-.4374-1.1464,0-1.5837.2186-.2187.5052-.328.7918-.328s.5732.1094.7918.328l6.1318,6.1318V1.1198c0-.6185.5014-1.1198,1.1198-1.1198s1.1198.5014,1.1198,1.1198v13.306l6.0684-6.0685c.2186-.2187.5052-.328.7918-.328s.5732.1094.7918.328c.4374.4373.4374,1.1464,0,1.5837l-7.6521,7.6521v12.4625l13.0282-13.0283c.2186-.2187.5052-.328.7918-.328s.5732.1093.7918.328c.4374.4373.4374,1.1464,0,1.5837Z" style="fill:url(#New_Gradient_Swatch_2-2); stroke-width:0px;"></path>
      <path d="m47.5707,38.6945l5.3483,19.9602,23.0531,13.3097c.5356.3092.7191.9941.4099,1.5297-.3092.5356-.9941.7191-1.5297.4099l-23.0531-13.3097-19.9603,5.3484c-.5974.1601-1.2115-.1944-1.3715-.7918-.08-.2987-.0314-.6015.1119-.8497s.3813-.4417.68-.5217l17.797-4.7687-10.738-6.1996-10.5395,2.8241c-.5974.1601-1.2115-.1944-1.3715-.7918-.0801-.2987-.0315-.6015.1119-.8497s.3813-.4418.68-.5217l8.3762-2.2444-11.5781-6.6846c-.5356-.3092-.7191-.9941-.4099-1.5297s.9941-.7191,1.5297-.4099l11.5233,6.653-2.2212-8.2897c-.0801-.2987-.0315-.6015.1119-.8497s.3813-.4417.68-.5217c.5974-.1601,1.2115.1944,1.3715.7918l2.8009,10.4529,10.7929,6.2313-4.7687-17.7969c-.08-.2987-.0314-.6015.1119-.8497s.3813-.4417.68-.5217c.5974-.1601,1.2115.1944,1.3715.7918Z" style="fill:url(#New_Gradient_Swatch_2-3); stroke-width:0px;"></path>
      <path d="m181.4844,160.0951l-19.9602,5.3483-37.3849-21.0693c-.5356-.3092-1.2205-.1257-1.5297.4099s-.1257,1.2205.4099,1.5297l37.3849,21.0693,5.3483,19.9603c.16.5974.7741.9519,1.3715.7918.2987-.08.5367-.2735.68-.5217s.1919-.551.1119-.8497l-4.7687-17.797,10.738,6.1996,2.824,10.5395c.16.5974.7741.9519,1.3715.7918.2987-.08.5366-.2735.68-.5217s.1919-.5511.1119-.8497l-2.2444-8.3762,11.5781,6.6846c.5356.3092,1.2205.1257,1.5297-.4099.3092-.5356.1257-1.2205-.4099-1.5297l-11.5233-6.653,8.2897-2.2212c.2987-.08.5366-.2735.68-.5217s.1919-.5511.1119-.8497c-.16-.5974-.7741-.9519-1.3715-.7918l-10.453,2.8008-10.7929-6.2313,17.7969-4.7687c.2987-.08.5367-.2735.68-.5217s.1919-.551.1119-.8497c-.16-.5974-.7741-.9519-1.3715-.7918Z" style="fill:url(#New_Gradient_Swatch_2-4); stroke-width:0px;"></path>
      <path d="m48.2164,187.3356l5.3483-19.9602,34.4143-21.2566c.5356-.3092.7191-.9941.4099-1.5297-.3092-.5356-.9941-.7191-1.5297-.4099l-34.4143,21.2566-19.9603-5.3484c-.5974-.1601-1.2115.1944-1.3715.7918-.08.2987-.0314.6015.1119.8497s.3813.4417.68.5217l17.797,4.7687-10.738,6.1996-10.5395-2.8241c-.5974-.1601-1.2115.1944-1.3715.7918-.0801.2987-.0315.6015.1119.8497s.3813.4418.68.5217l8.3762,2.2444-11.5781,6.6846c-.5356.3092-.7191.9941-.4099,1.5297.3092.5356.9941.7191,1.5297.4099l11.5233-6.653-2.2212,8.2897c-.0801.2987-.0315.6015.1119.8497s.3813.4417.68.5217c.5974.1601,1.2115-.1944,1.3715-.7918l2.8009-10.4529,10.7929-6.2313-4.7687,17.7969c-.08.2987-.0314.6015.1119.8497s.3813.4417.68.5217c.5974.1601,1.2115-.1944,1.3715-.7918Z" style="fill:url(#New_Gradient_Swatch_2-5); stroke-width:0px;"></path>
      <path d="m180.8159,65.9405l-19.9602-5.3483-23.0531,13.3097c-.5356.3092-1.2205.1257-1.5297-.4099-.3092-.5356-.1257-1.2205.4099-1.5297l23.0531-13.3097,5.3483-19.9603c.16-.5974.7741-.9519,1.3715-.7918.2987.08.5367.2735.68.5217s.1919.551.1119.8497l-4.7687,17.797,10.738-6.1996,2.824-10.5395c.16-.5974.7741-.9519,1.3715-.7918.2987.08.5366.2735.68.5217.1433.2482.1919.5511.1119.8497l-2.2444,8.3762,11.5781-6.6846c.5356-.3092,1.2205-.1257,1.5297.4099.3092.5356.1257,1.2205-.4099,1.5297l-11.5233,6.653,8.2897,2.2212c.2987.08.5366.2735.68.5217s.1919.5511.1119.8497c-.16.5974-.7741.9519-1.3715.7918l-10.453-2.8008-10.7929,6.2313,17.7969,4.7687c.2987.08.5367.2735.68.5217s.1919.551.1119.8497c-.16.5974-.7741.9519-1.3715.7918Z" style="fill:url(#New_Gradient_Swatch_2-6); stroke-width:0px;"></path>
      <g id="TETON_SILOHUETTE">
        <path d="m193.9,80.3273c.0042-.3454-.2099-.4223-.4733-.267-.2206.13-.3883.3447-.5647.5341-.2018.2167-.3745.25-.5181-.0411-.1571-.3185-.44-.3992-.7598-.3102-.4255.1184-.7636.0145-1.0356-.2865-.2147-.2376-.4542-.2235-.6936-.0848-.504.2921-.9987.5985-1.4945.903l-.3582.3598c-.4735.783-.9347,1.5729-1.4296,2.3436-.1685.2624-.3961.5322-.6687.6841-.3355.1869-.777.2041-1.1156.3878-.2963.1608-.5686.4176-.7525.6908-.2603.3868-.5153.7343-.9998.8973-.1969.0662-.3962.1876-.5348.3338-.3929.4142-.7491.8589-1.1309,1.2827-.413.4582-.8601.8907-1.252,1.3638-.3205.3869-.9064.5517-1.0308,1.0994-.0048.0213-.0799.0238-.1169.0439-1.0002.5449-2.0002,1.09-2.9988,1.6375-.2347.1287-.4644.2394-.7228.0005.1156-.2248.225-.3643-.1682-.5689-.3068-.1597-.5642-.458-.9433-.5724-.0569-.0172-.0729-.1574-.1057-.2415-.1936-.4963-.4354-.9172-1.1034-.9598-.5861-.0374-1.1651-.1867-1.7509-.213-.7648-.0344-1.5343-.0796-2.1172.4967-.394.3896-1.1366.6122-1.6719.469-.5693-.1523-1.1286-.3529-1.6684-.5784-.7646-.3194-1.5165-.6878-2.2136-1.1207-.5149-.3198-1.0584-.4811-1.636-.4877-.656-.0075-1.3148.1471-1.9697.1317-.3571-.0084-.7064-.0634-1.0266.0374-.2002.063-.4092.0469-.5878-.0633-.3442-.2124-.7938-.3075-1.1808-.2572-.2069.0269-.4061-.0675-.5595-.2088-.1362-.1254-.3221-.1823-.5895-.1714-.2677.0109-.5361-.1858-.6674-.4807-.1634-.3669-.3387-.7362-.5682-1.0682-.2339-.3384-.5138-.3429-.8918-.1641-.132.0624-.4281.0654-.4774-.0074-.2278-.3365-.552-.412-.8436-.3998-.2122-.2333-.4044-.3995-.5372-.6005-.2311-.3499-.4026-.7354-.6432-1.0786-.1695-.2418-.3712-.533-.6318-.6328-.3812-.1459-.5067-.36-.5778-.7041-.0604-.292-.3062-.5274-.6326-.3916-.5187.2158-.6184-.0331-.7257-.419-.0697-.2506-.1783-.4759-.4538-.5186-.6065-.0941-1.2262-.5609-1.358-1.1603-.0226-.1027-.0455-.2052-.0698-.3075-.0719-.3027-.3782-.6427-.6658-.7614-.2924-.1207-.4643-.3465-.5634-.6734-.0515-.1697-.2064-.4379-.3245-.4427-.738-.0304-1.0607-.5298-1.4158-1.0074-.0079-.0106-.0228-.0166-.0345-.0246-.4116-.2791-.5837-.8298-1.1693-.9116-.0483-.3688-.3168-.3162-.5244-.2658-.1673-.1213-.2865-.2282-.4254-.3031-.1655-.0892-.348-.1503-.5226-.2246-.1941-.0826-.8739-.2319-1.3917-.3392,0,0-.3435.2786-.466.6239-4.0968,11.5474-16.5612,16.7204-32.3521,29.2454-.5396.428-.2702,1.73.4185,1.7316,0,0,105.4601.5547,108.0417.5546.3963,0,.7312-.6893.7332-.9249.0184-2.1604-2.3593-6.6207-2.9195-10.4887-.2137-1.4753-1.9596-3.0018-2.4236-4.3404-.3896-1.124-1.5197-.8716-2.2675-1.622-.8984-.9015-1.4508-2.7645-2.2486-3.7212-1.4668-1.7589-3.2117-.9793-4.9829-1.4057-1.2729-.3065-2.5859-1.97-3.6952-2.2167-.8843-.1966-1.6811-1.6277-2.3058-1.6964-.9113-.1003-1.4734-.1023-1.4732-.1167Z" style="fill:#223b55; stroke-width:0px;"></path>
        <path d="m102.151,87.3511s-1.125-.7993-2.1067-1.1652c-.3706-.1381-.7464-.2616-.9091-.6353-.1488-.3418-.2453-.7034-.3845-1.0494-.1286-.3198-.1936-.7893-.4439-.9142-.6474-.3232-1.1037-.7954-1.5972-1.2714-.3192-.3079-.7982-.4738-1.2181-.6808-.0787-.0388-.2432-.0037-.3224.0534-.2482.1789-.4409.1566-.7016-.0093-.1309-.0833-.4289-.0634-.5705.0247-.2684.167-.4784.4168-.7853.6988-.1248-.4691-.1731-.8906-.3474-1.2596-.4983-1.0554-.9911-2.1195-1.5935-3.1232-.567-.9448-.9271-1.9497-1.2056-2.9805-.1876-.6943-.7203-1.1156-1.2364-1.496-.5139-.3788-1.0197-.7352-1.405-1.236-.0688-.0894-.229-.1207-.3516-.1683-.2111-.0821-.5191-.0993-.6195-.2453-.2109-.3067-.3101-.6806-.4617-1.0243-.135-.306-.3003-.5853-.6719-.6988-.0781-.0239-.1917-.1249-.1863-.1819.0385-.4096-.1508-.5795-.5785-.5582-.0762.0038-.1583-.0567-.2341-.0939-.4994-.245-.637-.7599-.946-1.1455-.2591-.3233-.4308-.7075-.6628-1.0519-.0528-.0783-.1846-.1305-.2883-.1321-.6738-.0107-1.1644-.4431-1.6358-.7657-.5978-.4091-1.0211-1.043-1.5227-1.5774-.2091-.2228-.4059-.6002-.6435-.6265-.602-.0666-.8404-.5236-1.243-.7983-.115-.0785-.2417-.1452-.371-.2011-.2088-.0901-.4773-.1174-.6262-.259-.3635-.3456-.7907-.3566-1.2601-.3829-.6295-.0353-1.2533-.1601-1.879-.2499-.0379-.0054-.0947-.0343-.1029-.0626-.1134-.3871-.4596-.4164-.7895-.4414-1.6238-.123-2.2281-.0845-3.2233,1.3312-.1503.2138-.3829.4438-.6282.5181-.6336.192-.8738.6098-.9599,1.1718-.0174.1134-.0354.2689-.1159.3246-.4865.3365-.4855.8269-.5,1.3113-.0088.2925.1269.647.0026.8687-.2009.3585-.4146.7133-.4908,1.1071-.191.9859-.5432,1.9382-.8177,2.9076-.1945.6866-.3371,1.3873-.5586,2.0657-.0831.2544-.3982.4428-.4779.6971-.214.6836-.7687,1.2357-.82,1.9843-.0144.2106-.1967.4153-.3211.6121-.036.0569-.1622.1254-.2069.1062-.5442-.2347-1.0368.0529-1.5505.1173-.422.0529-.9018-.008-1.2567.1632-.7218.3482-1.4847.4972-2.257.6537-.0792.016-.1644.1003-.2053.1734-.181.324-.3407.6584-.5195.9835-.2615.4755-.5308.9471-.802,1.4177-.0325.0564-.1019.093-.1473.1442-.464.522-.8818,1.0678-.9898,1.7658-.0539.3483-.0908.6995-.1614,1.0447-.0217.1062-.1222.2747-.1988.2809-.2825.0228-.5703-.0082-.8555-.0273-.0204-.0014-.0442-.0681-.0521-.1071-.1037-.5108-.2186-1.0201-.3018-1.5339-.0553-.3414-.1336-.6149-.5556-.729-.2325-.0629-.459-.2333-.6251-.4082-.3986-.4197-1.0212-.4303-1.4075.0108-.1256.1434-.25.2876-.3059.3519-.365-.0481-.6479-.0607-.9156-.1274-.2769-.069-.5345-.2047-.8097-.2829-.1278-.0363-.351-.0606-.4047.0034-.329.3917-.7436.1092-1.1166.2024-.0992-.3803-.2424-.7191-.2628-1.0644-.0225-.3802-.256-.4885-.5683-.5498-.1515-.0297-.3124-.017-.469-.0235.0259-.0302.0517-.0605.0776-.0907-.1924-.2082-.3628-.5656-.5817-.5942-.4785-.0625-.4145.3995-.5298.7098-.1625-.2562-.2837-.5175-.3975-.7817-.1371-.3184-.3964-.4907-.741-.3994-.3556.0942-.4264-.0173-.5103-.3183-.0608-.218-.2644-.496-.4712-.5621-.3684-.1176-.7874-.0949-1.1851-.1312-.0982-.009-.2233.0152-.286-.0394-.4234-.3683-1.0917-.3992-1.6867-.3623-.245.0152-.3546-.111-.4346-.3487-.1542-.458-.2947-.934-.8663-1.1162-.0556-.0177-.0984-.1281-.11-.2008-.0625-.3937-.3198-.6076-.701-.7397-.792-.2744-1.3773-.051-1.7928.6147-.1225.1963-.432.303-.6743.4154-.201.0933-.4997.0744-.6317.2109-.3485.3602-.6298.7778-.9435,1.1797-.0154-.0173-.0629-.067-.106-.1198-.4691-.5739-.5784-.5924-1.1712-.1303-.4904.3823-.966.7815-1.4444,1.1771-.0634.0524-.1079.1264-.1561.1936-.1154.1608-.2139.3343-.3439.4837-.4712.5411-1.1686.9007-1.4436,1.6004-.1762.4486-.4225.8252-1.0094.8564-.0668.0035-.1451.0921-.1889.1583-.3329.5035-.5008,1.1139-1.0924,1.4504-.0651.037-.0746.1675-.1007.2571-.0636.2188-.1217.439-.1815.6564-.4152-.0721-1.093-.3869-1.4178-.6395-.0659-.0512-.1292-.1051-.2014-.1492-.3601-.22-.7602-.3942-1.0884-.6501-.3651-.2847-.6254-.3333-.9895-.0397-.7111.5735-1.3461,1.189-1.1553,2.1943.0029.0152.0003.0307-.0083.0442-.1767.28-.2948.7198-.5479.8055-.5677.1922-1.2112.1744-1.8075.3071-.5255.117-1.0535.2754-1.5357.5003-.5964.2783-1.3346,1.3999-1.4619,1.4611-.404.1944-2.493,5.6174-3.8546,6.1446-.4068.1575-2.6679,4.3204-4.8951,5.4741-.8168.4231-1.3364-2.4507-2.2675-2.5951-.9388-.1456-4.843,6.4336-5.4586,10.2975,0,0,83.0309.0131,85.0178.0131.7913-2.238,2.0569-5.3648,4.0562-8.1885,4.3861-6.1947,9.9668-9.3267,13.0771-10.7658Z" style="fill:#223b55; stroke-width:0px;"></path>
        <path d="m107.6379,130.8883c.5384.3646.8517.5943,1.1813.7973,5.5371,3.7567,5.9831,7.8927,1.1932,15.5601-5.6557,7.0161-12.3105,12.9681-19.6231,18.1809-11.2296,7.6451-12.0622,18.2703-10.3448,23.1592.1379.3927.7109.3513.7786-.0594.5148-3.1211-1.4201-11.2781,10.9532-19.8971,7.3547-4.6095,14.2962-9.6424,19.4589-16.7639,2.3029-3.1766,4.2501-6.5479,4.6955-10.599.6205-5.643-2.7127-10.0163-8.2928-10.3779Z" style="fill:#b9e5fb; stroke-width:0px;"></path>
        <path d="m95.5222,206.2871c-.1487.1487-.446.4866-.8177.8177-5.6848-3.7074-9.9859-6.74-11.3688-14.1602-1.2027-6.4537.65-12.4424,4.9626-17.4941,5.446-6.3793,20.5492-15.2298,25.7365-21.1312,5.1873-5.9014,4.7818-13.5246,4.498-16.1603-1.0948-5.7985-4.1495-7.6908-7.7178-8.8802-4.264-1.3338-8.6981-3.0676-12.9871-4.3189-11.9527-3.4871-12.7532-14.4097-7.667-23.0463,3.6182-6.1439,9.3885-9.6106,14.9023-13.4179,5.0105-3.4598,10.4015-6.3605,15.4517-9.7664,3.344-2.2553,6.5254-4.7181,7.9507-8.9257,1.3833-4.0837.3283-6.3402-3.1919-9.0151-3.1719-2.4103-16.8255-11.7963-17.4593-12.2698v-.9124c5.0866,2.3684,16.3868,8.7811,21.3284,11.4231,3.7684,2.0148,5.3276,6.244,4.5299,10.4921-1.0656,5.9544-10.4126,12.6942-15.2345,15.7481-4.8659,3.0817-18.7607,10.2183-24.7079,20.5448-2.6492,6.0553.3514,11.5835,5.0146,13.5299,4.1766,1.5003,7.737,2.7955,11.8705,3.9893,8.6991,2.5124,14.2819,7.2578,14.1485,16.2717.7569,23.0318-16.7062,27.4111-29.1953,36.2779-7.3365,5.1592-11.0499,16.5186-4.9811,24.1398,2.4013,3.0156,2.2682,2.6595,4.9348,6.2643Z" style="fill:#0f7bbb; stroke-width:0px;"></path>
        <path d="m136.1708,64.09c2.1321,2.8588,2.1282,5.4799,1.5951,8.1423-2.2431,11.0369-25.7074,22.5528-38.2534,34.1243-.6486.5834-2.4268,2.8193-2.2139,4.9725.198,2.0017,1.7062,3.9812,2.0195,5.1458.0611.2271-.2354.3737-.3836.1912-.8997-1.1076-3.2253-3.1612-3.6769-5.2515-.4572-2.1165-.1757-7.7086,10.5543-15.1241,6.8591-4.738,13.8168-9.333,20.6385-14.124,2.1623-1.5186,4.1606-3.2614,5.9497-5.2058,3.991-4.3377,4.5314-6.4049,3.7707-12.8705Z" style="fill:#b9e5fb; stroke-width:0px;"></path>
      </g>
      <path d="m118.6624,112.0663h-3.2928c-.2534,0-.4377-.1977-.4377-.4173v-2.3921c0-.2196.1843-.417.4377-.417h10.2236c.2534,0,.4377.1974.4377.417v2.3921c0,.2196-.1843.4173-.4377.4173h-3.2928v11.72c0,.2191-.2072.4168-.4373.4168h-2.7636c-.2301,0-.4373-.1977-.4373-.4168v-11.72Z" style="fill:#0f7bbb; stroke-width:0px;"></path>
      <path d="m125.4794,123.6324l7.2076-14.7706c.0691-.1317.2301-.2415.3915-.2415h.2301c.1615,0,.3225.1098.3915.2415l7.2076,14.7706c.1381.2853-.0462.5706-.3915.5706h-2.5559c-.4144,0-.5987-.1315-.8059-.5487l-.8293-1.7338h-6.2631l-.8293,1.7557c-.1148.2634-.3682.5268-.8288.5268h-2.533c-.3453,0-.5297-.2853-.3915-.5706Zm9.4644-4.697l-1.75-3.6214h-.0233l-1.7271,3.6214h3.5004Z" style="fill:#0f7bbb; stroke-width:0px;"></path>
      <path d="m142.844,109.2569c0-.2196.1843-.417.4373-.417h6.8851c2.7636,0,5.0199,2.1289,5.0199,4.7405,0,2.0189-1.4047,3.6431-3.408,4.4114l3.1551,5.5748c.161.2853,0,.6364-.3915.6364h-3.0627c-.1843,0-.3225-.1096-.3687-.1977l-3.0622-5.8158h-1.589v5.5967c0,.2191-.2072.4168-.4377.4168h-2.7402c-.2529,0-.4373-.1977-.4373-.4168v-14.5293Zm7.0233,6.1452c.9441,0,1.75-.834,1.75-1.7559s-.8059-1.6681-1.75-1.6681h-3.408v3.424h3.408Z" style="fill:#0f7bbb; stroke-width:0px;"></path>
      <path d="m165.4357,108.6423c1.9343,0,4.0525.7683,5.6186,2.0632.2072.1539.2301.4168.0457.5925l-1.8191,1.8438c-.1843.1534-.4373.1534-.6216.0219-.875-.7683-1.8881-1.0536-3.0165-1.0536-2.5102,0-4.5364,2.0189-4.5364,4.4333,0,2.3921,2.0496,4.3673,4.5593,4.3673.6678,0,1.3589-.0876,2.0496-.351v-1.2727h-1.4509c-.2534,0-.4373-.1758-.4373-.3953v-2.173c0-.241.1839-.4168.4373-.4168h4.6284c.2305,0,.4144.1977.4144.4168l.0233,5.9039c0,.11-.0924.2853-.1843.3515,0,0-2.3716,1.4266-5.7106,1.4266-4.5826,0-8.2669-3.4681-8.2669-7.8573s3.6843-7.9011,8.2669-7.9011Z" style="fill:#0f7bbb; stroke-width:0px;"></path>
      <path d="m174.5338,109.2569c0-.2196.2072-.417.4373-.417h2.7402c.2534,0,.4377.1974.4377.417v5.5303h6.5855v-5.5303c0-.2196.1843-.417.4373-.417h2.7402c.2305,0,.4377.1974.4377.417v14.5293c0,.2191-.2072.4168-.4377.4168h-2.7402c-.2529,0-.4373-.1977-.4373-.4168v-5.7725h-6.5855v5.7725c0,.2191-.1843.4168-.4377.4168h-2.7402c-.2301,0-.4373-.1977-.4373-.4168v-14.5293Z" style="fill:#0f7bbb; stroke-width:0px;"></path>
      <path d="m192.3585,109.2569c0-.2196.1839-.417.4373-.417h9.533c.2534,0,.4377.1974.4377.417v2.3921c0,.2196-.1843.4173-.4377.4173h-6.3783v2.721h5.2504c.2301,0,.4373.1977.4373.4173v2.3921c0,.2415-.2072.4173-.4373.4173h-5.2504v2.9632h6.3783c.2534,0,.4377.1972.4377.4168v2.3925c0,.2191-.1843.4168-.4377.4168h-9.533c-.2534,0-.4373-.1977-.4373-.4168v-14.5293Z" style="fill:#0f7bbb; stroke-width:0px;"></path>
      <path d="m205.9002,109.2569c0-.2196.1839-.417.4373-.417h9.533c.2534,0,.4377.1974.4377.417v2.3921c0,.2196-.1843.4173-.4377.4173h-6.3783v2.721h5.2504c.2301,0,.4373.1977.4373.4173v2.3921c0,.2415-.2072.4173-.4373.4173h-5.2504v2.9632h6.3783c.2534,0,.4377.1972.4377.4168v2.3925c0,.2191-.1843.4168-.4377.4168h-9.533c-.2534,0-.4373-.1977-.4373-.4168v-14.5293Z" style="fill:#0f7bbb; stroke-width:0px;"></path>
      <path d="m137.4316,132.6734c0-.0976.091-.1853.2158-.1853h4.5488c.1253,0,.2162.0876.2162.1853v.5463c0,.0976-.091.1853-.2162.1853h-3.5933v2.2539h3.036c.1143,0,.2162.0881.2162.1858v.5363c0,.0976-.1019.1853-.2162.1853h-3.036v2.5664c0,.0976-.1024.1853-.2162.1853h-.7392c-.1248,0-.2158-.0876-.2158-.1853v-6.4593Z" style="fill:#0f7bbb; stroke-width:0px;"></path>
      <path d="m147.9406,132.3904c2.2739,0,4.0935,1.5709,4.0935,3.5224s-1.8195,3.5028-4.0935,3.5028-4.083-1.5514-4.083-3.5028,1.8081-3.5224,4.083-3.5224Zm0,6.0492c1.6261,0,2.9565-1.1317,2.9565-2.5269,0-1.3856-1.3304-2.5464-2.9565-2.5464-1.6152,0-2.9455,1.1608-2.9455,2.5464,0,1.3951,1.3304,2.5269,2.9455,2.5269Z" style="fill:#0f7bbb; stroke-width:0px;"></path>
      <path d="m154.1279,132.6734c0-.0976.1024-.1853.2162-.1853h.7616c.1253,0,.2162.0876.2162.1853v4.0296c0,.976.7278,1.7366,1.8876,1.7366,1.1713,0,1.9105-.7512,1.9105-1.7171v-4.0492c0-.0976.091-.1853.2162-.1853h.7616c.1138,0,.2162.0876.2162.1853v4.0982c0,1.4828-1.308,2.644-3.1046,2.644-1.7852,0-3.0818-1.1613-3.0818-2.644v-4.0982Z" style="fill:#0f7bbb; stroke-width:0px;"></path>
      <path d="m162.9874,132.5662c0-.0976.1024-.1758.2162-.1758h.2844l4.9351,4.898h.0114v-4.615c0-.0976.0915-.1853.2162-.1853h.7278c.1138,0,.2162.0876.2162.1853v6.5665c0,.0976-.1024.1758-.2162.1758h-.2953l-4.9356-5.0347h-.0114v4.7517c0,.0976-.091.1853-.2162.1853h-.7164c-.1138,0-.2162-.0876-.2162-.1853v-6.5665Z" style="fill:#0f7bbb; stroke-width:0px;"></path>
      <path d="m172.3708,132.6734c0-.0976.091-.1853.2048-.1853h2.6155c2.1949,0,3.9915,1.5318,3.9915,3.4052,0,1.8929-1.7967,3.4247-3.9915,3.4247h-2.6155c-.1138,0-.2048-.0876-.2048-.1853v-6.4593Zm2.6607,5.7177c1.6719,0,2.8889-1.0536,2.8889-2.4978,0-1.4342-1.217-2.4783-2.8889-2.4783h-1.5009v4.9761h1.5009Z" style="fill:#0f7bbb; stroke-width:0px;"></path>
      <path d="m180.2643,139.0641l3.4914-6.5665c.0343-.0581.1362-.1072.1934-.1072h.1134c.0572,0,.1591.0491.1934.1072l3.4685,6.5665c.0686.1272-.0229.2539-.1934.2539h-.7164c-.1362,0-.2162-.0586-.2615-.1462l-.7049-1.337h-3.7186c-.2277.4492-.4663.8879-.694,1.337-.0338.0681-.1253.1462-.2615.1462h-.7164c-.1705,0-.2615-.1267-.1934-.2539Zm5.1518-2.0682l-1.3989-2.6736h-.0567l-1.3875,2.6736h2.8431Z" style="fill:#0f7bbb; stroke-width:0px;"></path>
      <path d="m190.1022,133.405h-1.8538c-.1248,0-.2162-.0876-.2162-.1853v-.5463c0-.0976.0915-.1853.2162-.1853h4.8899c.1253,0,.2162.0876.2162.1853v.5463c0,.0976-.091.1853-.2162.1853h-1.8533v5.7277c0,.0976-.1024.1853-.2162.1853h-.7502c-.1138,0-.2162-.0876-.2162-.1853v-5.7277Z" style="fill:#0f7bbb; stroke-width:0px;"></path>
      <path d="m195.1521,132.6734c0-.0976.1024-.1853.2162-.1853h.7502c.1138,0,.2162.0876.2162.1853v6.4593c0,.0976-.1024.1853-.2162.1853h-.7502c-.1138,0-.2162-.0876-.2162-.1853v-6.4593Z" style="fill:#0f7bbb; stroke-width:0px;"></path>
      <path d="m202.6126,132.3904c2.2744,0,4.0939,1.5709,4.0939,3.5224s-1.8195,3.5028-4.0939,3.5028-4.0825-1.5514-4.0825-3.5028,1.8081-3.5224,4.0825-3.5224Zm0,6.0492c1.6261,0,2.9565-1.1317,2.9565-2.5269,0-1.3856-1.3304-2.5464-2.9565-2.5464-1.6152,0-2.9455,1.1608-2.9455,2.5464,0,1.3951,1.3304,2.5269,2.9455,2.5269Z" style="fill:#0f7bbb; stroke-width:0px;"></path>
      <path d="m208.9024,132.5662c0-.0976.1024-.1758.2162-.1758h.2839l4.9356,4.898h.0114v-4.615c0-.0976.091-.1853.2162-.1853h.7278c.1134,0,.2158.0876.2158.1853v6.5665c0,.0976-.1024.1758-.2158.1758h-.2958l-4.9356-5.0347h-.0114v4.7517c0,.0976-.091.1853-.2158.1853h-.7164c-.1138,0-.2162-.0876-.2162-.1853v-6.5665Z" style="fill:#0f7bbb; stroke-width:0px;"></path>
      <path d="m8.6069,108.4229c1.9341,0,4.0527.7683,5.6184,2.0632.2074.1536.2303.417.0462.5925l-1.8193,1.8436c-.1841.1536-.4375.1536-.6216.0219-.875-.7681-1.8884-1.0534-3.0165-1.0534-2.5099,0-4.5364,2.0191-4.5364,4.4331,0,2.3925,2.0496,4.3678,4.5593,4.3678.6678,0,1.3587-.0876,2.0496-.351v-1.2732h-1.4509c-.2532,0-.4375-.1753-.4375-.3949v-2.173c0-.2415.1843-.4168.4375-.4168h4.6284c.2303,0,.4146.1972.4146.4168l.0231,5.9039c0,.11-.0922.2853-.1843.351,0,0-2.3718,1.4266-5.7106,1.4266-4.5824,0-8.2667-3.4676-8.2667-7.8573s3.6843-7.9009,8.2667-7.9009Z" style="fill:#0f7bbb; stroke-width:0px;"></path>
      <path d="m17.6586,109.0376c0-.2196.1843-.417.4375-.417h6.8851c2.7631,0,5.0199,2.1289,5.0199,4.7405,0,2.0191-1.4047,3.6433-3.408,4.4116l3.1546,5.5743c.1612.2858,0,.6368-.3915.6368h-3.0625c-.1843,0-.3225-.11-.3684-.1977l-3.0627-5.8163h-1.5888v5.5967c0,.2196-.2072.4173-.4375.4173h-2.7402c-.2532,0-.4375-.1977-.4375-.4173v-14.5291Zm7.0233,6.145c.9441,0,1.75-.834,1.75-1.7555,0-.9219-.8059-1.6681-1.75-1.6681h-3.408v3.4235h3.408Z" style="fill:#0f7bbb; stroke-width:0px;"></path>
      <path d="m31.0162,123.4133l7.2074-14.7708c.0693-.1317.2303-.2415.3915-.2415h.2303c.1612,0,.3225.1098.3915.2415l7.2074,14.7708c.1381.2853-.046.5706-.3915.5706h-2.5559c-.4146,0-.5987-.1319-.8059-.5487l-.829-1.7338h-6.2633l-.829,1.7557c-.115.2634-.3684.5268-.8288.5268h-2.533c-.3453,0-.5297-.2853-.3915-.5706Zm9.4642-4.697l-1.75-3.6214h-.0231l-1.7271,3.6214h3.5002Z" style="fill:#0f7bbb; stroke-width:0px;"></path>
      <path d="m48.3112,108.7961c0-.2196.2074-.3951.4377-.3951h.5756l9.1877,8.4277h.0231v-7.7911c0-.2196.1841-.417.4375-.417h2.7631c.2303,0,.4375.1974.4375.417v14.7706c0,.2196-.2072.3953-.4375.3953h-.3684c-.0691,0-.2532-.0662-.2994-.11l-9.0955-8.7132h-.0231v8.1864c0,.2196-.1841.4173-.4375.4173h-2.7402c-.2303,0-.4375-.1977-.4375-.4173l-.0231-14.7706Z" style="fill:#0f7bbb; stroke-width:0px;"></path>
      <path d="m66.1364,109.0376c0-.2196.1843-.417.4144-.417h5.6186c4.4443,0,8.0826,3.4457,8.0826,7.6594,0,4.2578-3.6383,7.7039-8.0826,7.7039h-5.6186c-.2301,0-.4144-.1977-.4144-.4173v-14.5291Zm5.8027,11.6978c2.6021,0,4.4902-1.9534,4.4902-4.4555,0-2.4797-1.8881-4.4331-4.4902-4.4331h-2.2106v8.8885h2.2106Z" style="fill:#0f7bbb; stroke-width:0px;"></path>
      <path d="m.1038,138.3325c.1024-.1267.1934-.2729.2956-.4001.1024-.1267.2617-.1658.3868-.0781.0681.0491.9438.6735,1.8195.6735.7847,0,1.2851-.4101,1.2851-.9074,0-.5854-.5913-.9564-1.7171-1.3565-1.1601-.4192-2.0698-.9364-2.0698-2.0682,0-.7612.6823-1.8052,2.4904-1.8052,1.1372,0,1.99.5073,2.1039.5759.091.0486.182.1853.0681.3315-.091.1172-.1931.2539-.2841.3711-.091.1267-.2389.1853-.398.0972-.0798-.0391-.8757-.4877-1.5354-.4877-.9553,0-1.2849.5173-1.2849.8783,0,.5559.5001.8974,1.4442,1.2294,1.3192.4587,2.4449.995,2.4449,2.1853,0,1.015-1.0577,1.8443-2.5359,1.8443-1.3875,0-2.263-.6245-2.4449-.7707-.1024-.0781-.182-.1467-.0684-.3125Z" style="fill:#0f7bbb; stroke-width:0px;"></path>
      <path d="m6.7231,132.7224c0-.1272.1136-.2343.2729-.2343h.6595c.1479,0,.2729.1072.2729.2343v2.7026l3.207-2.8393c.0455-.0491.125-.0976.216-.0976h.8528c.2048,0,.3184.2048.1593.351l-3.2866,2.8689,3.4797,3.288c.091.0976.0343.322-.2046.322h-.9098c-.1136,0-.182-.0391-.2046-.0681l-3.3094-3.2004v3.0341c0,.1272-.125.2343-.2729.2343h-.6595c-.1593,0-.2729-.1072-.2729-.2343v-6.3612Z" style="fill:#0f7bbb; stroke-width:0px;"></path>
      <path d="m13.8998,132.6734c0-.0976.1022-.1853.216-.1853h.7507c.1136,0,.216.0876.216.1853v6.4593c0,.0976-.1024.1853-.216.1853h-.7507c-.1138,0-.216-.0876-.216-.1853v-6.4593Z" style="fill:#0f7bbb; stroke-width:0px;"></path>
      <path d="m21.1672,135.6494v-.0195l-.2617-.2439c-.4435-.4001-.7959-.8293-.7847-1.4147,0-.7416.6826-1.5809,2.0813-1.5809,1.2508,0,2.0355.7026,2.0355,1.5514,0,.9369-1.0917,1.5614-1.5352,1.8248l1.5921,1.3661c.2501-.4101.398-.9079.432-1.4051.0114-.2148.1024-.2734.3184-.2343l.4663.0781c.2615.0391.2048.2148.1934.3025-.091.7316-.4094,1.4342-.6938,1.8734l1.0577.8783c.1365.1167.2386.2243-.0229.4487l-.2956.2534c-.1365.1076-.3184.1272-.4889-.0291l-.8986-.7807c-.4094.4001-1.2282.8979-2.479.8979-1.433,0-2.2973-.8393-2.2973-1.8148,0-1.1708,1.1713-1.7467,1.5809-1.9515Zm.8074,2.9465c.8188,0,1.3761-.3706,1.7057-.7026l-1.8991-1.7171c-.3525.1853-1.1146.5954-1.1146,1.3661,0,.6144.5802,1.0536,1.308,1.0536Zm1.2508-4.615c0-.4196-.398-.8393-1.0803-.8393-.6368,0-1.0122.3806-1.0122.8393-.0114.3806.2729.6635.6597.995l.2501.2148c.3413-.1758,1.1827-.5559,1.1827-1.2098Z" style="fill:#0f7bbb; stroke-width:0px;"></path>
      <path d="m29.5039,138.3325c.1024-.1267.1934-.2729.2956-.4001.1024-.1267.2617-.1658.3868-.0781.0681.0491.9438.6735,1.8195.6735.7847,0,1.2851-.4101,1.2851-.9074,0-.5854-.5913-.9564-1.7171-1.3565-1.1601-.4192-2.0698-.9364-2.0698-2.0682,0-.7612.6823-1.8052,2.4904-1.8052,1.1372,0,1.99.5073,2.1039.5759.091.0486.182.1853.0681.3315-.091.1172-.1931.2539-.2841.3711-.091.1267-.2389.1853-.398.0972-.0798-.0391-.8757-.4877-1.5354-.4877-.9553,0-1.2849.5173-1.2849.8783,0,.5559.5001.8974,1.4442,1.2294,1.3192.4587,2.4449.995,2.4449,2.1853,0,1.015-1.0577,1.8443-2.5359,1.8443-1.3875,0-2.263-.6245-2.4449-.7707-.1024-.0781-.182-.1467-.0684-.3125Z" style="fill:#0f7bbb; stroke-width:0px;"></path>
      <path d="m36.1232,132.5662c0-.0976.1022-.1758.216-.1758h.2844l4.9353,4.898h.0114v-4.615c0-.0976.091-.1853.216-.1853h.7278c.1138,0,.2162.0876.2162.1853v6.5665c0,.0976-.1024.1758-.2162.1758h-.2956l-4.9356-5.0347h-.0112v4.7517c0,.0976-.091.1853-.2162.1853h-.7164c-.1138,0-.216-.0876-.216-.1853v-6.5665Z" style="fill:#0f7bbb; stroke-width:0px;"></path>
      <path d="m48.4403,132.3904c2.2744,0,4.0939,1.5709,4.0939,3.5224s-1.8195,3.5028-4.0939,3.5028-4.0827-1.5514-4.0827-3.5028,1.8083-3.5224,4.0827-3.5224Zm0,6.0492c1.6261,0,2.9567-1.1317,2.9567-2.5269,0-1.3856-1.3306-2.5464-2.9567-2.5464-1.6149,0-2.9453,1.1608-2.9453,2.5464,0,1.3951,1.3304,2.5269,2.9453,2.5269Z" style="fill:#0f7bbb; stroke-width:0px;"></path>
      <path d="m53.3883,132.7224c-.0455-.1367.0455-.2343.2046-.2343h.7621c.091,0,.182.0681.2046.1367l1.3761,4.4783h.0455l1.8536-4.6055c.0226-.0581.1024-.1072.1934-.1072h.2046c.091,0,.1705.0491.1934.1072l1.8764,4.6055h.0455l1.3532-4.4783c.0229-.0686.1138-.1367.2048-.1367h.7619c.1591,0,.2501.0976.2046.2343l-2.1491,6.5565c-.0229.0781-.1138.1367-.2048.1367h-.182c-.0795,0-.1705-.0491-.1934-.1072l-2.0015-4.8494h-.0567l-1.9674,4.8494c-.0229.0581-.1138.1072-.1934.1072h-.182c-.091,0-.182-.0586-.2046-.1367l-2.1494-6.5565Z" style="fill:#0f7bbb; stroke-width:0px;"></path>
      <path d="m64.3183,132.6734c0-.0976.091-.1853.216-.1853h2.5473c1.3761,0,2.3654.7807,2.3654,1.8052,0,.7512-.6483,1.2875-1.1827,1.5514.6028.2143,1.4216.6926,1.4216,1.5904,0,1.0927-1.0462,1.8829-2.4792,1.8829h-2.6724c-.125,0-.216-.0876-.216-.1853v-6.4593Zm2.8772,5.7468c.6935,0,1.2279-.4582,1.2279-1.0631,0-.5954-.6595-1.0246-1.3987-1.0246h-1.5578v2.0877h1.7286Zm-.182-2.966c.7278,0,1.1713-.4587,1.1713-1.0441,0-.5949-.4435-1.005-1.1713-1.005h-1.5354v2.0491h1.5354Z" style="fill:#0f7bbb; stroke-width:0px;"></path>
      <path d="m74.8951,132.3904c2.2744,0,4.0939,1.5709,4.0939,3.5224s-1.8195,3.5028-4.0939,3.5028-4.0825-1.5514-4.0825-3.5028,1.8081-3.5224,4.0825-3.5224Zm0,6.0492c1.6261,0,2.9567-1.1317,2.9567-2.5269,0-1.3856-1.3306-2.5464-2.9567-2.5464-1.6149,0-2.9455,1.1608-2.9455,2.5464,0,1.3951,1.3306,2.5269,2.9455,2.5269Z" style="fill:#0f7bbb; stroke-width:0px;"></path>
      <path d="m79.5018,139.0641l3.4912-6.5665c.0343-.0581.1367-.1072.1934-.1072h.1138c.0567,0,.1591.0491.1934.1072l3.4683,6.5665c.0684.1272-.0226.2539-.1931.2539h-.7166c-.1365,0-.216-.0586-.2615-.1462l-.7052-1.337h-3.7186c-.2274.4492-.4663.8879-.6935,1.337-.0343.0681-.1253.1462-.2617.1462h-.7164c-.1705,0-.2615-.1267-.1934-.2539Zm5.1516-2.0682l-1.3987-2.6736h-.0569l-1.3875,2.6736h2.8431Z" style="fill:#0f7bbb; stroke-width:0px;"></path>
      <path d="m88.1,132.6734c0-.0976.091-.1853.216-.1853h3.0932c1.3646,0,2.479.9269,2.479,2.0882,0,.8974-.6935,1.639-1.6828,1.9805l1.5578,2.4783c.0798.1267,0,.2829-.1931.2829h-.8871c-.091,0-.1593-.0486-.182-.0876l-1.5125-2.5859h-1.7171v2.4883c0,.0976-.1024.1853-.216.1853h-.7392c-.125,0-.216-.0876-.216-.1853v-6.4593Zm3.2182,3.1323c.7392,0,1.3873-.5368,1.3873-1.2098,0-.6345-.648-1.1613-1.3873-1.1613h-2.0241v2.3711h2.0241Z" style="fill:#0f7bbb; stroke-width:0px;"></path>
      <path d="m95.6635,132.6734c0-.0976.091-.1853.2046-.1853h2.6157c2.1949,0,3.9915,1.5318,3.9915,3.4052,0,1.8929-1.7967,3.4247-3.9915,3.4247h-2.6157c-.1136,0-.2046-.0876-.2046-.1853v-6.4593Zm2.6609,5.7177c1.6716,0,2.8886-1.0536,2.8886-2.4978,0-1.4342-1.217-2.4783-2.8886-2.4783h-1.5011v4.9761h1.5011Z" style="fill:#0f7bbb; stroke-width:0px;"></path>
    </g>
  </g>
</svg>
