<?xml version="1.0" encoding="UTF-8"?>
<svg xmlns="http://www.w3.org/2000/svg" id="Layer_2" viewBox="0 0 242.0642 39.3854">
  <g id="Components">
    <g id="c6b78795-348c-469e-b1e9-144c4e0ba161_1">
      <g id="Community_Foundation">
        <path d="M75.4949,18.7827c-.7376,0-1.3832-.1146-1.9364-.3431-.5536-.2277-1.0101-.5419-1.3703-.9419-.3602-.3992-.63-.8694-.8101-1.4089-.1801-.5403-.2702-1.122-.2702-1.7458,0-.5185.0877-1.0409.2635-1.568s.4522-1.0035.83-1.4292c.3774-.4257.8608-.7727,1.4491-1.0409.5883-.2674,1.2912-.4015,2.1079-.4015.4479,0,.867.0304,1.2581.092.3906.0616.8144.1536,1.2713.2768.0175.237.0526.5403.1053.9091s.1275.729.2242,1.0799c-.0441.0094-.1014.0203-.1715.0327-.0702.0133-.1228.0203-.1579.0203-.0706,0-.1298-.0109-.1778-.0327-.0483-.0218-.0815-.0686-.099-.1388-.0967-.2901-.2062-.5333-.329-.7314-.1232-.1973-.2702-.3555-.4417-.4741-.1711-.1185-.3711-.2043-.5992-.2565-.2285-.053-.4963-.0795-.8035-.0795-.4745,0-.8939.0819-1.2584.244s-.6698.3953-.9154.6978c-.246.3033-.4327.6682-.5598,1.0939-.1275.4257-.191.9068-.191,1.4425,0,.5707.0768,1.1025.2304,1.5937.1536.492.3645.9177.6323,1.2779s.5863.6417.9551.8436c.3688.2019.7684.3025,1.1988.3025.3513,0,.6522-.0327.9025-.099.2503-.0655.4655-.1661.6456-.3025.1797-.1364.3337-.3095.4608-.5208.1275-.2105.244-.4561.3493-.7376.0265-.0702.0678-.1201.1251-.1513.0569-.0304.1162-.046.1778-.046.0441,0,.099.0062.1649.0195s.1205.0288.1645.046c-.0526.1497-.1076.3189-.1645.5076-.0573.1887-.1166.3821-.1782.5793-.0616.198-.1162.3953-.1645.5934-.0483.1973-.0901.3883-.1251.5731-.4304.0788-.8694.1357-1.3173.1708s-.9399.053-1.4756.053Z" style="fill:#005281; stroke-width:0px;"></path>
        <path d="M79.5521,14.3431c0-.6152.1162-1.1898.3493-1.7263.2324-.5357.5509-1.005.9551-1.4089.4035-.4039.876-.7228,1.4159-.9551.5403-.2331,1.1177-.3493,1.7325-.3493.6323,0,1.2206.1099,1.7653.329.5446.2199,1.0163.5271,1.4163.9224.3992.3953.7134.8655.9419,1.4097.2281.5442.3423,1.1376.3423,1.7785,0,.6144-.1166,1.1922-.3489,1.7325-.2327.5396-.5513,1.0097-.9551,1.4089-.4043.4-.8783.7166-1.423.9489-.5446.2324-1.1243.3493-1.7387.3493-.6323,0-1.221-.1099-1.7653-.3298-.5446-.2191-1.0144-.5263-1.4097-.9216s-.7072-.8631-.9353-1.4035c-.2285-.5403-.3427-1.1345-.3427-1.7848ZM84.2027,18.0974c.3688,0,.7025-.0811,1.0011-.2433.2986-.163.5552-.3844.7707-.6659.2148-.2807.3821-.6097.5006-.9879.1185-.3774.1778-.7813.1778-1.2117,0-.6238-.0593-1.2031-.1778-1.7395-.1185-.5349-.2986-.9988-.5403-1.3894s-.5446-.6986-.9087-.9224c-.3645-.2238-.7887-.3361-1.2713-.3361-.3076,0-.6062.0686-.8959.2043-.2897.1364-.5446.3337-.7641.5934-.2195.2589-.3953.5731-.5271.9419-.1318.3688-.1977.7859-.1977,1.2514,0,.6495.0639,1.2514.191,1.8042.1275.5536.3119,1.03.5536,1.43.2413.3992.5376.7111.8893.9349.3509.2246.7509.3361,1.1988.3361Z" style="fill:#005281; stroke-width:0px;"></path>
        <path d="M97.6398,10.312c.0351-.0795.092-.1403.1711-.1848.0791-.0437.2721-.0655.5797-.0655.0702,0,.1735-.0023.3095-.007.1361-.0039.2834-.0086.4413-.0133.1583-.0039.3162-.0109.4745-.0195.1579-.0086.2939-.0179.4082-.0265.0175.0444.0265.0881.0265.1318v.1053c0,.1411-.0483.2238-.145.2503-.1758.0265-.3142.053-.4148.0795-.1014.0257-.1778.0593-.2308.0982-.0526.0398-.0877.0858-.1053.1388-.0175.0522-.0265.1138-.0265.184,0,.0179.0066.1848.0199.5006.0133.3166.0331.7072.0593,1.1727.0265.4655.0526.9707.0791,1.515.0265.545.0526,1.0604.0791,1.5477.0261.4881.048.9115.0659,1.2717.0175.3602.0304.5793.0394.6589,0,.0873.0109.1598.0327.2168.0218.0577.0616.1084.1189.152.0569.0437.138.0811.2437.1115.1053.0312.2413.0593.4082.0858.0967.0179.145.1014.145.2503,0,.0616-.009.1364-.0265.2238-.3072-.0172-.586-.0327-.8362-.046s-.5337-.0195-.8499-.0195c-.2897,0-.5992.0062-.9286.0195s-.6039.0288-.8234.046c-.0179-.0873-.0265-.1622-.0265-.2238,0-.0967.0152-.1622.046-.1973s.0593-.053.0858-.053c.3602-.0608.593-.1333.6982-.2175.1053-.0826.1583-.2129.1583-.3883,0-.0265-.0066-.1669-.0199-.4218-.0133-.2542-.0265-.5707-.0398-.9481-.0129-.3774-.0308-.7859-.0526-1.2257-.0218-.439-.0441-.8514-.0659-1.2382-.0218-.386-.0394-.7197-.0526-1.0011-.0133-.2807-.0242-.4522-.0327-.5138l-2.7009,6.2844c-.0441.0788-.0811.138-.1119.1778-.0308.039-.0725.0593-.1251.0593h-.0791c-.0351,0-.0616-.0047-.0788-.0133l-3.0565-7.3246c-.009.1138-.0199.3446-.0331.6916-.0129.347-.0308.7438-.0526,1.1922-.0218.4476-.0441.9201-.0659,1.4159-.0218.4967-.0417.9551-.0593,1.377-.0175.421-.0327.775-.046,1.0604s-.0199.4413-.0199.4678c0,.0788.0086.1466.0265.2043.0175.0569.0526.1076.1053.1513s.1318.0811.237.1123c.1057.0304.2503.0632.4351.0982.0963.0179.1446.1014.1446.2503,0,.0265-.0023.0593-.0066.099s-.0109.0811-.0195.1248c-.2374-.0172-.4569-.0327-.6589-.046s-.4039-.0195-.6058-.0195c-.1758,0-.3953.0062-.6589.0195s-.5006.0288-.7115.046c-.0175-.0351-.0261-.0741-.0261-.1185v-.1053c0-.0967.0129-.1598.0394-.191.0265-.0304.0612-.0499.1053-.0593.2721-.0608.4698-.1318.593-.2105.1228-.0788.193-.198.2109-.3555,0-.0702.0086-.2838.0261-.6394s.0398-.7774.0659-1.2647c.0265-.4873.0526-1.005.0791-1.5547.0265-.5481.0503-1.0581.0725-1.5274.0218-.4702.0394-.8631.0526-1.1797.0133-.3158.0199-.4826.0199-.5006,0-.1489-.0483-.2565-.145-.3228-.0967-.0655-.3076-.1248-.6323-.1778-.0967-.0086-.145-.092-.145-.2503v-.1053c0-.0437.0086-.0873.0265-.1318.1138.0086.2721.0179.4741.0265s.4086.0156.6195.0195c.2105.0047.4082.0094.5926.0133.1844.0047.3162.007.3953.007.1579,0,.2811.0062.3688.0195s.1583.0288.2109.046c.0526.0179.0901.0444.1119.0788.0218.0359.0417.071.0593.106l2.4502,5.9149,2.5033-5.9149Z" style="fill:#005281; stroke-width:0px;"></path>
        <path d="M109.6278,10.312c.0351-.0795.092-.1403.1711-.1848.0791-.0437.2721-.0655.5797-.0655.0702,0,.1735-.0023.3095-.007.1361-.0039.2834-.0086.4413-.0133.1583-.0039.3162-.0109.4745-.0195.1579-.0086.2939-.0179.4082-.0265.0175.0444.0265.0881.0265.1318v.1053c0,.1411-.0483.2238-.145.2503-.1758.0265-.3142.053-.4148.0795-.1014.0257-.1778.0593-.2308.0982-.0526.0398-.0877.0858-.1053.1388-.0175.0522-.0265.1138-.0265.184,0,.0179.0066.1848.0199.5006.0133.3166.0331.7072.0593,1.1727.0265.4655.0526.9707.0791,1.515.0265.545.0526,1.0604.0791,1.5477.0261.4881.048.9115.0659,1.2717.0175.3602.0304.5793.0394.6589,0,.0873.0109.1598.0327.2168.0218.0577.0616.1084.1189.152.0569.0437.138.0811.2437.1115.1053.0312.2413.0593.4082.0858.0967.0179.145.1014.145.2503,0,.0616-.009.1364-.0265.2238-.3072-.0172-.586-.0327-.8362-.046s-.5337-.0195-.8499-.0195c-.2897,0-.5992.0062-.9286.0195s-.6039.0288-.8234.046c-.0179-.0873-.0265-.1622-.0265-.2238,0-.0967.0152-.1622.046-.1973s.0593-.053.0858-.053c.3602-.0608.593-.1333.6982-.2175.1053-.0826.1583-.2129.1583-.3883,0-.0265-.0066-.1669-.0199-.4218-.0133-.2542-.0265-.5707-.0398-.9481-.0129-.3774-.0308-.7859-.0526-1.2257-.0218-.439-.0441-.8514-.0659-1.2382-.0218-.386-.0394-.7197-.0526-1.0011-.0133-.2807-.0242-.4522-.0327-.5138l-2.7009,6.2844c-.0441.0788-.0811.138-.1119.1778-.0308.039-.0725.0593-.1251.0593h-.0791c-.0351,0-.0616-.0047-.0788-.0133l-3.0565-7.3246c-.009.1138-.0199.3446-.0331.6916-.0129.347-.0308.7438-.0526,1.1922-.0218.4476-.0441.9201-.0659,1.4159-.0218.4967-.0417.9551-.0593,1.377-.0175.421-.0327.775-.046,1.0604s-.0199.4413-.0199.4678c0,.0788.0086.1466.0265.2043.0175.0569.0526.1076.1053.1513s.1318.0811.237.1123c.1057.0304.2503.0632.4351.0982.0963.0179.1446.1014.1446.2503,0,.0265-.0023.0593-.0066.099s-.0109.0811-.0195.1248c-.2374-.0172-.4569-.0327-.6589-.046s-.4039-.0195-.6058-.0195c-.1758,0-.3953.0062-.6589.0195s-.5006.0288-.7115.046c-.0175-.0351-.0261-.0741-.0261-.1185v-.1053c0-.0967.0129-.1598.0394-.191.0265-.0304.0612-.0499.1053-.0593.2721-.0608.4698-.1318.593-.2105.1228-.0788.193-.198.2109-.3555,0-.0702.0086-.2838.0261-.6394s.0398-.7774.0659-1.2647c.0265-.4873.0526-1.005.0791-1.5547.0265-.5481.0503-1.0581.0725-1.5274.0218-.4702.0394-.8631.0526-1.1797.0133-.3158.0199-.4826.0199-.5006,0-.1489-.0483-.2565-.145-.3228-.0967-.0655-.3076-.1248-.6323-.1778-.0967-.0086-.145-.092-.145-.2503v-.1053c0-.0437.0086-.0873.0265-.1318.1138.0086.2721.0179.4741.0265s.4086.0156.6195.0195c.2105.0047.4082.0094.5926.0133.1844.0047.3162.007.3953.007.1579,0,.2811.0062.3688.0195s.1583.0288.2109.046c.0526.0179.0901.0444.1119.0788.0218.0359.0417.071.0593.106l2.4502,5.9149,2.5033-5.9149Z" style="fill:#005281; stroke-width:0px;"></path>
        <path d="M121.4181,15.3707c0,.5006-.0526.959-.1579,1.3762-.1057.4171-.2881.7774-.547,1.0807-.2593.3025-.6058.538-1.0405.7049-.4351.1669-.9817.2503-1.6401.2503-.782,0-1.4121-.0881-1.8908-.2635s-.8475-.4148-1.1064-.7181c-.2593-.3033-.4327-.6589-.5205-1.0674-.0877-.4078-.1318-.8452-.1318-1.3107v-4.3734c0-.1848-.0573-.3142-.1711-.3891-.1142-.0741-.347-.1333-.6982-.1778-.0967-.0172-.145-.1006-.145-.2503v-.1053c0-.0437.0086-.0873.0265-.1318.2546.0179.5247.0327.8101.046s.6257.0203,1.021.0203c.3072,0,.6277-.007.9618-.0203.3337-.0133.6323-.0281.8955-.046.009.0444.0156.0881.0199.1318.0043.0444.0066.0788.0066.1053,0,.1497-.0483.2331-.145.2503-.3602.0444-.6039.1053-.731.1848-.1275.0788-.191.2066-.191.3821v4.0841c0,.913.1688,1.607.5072,2.081.338.4741.9201.7119,1.7454.7119.8433,0,1.4428-.2222,1.7984-.6659.3555-.4429.5337-1.1657.5337-2.1668v-4.0443c0-.1754-.0616-.3033-.1848-.3821-.1228-.0795-.3555-.1403-.6982-.1848-.1053-.0265-.1579-.1092-.1579-.2503,0-.0265.0019-.0608.0066-.1053.0043-.0437.0109-.0873.0199-.1318.2546.0265.4893.0444.7045.053s.446.0133.6916.0133c.2811,0,.5314-.0047.7512-.0133.2191-.0086.4347-.0265.6452-.053.009.0444.0156.0881.0199.1318.0043.0444.0066.0788.0066.1053,0,.1411-.0526.2238-.1579.2503-.3251.0351-.5493.0943-.6721.1778-.1232.0842-.1844.2136-.1844.3891v4.3211Z" style="fill:#005281; stroke-width:0px;"></path>
        <path d="M130.2974,15.7528v-4.6767c0-.1934-.0659-.3298-.1977-.4086-.1318-.0795-.3645-.1403-.6982-.1848-.1142-.0265-.1711-.1092-.1711-.2503v-.1053c0-.0437.0086-.0873.0261-.1318.2195.0265.4347.0444.6456.053s.4565.0133.7376.0133.5224-.0047.7247-.0133c.2019-.0086.4039-.0265.6058-.053.0086.0444.0152.0881.0199.1318.0043.0444.0066.0788.0066.1053,0,.1497-.0526.2331-.1583.2503-.2897.0444-.4873.1053-.5926.1848-.1057.0788-.1583.2066-.1583.3821v7.7066c-.0351.0086-.0943.0148-.1778.0195s-.1384.007-.1645.007c-.0616,0-.1275-.0156-.1977-.046-.0706-.0312-.145-.0951-.2242-.191l-5.1905-6.587v5.6911c0,.0873.0066.1598.0199.2168.0133.0577.048.106.1053.145.0573.0398.1403.0749.2503.106.1099.0304.2569.0632.4413.0982.0441.0094.0811.0288.1123.0593.0304.0312.046.0943.046.191,0,.0616-.009.1364-.0265.2238-.2195-.0172-.4261-.0327-.6191-.046-.1934-.0133-.4171-.0195-.6717-.0195-.255,0-.4986.0062-.7314.0195s-.4456.0288-.639.046c-.0175-.0351-.0261-.0741-.0261-.1185v-.1053c0-.0873.0152-.1489.046-.184s.0678-.0569.1119-.0663c.3162-.0522.5271-.1185.6323-.1973.1057-.0795.1583-.2019.1583-.3688v-6.6665c0-.1403-.0464-.2479-.1384-.3228-.0924-.0741-.301-.1333-.6257-.1778-.1057-.0265-.1583-.1092-.1583-.2503v-.0593c0-.0218.0043-.046.0133-.0725l.0133-.1053c.1228.0086.2413.0156.3555.0195.1142.0047.2285.0117.3427.0203.193.0086.3887.0156.5863.0195.1973.0047.3575.007.4807.007.2546,0,.4214.0109.5006.0327s.1493.0639.2109.1248l4.3738,5.5336Z" style="fill:#005281; stroke-width:0px;"></path>
        <path d="M135.6193,17.6498c0,.0873.0066.1598.0199.2168.0133.0577.0483.1084.1057.152.0569.0437.1403.0811.2503.1115.1095.0312.2569.0593.4413.0858.0877.0179.1318.092.1318.2238,0,.0265-.0023.0663-.0066.1193-.0047.0522-.0113.0959-.0199.131-.2811-.0172-.5821-.0327-.9025-.046s-.6039-.0195-.8495-.0195c-.255,0-.5403.0062-.8565.0195s-.6148.0288-.8959.046c-.0175-.0351-.0261-.0788-.0261-.131v-.1193c0-.1403.0437-.2144.1318-.2238.1844-.0265.3314-.0546.4413-.0858.1095-.0304.191-.0678.2437-.1115s.0877-.0943.1053-.152c.0175-.0569.0265-.1294.0265-.2168v-6.6002c0-.0881-.009-.1606-.0265-.2175s-.0526-.1076-.1053-.1513c-.0526-.0444-.1341-.0811-.2437-.1123-.1099-.0304-.2569-.0593-.4413-.0858-.0881-.0265-.1318-.1006-.1318-.2238v-.1185c0-.053.0086-.1006.0261-.145.2811.0179.5797.0327.8959.046s.6015.0203.8565.0203c.2456,0,.529-.007.8495-.0203s.6214-.0281.9025-.046c.0086.0444.0152.092.0199.145.0043.053.0066.092.0066.1185,0,.1232-.0441.1973-.1318.2238-.1844.0265-.3318.0554-.4413.0858-.1099.0312-.1934.0678-.2503.1123-.0573.0437-.0924.0943-.1057.1513s-.0199.1294-.0199.2175v6.6002Z" style="fill:#005281; stroke-width:0px;"></path>
        <path d="M142.312,10.7198v6.93c0,.0873.0066.1598.0195.2168.0133.0577.0464.1084.099.152s.1271.0811.2238.1115c.0967.0312.2327.0593.4086.0858.1318.0265.1977.1014.1977.2238,0,.0265-.0023.0663-.0066.1193-.0047.0522-.0113.0959-.0199.131-.2811-.0172-.5821-.0327-.9025-.046s-.6039-.0195-.8495-.0195c-.255,0-.538.0062-.8499.0195s-.6082.0288-.8893.046c-.0175-.0351-.0285-.0788-.0327-.131-.0047-.053-.0066-.0928-.0066-.1193,0-.0608.0109-.1115.0327-.1513s.0811-.0678.1778-.0858c.3251-.0437.529-.1029.6128-.1778.0834-.0741.1251-.1996.1251-.375v-6.93h-1.1594c-.246,0-.4546.025-.6257.0725-.1711.0483-.3208.1232-.4479.2246-.1275.1006-.2417.2324-.3423.3945-.1014.163-.2043.3587-.3099.5863-.0351.0795-.101.1185-.1973.1185-.053,0-.1146-.0109-.1848-.0327s-.1228-.0413-.1579-.0593c.0612-.2105.1138-.3969.1579-.5598.0441-.1622.0791-.3228.1057-.4811.0351-.2019.0612-.3821.0791-.5396.0172-.1583.0394-.2721.0655-.3431.0351-.0788.1057-.1185.2109-.1185.0967,0,.2877.0133.5731.0398.2854.0265.63.0398,1.0343.0398h4.0576c.3949,0,.7353-.0133,1.021-.0398.285-.0265.4807-.0398.586-.0398.0967,0,.1669.0398.2109.1185.0265.071.046.1848.0593.3431.0133.1575.0417.3376.0858.5396.0261.1583.0593.3189.0986.4811.0398.163.0943.3493.1649.5598-.0441.0179-.099.0374-.1649.0593s-.1251.0327-.1778.0327c-.0967,0-.1669-.039-.2109-.1185-.1053-.2277-.2086-.4234-.3095-.5863-.101-.1622-.2152-.2939-.3423-.3945-.1275-.1014-.2768-.1762-.4479-.2246-.1715-.0476-.3754-.0725-.6128-.0725h-1.159Z" style="fill:#005281; stroke-width:0px;"></path>
        <path d="M149.0962,15.0144l-2.0947-3.9913c-.0967-.1848-.2171-.3119-.3622-.3821s-.3318-.1232-.5598-.1583c-.1057-.0086-.1583-.0967-.1583-.2635v-.0593c0-.0218.0043-.046.0133-.0725l.0133-.092c.193.0179.4413.0327.7442.046s.6343.0203.9945.0203c.1232,0,.2702-.0023.4413-.007.1715-.0039.3446-.0086.5205-.0133.1754-.0039.3403-.0109.4939-.0195s.2787-.0179.3754-.0265c.0175.0788.0265.1341.0265.1645v.0725c0,.1497-.0526.2331-.1583.2503-.2285.0265-.3863.0639-.4741.1123-.0881.0483-.1318.1123-.1318.191,0,.0702.0308.1622.0924.2768l1.5411,3.0565,1.515-2.8459c.0967-.1669.145-.3072.145-.4218,0-.1053-.0483-.1817-.145-.23s-.2635-.0943-.5006-.1388c-.1142-.0172-.1711-.1006-.1711-.2503,0-.0351.0133-.1138.0394-.237.1844.0179.4152.0327.6916.046.2768.0133.5205.0203.7314.0203.2019,0,.4148-.0047.639-.0133.2238-.0086.4499-.0265.6783-.053.0175.0616.0265.1123.0265.1513v.0858c0,.1583-.053.2417-.1583.2503-.3162.0444-.5357.1014-.6585.1715-.1232.0702-.2288.1801-.3162.329l-2.1738,4.0054v2.6214c0,.0967.0133.1754.0394.237.0265.0616.0745.1146.145.1583.0702.0437.1645.0811.283.1123.1189.0304.2745.0593.4678.085.0441.0094.0811.0288.1119.0593.0308.0312.0464.0951.0464.191,0,.0179-.0023.0374-.0066.0593-.0047.0226-.0066.0468-.0066.0725l-.0133.0928c-.1407,0-.2725-.0023-.3953-.007-.1232-.0047-.246-.0109-.3688-.0195-.2109-.0179-.4281-.0288-.6522-.0327-.2238-.0047-.4105-.007-.5598-.007-.1579,0-.3403.0023-.5466.007-.2066.0039-.4062.0148-.5996.0327-.1142.0086-.2261.0148-.3357.0195-.1099.0047-.2222.007-.3361.007l-.0133-.0928c-.009-.0257-.0133-.0499-.0133-.0725v-.0593c0-.0959.0152-.1598.0464-.191.0304-.0304.0678-.0499.1119-.0593.1844-.0351.338-.0678.4612-.0982.1228-.0312.2191-.0663.2897-.106.0702-.039.1185-.0897.145-.1513.0261-.0616.0394-.1403.0394-.237v-2.5956Z" style="fill:#005281; stroke-width:0px;"></path>
        <path d="M158.4761,11.0496c0-.0795-.0113-.1474-.0331-.2043s-.0678-.1076-.138-.1513c-.0706-.0444-.1672-.0811-.2901-.1123-.1232-.0304-.2811-.0639-.4741-.099-.0881-.0265-.1318-.1053-.1318-.237v-.1248c0-.0398.0086-.0811.0261-.1255.3778.0265.7115.0444,1.0011.053.2901.0086.5357.0133.738.0133h2.7005c.4039,0,.7489-.0133,1.0343-.0398.2854-.0265.4764-.0398.5731-.0398.0963,0,.1665.0398.2105.1185.0265.071.0483.2004.0659.3891s.0483.3844.0924.5863c.0265.1489.0569.2939.0924.4343.0347.1403.0873.3119.1579.5138-.0351.0179-.0815.0351-.1384.053-.0573.0172-.1119.0257-.1645.0257-.0967,0-.1626-.039-.1977-.1185-.1053-.2277-.2086-.4234-.3095-.5856-.101-.163-.2152-.2947-.3427-.3953-.1275-.1014-.2764-.1739-.4479-.2175-.1711-.0437-.3797-.0663-.6257-.0663h-1.7387v3.3332h1.8179c.1493,0,.2569-.0725.3228-.2175s.1205-.3618.1645-.6518c.0265-.1138.1099-.1715.2503-.1715.0265,0,.0682.0023.1251.007.0573.0047.099.0109.1251.0195-.0175.2019-.0327.4374-.046.7049-.0133.2682-.0199.4943-.0199.6783,0,.1583.0043.3446.0133.5598.0086.2152.0265.4592.0526.7314-.0261.0179-.0659.0288-.1185.0327-.0526.0047-.092.007-.1185.007-.1493,0-.237-.0616-.2635-.1848-.0351-.2807-.0877-.4936-.1579-.6386-.0706-.145-.1801-.2175-.3294-.2175h-1.8179v2.9512c0,.0873.0304.1598.092.2168.0616.0577.145.106.2503.145.1057.0398.2285.071.3688.0928s.2901.046.4479.0717c.1057.0094.1583.0842.1583.2246,0,.0257-.0023.0702-.0066.1318-.0047.0616-.0113.1092-.0199.1442-.1232,0-.246-.0016-.3688-.0062-.1232-.0047-.246-.0109-.3688-.0195-.2285-.0179-.4721-.0288-.7314-.0335-.2589-.0039-.5158-.0062-.7704-.0062-.1232,0-.2569.0023-.4019.0062-.145.0047-.2963.0109-.4546.0203-.1579.0086-.3142.0148-.4674.0195-.154.0047-.2967.0109-.4284.0195-.0175-.0351-.0261-.0811-.0261-.138v-.1248c0-.1318.0437-.2019.1318-.2113.2897-.0702.5181-.138.685-.2043.1665-.0655.2503-.1864.2503-.3618v-6.6002Z" style="fill:#005281; stroke-width:0px;"></path>
        <path d="M164.5363,14.3431c0-.6152.1162-1.1898.3493-1.7263.2324-.5357.5509-1.005.9551-1.4089.4035-.4039.876-.7228,1.4159-.9551.5403-.2331,1.1177-.3493,1.7325-.3493.6323,0,1.2206.1099,1.7653.329.5446.2199,1.0163.5271,1.4163.9224.3992.3953.7134.8655.9419,1.4097.2281.5442.3423,1.1376.3423,1.7785,0,.6144-.1166,1.1922-.3489,1.7325-.2327.5396-.5513,1.0097-.9551,1.4089-.4043.4-.8783.7166-1.423.9489-.5446.2324-1.1243.3493-1.7387.3493-.6323,0-1.221-.1099-1.7653-.3298-.5446-.2191-1.0144-.5263-1.4097-.9216s-.7072-.8631-.9353-1.4035c-.2285-.5403-.3427-1.1345-.3427-1.7848ZM169.1869,18.0974c.3688,0,.7025-.0811,1.0011-.2433.2986-.163.5552-.3844.7707-.6659.2148-.2807.3821-.6097.5006-.9879.1185-.3774.1778-.7813.1778-1.2117,0-.6238-.0593-1.2031-.1778-1.7395-.1185-.5349-.2986-.9988-.5403-1.3894-.2417-.3906-.5446-.6986-.9087-.9224-.3645-.2238-.7887-.3361-1.2713-.3361-.3076,0-.6062.0686-.8959.2043-.2897.1364-.5446.3337-.7641.5934-.2195.2589-.3953.5731-.5271.9419s-.1977.7859-.1977,1.2514c0,.6495.0639,1.2514.191,1.8042.1275.5536.3119,1.03.5536,1.43.2413.3992.5376.7111.8893.9349.3509.2246.7509.3361,1.1988.3361Z" style="fill:#005281; stroke-width:0px;"></path>
        <path d="M182.0969,15.3707c0,.5006-.0526.959-.1579,1.3762-.1057.4171-.2881.7774-.547,1.0807-.2593.3025-.6058.538-1.0405.7049-.4351.1669-.9817.2503-1.6401.2503-.782,0-1.4121-.0881-1.8908-.2635s-.8475-.4148-1.1064-.7181c-.2593-.3033-.4327-.6589-.5205-1.0674-.0877-.4078-.1318-.8452-.1318-1.3107v-4.3734c0-.1848-.0573-.3142-.1711-.3891-.1142-.0741-.347-.1333-.6982-.1778-.0967-.0172-.145-.1006-.145-.2503v-.1053c0-.0437.0086-.0873.0265-.1318.2546.0179.5247.0327.8101.046s.6257.0203,1.021.0203c.3072,0,.6277-.007.9618-.0203.3337-.0133.6323-.0281.8955-.046.009.0444.0156.0881.0199.1318.0043.0444.0066.0788.0066.1053,0,.1497-.0483.2331-.145.2503-.3602.0444-.6039.1053-.731.1848-.1275.0788-.191.2066-.191.3821v4.0841c0,.913.1688,1.607.5072,2.081.338.4741.9201.7119,1.7454.7119.8433,0,1.4428-.2222,1.7984-.6659.3555-.4429.5337-1.1657.5337-2.1668v-4.0443c0-.1754-.0616-.3033-.1848-.3821-.1228-.0795-.3555-.1403-.6982-.1848-.1053-.0265-.1579-.1092-.1579-.2503,0-.0265.0019-.0608.0066-.1053.0043-.0437.0109-.0873.0199-.1318.2546.0265.4893.0444.7045.053s.446.0133.6916.0133c.2811,0,.5314-.0047.7512-.0133.2191-.0086.4347-.0265.6452-.053.009.0444.0156.0881.0199.1318.0043.0444.0066.0788.0066.1053,0,.1411-.0526.2238-.1579.2503-.3251.0351-.5493.0943-.6721.1778-.1232.0842-.1844.2136-.1844.3891v4.3211Z" style="fill:#005281; stroke-width:0px;"></path>
        <path d="M190.9762,15.7528v-4.6767c0-.1934-.0659-.3298-.1977-.4086-.1318-.0795-.3645-.1403-.6982-.1848-.1142-.0265-.1711-.1092-.1711-.2503v-.1053c0-.0437.0086-.0873.0261-.1318.2195.0265.4347.0444.6456.053s.4565.0133.7376.0133.5224-.0047.7247-.0133c.2019-.0086.4039-.0265.6058-.053.0086.0444.0152.0881.0199.1318.0043.0444.0066.0788.0066.1053,0,.1497-.0526.2331-.1583.2503-.2897.0444-.4873.1053-.5926.1848-.1057.0788-.1583.2066-.1583.3821v7.7066c-.0351.0086-.0943.0148-.1778.0195s-.1384.007-.1645.007c-.0616,0-.1275-.0156-.1977-.046-.0706-.0312-.145-.0951-.2242-.191l-5.1905-6.587v5.6911c0,.0873.0066.1598.0199.2168.0133.0577.048.106.1053.145.0573.0398.1403.0749.2503.106.1099.0304.2569.0632.4413.0982.0441.0094.0811.0288.1123.0593.0304.0312.046.0943.046.191,0,.0616-.009.1364-.0265.2238-.2195-.0172-.4261-.0327-.6191-.046-.1934-.0133-.4171-.0195-.6717-.0195-.255,0-.4986.0062-.7314.0195s-.4456.0288-.639.046c-.0175-.0351-.0261-.0741-.0261-.1185v-.1053c0-.0873.0152-.1489.046-.184s.0678-.0569.1119-.0663c.3162-.0522.5271-.1185.6323-.1973.1057-.0795.1583-.2019.1583-.3688v-6.6665c0-.1403-.0464-.2479-.1384-.3228-.0924-.0741-.301-.1333-.6257-.1778-.1057-.0265-.1583-.1092-.1583-.2503v-.0593c0-.0218.0043-.046.0133-.0725l.0133-.1053c.1228.0086.2413.0156.3555.0195.1142.0047.2285.0117.3427.0203.193.0086.3887.0156.5863.0195.1973.0047.3575.007.4807.007.2546,0,.4214.0109.5006.0327s.1493.0639.2109.1248l4.3738,5.5336Z" style="fill:#005281; stroke-width:0px;"></path>
        <path d="M202.5954,14.3431c0,.5185-.0877,1.0316-.2635,1.5415-.1758.5091-.4479.9676-.8167,1.3762s-.8386.7376-1.4097.9879c-.5707.2503-1.2471.3758-2.0288.3758h-2.7005c-.2285,0-.4939.0062-.7969.0195-.3033.0133-.591.0288-.8631.046-.0175-.0351-.0261-.0741-.0261-.1185v-.1053c0-.0967.0152-.1598.046-.191.0308-.0304.0678-.0499.1119-.0593.2546-.0437.4589-.1029.6128-.1778.1532-.0741.2304-.2043.2304-.3883v-6.6002c0-.1754-.0639-.301-.191-.3758-.1275-.0741-.345-.138-.6522-.191-.0702-.0172-.1142-.046-.1318-.0858-.0175-.039-.0261-.0936-.0261-.1645v-.1053c0-.0437.0086-.0873.0261-.1318.1844.0179.3493.0288.4939.0327.145.0047.2787.0117.4019.0203.1228.0086.246.0133.3688.0133h3.0565c.7466,0,1.4031.1138,1.9695.3423s1.0409.5357,1.4226.9224c.3821.386.6721.8382.8698,1.3567s.2963,1.0713.2963,1.66ZM200.7775,14.5934c0-.6854-.0791-1.2733-.237-1.7653-.1583-.492-.3887-.8935-.692-1.2054-.3029-.3119-.6807-.5403-1.1329-.6854s-.968-.2175-1.5477-.2175h-.8167v6.7718c0,.0881.0129.163.0394.2238.0265.0616.0791.1099.1583.145.0788.0351.1887.0616.329.0788.1403.0179.3294.0265.5665.0265,1.1419,0,1.9828-.3025,2.5231-.9091.5399-.6058.8101-1.4269.8101-2.4631Z" style="fill:#005281; stroke-width:0px;"></path>
        <path d="M207.6807,15.7263h-2.7668l-.685,1.8308c-.0261.0444-.0441.0928-.0526.145-.009.053-.0133.0928-.0133.1185,0,.0967.046.1762.1384.237.0924.0616.2787.1146.5598.1583.1228.0179.1844.1014.1844.2503,0,.0616-.0086.1364-.0261.2238-.2374-.0172-.4877-.0327-.7509-.046-.2635-.0133-.5228-.0195-.7774-.0195-.1758,0-.3602.0047-.5532.0133-.1934.0086-.4086.0265-.6456.0522-.0179-.0351-.0265-.0741-.0265-.1185v-.1053c0-.1669.0569-.2542.1711-.2635.2721-.0522.4678-.1092.5863-.1708s.2129-.1669.2834-.3166l3.175-7.5881c.0702-.1489.1754-.2238.3162-.2238.0437,0,.0877.0023.1318.0062.0437.0047.092.0117.1446.0203l3.175,7.8251c.0526.1318.1536.2308.3029.2963.1493.0663.3119.1123.4877.138.1318.0265.1977.1146.1977.2635,0,.071-.009.1497-.0265.237-.2811-.0172-.5579-.0327-.83-.046-.2725-.0133-.5271-.0195-.7641-.0195-.1232,0-.2721.0023-.4479.0062-.1758.0047-.3555.0109-.5399.0203-.1844.0086-.3669.0148-.547.0195s-.3314.0109-.4542.0195c-.0179-.0351-.0265-.0741-.0265-.1185v-.1053c0-.0788.0152-.138.046-.1778s.0635-.0632.099-.0725c.2281-.0437.3973-.0943.5072-.1513.1095-.0569.1645-.1427.1645-.2573,0-.0522-.0133-.1185-.0394-.1973l-.6982-1.8838ZM207.4304,15.0674l-1.12-2.9644-1.1462,2.9644h2.2662Z" style="fill:#005281; stroke-width:0px;"></path>
        <path d="M215.0583,10.7198v6.93c0,.0873.0066.1598.0195.2168.0133.0577.0464.1084.099.152s.1271.0811.2238.1115c.0967.0312.2327.0593.4086.0858.1318.0265.1977.1014.1977.2238,0,.0265-.0023.0663-.0066.1193-.0047.0522-.0113.0959-.0199.131-.2811-.0172-.5821-.0327-.9025-.046s-.6039-.0195-.8495-.0195c-.255,0-.538.0062-.8499.0195s-.6082.0288-.8893.046c-.0175-.0351-.0285-.0788-.0327-.131-.0047-.053-.0066-.0928-.0066-.1193,0-.0608.0109-.1115.0327-.1513s.0811-.0678.1778-.0858c.3251-.0437.529-.1029.6128-.1778.0834-.0741.1251-.1996.1251-.375v-6.93h-1.1594c-.246,0-.4546.025-.6257.0725-.1711.0483-.3208.1232-.4479.2246-.1275.1006-.2417.2324-.3423.3945-.1014.163-.2043.3587-.3099.5863-.0351.0795-.101.1185-.1973.1185-.053,0-.1146-.0109-.1848-.0327s-.1228-.0413-.1579-.0593c.0612-.2105.1138-.3969.1579-.5598.0441-.1622.0791-.3228.1057-.4811.0351-.2019.0612-.3821.0791-.5396.0172-.1583.0394-.2721.0655-.3431.0351-.0788.1057-.1185.2109-.1185.0967,0,.2877.0133.5731.0398.2854.0265.63.0398,1.0343.0398h4.0576c.3949,0,.7353-.0133,1.021-.0398.285-.0265.4807-.0398.586-.0398.0967,0,.1669.0398.2109.1185.0265.071.046.1848.0593.3431.0133.1575.0417.3376.0858.5396.0261.1583.0593.3189.0986.4811.0398.163.0943.3493.1649.5598-.0441.0179-.099.0374-.1649.0593s-.1251.0327-.1778.0327c-.0967,0-.1669-.039-.2109-.1185-.1053-.2277-.2086-.4234-.3095-.5863-.101-.1622-.2152-.2939-.3423-.3945-.1275-.1014-.2768-.1762-.4479-.2246-.1715-.0476-.3754-.0725-.6128-.0725h-1.159Z" style="fill:#005281; stroke-width:0px;"></path>
        <path d="M221.7501,17.6498c0,.0873.0066.1598.0199.2168.0133.0577.0483.1084.1057.152.0569.0437.1403.0811.2503.1115.1095.0312.2569.0593.4413.0858.0877.0179.1318.092.1318.2238,0,.0265-.0023.0663-.0066.1193-.0047.0522-.0113.0959-.0199.131-.2811-.0172-.5821-.0327-.9025-.046s-.6039-.0195-.8495-.0195c-.255,0-.5403.0062-.8565.0195s-.6148.0288-.8959.046c-.0175-.0351-.0261-.0788-.0261-.131v-.1193c0-.1403.0437-.2144.1318-.2238.1844-.0265.3314-.0546.4413-.0858.1095-.0304.191-.0678.2437-.1115s.0877-.0943.1053-.152c.0175-.0569.0265-.1294.0265-.2168v-6.6002c0-.0881-.009-.1606-.0265-.2175s-.0526-.1076-.1053-.1513c-.0526-.0444-.1341-.0811-.2437-.1123-.1099-.0304-.2569-.0593-.4413-.0858-.0881-.0265-.1318-.1006-.1318-.2238v-.1185c0-.053.0086-.1006.0261-.145.2811.0179.5797.0327.8959.046s.6015.0203.8565.0203c.2456,0,.529-.007.8495-.0203s.6214-.0281.9025-.046c.0086.0444.0152.092.0199.145.0043.053.0066.092.0066.1185,0,.1232-.0441.1973-.1318.2238-.1844.0265-.3318.0554-.4413.0858-.1099.0312-.1934.0678-.2503.1123-.0573.0437-.0924.0943-.1057.1513s-.0199.1294-.0199.2175v6.6002Z" style="fill:#005281; stroke-width:0px;"></path>
        <path d="M223.6604,14.3431c0-.6152.1162-1.1898.3493-1.7263.2324-.5357.5509-1.005.9551-1.4089.4035-.4039.876-.7228,1.4159-.9551.5403-.2331,1.1177-.3493,1.7325-.3493.6323,0,1.2206.1099,1.7653.329.5446.2199,1.0163.5271,1.4163.9224.3992.3953.7134.8655.9419,1.4097.2281.5442.3423,1.1376.3423,1.7785,0,.6144-.1166,1.1922-.3489,1.7325-.2327.5396-.5513,1.0097-.9551,1.4089-.4043.4-.8783.7166-1.423.9489-.5446.2324-1.1243.3493-1.7387.3493-.6323,0-1.221-.1099-1.7653-.3298-.5446-.2191-1.0144-.5263-1.4097-.9216-.3953-.3953-.7072-.8631-.9353-1.4035-.2285-.5403-.3427-1.1345-.3427-1.7848ZM228.3109,18.0974c.3688,0,.7025-.0811,1.0011-.2433.2986-.163.5552-.3844.7707-.6659.2148-.2807.3821-.6097.5006-.9879.1185-.3774.1778-.7813.1778-1.2117,0-.6238-.0593-1.2031-.1778-1.7395-.1185-.5349-.2986-.9988-.5403-1.3894s-.5446-.6986-.9087-.9224c-.3645-.2238-.7887-.3361-1.2713-.3361-.3076,0-.6062.0686-.8959.2043-.2897.1364-.5446.3337-.7641.5934-.2195.2589-.3953.5731-.5271.9419s-.1977.7859-.1977,1.2514c0,.6495.0639,1.2514.191,1.8042.1275.5536.3119,1.03.5536,1.43.2413.3992.5376.7111.8893.9349.3509.2246.7509.3361,1.1988.3361Z" style="fill:#005281; stroke-width:0px;"></path>
        <path d="M240.3648,15.7528v-4.6767c0-.1934-.0659-.3298-.1977-.4086-.1318-.0795-.3645-.1403-.6982-.1848-.1142-.0265-.1711-.1092-.1711-.2503v-.1053c0-.0437.0086-.0873.0261-.1318.2195.0265.4347.0444.6456.053s.4565.0133.7376.0133.5224-.0047.7247-.0133c.2019-.0086.4039-.0265.6058-.053.0086.0444.0152.0881.0199.1318.0043.0444.0066.0788.0066.1053,0,.1497-.0526.2331-.1583.2503-.2897.0444-.4873.1053-.5926.1848-.1057.0788-.1583.2066-.1583.3821v7.7066c-.0351.0086-.0943.0148-.1778.0195s-.1384.007-.1645.007c-.0616,0-.1275-.0156-.1977-.046-.0706-.0312-.145-.0951-.2242-.191l-5.1905-6.587v5.6911c0,.0873.0066.1598.0199.2168.0133.0577.048.106.1053.145.0573.0398.1403.0749.2503.106.1099.0304.2569.0632.4413.0982.0441.0094.0811.0288.1123.0593.0304.0312.046.0943.046.191,0,.0616-.009.1364-.0265.2238-.2195-.0172-.4261-.0327-.6191-.046-.1934-.0133-.4171-.0195-.6717-.0195-.255,0-.4986.0062-.7314.0195s-.4456.0288-.639.046c-.0175-.0351-.0261-.0741-.0261-.1185v-.1053c0-.0873.0152-.1489.046-.184s.0678-.0569.1119-.0663c.3162-.0522.5271-.1185.6323-.1973.1057-.0795.1583-.2019.1583-.3688v-6.6665c0-.1403-.0464-.2479-.1384-.3228-.0924-.0741-.301-.1333-.6257-.1778-.1057-.0265-.1583-.1092-.1583-.2503v-.0593c0-.0218.0043-.046.0133-.0725l.0133-.1053c.1228.0086.2413.0156.3555.0195.1142.0047.2285.0117.3427.0203.193.0086.3887.0156.5863.0195.1973.0047.3575.007.4807.007.2546,0,.4214.0109.5006.0327s.1493.0639.2109.1248l4.3738,5.5336Z" style="fill:#005281; stroke-width:0px;"></path>
      </g>
      <g id="Teton_Valley">
        <path d="M107.7308,28.0932c0-.5216.0986-1.0097.2963-1.4643.1973-.4546.4674-.853.8105-1.1961.3427-.3431.7431-.6128,1.2015-.8109.4581-.1973.9481-.2955,1.4697-.2955.5368,0,1.0358.0928,1.4978.2791s.8627.4468,1.2019.782c.3388.3361.6051.7345.7992,1.1961.1934.4624.2904.9653.2904,1.5095,0,.5216-.0986,1.0113-.2963,1.4697-.1973.4585-.4674.8569-.8101,1.1961-.3431.3392-.7454.6074-1.2074.8047s-.954.2963-1.4756.2963c-.5364,0-1.0358-.0936-1.4978-.2791-.462-.1864-.8604-.4476-1.1961-.7828-.3353-.3353-.6-.7321-.7934-1.1906-.1941-.4577-.2908-.9629-.2908-1.5142ZM111.6765,31.2791c.3131,0,.5961-.0694.8495-.2074.2534-.1372.4713-.3259.6542-.5645.1825-.2378.324-.5177.4246-.8382s.1509-.6628.1509-1.0284c0-.5286-.0503-1.0206-.1509-1.4752s-.2534-.8475-.4581-1.1797c-.2051-.3314-.4624-.5918-.7715-.782s-.6686-.2854-1.0783-.2854c-.2612,0-.5142.0585-.7602.1739s-.4624.283-.6483.5029c-.1864.2199-.3353.4858-.4472.7992-.1119.3127-.1676.6666-.1676,1.062,0,.5513.0538,1.062.1622,1.5313.108.4694.2643.8733.4694,1.2124.2047.3392.4565.6035.7544.7937.2982.1902.6374.2854,1.0171.2854Z" style="fill:#005281; stroke-width:0px;"></path>
        <path d="M117.0643,25.2988c0-.0671-.0094-.1248-.0277-.1731-.0187-.0483-.0581-.0912-.1173-.1287-.06-.0374-.1419-.0694-.246-.0951-.1045-.0265-.2386-.0538-.4023-.0842-.0749-.0218-.1119-.0889-.1119-.2012v-.106c0-.0335.0074-.0686.0222-.106.3205.0226.6039.0374.8495.0444.246.0078.4546.0117.6261.0117h2.2916c.3427,0,.6351-.0117.8772-.0335.2421-.0226.4043-.0335.4865-.0335.0819,0,.1415.0335.1786.1006.0226.0593.0409.1692.0561.3298.0148.1598.0409.3259.078.4967.0226.1271.0487.2503.0784.3696s.0745.2643.1341.4359c-.0296.0148-.069.0296-.1173.0444s-.0951.0226-.1396.0226c-.0823,0-.138-.0335-.1676-.1006-.0897-.1941-.1774-.3594-.2628-.4975-.0858-.138-.1828-.2495-.2908-.3353s-.2347-.1474-.3797-.1848c-.1454-.0374-.3224-.0561-.531-.0561h-1.4756v2.828h1.5427c.1267,0,.2179-.0608.2737-.184.0561-.1232.1025-.3072.14-.5536.0222-.0967.0928-.145.2121-.145.0226,0,.0577.0016.1064.0055.0483.0039.0838.0094.106.0172-.0148.1715-.0281.3704-.039.598-.0113.2269-.0168.4187-.0168.5754,0,.1341.0035.2924.0109.4748s.0226.3899.0448.6206c-.0222.0148-.0557.0242-.1006.0281s-.0784.0055-.1006.0055c-.1267,0-.2012-.0522-.2234-.1567-.03-.2386-.0749-.4195-.1341-.5419-.06-.1232-.1528-.1848-.2795-.1848h-1.5427v2.5036c0,.0749.0261.1364.0784.1848.0519.0483.1228.0897.2121.1232.0897.0335.1938.0593.3131.078s.246.039.3801.0616c.0893.0078.1341.071.1341.1902,0,.0218-.0019.0593-.0055.1115-.0039.0522-.0094.0928-.0168.1232-.1045,0-.209-.0023-.3131-.0055-.1045-.0039-.2086-.0101-.3131-.0172-.1938-.0148-.4008-.0242-.6203-.0281-.2199-.0039-.4378-.0055-.6538-.0055-.1045,0-.2183.0016-.3411.0055s-.2515.0094-.3856.0172c-.1341.007-.2667.0125-.3969.0164-.1306.0039-.2515.0094-.3633.0172-.0148-.0304-.0222-.0694-.0222-.1177v-.106c0-.1115.037-.1715.1119-.1786.2456-.06.4394-.1177.5813-.1739.1411-.0554.2121-.1583.2121-.3072v-5.5999Z" style="fill:#005281; stroke-width:0px;"></path>
        <path d="M128.8905,25.0188v5.8798c0,.0749.0055.1364.0168.1848s.039.0912.0838.1287c.0448.0366.108.0686.1902.0943.0819.0265.1973.0507.3462.0733.1119.0218.1676.0858.1676.1895,0,.0226-.0016.0561-.0055.1006-.0039.0452-.0094.0819-.0168.1123-.2386-.0156-.4936-.0281-.7657-.039-.2721-.0117-.5123-.0172-.7208-.0172-.2164,0-.4565.0055-.7212.0172-.2643.0109-.5158.0234-.7544.039-.0148-.0304-.0242-.0671-.0281-.1123-.0035-.0444-.0055-.078-.0055-.1006,0-.0515.0094-.0951.0281-.1287.0183-.0335.0686-.0569.1509-.0725.2756-.0366.4487-.0873.5197-.1505.0706-.0632.106-.17.106-.3189v-5.8798h-.9836c-.2086,0-.3856.0211-.531.0616-.145.0413-.2721.1045-.3797.1902-.1084.0858-.2051.1973-.2908.3353s-.1731.3041-.2628.4975c-.0296.0671-.0858.1006-.1676.1006-.0444,0-.0967-.0094-.1563-.0281s-.1045-.0351-.1341-.0499c.0519-.1793.0967-.3376.1341-.4756.037-.1372.0671-.2737.0893-.4078.0296-.1715.0522-.3244.0671-.4585s.0335-.2308.0561-.2901c.0296-.0671.0893-.1006.1786-.1006.0819,0,.244.0109.4865.0335.2417.0218.5345.0335.8772.0335h3.4428c.3353,0,.6242-.0117.8663-.0335.2421-.0226.4082-.0335.4975-.0335.0819,0,.1415.0335.1789.1006.0222.0593.039.1559.0503.2901s.0355.2869.0725.4585c.0226.1341.0503.2706.0838.4078.0335.138.0803.2963.14.4756-.0374.0148-.0838.0312-.14.0499-.0557.0187-.106.0281-.1509.0281-.0819,0-.1415-.0335-.1786-.1006-.0897-.1934-.1774-.3594-.2628-.4975-.0858-.138-.1828-.2495-.2908-.3353s-.2347-.1489-.3801-.1902c-.145-.0405-.3185-.0616-.5197-.0616h-.9836Z" style="fill:#005281; stroke-width:0px;"></path>
        <path d="M134.6693,25.0188v2.6939h1.5762c.1415,0,.2382-.0577.2904-.1731s.0967-.3033.1341-.5645c.0074-.0593.0296-.0982.0671-.117s.0858-.0281.1454-.0281c.0222,0,.0577.0016.106.0055.0487.0039.0838.0094.1064.0172-.0152.1708-.0281.3704-.0394.5973-.0109.2277-.0168.4195-.0168.5762,0,.1341.0039.2924.0113.4748s.0222.3899.0448.6206c-.0226.0148-.0577.0242-.1064.0281-.0483.0031-.0838.0055-.106.0055-.1341,0-.2051-.0522-.2125-.1567-.0444-.283-.0947-.4748-.1509-.5754-.0557-.1006-.147-.1513-.2737-.1513h-1.5762v2.5036c0,.1567.0967.2612.2904.3134s.5216.078.984.078h.4694c.2234,0,.4117-.0296.5645-.0889.1524-.06.2885-.1435.4078-.2518.1193-.1076.2238-.2347.3131-.3797.0893-.1458.1789-.308.2682-.4865.0226-.0522.0745-.078.1567-.078.037,0,.0819.0109.1341.0335.0519.0218.1041.0444.1563.0671-.0148.0593-.0316.1154-.0503.1676s-.0355.1045-.0503.1559c-.0374.0826-.0671.1715-.0893.2682-.0226.0975-.0448.1754-.0671.2347-.0152.0749-.032.1591-.0503.2518-.0187.0936-.0374.1825-.0561.2682s-.0374.1622-.0557.2292c-.0187.0671-.032.1115-.039.1341-.03.0593-.0897.0897-.1789.0897-.0596,0-.1454-.0039-.2573-.0117-.1115-.007-.2327-.0125-.363-.0164-.1306-.0039-.2628-.0094-.3969-.0172-.1341-.007-.2499-.0109-.3466-.0109h-2.5376c-.216,0-.4639.0055-.7431.0172-.2795.0109-.531.0234-.7548.039-.0148-.0304-.0222-.0694-.0222-.1177v-.106c0-.1115.037-.1715.1119-.1786.283-.0522.4861-.1084.609-.1676.1232-.06.1844-.1645.1844-.3134v-5.5999c0-.0749-.0109-.1357-.0335-.1848-.0222-.0483-.0651-.0889-.1283-.1224-.0635-.0335-.1454-.0639-.246-.0897-.1006-.0265-.2292-.0538-.3856-.0842-.0749-.0218-.1119-.0889-.1119-.2012v-.106c0-.0335.0074-.0686.0222-.106.3205.0226.6039.0374.8495.0444.246.0078.4585.0117.6374.0117h2.2912c.3357,0,.6242-.0117.8663-.0335.2421-.0226.4082-.0335.4975-.0335.0819,0,.1415.0335.1789.1006.0222.0593.0409.1692.0557.3298.0152.1598.0409.3259.0784.4967.0226.1271.0483.2503.0784.3696.0296.1193.0745.2643.1341.4359-.0374.0148-.0784.0296-.1228.0444-.0448.0148-.0897.0226-.1345.0226-.0819,0-.1415-.0335-.1786-.1006-.0897-.1941-.1774-.3594-.2628-.4975-.0858-.138-.1828-.2495-.2908-.3353s-.2347-.1474-.3797-.1848c-.1454-.0374-.3189-.0561-.5201-.0561h-1.4865Z" style="fill:#005281; stroke-width:0px;"></path>
        <path d="M143.1197,25.0188v5.8798c0,.0749.0055.1364.0168.1848s.039.0912.0838.1287c.0448.0366.108.0686.1902.0943.0819.0265.1973.0507.3462.0733.1119.0218.1676.0858.1676.1895,0,.0226-.0016.0561-.0055.1006-.0039.0452-.0094.0819-.0168.1123-.2386-.0156-.4936-.0281-.7657-.039-.2721-.0117-.5123-.0172-.7208-.0172-.2164,0-.4565.0055-.7212.0172-.2643.0109-.5158.0234-.7544.039-.0148-.0304-.0242-.0671-.0281-.1123-.0035-.0444-.0055-.078-.0055-.1006,0-.0515.0094-.0951.0281-.1287.0183-.0335.0686-.0569.1509-.0725.2756-.0366.4487-.0873.5197-.1505.0706-.0632.106-.17.106-.3189v-5.8798h-.9836c-.2086,0-.3856.0211-.531.0616-.145.0413-.2721.1045-.3797.1902-.1084.0858-.2051.1973-.2908.3353s-.1731.3041-.2628.4975c-.0296.0671-.0858.1006-.1676.1006-.0444,0-.0967-.0094-.1563-.0281s-.1045-.0351-.1341-.0499c.0519-.1793.0967-.3376.1341-.4756.037-.1372.0671-.2737.0893-.4078.0296-.1715.0522-.3244.0671-.4585s.0335-.2308.0561-.2901c.0296-.0671.0893-.1006.1786-.1006.0819,0,.244.0109.4865.0335.2417.0218.5345.0335.8772.0335h3.4428c.3353,0,.6242-.0117.8663-.0335.2421-.0226.4082-.0335.4975-.0335.0819,0,.1415.0335.1789.1006.0222.0593.039.1559.0503.2901s.0355.2869.0725.4585c.0226.1341.0503.2706.0838.4078.0335.138.0803.2963.14.4756-.0374.0148-.0838.0312-.14.0499-.0557.0187-.106.0281-.1509.0281-.0819,0-.1415-.0335-.1786-.1006-.0897-.1934-.1774-.3594-.2628-.4975-.0858-.138-.1828-.2495-.2908-.3353s-.2347-.1489-.3801-.1902c-.145-.0405-.3185-.0616-.5197-.0616h-.9836Z" style="fill:#005281; stroke-width:0px;"></path>
        <path d="M146.5064,28.0932c0-.5216.0986-1.0097.2963-1.4643.1973-.4546.4674-.853.8105-1.1961.3427-.3431.7431-.6128,1.2015-.8109.4581-.1973.9481-.2955,1.4697-.2955.5368,0,1.0358.0928,1.4978.2791s.8627.4468,1.2019.782c.3388.3361.6051.7345.7992,1.1961.1934.4624.2904.9653.2904,1.5095,0,.5216-.0986,1.0113-.2963,1.4697-.1973.4585-.4674.8569-.8101,1.1961-.3431.3392-.7454.6074-1.2074.8047s-.954.2963-1.4756.2963c-.5364,0-1.0358-.0936-1.4978-.2791-.462-.1864-.8604-.4476-1.1961-.7828-.3353-.3353-.6-.7321-.7934-1.1906-.1941-.4577-.2908-.9629-.2908-1.5142ZM150.4521,31.2791c.3131,0,.5961-.0694.8495-.2074.2534-.1372.4713-.3259.6542-.5645.1825-.2378.324-.5177.4246-.8382s.1509-.6628.1509-1.0284c0-.5286-.0503-1.0206-.1509-1.4752s-.2534-.8475-.4581-1.1797c-.2051-.3314-.4624-.5918-.7715-.782-.3092-.1902-.6686-.2854-1.0783-.2854-.2612,0-.5142.0585-.7602.1739s-.4624.283-.6483.5029c-.1864.2199-.3353.4858-.4472.7992-.1119.3127-.1676.6666-.1676,1.062,0,.5513.0538,1.062.1622,1.5313.108.4694.2643.8733.4694,1.2124.2047.3392.4565.6035.7544.7937.2982.1902.6374.2854,1.0171.2854Z" style="fill:#005281; stroke-width:0px;"></path>
        <path d="M160.6799,29.2893v-3.9687c0-.1637-.0557-.2791-.1676-.3462s-.3092-.1193-.5926-.1567c-.0967-.0218-.145-.0928-.145-.2121v-.0897c0-.0366.007-.0741.0222-.1115.186.0226.3688.0374.5477.0444.1789.0078.3875.0117.6257.0117.2386,0,.4437-.0039.6148-.0117.1715-.007.3427-.0218.5142-.0444.0074.0374.0133.0749.0168.1115.0039.0374.0058.0671.0058.0897,0,.1271-.0448.1973-.1341.2121-.246.0374-.4136.0897-.5033.1567-.0893.0671-.1341.1754-.1341.3244v6.5386c-.0296.0078-.0799.0133-.1509.0172s-.1173.0055-.1396.0055c-.0522,0-.108-.0133-.1676-.039-.0596-.0265-.1232-.0803-.1902-.1622l-4.4038-5.5889v4.8287c0,.0749.0055.1364.0168.1848.0109.0483.0405.0889.0893.1224.0483.0335.1193.0639.2125.0897.0932.0265.2179.0546.3743.0842.0374.007.069.0242.0951.0499.0261.0265.039.0803.039.1622,0,.0522-.0074.1154-.0222.1902-.1864-.0156-.3614-.0281-.5255-.039-.1637-.0117-.354-.0172-.57-.0172-.2164,0-.423.0055-.6203.0172-.1977.0109-.3785.0234-.5423.039-.0148-.0304-.0222-.0632-.0222-.1006v-.0897c0-.0741.0129-.1263.039-.1567.0261-.0296.0577-.0483.0951-.0554.2682-.0452.4472-.1006.5364-.1676.0897-.0671.1341-.1715.1341-.3134v-5.656c0-.1193-.039-.2105-.1173-.2737-.078-.0632-.2554-.1138-.531-.1513-.0893-.0218-.1341-.0928-.1341-.2121v-.0507c0-.0179.0039-.039.0113-.0608l.0113-.0897c.1041.0078.2047.0133.3017.0164.0967.0039.1938.0101.2904.0172.1637.0078.3298.0133.4975.0164.1676.0039.3037.0062.4082.0062.216,0,.3575.0094.4246.0273.0671.0187.1267.0546.1789.1068l3.711,4.6946Z" style="fill:#005281; stroke-width:0px;"></path>
        <path d="M170.7732,25.3993c.0374-.0967.0561-.1754.0561-.2347,0-.1045-.0487-.1809-.1454-.2292-.0971-.0483-.2647-.0873-.5029-.1177-.0897-.007-.1345-.078-.1345-.2121,0-.0148.0019-.032.0058-.0507.0035-.0179.0055-.039.0055-.0608l.0113-.0897c.0671.0078.1489.0148.246.0226.0967.007.2027.0125.3185.0164.1154.0039.2308.0078.3466.0109.1154.0039.2214.0062.3185.0062.216,0,.4226-.0039.6203-.0117.1973-.007.3669-.0218.5088-.0444l.0109.0897c.0074.0218.0113.0444.0113.0671v.0554c0,.1419-.0448.2168-.1341.2238-.2386.0226-.4082.0616-.5088.1177-.1006.0554-.1805.1544-.2401.2955l-2.7609,6.5955c-.0374.007-.0671.0109-.0897.0109h-.078c-.0596,0-.1025-.0109-.1287-.0335s-.0542-.0749-.0838-.1567l-2.6155-6.4716c-.0226-.0522-.0468-.099-.0729-.1396-.0261-.0413-.0651-.0764-.1173-.1068-.0522-.0296-.1212-.0538-.2066-.0725-.0858-.0187-.1996-.0351-.3411-.0499-.0967-.0078-.145-.0858-.145-.2347v-.0951c0-.0413.0074-.0725.0222-.0951.1119.0078.2386.0148.3801.0226.1415.007.285.0125.4304.0164.145.0039.2865.0078.4246.0109.138.0039.2589.0062.3633.0062.246,0,.5142-.0062.805-.0172.2904-.0109.5513-.0242.7824-.039.0148.0374.0222.0749.0222.1115v.0897c0,.1341-.0448.2051-.1341.2121-.2386.0226-.4062.06-.5029.1123-.0971.0522-.1454.1224-.1454.2121,0,.0522.0113.1115.0335.1786l1.6319,4.4155,1.7325-4.3367Z" style="fill:#005281; stroke-width:0px;"></path>
        <path d="M175.625,29.2667h-2.3473l-.5813,1.554c-.0226.0374-.0374.078-.0448.1224-.0074.0452-.0113.0788-.0113.1014,0,.0819.0394.1489.1177.2012.078.0522.2363.0967.4748.1341.1045.0148.1563.0858.1563.2121,0,.0522-.0074.1154-.0222.1902-.2012-.0156-.4136-.0281-.637-.039-.2238-.0117-.4437-.0172-.6596-.0172-.1489,0-.3056.0039-.4694.0109-.1641.0078-.3466.0226-.5477.0452-.0148-.0304-.0222-.0632-.0222-.1006v-.0897c0-.1411.0483-.216.145-.2238.2312-.0444.3969-.0928.4975-.145s.1809-.1419.2405-.2682l2.6939-6.4388c.0593-.1263.1489-.1895.2682-.1895.037,0,.0745.0016.1119.0055.037.0039.078.0094.1228.0164l2.6939,6.64c.0448.1115.1302.1957.2569.2511.1267.0561.2647.0951.4136.1177.1119.0226.1676.0967.1676.2238,0,.0593-.0074.1263-.0222.2012-.2386-.0156-.4733-.0281-.7041-.039-.2312-.0117-.4472-.0172-.6483-.0172-.1045,0-.2312.0016-.3801.0055-.1493.0039-.3017.0094-.4585.0172-.1563.007-.3111.0125-.4639.0164s-.2811.0094-.3856.0172c-.0148-.0304-.0222-.0632-.0222-.1006v-.0897c0-.0671.0129-.1177.039-.1513s.0542-.0538.0838-.0608c.1938-.0374.3372-.0803.4304-.1287s.14-.1216.14-.2183c0-.0444-.0113-.1006-.0339-.1676l-.5922-1.5984ZM175.4125,28.7076l-.9501-2.5146-.9723,2.5146h1.9224Z" style="fill:#005281; stroke-width:0px;"></path>
        <path d="M181.4486,30.7754c0,.1567.1006.2612.3017.3134s.5329.078.9949.078h.4246c.1864,0,.3485-.0203.4865-.0616.1376-.0405.2589-.1099.3633-.2066.1041-.0967.1992-.2214.285-.3743.0854-.1528.1692-.3368.2515-.5536.0222-.0593.0784-.0889.1676-.0889.037,0,.0819.0109.1341.0335.0519.0218.1041.0444.1563.0671-.0596.2386-.1134.4975-.1618.7766-.0487.2791-.0916.5536-.1287.8218-.0074.0889-.032.145-.0725.1676-.0413.0218-.0842.0335-.1287.0335-.0596,0-.1435-.0039-.2515-.0117-.1084-.007-.2257-.0125-.3524-.0164s-.255-.0094-.3856-.0172c-.1302-.007-.244-.0109-.3407-.0109h-2.5376c-.216,0-.4639.0055-.7431.0172-.2795.0109-.531.0234-.7548.039-.0148-.0304-.0222-.0694-.0222-.1177v-.106c0-.1115.037-.1715.1119-.1786.283-.0522.4861-.1084.609-.1676.1232-.06.1844-.1645.1844-.3134v-5.5999c0-.0749-.0074-.1357-.0222-.1848-.0152-.0483-.0448-.0912-.0893-.1287-.0448-.0366-.1138-.0686-.207-.0943-.0932-.0265-.2179-.0507-.3743-.0733-.0749-.0218-.1119-.085-.1119-.1895v-.1006c0-.0452.0074-.0858.0222-.1232.2386.0148.492.0281.7602.039s.5068.0172.7154.0172c.1041,0,.2234-.0023.3575-.0062.1345-.0031.2741-.007.4195-.0109.145-.0039.2904-.0094.4359-.0164.1454-.0078.2776-.0148.3969-.0226.0074.0374.0129.078.0168.1232.0035.0444.0055.078.0055.1006,0,.1045-.0374.1676-.1119.1895-.3205.0452-.5345.1029-.6425.1739-.1084.071-.1622.1801-.1622.329v5.4548Z" style="fill:#005281; stroke-width:0px;"></path>
        <path d="M187.82,30.7754c0,.1567.1006.2612.3017.3134s.5329.078.9949.078h.4246c.1864,0,.3485-.0203.4865-.0616.1376-.0405.2589-.1099.3633-.2066.1041-.0967.1992-.2214.285-.3743.0854-.1528.1692-.3368.2515-.5536.0222-.0593.0784-.0889.1676-.0889.037,0,.0819.0109.1341.0335.0519.0218.1041.0444.1563.0671-.0596.2386-.1134.4975-.1618.7766-.0487.2791-.0916.5536-.1287.8218-.0074.0889-.032.145-.0725.1676-.0413.0218-.0842.0335-.1287.0335-.0596,0-.1435-.0039-.2515-.0117-.1084-.007-.2257-.0125-.3524-.0164s-.255-.0094-.3856-.0172c-.1302-.007-.244-.0109-.3407-.0109h-2.5376c-.216,0-.4639.0055-.7431.0172-.2795.0109-.531.0234-.7548.039-.0148-.0304-.0222-.0694-.0222-.1177v-.106c0-.1115.037-.1715.1119-.1786.283-.0522.4861-.1084.609-.1676.1232-.06.1844-.1645.1844-.3134v-5.5999c0-.0749-.0074-.1357-.0222-.1848-.0152-.0483-.0448-.0912-.0893-.1287-.0448-.0366-.1138-.0686-.207-.0943-.0932-.0265-.2179-.0507-.3743-.0733-.0749-.0218-.1119-.085-.1119-.1895v-.1006c0-.0452.0074-.0858.0222-.1232.2386.0148.492.0281.7602.039s.5068.0172.7154.0172c.1041,0,.2234-.0023.3575-.0062.1345-.0031.2741-.007.4195-.0109.145-.0039.2904-.0094.4359-.0164.1454-.0078.2776-.0148.3969-.0226.0074.0374.0129.078.0168.1232.0035.0444.0055.078.0055.1006,0,.1045-.0374.1676-.1119.1895-.3205.0452-.5345.1029-.6425.1739-.1084.071-.1622.1801-.1622.329v5.4548Z" style="fill:#005281; stroke-width:0px;"></path>
        <path d="M194.1913,25.0188v2.6939h1.5762c.1415,0,.2382-.0577.2904-.1731s.0967-.3033.1341-.5645c.0074-.0593.0296-.0982.0671-.117s.0858-.0281.1454-.0281c.0222,0,.0577.0016.106.0055.0487.0039.0838.0094.1064.0172-.0152.1708-.0281.3704-.0394.5973-.0109.2277-.0168.4195-.0168.5762,0,.1341.0039.2924.0113.4748s.0222.3899.0448.6206c-.0226.0148-.0577.0242-.1064.0281-.0483.0031-.0838.0055-.106.0055-.1341,0-.2051-.0522-.2125-.1567-.0444-.283-.0947-.4748-.1509-.5754-.0557-.1006-.147-.1513-.2737-.1513h-1.5762v2.5036c0,.1567.0967.2612.2904.3134s.5216.078.984.078h.4694c.2234,0,.4117-.0296.5645-.0889.1524-.06.2885-.1435.4078-.2518.1193-.1076.2238-.2347.3131-.3797.0893-.1458.1789-.308.2682-.4865.0226-.0522.0745-.078.1567-.078.037,0,.0819.0109.1341.0335.0519.0218.1041.0444.1563.0671-.0148.0593-.0316.1154-.0503.1676s-.0355.1045-.0503.1559c-.0374.0826-.0671.1715-.0893.2682-.0226.0975-.0448.1754-.0671.2347-.0152.0749-.032.1591-.0503.2518-.0187.0936-.0374.1825-.0561.2682s-.0374.1622-.0557.2292c-.0187.0671-.032.1115-.039.1341-.03.0593-.0897.0897-.1789.0897-.0596,0-.1454-.0039-.2573-.0117-.1115-.007-.2327-.0125-.363-.0164-.1306-.0039-.2628-.0094-.3969-.0172-.1341-.007-.2499-.0109-.3466-.0109h-2.5376c-.216,0-.4639.0055-.7431.0172-.2795.0109-.531.0234-.7548.039-.0148-.0304-.0222-.0694-.0222-.1177v-.106c0-.1115.037-.1715.1119-.1786.283-.0522.4861-.1084.6089-.1676.1232-.06.1844-.1645.1844-.3134v-5.5999c0-.0749-.0109-.1357-.0335-.1848-.0222-.0483-.0651-.0889-.1283-.1224-.0635-.0335-.1454-.0639-.246-.0897-.1006-.0265-.2292-.0538-.3856-.0842-.0749-.0218-.1119-.0889-.1119-.2012v-.106c0-.0335.0074-.0686.0222-.106.3205.0226.6039.0374.8495.0444.246.0078.4585.0117.6374.0117h2.2912c.3357,0,.6242-.0117.8663-.0335.2421-.0226.4082-.0335.4975-.0335.0819,0,.1415.0335.1789.1006.0222.0593.0409.1692.0557.3298.0152.1598.0409.3259.0784.4967.0226.1271.0483.2503.0784.3696.0296.1193.0745.2643.1341.4359-.0374.0148-.0784.0296-.1228.0444-.0448.0148-.0897.0226-.1345.0226-.0819,0-.1415-.0335-.1786-.1006-.0897-.1941-.1774-.3594-.2628-.4975-.0858-.138-.1828-.2495-.2908-.3353s-.2347-.1474-.3797-.1848c-.1454-.0374-.3189-.0561-.5201-.0561h-1.4865Z" style="fill:#005281; stroke-width:0px;"></path>
        <path d="M200.7308,28.6632l-1.7773-3.387c-.0823-.1567-.1844-.2643-.3076-.3244-.1228-.0593-.2811-.1037-.4748-.1341-.0897-.007-.1341-.0819-.1341-.223v-.0507c0-.0187.0035-.039.0109-.0616l.0113-.078c.1637.0148.3746.0281.6316.039s.5384.0172.844.0172c.1041,0,.2292-.0023.3743-.0062.1454-.0031.2924-.007.4417-.0109.1489-.0039.2885-.0094.4191-.0164.1302-.0078.2366-.0148.3185-.0226.0148.0671.0222.1138.0222.1396v.0616c0,.1271-.0444.1973-.1341.2121-.1938.0226-.3279.0546-.4023.0951-.0745.0413-.1115.0951-.1115.1622,0,.06.0257.138.078.2347l1.308,2.5933,1.2853-2.414c.0819-.1419.1232-.2612.1232-.3579,0-.0897-.0413-.1544-.1232-.1957s-.2234-.0803-.4246-.1177c-.0971-.0148-.1454-.085-.1454-.2121,0-.0296.0113-.0967.0335-.2012.1563.0148.352.0281.5867.039s.4417.0172.6203.0172c.1715,0,.3524-.0039.5423-.0117.1899-.007.3817-.0218.5758-.0444.0148.0522.0222.0951.0222.1287v.0725c0,.1341-.0448.2051-.1341.2121-.2682.0374-.4546.0858-.5591.1458-.1045.0593-.1938.1528-.2682.2791l-1.8444,3.398v2.2245c0,.0819.0113.1489.0335.2012.0226.0522.0635.0967.1232.1341.0593.0374.1396.0694.2401.0951.1006.0265.2327.0507.3969.0725.037.0078.069.0242.0951.0507.0257.0257.039.0803.039.1622,0,.0148-.0019.0312-.0055.0499-.0039.0187-.0058.039-.0058.0616l-.0109.078c-.1193,0-.2312-.0016-.3353-.0055-.1045-.0039-.209-.0094-.3131-.0164-.1789-.0156-.3633-.0242-.5532-.0281-.1902-.0039-.3485-.0055-.4752-.0055-.1341,0-.2889.0016-.4639.0055s-.3446.0125-.5088.0281c-.0967.007-.1918.0125-.285.0164s-.1883.0055-.285.0055l-.0109-.078c-.0078-.0226-.0113-.0429-.0113-.0616v-.0499c0-.0819.0129-.1364.039-.1622.0261-.0265.0577-.0429.0951-.0507.1563-.0296.2869-.0577.391-.0834.1045-.0265.1864-.0561.246-.0897s.1006-.0764.1232-.1287c.0222-.0522.0335-.1193.0335-.2012v-2.2019Z" style="fill:#005281; stroke-width:0px;"></path>
      </g>
      <path d="M67.4781,39.3854c-.3633-.0726-.9903-.5957-2.2367-1.6899-.5496-.4825-1.2937-1.1359-1.5276-1.2538-.2795.0363-.9168.218-1.2763.3316l-1.0376.3715-3.8823-2.9354-1.0294-.2035-.7936-2.3832-6.739-7.1508-4.3531-3.9458c-1.2729-.694-2.8155-1.4363-3.1152-1.4378-.4593.0348-1.0717.234-1.309.3889-.2023.1941-.8404,1.7966-.8562,2.5403-.0183.8424-1.0144,5.093-1.1279,5.5748l-.0472.2003-.2001.0483c-1.557.374-3.3679.9516-3.5819,1.2154-.2536.3236-.8069,2.3782-1.1187,3.7336l-.0167.0726-2.8418,3.6258-1.4412-1.6823c-.6013-1.0191-1.4169-2.187-1.6725-2.3005-.3572-.0958-1.6498-.1966-2.6885-.2775-1.1573-.0903-1.8234-.1444-2.0531-.2108-.2213-.0631-.4063-.2964-.8036-.8178-.3635-.4767-.8159-1.0706-1.2945-1.4403-.429-.3327-2.4943-1.3141-3.2538-1.6638l-.0551-.0254-.0426-.0435c-.4825-.488-1.1093-1.038-1.3532-1.1566-.2431.1535-.9603.7543-1.5463,1.2778l-.0539.0392-.6494.3799c-.0374.0192-.9533.4481-1.4185,1.0111-.1678.2035-.5213.5192-.9306.8845-.6255.5583-1.5704,1.4019-1.6932,1.7614-.0555.1629-.0876.2986-.1146.4111-.1048.4397-.2215.7314-.8622.7786-.613.0381-2.6377-.7329-3.175-.9444-.0564.0203-.0907.1386-.103.1919-.1181.5181-.8805,2.3992-.9672,2.6122-.0419.0827-.7015,1.2948-2.0215,1.5778-1.0626.2271-1.711.8707-1.7173.8773l-.4767-.4687c.0316-.0319.7867-.7909,2.0542-1.0623,1.0109-.2166,1.5521-1.198,1.5575-1.2081.2144-.5322.8297-2.0832.9195-2.4765.1453-.6389.6315-.7448.868-.7078l.0751.02c1.004.3991,2.579.9534,2.9374.9219.1573-.0112.1954-.0352.1968-.0363.0147-.0218.0424-.1375.0646-.2304.0308-.1292.0682-.2852.1322-.4724.1663-.4876.8843-1.1544,1.8804-2.0437.3728-.3327.7247-.6472.8602-.8116.5634-.6817,1.582-1.1573,1.6252-1.1773l.5917-.3479c.4548-.4056,1.4822-1.3028,1.7953-1.4167.1616-.0566.49-.1727,1.9571,1.3035.4657.2151,2.7883,1.2981,3.3281,1.7168.5476.4234,1.0296,1.0557,1.4169,1.564.1751.2297.3907.5126.4825.5866.2278.0504,1.1113.1194,1.8947.1803,1.1767.0918,2.3934.1865,2.8208.3022.5415.1458,1.5094,1.6649,2.0487,2.577l.8564.9948,2.2483-2.8683c.1642-.7064.806-3.3853,1.2274-3.9233.4194-.5351,2.7678-1.1613,3.7514-1.404.3311-1.4182,1.0499-4.6145,1.0634-5.2367.0174-.8134.7134-2.795,1.1595-3.0856.3565-.2326,1.0869-.4546,1.6284-.4956.0102-.0011.0209-.0015.0321-.0015.6046,0,2.6296,1.071,3.484,1.5383l.064.0457,4.4013,3.9908,6.8587,7.2763.7174,2.1539.7987.1578,3.7169,2.8106.7095-.2536c.1208-.0385,1.0895-.3418,1.4907-.3704.2864-.0243.6521.2688,1.9673,1.4233.6665.5852,1.6738,1.4693,1.9292,1.5375l-.1335.6549ZM63.7643,36.4362c-.0007.0004-.0015.0004-.0022.0004.0007,0,.0015,0,.0022-.0004ZM22.7167,31.3744s.0005.0004.0007.0004c-.0002,0-.0005-.0004-.0007-.0004Z" style="fill:#808285; stroke-width:0px;"></path>
      <path d="M37.9434.0298C20.2685-.723,5.5841,12.8646,4.4577,30.0891l-.0109.1745h-.0001s.0001.0002.0001.0003v.0017s.0006,0,.0006,0c.001.02.0146.0386.0371.0386h.4296c.018,0,.0309-.0135.0348-.0304h-.0003s.0127-.1871.0127-.1871C6.0781,14.4076,19.3986,1.5531,35.3575,1.5531c16.6903,0,30.2204,13.5302,30.2204,30.2204,0,.9536-.0468,1.896-.1335,2.8269-.0078.0835.028.1641.095.2144.837.6291,1.6548,1.2824,2.4548,1.956.1474.1241.3748.0397.4013-.1513.2093-1.5083.314-3.0501.3066-4.6178C68.6209,14.934,54.9958.7561,37.9434.0298Z" style="fill:#005282; stroke-width:0px;"></path>
    </g>
  </g>
</svg>
