<?xml version="1.0" encoding="UTF-8"?>
<svg xmlns="http://www.w3.org/2000/svg" xmlns:xlink="http://www.w3.org/1999/xlink" id="Tin_Cup_Challenge" version="1.1" viewBox="0 0 214.4 159.6">
  <defs>
    <style>
      .st0 {
        fill: #bd202e;
      }

      .st1 {
        fill: #fff;
      }

      .st2 {
        fill: #636466;
      }

      .st3 {
        fill: #949598;
      }

      .st4 {
        fill: #005282;
      }

      .st5 {
        fill: #c6c8ca;
      }

      .st6 {
        fill: url(#linear-gradient);
      }
    </style>
    <linearGradient id="linear-gradient" x1="33.7" y1="108.8" x2="81.6" y2="108.8" gradientTransform="translate(0 162) scale(1 -1)" gradientUnits="userSpaceOnUse">
      <stop offset="0" stop-color="#fff"></stop>
      <stop offset=".2" stop-color="#fbfbfb"></stop>
      <stop offset=".3" stop-color="#f2f2f2"></stop>
      <stop offset=".4" stop-color="#e2e1e1"></stop>
      <stop offset=".6" stop-color="#cbcaca"></stop>
      <stop offset=".7" stop-color="#adacac"></stop>
      <stop offset=".8" stop-color="#898787"></stop>
      <stop offset=".9" stop-color="#5e5c5c"></stop>
      <stop offset="1" stop-color="#2e2b2b"></stop>
      <stop offset="1" stop-color="#221f1f"></stop>
    </linearGradient>
  </defs>
  <path id="Mtns" class="st3" d="M207.3,126.9c-.7-.1-4.8-4-7.2-6.1-1-.8-3-2-3.4-2.2-.5,0-1.6.4-2.2.6l-2,.7-5-4-2-.4-1.5-4.5-12.4-13.2-8-7.3c-2.3-1.2-5-2.6-5.6-2.6-.8,0-1.8.4-2.2.6-.4.5-1.5,3.3-1.5,4.5,0,1.6-1.9,9.5-2.1,10.4v.5c-.1,0-.6.1-.6.1-2.8.7-6,1.7-6.5,2.2-.4.5-1.3,3.9-2,6.8v.2s-5.5,7-5.5,7l-2.9-3.4c-1.1-1.8-2.5-3.9-3-4.2-.6-.2-3-.3-4.9-.5-2.2-.2-3.4-.3-3.8-.4-.5-.1-.9-.6-1.6-1.6-.7-.9-1.5-2-2.3-2.6-.7-.5-4-2.2-6-3h-.1c0,0-.1-.2-.1-.2-.9-.9-1.9-1.7-2.3-2-.5.4-1.7,1.4-2.7,2.3h-.1c0,.1-1.3.8-1.3.8,0,0-1.7.8-2.5,1.8-.3.4-.9.9-1.7,1.7-1,.9-2.9,2.6-3.1,3.2,0,.3-.2.5-.2.7-.2.8-.5,1.5-1.8,1.6-1.1,0-4.4-1.2-5.8-1.7,0,0,0,0,0,.1-.2,1-1.6,4.5-1.8,4.9h0c0,.2-1.3,2.5-3.9,3.1-1.9.4-3,1.5-3,1.6l-1.2-1.2c0,0,1.5-1.5,3.9-2,1.6-.3,2.6-1.8,2.7-2.1.6-1.5,1.6-3.9,1.7-4.5.3-1.3,1.3-1.6,1.9-1.5h.2c2.1.9,4.8,1.8,5.3,1.7,0,0,.1,0,.2,0,0,0,0-.2,0-.3,0-.2.1-.5.3-.9.3-1,1.7-2.2,3.6-3.9.7-.6,1.3-1.2,1.6-1.5,1-1.2,2.8-2.1,3-2.2l1.1-.6c1.2-1.1,2.8-2.4,3.4-2.7.4-.1,1-.4,3.8,2.4.9.4,5.2,2.4,6.2,3.2,1,.8,1.9,2,2.7,2.9.3.4.6.8.8,1,.5,0,2.1.2,3.4.3,2.6.2,4.5.4,5.3.6.8.2,2.1,1.9,3.9,4.9l1.4,1.6,3.9-5c.4-1.7,1.5-6.3,2.3-7.3.8-1,4.5-2,6.9-2.6.8-3.4,1.9-8.5,1.9-9.5,0-1.5,1.3-5.3,2.3-5.9.7-.5,2.1-.9,3.1-1,1.1,0,4.6,1.8,6.6,2.9h.2c0,.1,8.1,7.5,8.1,7.5l12.7,13.5,1.3,3.9,1.4.3,4.6,3.7,1.2-.4c.4-.1,2.1-.6,2.8-.7.6,0,2,.4,4.6,2.7,1.1,1,6,5.6,6.4,5.8l-.4,1.7h0Z"></path>
  <path id="Blue_Arc" class="st4" d="M126.9,0c-25.3-1.1-48.4,8.2-65.6,23.8l3.6.4c15-12.4,34-19.9,54.6-19.9,47.5,0,86,38.5,86,86s-2.9,20.4-4.1,23.3c0,.2,0,.5.3.6,2.4,1.8,4.7,3.6,7,5.6.4.4.9,0,1.1-.4,1.7-4.6,4.6-17,4.6-28.4,0-48.6-39-88.9-87.5-91Z"></path>
  <path d="M103.1,53.7c0-.6.3-1.1.3-1.5s-.3-3-.8-4.1c-.5-1.1-2.2-1.7-3.7-2.5-1.5-.8-3.1-.4-3.1-.4,0,0-.8-.3-1.5-.5-.7-.2-1.8,0-1.8,0,0,0-.8-.9-1.5-1.4-.7-.5-2.3-1.6-2.3-1.6,0,0-.8-1-1.5-1.4-1-.5-1.4,0-2.1.4-.4.2-1.3.8-2.1,1.4.1-3.6.2-5.9.2-5.9,0,0,.4-.8,1-1.6.4-.5.2-2.2,0-3.2-.3-1-.8-1.7-1.4-2.2-.9-.6-1.4-.8-4-1.9-2.6-1.1-8.9-2.4-11.3-2.6-2.7-.3-9.5-1.2-13.3-1.3-3.8,0-8.4,0-12.9.7,0,0-4.6.8-6.6,1.9-1.3.7-2.9,2.4-3,3.6-.3,2.6,1.3,3.7,1.3,3.7,0,0-.4,15.4-.8,27.5l-2.5,1.1s-3.6-.8-4.5-1c-.9-.2-3.2-1.2-3.2-1.2,0,0,0-.7,0-1.3-.1-.6-.3-1.1-.3-1.1,0,0,3-2,3.6-4.8.6-2.8-.3-6.5-1.9-7.5-1.6-1.1-3.8-1.4-4.7-.9-.9.5-2.5,1.3-2.5,1.3,0,0-3-1.2-4.2-1.1-1.2,0-1.9.5-2.3.8-.4.3-1.9,1.4-2.9,1.6-1,.2-2.3.8-3,1.6-.7.8-1.3,2.1-1.4,3.1,0,1-.5,2.4-.7,2.9-.2.5-1.5,4.1-.7,5.4.8,1.3,4.4,4.8,6.4,5.6,2,.8,5.6.4,6.4,0,.8-.5,1-.8,1-.8,0,0,1.6.6,2.6.4,1-.3,1.8-.6,1.8-.6,0,0,3,1.4,4.8,2.1,1.8.7,3.8,1.1,3.8,1.1,0,0,.3.9,1.3,1.1.6.1,1.9-.3,2.9-.8,0,2-.1,3.7-.2,4.9-.3,6.3,1.3,6.3,4.9,7.6.8.3,1.6.5,2.6.8-.6.4-1.1.8-1.1.8,0,0-.4.3-1.3.9-.9.6-1.9,2.2-2.5,5.1-.5,2.9.1,4.8,2.8,7.8,2.7,3,9.1,6.3,10.2,6.6,1.1.3,3,.4,3,.4v1.1c.1,0,7.6,3.8,10.3,4,2.7.2,3.4-.6,4.8-2.2,1.4-1.5,1.6-4.5,1.5-4.9,0-.4-.3-1.1-.3-1.1,0,0,.1-2.4,0-3.3-.1-.8-.6-2.3-.6-2.3,0,0,.1-.4.4-1.4.3-1-.5-2.8-1.1-3.6-.6-.9-1.4-1.1-1.4-1.1,0,0,0-2.3-.1-4.7,1.1,0,2.1,0,2.8,0,6.7-.2,11.2.3,13.3-2.2.1-.2.3-.6.4-1.1,1.4-.4,2.7-.7,2.7-.7v.4c0,0-.5,0-.5,0l-1.3,4.1h.2c0,.1-.3,3.1-.3,3.1h.2c0,.1-.5,3.6,2.1,6.4,2.6,2.8,5.9,2.8,9.2.4,3.3-2.4,5.5-8.4,5.5-8.4l.7.4s1.6-3.2,1.9-4.7c.2-1.5.4-2.8.3-4,0,0-.7-.9-1.5-1.7-.8-.8-2.3-2.3-3.5-3.1-1.2-.8-2-.9-2-.9,0,0-.5-.6-1.2-1.1-.7-.5-1.4-.7-3.9-.6-3,0-4.6,3.6-4.6,3.6l-2.9.9-.3.4c.7-7,1.2-18.1,1.5-26.4.3,0,.7,0,1-.1.7-.2,1.6-.4,1.6-.4l.6.4c.6.4,2.8,1.4,2.8,1.4,0,0,0,.8-.2,1.4-.2.6,0,1.6,0,1.6,0,0-.6.6-1.2,2.6-.6,2,.5,5.2,1.2,5.8.7.6,2.6,1.3,3.5,1.3s2.2-.5,2.2-.5l1.1.3c1.1.3,2.6-.3,3.3-1,.7-.7,1.6-1,2.4-1.4.8-.4,2.2-1.4,2.5-2.1.3-.7-.3-2.7-.4-3.3h0ZM57.8,85h-.3s-.5-1.3-.5-1.3c0,0-1.5-.4-2.1-.7,1.4,0,2.7.1,4,.2.1,1.8.3,3.1.3,3.1l-1.4-1.2h0Z"></path>
  <path class="st6" d="M52.5,28.4c-12.2,0-16.9,2.9-17.4,3.7-.4.9-1.3,42.1-1.3,42.1.7-.5,2-1,4.2-1.3,2.9-.4,8.8,0,15,.8,0,0,.2,0,.3,0,1.7,0,3.7.2,5.8.3.5-3,.8-4.1.8-4.1,0,0,4.6-3.8,7.7-4.4,3.1-.7,3.4-.6,3.4-.6,0,0,.5-.8,1.3-1.2.8-.4,2.6-.8,2.6-.8,0,0-.6.1-1.1.6-.5.4-1,.6-1,.9,0,.3,0,.5,0,.5,0,0,2.3,0,2.7.7.4.6,1.1,2,.7,2.9-.4,1-1.2,1.7-1.9,1.9-.7.3-1.2.2-1.2.4,0,.2.2.5.3.6.2,0,1,.3,1,.3,0,0-1.4.2-1.9,0-.5-.2-1.3-.9-1.3-.9,0,0-2.8.2-3.7.4-.9.2-2.6.7-2.6.7,0,0-.2,1.2-.3,2.9,3.4.4,6.6,1,9,1.5,1,.2,3.3,1,4.8,1.9l.8-1c.2-3.3,1-17.9,1.6-28.5-.6.3-1.2.6-1.5.9-.5.5-1.2,1.1-1.5,1.1s-1.6,0-1.6,0l-.3.9s.5.3,1,.2c.9,0,2.2-.8,2.2-.8,0,0-1.1,1.3-1.7,1.6-.9.4-2.1.2-2.1.2,0,0-.4.9-.9,1.5-.7.9-2.3,2.1-2.3,2.1,0,0,2.3-2.9,3.1-6.5.8-3.6.5-5.1,0-6.4-.5-1.3-2.4-3.1-2.4-3.1,0,0,2.1,1,2.9,2,.4.5.7,1.6.7,1.6,0,0,.4,0,.8.3.4.2,1.1.3,1.1.3,0,0,1.8-1.2,2.8-1.6l.6-8.5c.2-3.6-16.8-6.2-29.1-6.2h0ZM51.9,48.9c1.9-1.6,2.7-1.9,2.7-1.9,0,0-.2.8-.6,1.2-.4.4-3.1,3.2-3.3,3.9-.2.7.9,1.1,1.1,1.4.3.3,1.1.5.9,1,0,.2-1.7-.3-2.3-.6-.7-.3-1.1-1.1-1.1-1.3,0-.3.7-2,2.6-3.6h0ZM42.9,38.4c1.8-1.3,3.6-1.7,3.9-1.7s1,.4,1.2.9c.2.5.6,1.8.3,1.8-.5,0-.7-.6-.9-.8-.2-.2-.5-1-1.2-1-.8,0-3.8,1.8-4.3,2.1-.5.3-1.3.4-1.3.4,0,0,.4-.5,2.2-1.8h0ZM38.3,47.3s.1-1.3,1.2-2.8c1-1.5,2.7-2.3,2.7-2.3,0,0-1.5,1.5-2.3,2.9-.4.7-.6,1.9-.6,1.9l-1,.2h0ZM39.6,49s.6-2.8,1.9-4.8c1.8-2.8,4.4-3.5,5.7-3,.8.3,1.6,1.3,1.8,2.9.2,1.6-.3,5-.3,5,0,0-3.2,1.2-4.5,1.2-2.7,0-4.7-1.2-4.7-1.2h0ZM61.7,60s-.7-1.6-1.2-1.3c-.5.3-1.5,3.1-5.3,4.7-2.7,1.1-6.3,1.4-8.4.1-.4-.2,3.4,1.1,7.2-.4,3.8-1.6,5.7-4.5,5.4-4.9,0-.2-.5-.4-2,0-.2,0,.8-.9,2.9-.2,1.6.6,1.4,2.1,1.4,2.1h0ZM67.9,51.7c0,.2,0,.3-.2.4-.1.2-.3.2-.6,0,.1.1.3.3.4.4,0,0-.3,0-.3,0-.1,0-.2,0-.3,0-.2,0-.4,0-.6,0-.4,0-.8,0-1.3,0-.9,0-1.7,0-2.5-.2-.8-.1-1.7-.4-2.5-.7-.8-.3-1.6-.7-2.3-1.1-.4-.2-.7-.5-1-.7-.2-.1-.3-.3-.5-.4,0,0,0-.2,0-.3,0-.1,0-.2,0-.4.3-.9.6-1.8,1.1-2.7,0-.1.1-.2.2-.3.7-1.1,1.6-2.1,2.8-2.6s2.6-.7,3.8-.1c.9.4,1.7,1.2,2.2,2.1s.8,1.9,1.1,2.9c.3,1.1.4,2.2.4,3.3,0,0,0,.1,0,.2h0ZM69.2,49.2h-.6c0,0-.2-1.6-.6-2.7-.4-1.2-1.7-3-1.7-3,0,0,1.3.7,2.4,2.9.7,1.5.5,2.8.5,2.8h0ZM66.6,41.3c-1.4-1.5-2.7-2.4-3.3-2.3-.6.1-2.3,1-2.6,1.2-.3.1-.3.2-.3.2.1-.3.3-.8,1.3-1.4,1-.6,1.9-1.4,3.5-.3,1.6,1.1,3.5,4,3.8,5,.2.8.3,1.3.3,1.3,0,0-1.4-2.2-2.8-3.7h0Z"></path>
  <path class="st4" d="M59.9,46.1c-1,1.6-1.1,4.7-1,5.2.1,0,.4.2.9.4,0,0,0,0,0,0,0-1.6.8-4,1.4-4.9,1.2-1.7,3.3-1.9,3.3-1.9,0,0-.3-.4-.8-.6s-.8-.3-.8-.3c-.8.3-2.2,1.1-2.9,2.2h0Z"></path>
  <path class="st4" d="M46.8,41.7c-1.4.4-2.6,1.3-3.4,2.5-.6.8-.9,1.8-1.1,2.8-.2.9-.2,1.7-.3,2.6.1,0,.8.2,1,.2,0,0,.1-3.5,1.1-5,1.2-1.9,3.6-2.6,3.6-2.6-.2-.2-.4-.4-.7-.5h-.3c0,0,0,0,0,0Z"></path>
  <path class="st0" d="M96.9,75.4c-.5-1.1-1.4-1.9-2.6-2.4.1,1.3-.4,2.7-.7,3.2-.4.7-1.9,2.5-3.9,3.2.3.1.5.3.7.4.3,0,1,0,1.5.3.2.2.5.6.4,1.3,0,.6-.4,1-.7,1.2.2.3.3.7,0,1.4-.2.7-.6,1-.9,1.2,0,0,0,0,0,0,.2.3.4.9,0,1.7-.3.7-.7,1-1.1,1.1-.3,0-.5,0-.8,0-.4,0-.7-.3-.8-.3h0c-1.6-.6-3.4-1-4.4-1.2-.3,1.2-.6,4.2,2.7,5.6,1.8.8,4.1-1.1,6-3.5,1.6-2,3-4.3,3.7-5.7,0,0,2.2-4.3.8-7.4h0Z"></path>
  <path class="st0" d="M89.2,76.1h0s0,0,0,0c-.1,0-1.4.6-3.2,1.2.6.6,1.2.9,1.9,1,.2,0,.5,0,.7,0,2-.2,3.7-2.2,4-2.8.3-.6.9-2.3.3-3.4-.3-.5-.8-.8-1.5-1-.2,0-.3,0-.5,0-1.9-.2-3.1.7-3.8,1.4.3-.1.6-.2,1-.4h0s0,0,0,0c.7-.1,2.1,0,2.6,1.2.5,1.3-.7,2.3-1.5,2.7h0Z"></path>
  <path class="st0" d="M64.2,93.9s0,0-.1.1c-.2.1-.6.3-1.2.2-.2,0-.4-.2-.6-.3.3.1,1.4,1.6,2.7,3.6,0,0,0-.2,0-.3-.1-1.5-.5-2.6-.8-3.3h0Z"></path>
  <path class="st0" d="M60.9,88.6c.4.2,1.1.6,1.7,1.2.2,0,.3,0,.5.1,1.1.5,1.4,1.6,1.5,2.2,0,0,.1.2.3.4,0-.7,0-1.6-.8-2.6-1.2-1.5-2.5-2.1-3.4-2.3h0c.2.4.3.7.3,1Z"></path>
  <path class="st0" d="M61.5,90.4c-.3-.2-.6-.4-.8-.6-.1.3-.3.5-.3.5l-.4.6-3-2.8h0s-2.8-2.5-2.8-2.5v-.2s0,0,0,0l-3.9-1.4v-.3c-.2-.4-.4-.7-.6-1-.3-.5-.5-.9-.8-1.2h0c-3.8-1.8-6.9-.1-8.4,1,.9,0,2.1.2,3.3.5,1.1.3,2.2.7,3.3,1.4,3.4,2,10.2,6.6,11.4,7.3.5,0,1.7.1,3,1.3.1.1.3.3.4.4-.4-.6-.6-1.4-.7-1.9,0-.5,0-.9.2-1.2h0Z"></path>
  <path class="st5" d="M83.6,85.1c0-.3,0-.5,0-.8,2.2.3,4,.9,4.8,1.3-.1.3-.1.4-.3.7-1.9-.6-3.7-1-4.6-1.2Z"></path>
  <path class="st5" d="M84.3,81.4c2.6.4,4.3,1.3,5,1.7,0,.2,0,.3-.2.6-2.2-1-4.1-1.5-5-1.7,0-.3.1-.3.2-.6Z"></path>
  <path class="st5" d="M89.8,81.1c-1.6-.9-3.3-1.4-4.4-1.6,0,0,0-.1.1-.2,2.4.4,3.8,1.2,4.3,1.6,0,0,0,.1,0,.2h0Z"></path>
  <path class="st5" d="M88.4,73.4c-2.5,1-5.5,1.7-6.5,1.9-.3.5-.6.9-1,1.3,1.7-.4,5.7-1.6,8.1-3.2-.2,0-.5,0-.6,0Z"></path>
  <path class="st5" d="M89.6,73.9c-.1-.3-.4-.4-.6-.4-2.3,1.6-6.4,2.7-8.1,3.2-.4.5-.7,1-1.1,1.4,3.9-1,8.6-2.9,8.9-3,0,0,.8-.5.9-.9,0,0,0-.1,0-.2h0Z"></path>
  <path class="st5" d="M22.3,51.6c.3-.8.4-2.5,0-2.2-.4.3-3.8,2-5.1,1.7-1.3-.3-1.9-2-2.4-2-.3,0-.3.5-.3.8,0,.2.2.4.3.6.5.7,1.4,1.3,2.5,1.4,1.3.2,3.6-.8,4.8-1.8,0,0-.3,1.2-1.1,2.2.1.6.3,1.9.1,3.1,1-.9,1.7-2,2.2-3-.6.2-1.2-.3-.9-1Z"></path>
  <path class="st5" d="M14.6,59.3c-1.4-.2-6.3-4.7-7.1-5.4-.8-.7-2-1.4-2.1-.8,0,.4.4,1.2.6,1.5,0,0,0-.2,0-.2,3,2.4,7.3,5.7,8,5.9,1,.2,2.1,0,2.5-.5.5-.6.6-1.4.1-2.2-.3-.6-3.2-4.1-5-6.3,1,1.4,3.3,4.7,3.9,5.6.9,1.2.6,2.5-.8,2.3h0Z"></path>
  <path class="st5" d="M11.4,61.1s1,2.3-1.3,2.1c-2.1-.2-6.3-3.8-7.1-4.5,0,.1,0,.3.1.4.3,1.1,3.8,3.8,5.8,4.6,1.9.7,3.9.3,4.7-.5.4-.4.5-1,.5-1.5-.1,0-.3,0-.4,0-.9-.2-3.9-2.5-6-4.1l-1.2-.4c2.1,1.2,4.9,4,4.9,4h0Z"></path>
  <path class="st5" d="M19.8,53c-.9.3-1.9.4-2.8.3-1.4-.2-2.5-.9-3.3-1.9-.6-.8-.7-1.6-.6-2.3-.5-.7-1.1-.8-1.2-.3,0,.3,0,.8,0,1.2l.9,1.6c1.7,1.8,4.3,4.6,4.8,5.5,0,.2.2.3.2.5.3,0,.9-.2,1.6-1,.7-.8.6-2.5.4-3.6Z"></path>
  <path class="st5" d="M32.3,63.7c-1.4.5-3.5.7-3.5.7-2.3-.2-6.8-2.1-8-2.7-.2.3-.3.5-.5.7,1.6.8,5.1,2.6,8.4,3.4v-.6c0,0,.8,1.5,1.3,1.4.7,0,.6-.4.8-.7l1.5-.5v-1.8c0,0,0,0,0,0Z"></path>
  <path d="M64.5,106.8h0s0,0,0,0Z"></path>
  <path class="st5" d="M59.5,96.6c-.1.2-.3.5-.4.8l-6.6,4.5c0-.7-.1-1.6-.1-1.6h-.6c0,0-2.5.5-4-.1-1.5-.6-9.4-4.8-11.2-9.1-.4-.8-.4-1.6-.3-2.3h0s0,0,0-.2c0-.1,0-.3.1-.4.3-.7.8-1.1,1.4-1.2,3.8-1,12.4,5.2,15.2,7.2l.7.5c1.2.9,2.3,1.4,3.2,1.6l-4,3.5,6.5-3.3h0Z"></path>
  <path class="st5" d="M63.5,104.3c0,.8-.3,1.1-.4,1.1-1.4,1.3-6.6-.7-10-2.5l6.4-4.3c3.1,2.7,3.9,4.5,4,5.6,0,0,0,0,0,.1h0Z"></path>
  <path class="st5" d="M74.5,66.4c-.4,1.1-1.5.7-5.6,1.3-4.6.6-7.4,3-7.4,3-1.2,3.7-.6,13.3-.4,15.7.6.2,1.3.5,2,.9-.6-8-.1-12.8.2-15-.4-.5-1.4-.4-1.4-.4,1.7-1.8,5.7-2.1,8.6-2.3,1,0,1.8-.1,2.2-.2,1.7-.4,2.1-1,2-1.9,0-.5-.1-.8-.3-1.1h0Z"></path>
  <path class="st5" d="M78.1,49.3l.6-.5c2.5-2,4.6-3.3,8.3-3.9l-.8.5c1.3.5,4.4,1.9,7,5,0,0,.4,0,.7-.2.1-.1.2-.3,0-.7-1.2-2.3-2.9-4-4.4-5.1-1.6-.8-3.1-.9-3.1-.9-3.4-.2-7.3,3.8-8.1,3.6-.4-.1-.4-.4-.3-.7-.5.4-.9.7-1,.9,0,.7-.1,1.5-.3,2.3.3,0,.9.1,1.5-.4h0Z"></path>
  <path class="st5" d="M94.3,52.9c-1.4.8-2.7.2-3.2-.1,0,0,0,0,0,0,.6,1,1.6,1.1,2.2,1.1,1.3,0,2.5-1,3.1-2.3,1.1-2.6-.4-4.1-1-4.5,1.4,1.9.7,4.8-1.1,5.8h0Z"></path>
  <path class="st5" d="M101.3,53.5c.3-1.1.5-3.5-.3-4.2,0,0-.1-.1-.2-.2.7,1.6-.6,5.1-.6,5.1.3,2.1-1.7,2.5-1.7,2.5,0,0-1.7,2.1-2.9,2.1-1.2,0-4.4-1.2-4.4-1.2,0,1.2-.7,1.4-1.2,1.4.2.2.7.5,2,.9,0,0,0,0,0,0,.2,0,.5-.2,1-.4-1.1-.6-1.4-1.5-1.5-1.6,0,0,2.8,1.5,4.6,1.6.8,0,1.6-.6,2.3-1,.3-.2.6-.4.8-.6.2-.1.5-.2.8-.3.6-.2,1.6-.6,1.6-1,0-.4,0-.8-.1-1.2-.1-.6-.3-1.3,0-1.9h0Z"></path>
  <path class="st2" d="M62.7,43.8c-.9.4-2.2,1.1-2.9,2.2-1.1,1.8-1,5.2-1,5.2l-.4-.2c0-.7,0-3.3,1.1-5.1.6-1.1,1.5-1.7,2.3-2.1,0,0,.2,0,.4,0s.5,0,.5,0Z"></path>
  <path class="st2" d="M46.3,41.5c-1.6.4-2.8,1.6-3.6,3.1-.6,1.1-.9,2.4-1,3.6,0,.3,0,.7,0,1,0,.1,0,0,0,.2h.4c0-.8,0-1.6.3-2.5.2-1,.6-1.9,1.1-2.8.8-1.2,2.3-2.1,3.6-2.5,0,0,0,0-.2,0s-.5,0-.5,0h0Z"></path>
  <path class="st1" d="M46.3,41.5c-1.6.4-2.8,1.6-3.6,3.1-.6,1.1-.9,2.4-1,3.6,0,.3,0,.7,0,1,0,.1,0,0,0,.2l-1.3-.6c0-.9.3-2.5,1.8-4.7,1.5-2.3,4.2-2.6,4.2-2.6h0Z"></path>
  <path class="st5" d="M34.1,32c0,0-.6-.1-.9-.6-.4-.8-.3-2.5,2.6-4,4.7-2.5,16.8-2.2,16.8-2.2,0,0,12.6.4,20.8,2.1,8.3,1.8,9.6,4.3,9.3,5.8,0,0-1.5-3-9.4-4.2s-26-3.2-33.3-1c-7.3,2.2-6,4.1-6,4.1Z"></path>
  <path class="st5" d="M58.8,75.3c-1.5-.1-4.5,0-6.1-.1-2.6-.3-9.4-1.3-13-1-4.4.3-6.2,1.6-5.9,2.5.5,1.8,3.1,2.8,6.8,3.5.3-.1,3.8-1.3,5.5-1.1,1.8.1,4.4.8,5.3,1.4.8.5,1.8.8,2.8.9,2,.1,2.4.3,4.5.5h0c0-2.7,0-5,0-6.6h0Z"></path>
  <path class="st5" d="M64.3,75.9c-.1,1.5-.2,3.7-.1,6.2,8.8.3,14-.5,14.2-1.8.2-1.4-5.1-3.2-14-4.5Z"></path>
  <path class="st1" d="M15.1,62.6c0-.2,0-.4.1-.6,1,.1,2,0,2.7-.6,1.3-1,1.7-2.7,1.7-3.4,0,0,.2-.2.3-.2.3.6.6,1.9-.2,3.3-1.3,2.1-3.2,2.1-4.6,1.5h0Z"></path>
  <path class="st1" d="M14.7,49.1c.4,0,1.1,1.6,2.4,2,1.3.3,4.7-1.4,5.1-1.7.4-.3.4,1.4,0,2.2-.2.7.3,1.2.9,1,.2-.5.4-1.1.4-1.7.2-1.9-.5-3.3-1-3.9-1.1-1.2-2.5-1.3-3.3-1,0,0-4.5,2.1-4.7,2.2,0,0,0,.1-.2.2-.2.3-.4.8-.2,1.5,0-.3,0-.8.3-.8Z"></path>
  <path class="st1" d="M13.1,49c0-.8.5-1.4.8-1.7h0c0,0,.8-.5.8-.5-1.5-.7-3.4-.8-3.8-.4-1,.9-2.7,2-4.3,2.3-1.3.2-2.1,1.3-2.3,2.9-.2,2-.5,3.1-1,4.1-.4.7-.7,1.8-.5,2.9.8.7,5,4.3,7.1,4.5,2.3.3,1.3-2.1,1.3-2.1,0,0-2.8-2.8-4.9-4l-1.2-.4,1.3-.2c-.1,0-.4-1.4-.5-1.9-.2-.4-.7-1.1-.6-1.5,0-.6,1.3,0,2.1.8.8.7,5.7,5.2,7.1,5.4,1.4.2,1.7-1.1.8-2.3-.7-1-2.9-4.2-3.9-5.6-.8-1-1.5-1.8-1.5-1.8,0,0,1.5,1.1,1.6,1.2l.2-.9h0c0-.4,0-.9,0-1.2.1-.5.7-.4,1.2.3h0Z"></path>
  <path class="st1" d="M17.3,55.5s-.9-.8-.4-1.1c.5-.2,1.9-.3,2,.3.1.6-.9,1.6-1.6.8Z"></path>
  <path class="st1" d="M56.2,85.3c0,.1,0,.3,0,.4-.4-.4-.7-.7-.9-.8,0-.3,0-.5-.1-.7.4.2.7.3.8.4,0,.2.1.4.2.7Z"></path>
  <path class="st1" d="M58.2,87c.7.6,1.2,1.2,1.3,1.2,0,.1,0,.3.1.4,0,0,0,.2,0,.3-.6-.6-1.2-1.1-1.5-1.4,0-.2,0-.3,0-.5h0Z"></path>
  <path class="st1" d="M51.9,82c.4.4.7,1,.9,1.6-.7-.3-1.3-.5-1.6-.6-.2-.6-.5-1.1-.8-1.5.7.3,1.4.5,1.5.5Z"></path>
  <path class="st1" d="M63.3,93s0,0,0,0c-.4-.1-.8-.9-.8-1.5,0-.3,0-.5,0-.5h0c.7.3.8,1,.8,1.6,0,.2,0,.4,0,.5Z"></path>
  <path class="st1" d="M64.6,103.6c-.3-1.7-1.8-3.7-4.3-5.9.2-.5,1.2-2.6,1.2-2.6l-1.1.2c-1.6.2-3.1.5-5.9-1.5l-.7-.5c-5.5-4-12.4-8.5-16.3-7.4-.2,0-.4.1-.6.2.4-.9,1-1.9,1.8-2.4.8,0,4.5-.1,7.6,1.8,3.6,2.2,11.4,7.4,11.5,7.4h.2c0,.1.2,0,.2,0,0,0,1-.1,2.3,1,1.5,1.3,3.6,4.4,4.3,6,.1.3.3.9.4,1,0,.3,0,1.4-.7,2.6h0Z"></path>
  <path class="st1" d="M61.5,70.7s2.8-2.4,7.4-3c4.1-.6,5.3-.2,5.6-1.3-.2-.2-.5-.3-1-.4,0,0-7.7-.4-12.5,4.3-.1.1-.3.2-.4.3-.2.8-1.2,5.1-.7,11.7,0,1.2.2,2.5.4,3.9.2,0,.4,0,.7.2-.2-2.4-.8-12,.4-15.7Z"></path>
  <path class="st1" d="M90.1,93c-.6.2-1.2.3-1.8.3,1.6-.4,3.4-1.9,5.4-4.3,1.4-1.8,2.5-3.6,3.1-4.7-.2.6-.4,1.3-.9,2.2-1.1,2.2-3.6,5.7-5.8,6.6h0Z"></path>
  <path class="st1" d="M99.3,79.6c-.1.9-.4,1.9-1,3.1,0,0-.4-.2-.7-.4.5-1.3,1.3-3.8.8-6.1.3.3.7.7.9,1.1,0,.3,0,1.1-.2,2.2Z"></path>
  <path class="st1" d="M78.2,47.2c.9.3,4.8-3.7,8.1-3.6,0,0,1.5.1,3.1.9-.9-.6-1.7-1.1-2.2-1.4-.4-.2,0-.9-.6-1.2-.2,0-.9.4-1.5.8l.6.2c-3.5.4-6.4,2.3-7.9,3.5-.1.3-.1.6.3.7h0Z"></path>
  <path class="st1" d="M94.4,51.4c-.7.4-1.6.5-2.1,0-.5-.6-1-1.1-1.5-1.6-.2.7-.4,1.8.3,3,.5.3,1.7.9,3.2.1,1.8-1,2.6-3.8,1.1-5.8,0,0-.1-.1-.2-.1-.7-.4-1.3-.4-1.8-.3.6.7,1.1,1.5,1.6,2.4.4.9.2,1.8-.6,2.3h0Z"></path>
  <path class="st1" d="M91.2,57.6s3.2,1.1,4.4,1.2c1.2,0,2.9-2.1,2.9-2.1,0,0,2-.4,1.7-2.5,0,0,1.2-3.5.6-5.1-.6-.6-2-1.6-3.6-1.9.8,1.1,1.2,2.8.3,4.9-.7,1.7-2.4,2.9-4.1,3-1.4.1-2.6-.5-3.3-1.6,0,0,0,0,0-.1-.3.6-.6,1.3-.6,2.1,0,2,.2,3.1.5,3.4,0,0,0,0,.1.1.4,0,1.2-.3,1.2-1.4h0Z"></path>
  <path class="st1" d="M28.1,63.9l.6-.4-4.3-1c-1.4-.3-2.6-.9-3.3-1.3,0,.1-.1.3-.2.4,0,0,0,0,0,0,1.2.5,5.7,2.5,8,2.7,0,0,2.1-.3,3.5-.7v-.8c-1.3.5-3.1,1.2-4.2,1.1h0Z"></path>
  <path class="st1" d="M45.1,43.1l.9-.5s.5.6.9,1.5c.3.9,0,1.9,0,1.9,0,0,0-1.3-.8-2.1-.5-.5-1-.8-1-.8Z"></path>
  <path class="st1" d="M61.7,45.1l1-.5s.6.7,1,1.7c.4,1,.2,2,.2,2,0,0-.3-1.2-1.2-2.2-.5-.6-.9-1-.9-1h0Z"></path>
  <path class="st1" d="M64.1,49.3c0,.2-.2.4-.3.3-.1,0-.2-.2-.2-.4,0-.2.2-.4.3-.3.1,0,.2.2.2.4Z"></path>
  <path class="st1" d="M65.1,52.4c1,0,1.4-.2,1.6-.2,0,0,.2,0,.2-.2.2-.7-.2-2.8-.2-2.8,0,0-1.6,3.2-1.6,3.2Z"></path>
  <path class="st1" d="M59.5,45.9c.6-1.1,1.5-1.7,2.2-2.1-1,0-3.4.5-5.3,5.9l2,1.3c0-.7,0-3.3,1.1-5.1Z"></path>
  <path class="st1" d="M47,46.8c0,.2-.1.4-.3.4s-.3-.2-.3-.4.1-.4.3-.4.3.2.3.4Z"></path>
  <g id="Teton_Valley">
    <path class="st4" d="M45.9,154.8c0-.7.1-1.3.4-1.8.2-.6.6-1.1,1-1.5.4-.4.9-.8,1.5-1,.6-.2,1.2-.4,1.8-.4s1.3.1,1.9.3,1.1.6,1.5,1c.4.4.8.9,1,1.5.2.6.4,1.2.4,1.9s-.1,1.3-.4,1.8c-.2.6-.6,1.1-1,1.5-.4.4-.9.8-1.5,1-.6.2-1.2.4-1.8.4s-1.3-.1-1.9-.3c-.6-.2-1.1-.6-1.5-1-.4-.4-.8-.9-1-1.5-.2-.6-.4-1.2-.4-1.9h0ZM50.8,158.8c.4,0,.7,0,1.1-.3.3-.2.6-.4.8-.7.2-.3.4-.6.5-1s.2-.8.2-1.3c0-.7,0-1.3-.2-1.8s-.3-1.1-.6-1.5c-.3-.4-.6-.7-1-1s-.8-.4-1.4-.4-.6,0-1,.2-.6.4-.8.6c-.2.3-.4.6-.6,1-.1.4-.2.8-.2,1.3s0,1.3.2,1.9c.1.6.3,1.1.6,1.5.3.4.6.8.9,1,.4.2.8.4,1.3.4h0Z"></path>
    <path class="st4" d="M57.6,151.3c0,0,0-.2,0-.2,0,0,0-.1-.1-.2,0,0-.2,0-.3-.1-.1,0-.3,0-.5-.1,0,0-.1-.1-.1-.3h0c0-.2,0-.2,0-.3.4,0,.8,0,1.1,0,.3,0,.6,0,.8,0h2.9c.4,0,.8,0,1.1,0,.3,0,.5,0,.6,0s.2,0,.2.1c0,0,0,.2,0,.4,0,.2,0,.4,0,.6,0,.2,0,.3,0,.5s0,.3.2.5c0,0,0,0-.1,0s-.1,0-.2,0c-.1,0-.2,0-.2-.1-.1-.2-.2-.5-.3-.6-.1-.2-.2-.3-.4-.4s-.3-.2-.5-.2c-.2,0-.4,0-.7,0h-1.8v3.5h1.9c.2,0,.3,0,.3-.2,0-.2.1-.4.2-.7,0-.1.1-.2.3-.2s0,0,.1,0c0,0,.1,0,.1,0,0,.2,0,.5,0,.7,0,.3,0,.5,0,.7s0,.4,0,.6,0,.5,0,.8c0,0,0,0-.1,0s0,0-.1,0c-.2,0-.3,0-.3-.2,0-.3,0-.5-.2-.7,0-.2-.2-.2-.4-.2h-1.9v3.1c0,0,0,.2,0,.2,0,0,.2.1.3.2.1,0,.2,0,.4,0s.3,0,.5,0c.1,0,.2,0,.2.2s0,0,0,.1c0,0,0,.1,0,.2-.1,0-.3,0-.4,0-.1,0-.3,0-.4,0-.2,0-.5,0-.8,0-.3,0-.5,0-.8,0s-.3,0-.4,0-.3,0-.5,0c-.2,0-.3,0-.5,0-.2,0-.3,0-.5,0,0,0,0,0,0-.1h0c0-.3,0-.3.1-.4.3,0,.6-.1.7-.2.2,0,.3-.2.3-.4v-7h0Z"></path>
    <path class="st4" d="M72.4,151v7.4c0,0,0,.2,0,.2s0,.1.1.2c0,0,.1,0,.2.1.1,0,.2,0,.4,0,.1,0,.2.1.2.2s0,0,0,.1c0,0,0,.1,0,.1-.3,0-.6,0-1,0-.3,0-.6,0-.9,0s-.6,0-.9,0c-.3,0-.6,0-.9,0,0,0,0,0,0-.1,0,0,0,0,0-.1,0,0,0-.1,0-.2,0,0,0,0,.2,0,.3,0,.6-.1.7-.2,0,0,.1-.2.1-.4v-7.4h-1.2c-.3,0-.5,0-.7,0-.2,0-.3.1-.5.2-.1.1-.3.2-.4.4s-.2.4-.3.6c0,0-.1.1-.2.1s-.1,0-.2,0-.1,0-.2,0c0-.2.1-.4.2-.6,0-.2,0-.3.1-.5,0-.2,0-.4,0-.6s0-.3,0-.4c0,0,.1-.1.2-.1s.3,0,.6,0c.3,0,.7,0,1.1,0h4.3c.4,0,.8,0,1.1,0,.3,0,.5,0,.6,0s.2,0,.2.1c0,0,0,.2,0,.4s0,.4,0,.6c0,.2,0,.3.1.5,0,.2.1.4.2.6,0,0-.1,0-.2,0,0,0-.1,0-.2,0-.1,0-.2,0-.2-.1-.1-.2-.2-.5-.3-.6-.1-.2-.2-.3-.4-.4s-.3-.2-.5-.2c-.2,0-.4,0-.7,0h-1.2Z"></path>
    <path class="st4" d="M79.6,151v3.4h2c.2,0,.3,0,.4-.2s.1-.4.2-.7c0,0,0-.1,0-.1s.1,0,.2,0,0,0,.1,0c0,0,.1,0,.1,0,0,.2,0,.5,0,.7,0,.3,0,.5,0,.7s0,.4,0,.6,0,.5,0,.8c0,0,0,0-.1,0,0,0-.1,0-.1,0-.2,0-.3,0-.3-.2,0-.4-.1-.6-.2-.7,0-.1-.2-.2-.3-.2h-2v3.1c0,.2.1.3.4.4s.7,0,1.2,0h.6c.3,0,.5,0,.7-.1.2,0,.4-.2.5-.3.1-.1.3-.3.4-.5.1-.2.2-.4.3-.6,0,0,0,0,.2,0s.1,0,.2,0c0,0,.1,0,.2,0,0,0,0,.1,0,.2s0,.1,0,.2c0,.1,0,.2-.1.3,0,.1,0,.2,0,.3,0,0,0,.2,0,.3,0,.1,0,.2,0,.3s0,.2,0,.3c0,0,0,.1,0,.2,0,0-.1.1-.2.1s-.2,0-.3,0c-.1,0-.3,0-.5,0-.2,0-.3,0-.5,0-.2,0-.3,0-.4,0h-3.2c-.3,0-.6,0-.9,0-.4,0-.7,0-.9,0,0,0,0,0,0-.1h0c0-.3,0-.3.1-.4.4,0,.6-.1.8-.2.2,0,.2-.2.2-.4v-7c0,0,0-.2,0-.2,0,0,0-.1-.2-.2,0,0-.2,0-.3-.1-.1,0-.3,0-.5-.1,0,0-.1-.1-.1-.3h0c0-.2,0-.2,0-.3.4,0,.8,0,1.1,0,.3,0,.6,0,.8,0h2.9c.4,0,.8,0,1.1,0,.3,0,.5,0,.6,0s.2,0,.2.1c0,0,0,.2,0,.4,0,.2,0,.4,0,.6,0,.2,0,.3,0,.5,0,.1,0,.3.2.5,0,0,0,0-.2,0,0,0-.1,0-.2,0-.1,0-.2,0-.2-.1-.1-.2-.2-.5-.3-.6-.1-.2-.2-.3-.4-.4s-.3-.2-.5-.2c-.2,0-.4,0-.7,0h-1.9Z"></path>
    <path class="st4" d="M90.2,151v7.4c0,0,0,.2,0,.2s0,.1.1.2c0,0,.1,0,.2.1.1,0,.2,0,.4,0,.1,0,.2.1.2.2s0,0,0,.1c0,0,0,.1,0,.1-.3,0-.6,0-1,0-.3,0-.6,0-.9,0s-.6,0-.9,0c-.3,0-.6,0-.9,0,0,0,0,0,0-.1,0,0,0,0,0-.1,0,0,0-.1,0-.2,0,0,0,0,.2,0,.3,0,.6-.1.7-.2,0,0,.1-.2.1-.4v-7.4h-1.2c-.3,0-.5,0-.7,0-.2,0-.3.1-.5.2-.1.1-.3.2-.4.4s-.2.4-.3.6c0,0-.1.1-.2.1s-.1,0-.2,0-.1,0-.2,0c0-.2.1-.4.2-.6,0-.2,0-.3.1-.5,0-.2,0-.4,0-.6s0-.3,0-.4c0,0,.1-.1.2-.1s.3,0,.6,0c.3,0,.7,0,1.1,0h4.3c.4,0,.8,0,1.1,0,.3,0,.5,0,.6,0s.2,0,.2.1c0,0,0,.2,0,.4s0,.4,0,.6c0,.2,0,.3.1.5,0,.2.1.4.2.6,0,0-.1,0-.2,0,0,0-.1,0-.2,0-.1,0-.2,0-.2-.1-.1-.2-.2-.5-.3-.6-.1-.2-.2-.3-.4-.4s-.3-.2-.5-.2c-.2,0-.4,0-.7,0h-1.2Z"></path>
    <path class="st4" d="M94.4,154.8c0-.7.1-1.3.4-1.8.2-.6.6-1.1,1-1.5.4-.4.9-.8,1.5-1,.6-.2,1.2-.4,1.8-.4s1.3.1,1.9.3,1.1.6,1.5,1c.4.4.8.9,1,1.5.2.6.4,1.2.4,1.9s-.1,1.3-.4,1.8c-.2.6-.6,1.1-1,1.5-.4.4-.9.8-1.5,1-.6.2-1.2.4-1.8.4s-1.3-.1-1.9-.3c-.6-.2-1.1-.6-1.5-1-.4-.4-.8-.9-1-1.5-.2-.6-.4-1.2-.4-1.9h0ZM99.4,158.8c.4,0,.7,0,1.1-.3.3-.2.6-.4.8-.7.2-.3.4-.6.5-1s.2-.8.2-1.3c0-.7,0-1.3-.2-1.8s-.3-1.1-.6-1.5c-.3-.4-.6-.7-1-1s-.8-.4-1.4-.4-.6,0-1,.2-.6.4-.8.6c-.2.3-.4.6-.6,1-.1.4-.2.8-.2,1.3s0,1.3.2,1.9c.1.6.3,1.1.6,1.5.3.4.6.8.9,1,.4.2.8.4,1.3.4h0Z"></path>
    <path class="st4" d="M112.2,156.3v-5c0-.2,0-.3-.2-.4s-.4-.1-.7-.2c-.1,0-.2-.1-.2-.3h0c0-.2,0-.2,0-.3.2,0,.5,0,.7,0,.2,0,.5,0,.8,0s.6,0,.8,0c.2,0,.4,0,.6,0,0,0,0,0,0,.1,0,0,0,0,0,.1,0,.2,0,.2-.2.3-.3,0-.5.1-.6.2-.1,0-.2.2-.2.4v8.2s-.1,0-.2,0-.1,0-.2,0c0,0-.1,0-.2,0,0,0-.2-.1-.2-.2l-5.5-7v6c0,0,0,.2,0,.2,0,0,0,.1.1.2,0,0,.1,0,.3.1.1,0,.3,0,.5.1,0,0,0,0,.1,0,0,0,0,.1,0,.2s0,.1,0,.2c-.2,0-.5,0-.7,0-.2,0-.4,0-.7,0s-.5,0-.8,0c-.2,0-.5,0-.7,0,0,0,0,0,0-.1h0c0-.2,0-.3,0-.3,0,0,0,0,.1,0,.3,0,.6-.1.7-.2.1,0,.2-.2.2-.4v-7.1c0-.1,0-.3-.1-.3,0,0-.3-.1-.7-.2-.1,0-.2-.1-.2-.3h0c0,0,0-.1,0-.1h0c.1-.1.3,0,.4,0,.1,0,.2,0,.4,0,.2,0,.4,0,.6,0,.2,0,.4,0,.5,0,.3,0,.4,0,.5,0,0,0,.2,0,.2.1l4.6,5.9h0Z"></path>
    <path class="st4" d="M124.8,151.5c0-.1,0-.2,0-.3,0-.1,0-.2-.2-.3-.1,0-.3-.1-.6-.1-.1,0-.2,0-.2-.3s0,0,0,0c0,0,0,0,0,0h0c0-.1.2,0,.3,0,.1,0,.3,0,.4,0,.1,0,.3,0,.4,0,.1,0,.3,0,.4,0,.3,0,.5,0,.8,0,.2,0,.5,0,.6,0h0c0,.1,0,.2,0,.2h0c0,.2,0,.3-.2.3-.3,0-.5,0-.6.1-.1,0-.2.2-.3.4l-3.5,8.3s0,0-.1,0h0c0,0-.1,0-.2,0s0,0-.1-.2l-3.3-8.1c0,0,0-.1,0-.2,0,0,0,0-.1-.1,0,0-.2,0-.3,0-.1,0-.2,0-.4,0-.1,0-.2-.1-.2-.3h0c0-.2,0-.2,0-.2.1,0,.3,0,.5,0,.2,0,.4,0,.5,0,.2,0,.4,0,.5,0,.2,0,.3,0,.5,0,.3,0,.6,0,1,0,.4,0,.7,0,1,0,0,0,0,0,0,.1h0c0,.3,0,.4-.2.4-.3,0-.5,0-.6.1-.1,0-.2.2-.2.3s0,.1,0,.2l2,5.5,2.2-5.4h0Z"></path>
    <path class="st4" d="M130.9,156.3h-2.9l-.7,1.9s0,0,0,.2c0,0,0,0,0,.1,0,.1,0,.2.1.3,0,0,.3.1.6.2.1,0,.2.1.2.3s0,.1,0,.2c-.3,0-.5,0-.8,0-.3,0-.6,0-.8,0s-.4,0-.6,0c-.2,0-.4,0-.7,0,0,0,0,0,0-.1h0c0-.3,0-.4.2-.4.3,0,.5-.1.6-.2s.2-.2.3-.3l3.4-8.1c0-.2.2-.2.3-.2s0,0,.1,0c0,0,0,0,.2,0l3.4,8.3c0,.1.2.2.3.3.2,0,.3.1.5.1.1,0,.2.1.2.3s0,.2,0,.3c-.3,0-.6,0-.9,0-.3,0-.6,0-.8,0s-.3,0-.5,0c-.2,0-.4,0-.6,0-.2,0-.4,0-.6,0s-.4,0-.5,0c0,0,0,0,0-.1h0c0-.2,0-.3,0-.3s0,0,.1,0c.2,0,.4-.1.5-.2s.2-.2.2-.3,0-.1,0-.2l-.7-2h0ZM130.6,155.6l-1.2-3.1-1.2,3.1h2.4Z"></path>
    <path class="st4" d="M138.2,158.2c0,.2.1.3.4.4s.7,0,1.2,0h.5c.2,0,.4,0,.6,0,.2,0,.3-.1.5-.3.1-.1.2-.3.4-.5.1-.2.2-.4.3-.7,0,0,0-.1.2-.1s.1,0,.2,0c0,0,.1,0,.2,0,0,.3-.1.6-.2,1,0,.3-.1.7-.2,1,0,.1,0,.2,0,.2,0,0-.1,0-.2,0s-.2,0-.3,0c-.1,0-.3,0-.4,0s-.3,0-.5,0c-.2,0-.3,0-.4,0h-3.2c-.3,0-.6,0-.9,0-.4,0-.7,0-.9,0,0,0,0,0,0-.1h0c0-.3,0-.3.1-.4.4,0,.6-.1.8-.2.2,0,.2-.2.2-.4v-7c0,0,0-.2,0-.2,0,0,0-.1-.1-.2,0,0-.1,0-.3-.1-.1,0-.3,0-.5,0,0,0-.1-.1-.1-.2h0c0-.2,0-.2,0-.3.3,0,.6,0,1,0s.6,0,.9,0,.3,0,.4,0c.2,0,.3,0,.5,0,.2,0,.4,0,.5,0,.2,0,.3,0,.5,0,0,0,0,0,0,.2,0,0,0,0,0,.1,0,.1,0,.2-.1.2-.4,0-.7.1-.8.2-.1,0-.2.2-.2.4v6.8h0Z"></path>
    <path class="st4" d="M146.2,158.2c0,.2.1.3.4.4s.7,0,1.2,0h.5c.2,0,.4,0,.6,0,.2,0,.3-.1.5-.3.1-.1.2-.3.4-.5.1-.2.2-.4.3-.7,0,0,0-.1.2-.1s.1,0,.2,0c0,0,.1,0,.2,0,0,.3-.1.6-.2,1,0,.3-.1.7-.2,1,0,.1,0,.2,0,.2,0,0-.1,0-.2,0s-.2,0-.3,0c-.1,0-.3,0-.4,0s-.3,0-.5,0c-.2,0-.3,0-.4,0h-3.2c-.3,0-.6,0-.9,0-.4,0-.7,0-.9,0,0,0,0,0,0-.1h0c0-.3,0-.3.1-.4.4,0,.6-.1.8-.2.2,0,.2-.2.2-.4v-7c0,0,0-.2,0-.2,0,0,0-.1-.1-.2,0,0-.1,0-.3-.1-.1,0-.3,0-.5,0,0,0-.1-.1-.1-.2h0c0-.2,0-.2,0-.3.3,0,.6,0,1,0s.6,0,.9,0,.3,0,.4,0c.2,0,.3,0,.5,0,.2,0,.4,0,.5,0,.2,0,.3,0,.5,0,0,0,0,0,0,.2,0,0,0,0,0,.1,0,.1,0,.2-.1.2-.4,0-.7.1-.8.2-.1,0-.2.2-.2.4v6.8h0Z"></path>
    <path class="st4" d="M154.1,151v3.4h2c.2,0,.3,0,.4-.2s.1-.4.2-.7c0,0,0-.1,0-.1s.1,0,.2,0,0,0,.1,0c0,0,.1,0,.1,0,0,.2,0,.5,0,.7,0,.3,0,.5,0,.7s0,.4,0,.6,0,.5,0,.8c0,0,0,0-.1,0,0,0-.1,0-.1,0-.2,0-.3,0-.3-.2,0-.4-.1-.6-.2-.7,0-.1-.2-.2-.3-.2h-2v3.1c0,.2.1.3.4.4s.7,0,1.2,0h.6c.3,0,.5,0,.7-.1.2,0,.4-.2.5-.3.1-.1.3-.3.4-.5.1-.2.2-.4.3-.6,0,0,0,0,.2,0s.1,0,.2,0c0,0,.1,0,.2,0,0,0,0,.1,0,.2s0,.1,0,.2c0,.1,0,.2-.1.3,0,.1,0,.2,0,.3,0,0,0,.2,0,.3,0,.1,0,.2,0,.3s0,.2,0,.3c0,0,0,.1,0,.2,0,0-.1.1-.2.1s-.2,0-.3,0c-.1,0-.3,0-.5,0-.2,0-.3,0-.5,0-.2,0-.3,0-.4,0h-3.2c-.3,0-.6,0-.9,0-.4,0-.7,0-.9,0,0,0,0,0,0-.1h0c0-.3,0-.3.1-.4.4,0,.6-.1.8-.2.2,0,.2-.2.2-.4v-7c0,0,0-.2,0-.2,0,0,0-.1-.2-.2,0,0-.2,0-.3-.1-.1,0-.3,0-.5-.1,0,0-.1-.1-.1-.3h0c0-.2,0-.2,0-.3.4,0,.8,0,1.1,0,.3,0,.6,0,.8,0h2.9c.4,0,.8,0,1.1,0,.3,0,.5,0,.6,0s.2,0,.2.1c0,0,0,.2,0,.4,0,.2,0,.4,0,.6,0,.2,0,.3,0,.5,0,.1,0,.3.2.5,0,0,0,0-.2,0,0,0-.1,0-.2,0-.1,0-.2,0-.2-.1-.1-.2-.2-.5-.3-.6-.1-.2-.2-.3-.4-.4s-.3-.2-.5-.2c-.2,0-.4,0-.7,0h-1.9Z"></path>
    <path class="st4" d="M162.3,155.6l-2.2-4.2c-.1-.2-.2-.3-.4-.4-.2,0-.4-.1-.6-.2-.1,0-.2-.1-.2-.3h0c0,0,0-.1,0-.1h0c.2,0,.5,0,.8,0s.7,0,1.1,0,.3,0,.5,0c.2,0,.4,0,.6,0,.2,0,.4,0,.5,0,.2,0,.3,0,.4,0,0,0,0,.1,0,.2h0c0,.2,0,.3-.2.3-.2,0-.4,0-.5.1,0,0-.1.1-.1.2s0,.2,0,.3l1.6,3.2,1.6-3c.1-.2.2-.3.2-.4s0-.2-.2-.2-.3-.1-.5-.1c-.1,0-.2-.1-.2-.3s0-.1,0-.3c.2,0,.4,0,.7,0s.6,0,.8,0,.4,0,.7,0c.2,0,.5,0,.7,0,0,0,0,.1,0,.2h0c0,.3,0,.3-.2.4-.3,0-.6.1-.7.2-.1,0-.2.2-.3.3l-2.3,4.3v2.8c0,.1,0,.2,0,.3,0,0,0,.1.2.2,0,0,.2,0,.3.1.1,0,.3,0,.5,0,0,0,0,0,.1,0,0,0,0,.1,0,.2s0,0,0,0c0,0,0,0,0,0h0c-.1,0-.3,0-.4,0-.1,0-.3,0-.4,0-.2,0-.5,0-.7,0-.2,0-.4,0-.6,0s-.4,0-.6,0-.4,0-.6,0c-.1,0-.2,0-.4,0s-.2,0-.4,0h0c0-.1,0-.2,0-.2h0c0-.2,0-.2,0-.3,0,0,0,0,.1,0,.2,0,.4,0,.5-.1.1,0,.2,0,.3-.1s.1,0,.2-.2c0,0,0-.1,0-.3v-2.8h0Z"></path>
  </g>
  <g id="Community_Foundation">
    <path class="st4" d="M5.5,143.2c-.9,0-1.7-.1-2.4-.4-.7-.3-1.3-.7-1.7-1.2-.5-.5-.8-1.1-1-1.8C.1,139.1,0,138.4,0,137.6s.1-1.3.3-2,.6-1.3,1-1.8c.5-.5,1.1-1,1.8-1.3.7-.3,1.6-.5,2.6-.5s1.1,0,1.6.1c.5,0,1,.2,1.6.3,0,.3,0,.7.1,1.1s.2.9.3,1.4c0,0-.1,0-.2,0,0,0-.2,0-.2,0,0,0-.2,0-.2,0,0,0-.1,0-.1-.2-.1-.4-.3-.7-.4-.9-.2-.2-.3-.4-.6-.6-.2-.1-.5-.3-.8-.3-.3,0-.6,0-1,0-.6,0-1.1.1-1.6.3s-.8.5-1.1.9c-.3.4-.5.8-.7,1.4-.2.5-.2,1.1-.2,1.8s0,1.4.3,2c.2.6.5,1.1.8,1.6s.7.8,1.2,1.1,1,.4,1.5.4.8,0,1.1-.1c.3,0,.6-.2.8-.4.2-.2.4-.4.6-.7.2-.3.3-.6.4-.9,0,0,0-.2.2-.2,0,0,.1,0,.2,0s.1,0,.2,0,.2,0,.2,0c0,.2-.1.4-.2.6,0,.2-.1.5-.2.7,0,.2-.1.5-.2.7,0,.2-.1.5-.2.7-.5,0-1.1.2-1.6.2-.6,0-1.2,0-1.8,0h0Z"></path>
    <path class="st4" d="M10.6,137.6c0-.8.1-1.5.4-2.2.3-.7.7-1.3,1.2-1.8.5-.5,1.1-.9,1.8-1.2.7-.3,1.4-.4,2.2-.4s1.5.1,2.2.4c.7.3,1.3.7,1.8,1.2.5.5.9,1.1,1.2,1.8.3.7.4,1.4.4,2.2s-.1,1.5-.4,2.2c-.3.7-.7,1.3-1.2,1.8-.5.5-1.1.9-1.8,1.2s-1.4.4-2.2.4-1.5-.1-2.2-.4c-.7-.3-1.3-.7-1.8-1.2s-.9-1.1-1.2-1.8c-.3-.7-.4-1.4-.4-2.2h0ZM16.4,142.3c.5,0,.9-.1,1.3-.3.4-.2.7-.5,1-.8.3-.4.5-.8.6-1.2.1-.5.2-1,.2-1.5,0-.8,0-1.5-.2-2.2-.1-.7-.4-1.3-.7-1.7s-.7-.9-1.1-1.2c-.5-.3-1-.4-1.6-.4s-.8,0-1.1.3c-.4.2-.7.4-1,.7-.3.3-.5.7-.7,1.2s-.2,1-.2,1.6,0,1.6.2,2.3c.2.7.4,1.3.7,1.8.3.5.7.9,1.1,1.2.4.3.9.4,1.5.4h0Z"></path>
    <path class="st4" d="M33.2,132.6c0,0,.1-.2.2-.2,0,0,.3,0,.7,0s.2,0,.4,0c.2,0,.4,0,.6,0,.2,0,.4,0,.6,0,.2,0,.4,0,.5,0,0,0,0,.1,0,.2h0c0,.3,0,.4-.2.4-.2,0-.4,0-.5,0-.1,0-.2,0-.3.1,0,0-.1.1-.1.2,0,0,0,.1,0,.2s0,.2,0,.6c0,.4,0,.9,0,1.5,0,.6,0,1.2,0,1.9,0,.7,0,1.3,0,1.9,0,.6,0,1.1,0,1.6,0,.5,0,.7,0,.8,0,.1,0,.2,0,.3,0,0,0,.1.1.2,0,0,.2.1.3.1.1,0,.3,0,.5.1.1,0,.2.1.2.3s0,.2,0,.3c-.4,0-.7,0-1,0s-.7,0-1.1,0-.8,0-1.2,0-.8,0-1,0c0-.1,0-.2,0-.3,0-.1,0-.2,0-.2s0,0,.1,0c.5,0,.7-.2.9-.3.1-.1.2-.3.2-.5s0-.2,0-.5c0-.3,0-.7,0-1.2,0-.5,0-1,0-1.5,0-.5,0-1.1,0-1.6,0-.5,0-.9,0-1.3,0-.4,0-.6,0-.6l-3.4,7.9c0,0-.1.2-.1.2,0,0,0,0-.2,0h0s0,0,0,0l-3.8-9.2c0,.1,0,.4,0,.9,0,.4,0,.9,0,1.5,0,.6,0,1.2,0,1.8,0,.6,0,1.2,0,1.7,0,.5,0,1,0,1.3s0,.6,0,.6c0,0,0,.2,0,.3,0,0,0,.1.1.2s.2.1.3.1c.1,0,.3,0,.5.1.1,0,.2.1.2.3s0,0,0,.1,0,.1,0,.2c-.3,0-.6,0-.8,0s-.5,0-.8,0-.5,0-.8,0-.6,0-.9,0c0,0,0,0,0-.1h0c0-.3,0-.3,0-.4,0,0,0,0,.1,0,.3,0,.6-.2.7-.3.2,0,.2-.2.3-.4,0,0,0-.4,0-.8s0-1,0-1.6c0-.6,0-1.3,0-1.9,0-.7,0-1.3,0-1.9,0-.6,0-1.1,0-1.5,0-.4,0-.6,0-.6,0-.2,0-.3-.2-.4-.1,0-.4-.2-.8-.2-.1,0-.2-.1-.2-.3h0c0-.2,0-.2,0-.3.1,0,.3,0,.6,0s.5,0,.8,0c.3,0,.5,0,.7,0,.2,0,.4,0,.5,0,.2,0,.4,0,.5,0s.2,0,.3,0c0,0,.1,0,.1,0,0,0,0,0,0,.1l3.1,7.4,3.1-7.4h0Z"></path>
    <path class="st4" d="M48.2,132.6c0,0,.1-.2.2-.2,0,0,.3,0,.7,0s.2,0,.4,0c.2,0,.4,0,.6,0,.2,0,.4,0,.6,0,.2,0,.4,0,.5,0,0,0,0,.1,0,.2h0c0,.3,0,.4-.2.4-.2,0-.4,0-.5,0-.1,0-.2,0-.3.1,0,0-.1.1-.1.2,0,0,0,.1,0,.2s0,.2,0,.6c0,.4,0,.9,0,1.5,0,.6,0,1.2,0,1.9,0,.7,0,1.3,0,1.9,0,.6,0,1.1,0,1.6,0,.5,0,.7,0,.8,0,.1,0,.2,0,.3,0,0,0,.1.1.2,0,0,.2.1.3.1.1,0,.3,0,.5.1.1,0,.2.1.2.3s0,.2,0,.3c-.4,0-.7,0-1,0s-.7,0-1.1,0-.8,0-1.2,0-.8,0-1,0c0-.1,0-.2,0-.3,0-.1,0-.2,0-.2s0,0,.1,0c.5,0,.7-.2.9-.3.1-.1.2-.3.2-.5s0-.2,0-.5c0-.3,0-.7,0-1.2,0-.5,0-1,0-1.5,0-.5,0-1.1,0-1.6,0-.5,0-.9,0-1.3,0-.4,0-.6,0-.6l-3.4,7.9c0,0-.1.2-.1.2,0,0,0,0-.2,0h0s0,0,0,0l-3.8-9.2c0,.1,0,.4,0,.9,0,.4,0,.9,0,1.5,0,.6,0,1.2,0,1.8,0,.6,0,1.2,0,1.7,0,.5,0,1,0,1.3s0,.6,0,.6c0,0,0,.2,0,.3,0,0,0,.1.1.2s.2.1.3.1c.1,0,.3,0,.5.1.1,0,.2.1.2.3s0,0,0,.1,0,.1,0,.2c-.3,0-.6,0-.8,0s-.5,0-.8,0-.5,0-.8,0-.6,0-.9,0c0,0,0,0,0-.1h0c0-.3,0-.3,0-.4,0,0,0,0,.1,0,.3,0,.6-.2.7-.3.2,0,.2-.2.3-.4,0,0,0-.4,0-.8s0-1,0-1.6c0-.6,0-1.3,0-1.9,0-.7,0-1.3,0-1.9,0-.6,0-1.1,0-1.5,0-.4,0-.6,0-.6,0-.2,0-.3-.2-.4-.1,0-.4-.2-.8-.2-.1,0-.2-.1-.2-.3h0c0-.2,0-.2,0-.3.1,0,.3,0,.6,0s.5,0,.8,0c.3,0,.5,0,.7,0,.2,0,.4,0,.5,0,.2,0,.4,0,.5,0s.2,0,.3,0c0,0,.1,0,.1,0,0,0,0,0,0,.1l3.1,7.4,3.1-7.4h0Z"></path>
    <path class="st4" d="M63,138.9c0,.6,0,1.2-.2,1.7-.1.5-.4,1-.7,1.4-.3.4-.8.7-1.3.9-.5.2-1.2.3-2.1.3s-1.8-.1-2.4-.3-1.1-.5-1.4-.9c-.3-.4-.5-.8-.7-1.3-.1-.5-.2-1.1-.2-1.6v-5.5c0-.2,0-.4-.2-.5-.1,0-.4-.2-.9-.2-.1,0-.2-.1-.2-.3h0c0-.2,0-.2,0-.3.3,0,.7,0,1,0s.8,0,1.3,0,.8,0,1.2,0c.4,0,.8,0,1.1,0,0,0,0,.1,0,.2,0,0,0,0,0,.1,0,.2,0,.3-.2.3-.5,0-.8.1-.9.2-.2,0-.2.3-.2.5v5.1c0,1.1.2,2,.6,2.6.4.6,1.2.9,2.2.9s1.8-.3,2.3-.8c.4-.6.7-1.5.7-2.7v-5.1c0-.2,0-.4-.2-.5-.2,0-.4-.2-.9-.2-.1,0-.2-.1-.2-.3s0,0,0-.1c0,0,0-.1,0-.2.3,0,.6,0,.9,0s.6,0,.9,0,.7,0,.9,0c.3,0,.5,0,.8,0,0,0,0,.1,0,.2,0,0,0,0,0,.1,0,.2,0,.3-.2.3-.4,0-.7.1-.8.2-.2.1-.2.3-.2.5v5.4h0Z"></path>
    <path class="st4" d="M74.1,139.4v-5.9c0-.2,0-.4-.2-.5-.2,0-.5-.2-.9-.2-.1,0-.2-.1-.2-.3h0c0-.2,0-.2,0-.3.3,0,.5,0,.8,0s.6,0,.9,0,.7,0,.9,0c.3,0,.5,0,.8,0,0,0,0,.1,0,.2,0,0,0,0,0,.1,0,.2,0,.3-.2.3-.4,0-.6.1-.7.2-.1,0-.2.3-.2.5v9.7s-.1,0-.2,0-.2,0-.2,0c0,0-.2,0-.2,0,0,0-.2-.1-.3-.2l-6.5-8.2v7.1c0,.1,0,.2,0,.3,0,0,0,.1.1.2,0,0,.2,0,.3.1.1,0,.3,0,.6.1,0,0,.1,0,.1,0,0,0,0,.1,0,.2s0,.2,0,.3c-.3,0-.5,0-.8,0-.2,0-.5,0-.8,0s-.6,0-.9,0-.6,0-.8,0c0,0,0,0,0-.1h0c0-.2,0-.3,0-.4s0,0,.1,0c.4,0,.7-.1.8-.2.1,0,.2-.3.2-.5v-8.3c0-.2,0-.3-.2-.4-.1,0-.4-.2-.8-.2-.1,0-.2-.1-.2-.3h0c0-.1,0-.1,0-.2h0c.2-.1.3-.1.4-.1.1,0,.3,0,.4,0,.2,0,.5,0,.7,0,.2,0,.4,0,.6,0,.3,0,.5,0,.6,0s.2,0,.3.2l5.5,6.9h0Z"></path>
    <path class="st4" d="M80.8,141.8c0,.1,0,.2,0,.3,0,0,0,.1.1.2,0,0,.2.1.3.1.1,0,.3,0,.6.1.1,0,.2.1.2.3s0,0,0,.1c0,0,0,.1,0,.2-.4,0-.7,0-1.1,0s-.8,0-1.1,0-.7,0-1.1,0-.8,0-1.1,0c0,0,0,0,0-.2h0c0-.3,0-.4.2-.4.2,0,.4,0,.6-.1.1,0,.2,0,.3-.1s.1-.1.1-.2c0,0,0-.2,0-.3v-8.3c0-.1,0-.2,0-.3s0-.1-.1-.2c0,0-.2-.1-.3-.1-.1,0-.3,0-.6-.1-.1,0-.2-.1-.2-.3h0c0-.2,0-.3,0-.3.4,0,.7,0,1.1,0s.8,0,1.1,0,.7,0,1.1,0,.8,0,1.1,0c0,0,0,.1,0,.2,0,0,0,.1,0,.1,0,.2,0,.2-.2.3-.2,0-.4,0-.6.1-.1,0-.2,0-.3.1,0,0-.1.1-.1.2s0,.2,0,.3c0,0,0,8.3,0,8.3Z"></path>
    <path class="st4" d="M89.2,133.1v8.7c0,.1,0,.2,0,.3,0,0,0,.1.1.2s.2.1.3.1c.1,0,.3,0,.5.1.2,0,.2.1.2.3s0,0,0,.1c0,0,0,.1,0,.2-.4,0-.7,0-1.1,0s-.8,0-1.1,0-.7,0-1.1,0-.8,0-1.1,0c0,0,0,0,0-.2,0,0,0-.1,0-.1,0,0,0-.1,0-.2s.1,0,.2-.1c.4,0,.7-.1.8-.2.1,0,.2-.2.2-.5v-8.7h-1.5c-.3,0-.6,0-.8,0-.2,0-.4.2-.6.3-.2.1-.3.3-.4.5-.1.2-.3.4-.4.7,0,0-.1.1-.2.1s-.1,0-.2,0-.2,0-.2,0c0-.3.1-.5.2-.7,0-.2,0-.4.1-.6,0-.3,0-.5,0-.7,0-.2,0-.3,0-.4,0,0,.1-.1.3-.1s.4,0,.7,0,.8,0,1.3,0h5.1c.5,0,.9,0,1.3,0,.4,0,.6,0,.7,0s.2,0,.3.1c0,0,0,.2,0,.4,0,.2,0,.4.1.7,0,.2,0,.4.1.6,0,.2.1.4.2.7,0,0-.1,0-.2,0s-.2,0-.2,0c-.1,0-.2,0-.3-.1-.1-.3-.3-.5-.4-.7-.1-.2-.3-.4-.4-.5-.2-.1-.3-.2-.6-.3-.2,0-.5,0-.8,0h-1.5,0Z"></path>
    <path class="st4" d="M97.7,138.5l-2.6-5c-.1-.2-.3-.4-.5-.5s-.4-.2-.7-.2c-.1,0-.2-.1-.2-.3h0c0-.1,0-.1,0-.2h0c.2,0,.6,0,.9,0s.8,0,1.2,0,.3,0,.6,0c.2,0,.4,0,.7,0,.2,0,.4,0,.6,0s.3,0,.5,0c0,0,0,.2,0,.2h0c0,.3,0,.4-.2.4-.3,0-.5,0-.6.1-.1,0-.2.1-.2.2s0,.2.1.3l1.9,3.8,1.9-3.6c.1-.2.2-.4.2-.5s0-.2-.2-.3-.3-.1-.6-.2c-.1,0-.2-.1-.2-.3s0-.1,0-.3c.2,0,.5,0,.9,0,.3,0,.7,0,.9,0s.5,0,.8,0c.3,0,.6,0,.8,0,0,0,0,.1,0,.2h0c0,.3,0,.4-.2.4-.4,0-.7.1-.8.2-.2,0-.3.2-.4.4l-2.7,5v3.3c0,.1,0,.2,0,.3,0,0,0,.1.2.2,0,0,.2.1.4.1.1,0,.3,0,.6.1,0,0,.1,0,.1,0,0,0,0,.1,0,.2s0,0,0,0c0,0,0,0,0,0h0c-.2.1-.3.1-.5.1-.2,0-.3,0-.5,0-.3,0-.5,0-.8,0-.3,0-.5,0-.7,0s-.4,0-.7,0c-.3,0-.5,0-.8,0-.1,0-.3,0-.4,0-.1,0-.3,0-.4,0h0c0-.1,0-.2,0-.2h0c0-.2,0-.3,0-.3,0,0,0,0,.1,0,.2,0,.4,0,.6-.1.2,0,.3,0,.4-.1,0,0,.1-.1.2-.2,0,0,0-.2,0-.3v-3.3h0Z"></path>
    <path class="st4" d="M109.4,133.5c0,0,0-.2,0-.3s0-.1-.2-.2c0,0-.2-.1-.4-.1-.2,0-.4,0-.6-.1-.1,0-.2-.1-.2-.3v-.2s0-.1,0-.2c.5,0,.9,0,1.3,0,.4,0,.7,0,.9,0h3.4c.5,0,.9,0,1.3,0s.6,0,.7,0,.2,0,.3.1c0,0,0,.3,0,.5s0,.5.1.7c0,.2,0,.4.1.5,0,.2.1.4.2.6,0,0-.1,0-.2,0,0,0-.1,0-.2,0-.1,0-.2,0-.2-.1-.1-.3-.3-.5-.4-.7-.1-.2-.3-.4-.4-.5-.2-.1-.3-.2-.6-.3-.2,0-.5,0-.8,0h-2.2v4.2h2.3c.2,0,.3,0,.4-.3s.2-.5.2-.8c0-.1.1-.2.3-.2s0,0,.2,0c0,0,.1,0,.2,0,0,.3,0,.5,0,.9,0,.3,0,.6,0,.8s0,.4,0,.7c0,.3,0,.6,0,.9,0,0,0,0-.1,0,0,0-.1,0-.1,0-.2,0-.3,0-.3-.2,0-.4-.1-.6-.2-.8,0-.2-.2-.3-.4-.3h-2.3v3.7c0,.1,0,.2.1.3,0,0,.2.1.3.2.1,0,.3,0,.5.1s.4,0,.6,0c.1,0,.2.1.2.3s0,0,0,.2c0,0,0,.1,0,.2-.2,0-.3,0-.5,0-.2,0-.3,0-.5,0-.3,0-.6,0-.9,0-.3,0-.6,0-1,0s-.3,0-.5,0c-.2,0-.4,0-.6,0-.2,0-.4,0-.6,0-.2,0-.4,0-.5,0,0,0,0-.1,0-.2v-.2c0-.2,0-.3.2-.3.4,0,.6-.2.9-.3.2,0,.3-.2.3-.5v-8.3h0Z"></path>
    <path class="st4" d="M117,137.6c0-.8.1-1.5.4-2.2.3-.7.7-1.3,1.2-1.8.5-.5,1.1-.9,1.8-1.2.7-.3,1.4-.4,2.2-.4s1.5.1,2.2.4c.7.3,1.3.7,1.8,1.2.5.5.9,1.1,1.2,1.8.3.7.4,1.4.4,2.2s-.1,1.5-.4,2.2c-.3.7-.7,1.3-1.2,1.8-.5.5-1.1.9-1.8,1.2s-1.4.4-2.2.4-1.5-.1-2.2-.4c-.7-.3-1.3-.7-1.8-1.2s-.9-1.1-1.2-1.8c-.3-.7-.4-1.4-.4-2.2h0ZM122.8,142.3c.5,0,.9-.1,1.3-.3.4-.2.7-.5,1-.8.3-.4.5-.8.6-1.2.1-.5.2-1,.2-1.5,0-.8,0-1.5-.2-2.2-.1-.7-.4-1.3-.7-1.7s-.7-.9-1.1-1.2c-.5-.3-1-.4-1.6-.4s-.8,0-1.1.3c-.4.2-.7.4-1,.7-.3.3-.5.7-.7,1.2s-.2,1-.2,1.6,0,1.6.2,2.3c.2.7.4,1.3.7,1.8.3.5.7.9,1.1,1.2.4.3.9.4,1.5.4h0Z"></path>
    <path class="st4" d="M139,138.9c0,.6,0,1.2-.2,1.7-.1.5-.4,1-.7,1.4-.3.4-.8.7-1.3.9-.5.2-1.2.3-2.1.3s-1.8-.1-2.4-.3-1.1-.5-1.4-.9c-.3-.4-.5-.8-.7-1.3-.1-.5-.2-1.1-.2-1.6v-5.5c0-.2,0-.4-.2-.5-.1,0-.4-.2-.9-.2-.1,0-.2-.1-.2-.3h0c0-.2,0-.2,0-.3.3,0,.7,0,1,0s.8,0,1.3,0,.8,0,1.2,0c.4,0,.8,0,1.1,0,0,0,0,.1,0,.2,0,0,0,0,0,.1,0,.2,0,.3-.2.3-.5,0-.8.1-.9.2-.2,0-.2.3-.2.5v5.1c0,1.1.2,2,.6,2.6.4.6,1.2.9,2.2.9s1.8-.3,2.3-.8c.4-.6.7-1.5.7-2.7v-5.1c0-.2,0-.4-.2-.5-.2,0-.4-.2-.9-.2-.1,0-.2-.1-.2-.3s0,0,0-.1c0,0,0-.1,0-.2.3,0,.6,0,.9,0s.6,0,.9,0,.7,0,.9,0c.3,0,.5,0,.8,0,0,0,0,.1,0,.2,0,0,0,0,0,.1,0,.2,0,.3-.2.3-.4,0-.7.1-.8.2-.2.1-.2.3-.2.5v5.4h0Z"></path>
    <path class="st4" d="M150.1,139.4v-5.9c0-.2,0-.4-.2-.5-.2,0-.5-.2-.9-.2-.1,0-.2-.1-.2-.3h0c0-.2,0-.2,0-.3.3,0,.5,0,.8,0s.6,0,.9,0,.7,0,.9,0c.3,0,.5,0,.8,0,0,0,0,.1,0,.2,0,0,0,0,0,.1,0,.2,0,.3-.2.3-.4,0-.6.1-.7.2-.1,0-.2.3-.2.5v9.7s-.1,0-.2,0-.2,0-.2,0c0,0-.2,0-.2,0,0,0-.2-.1-.3-.2l-6.5-8.2v7.1c0,.1,0,.2,0,.3,0,0,0,.1.1.2,0,0,.2,0,.3.1.1,0,.3,0,.6.1,0,0,.1,0,.1,0,0,0,0,.1,0,.2s0,.2,0,.3c-.3,0-.5,0-.8,0-.2,0-.5,0-.8,0s-.6,0-.9,0-.6,0-.8,0c0,0,0,0,0-.1h0c0-.2,0-.3,0-.4s0,0,.1,0c.4,0,.7-.1.8-.2.1,0,.2-.3.2-.5v-8.3c0-.2,0-.3-.2-.4-.1,0-.4-.2-.8-.2-.1,0-.2-.1-.2-.3h0c0-.1,0-.1,0-.2h0c.2-.1.3-.1.4-.1.1,0,.3,0,.4,0,.2,0,.5,0,.7,0,.2,0,.4,0,.6,0,.3,0,.5,0,.6,0s.2,0,.3.2l5.5,6.9h0Z"></path>
    <path class="st4" d="M164.7,137.6c0,.6-.1,1.3-.3,1.9-.2.6-.6,1.2-1,1.7s-1.1.9-1.8,1.2c-.7.3-1.6.5-2.5.5h-3.4c-.3,0-.6,0-1,0-.4,0-.7,0-1.1,0,0,0,0,0,0-.1h0c0-.3,0-.3,0-.4,0,0,0,0,.1,0,.3,0,.6-.1.8-.2.2,0,.3-.3.3-.5v-8.3c0-.2,0-.4-.2-.5-.2,0-.4-.2-.8-.2,0,0-.1,0-.2-.1,0,0,0-.1,0-.2h0c0-.2,0-.2,0-.3.2,0,.4,0,.6,0,.2,0,.3,0,.5,0,.2,0,.3,0,.5,0h3.8c.9,0,1.8.1,2.5.4.7.3,1.3.7,1.8,1.2.5.5.8,1,1.1,1.7s.4,1.3.4,2.1h0ZM162.4,137.9c0-.9,0-1.6-.3-2.2-.2-.6-.5-1.1-.9-1.5-.4-.4-.9-.7-1.4-.9-.6-.2-1.2-.3-1.9-.3h-1v8.5c0,.1,0,.2,0,.3,0,0,0,.1.2.2,0,0,.2,0,.4,0,.2,0,.4,0,.7,0,1.4,0,2.5-.4,3.2-1.1.7-.8,1-1.8,1-3.1h0Z"></path>
    <path class="st4" d="M171,139.4h-3.5l-.9,2.3c0,0,0,.1,0,.2,0,0,0,.1,0,.1,0,.1,0,.2.2.3.1,0,.3.1.7.2.2,0,.2.1.2.3s0,.2,0,.3c-.3,0-.6,0-.9,0-.3,0-.7,0-1,0s-.5,0-.7,0c-.2,0-.5,0-.8,0,0,0,0,0,0-.1h0c0-.3,0-.5.2-.5.3,0,.6-.1.7-.2s.3-.2.4-.4l4-9.5c0-.2.2-.3.4-.3s.1,0,.2,0c0,0,.1,0,.2,0l4,9.8c0,.2.2.3.4.4.2,0,.4.1.6.2.2,0,.2.1.2.3s0,.2,0,.3c-.4,0-.7,0-1,0-.3,0-.7,0-1,0s-.3,0-.6,0c-.2,0-.4,0-.7,0-.2,0-.5,0-.7,0s-.4,0-.6,0c0,0,0,0,0-.1h0c0-.2,0-.3,0-.4s0,0,.1,0c.3,0,.5-.1.6-.2.1,0,.2-.2.2-.3s0-.1,0-.2l-.9-2.4h0ZM170.7,138.5l-1.4-3.7-1.4,3.7h2.8,0Z"></path>
    <path class="st4" d="M180.3,133.1v8.7c0,.1,0,.2,0,.3,0,0,0,.1.1.2s.2.1.3.1c.1,0,.3,0,.5.1.2,0,.2.1.2.3s0,0,0,.1c0,0,0,.1,0,.2-.4,0-.7,0-1.1,0s-.8,0-1.1,0-.7,0-1.1,0-.8,0-1.1,0c0,0,0,0,0-.2,0,0,0-.1,0-.1,0,0,0-.1,0-.2s.1,0,.2-.1c.4,0,.7-.1.8-.2.1,0,.2-.2.2-.5v-8.7h-1.5c-.3,0-.6,0-.8,0-.2,0-.4.2-.6.3-.2.1-.3.3-.4.5-.1.2-.3.4-.4.7,0,0-.1.1-.2.1s-.1,0-.2,0-.2,0-.2,0c0-.3.1-.5.2-.7,0-.2,0-.4.1-.6,0-.3,0-.5,0-.7,0-.2,0-.3,0-.4,0,0,.1-.1.3-.1s.4,0,.7,0,.8,0,1.3,0h5.1c.5,0,.9,0,1.3,0,.4,0,.6,0,.7,0s.2,0,.3.1c0,0,0,.2,0,.4,0,.2,0,.4.1.7,0,.2,0,.4.1.6,0,.2.1.4.2.7,0,0-.1,0-.2,0s-.2,0-.2,0c-.1,0-.2,0-.3-.1-.1-.3-.3-.5-.4-.7-.1-.2-.3-.4-.4-.5-.2-.1-.3-.2-.6-.3-.2,0-.5,0-.8,0h-1.5,0Z"></path>
    <path class="st4" d="M188.7,141.8c0,.1,0,.2,0,.3,0,0,0,.1.1.2,0,0,.2.1.3.1.1,0,.3,0,.6.1.1,0,.2.1.2.3s0,0,0,.1c0,0,0,.1,0,.2-.4,0-.7,0-1.1,0s-.8,0-1.1,0-.7,0-1.1,0-.8,0-1.1,0c0,0,0,0,0-.2h0c0-.3,0-.4.2-.4.2,0,.4,0,.6-.1.1,0,.2,0,.3-.1s.1-.1.1-.2c0,0,0-.2,0-.3v-8.3c0-.1,0-.2,0-.3s0-.1-.1-.2c0,0-.2-.1-.3-.1-.1,0-.3,0-.6-.1-.1,0-.2-.1-.2-.3h0c0-.2,0-.3,0-.3.4,0,.7,0,1.1,0s.8,0,1.1,0,.7,0,1.1,0,.8,0,1.1,0c0,0,0,.1,0,.2,0,0,0,.1,0,.1,0,.2,0,.2-.2.3-.2,0-.4,0-.6.1-.1,0-.2,0-.3.1,0,0-.1.1-.1.2s0,.2,0,.3v8.3Z"></path>
    <path class="st4" d="M191,137.6c0-.8.1-1.5.4-2.2.3-.7.7-1.3,1.2-1.8.5-.5,1.1-.9,1.8-1.2.7-.3,1.4-.4,2.2-.4s1.5.1,2.2.4c.7.3,1.3.7,1.8,1.2.5.5.9,1.1,1.2,1.8.3.7.4,1.4.4,2.2s-.1,1.5-.4,2.2c-.3.7-.7,1.3-1.2,1.8-.5.5-1.1.9-1.8,1.2-.7.3-1.4.4-2.2.4s-1.5-.1-2.2-.4c-.7-.3-1.3-.7-1.8-1.2-.5-.5-.9-1.1-1.2-1.8-.3-.7-.4-1.4-.4-2.2h0ZM196.9,142.3c.5,0,.9-.1,1.3-.3.4-.2.7-.5,1-.8.3-.4.5-.8.6-1.2.1-.5.2-1,.2-1.5,0-.8,0-1.5-.2-2.2-.1-.7-.4-1.3-.7-1.7s-.7-.9-1.1-1.2c-.5-.3-1-.4-1.6-.4s-.8,0-1.1.3c-.4.2-.7.4-1,.7-.3.3-.5.7-.7,1.2s-.2,1-.2,1.6,0,1.6.2,2.3c.2.7.4,1.3.7,1.8.3.5.7.9,1.1,1.2.4.3.9.4,1.5.4h0Z"></path>
    <path class="st4" d="M212,139.4v-5.9c0-.2,0-.4-.2-.5-.2,0-.5-.2-.9-.2-.1,0-.2-.1-.2-.3h0c0-.2,0-.2,0-.3.3,0,.5,0,.8,0s.6,0,.9,0,.7,0,.9,0c.3,0,.5,0,.8,0,0,0,0,.1,0,.2,0,0,0,0,0,.1,0,.2,0,.3-.2.3-.4,0-.6.1-.7.2-.1,0-.2.3-.2.5v9.7s-.1,0-.2,0-.2,0-.2,0c0,0-.2,0-.2,0,0,0-.2-.1-.3-.2l-6.5-8.2v7.1c0,.1,0,.2,0,.3,0,0,0,.1.1.2,0,0,.2,0,.3.1.1,0,.3,0,.6.1,0,0,.1,0,.1,0,0,0,0,.1,0,.2s0,.2,0,.3c-.3,0-.5,0-.8,0-.2,0-.5,0-.8,0s-.6,0-.9,0-.6,0-.8,0c0,0,0,0,0-.1h0c0-.2,0-.3,0-.4s0,0,.1,0c.4,0,.7-.1.8-.2.1,0,.2-.3.2-.5v-8.3c0-.2,0-.3-.2-.4-.1,0-.4-.2-.8-.2-.1,0-.2-.1-.2-.3h0c0-.1,0-.1,0-.2h0c.2-.1.3-.1.4-.1.1,0,.3,0,.4,0,.2,0,.5,0,.7,0,.2,0,.4,0,.6,0,.3,0,.5,0,.6,0s.2,0,.3.2l5.5,6.9h0Z"></path>
  </g>
  <g id="Challengev_Grey_">
    <path class="st3" d="M156.5,81c-1.7,0-2.3.2-2.3.7s.3.8,3.7.8,3.7-.2,3.7-.8-.9-.8-2.4-.8v-1.6c1.9,0,4,.3,4,2.4s-2,2.7-5.3,2.7-5.3-1.2-5.3-2.7c0-2.2,2-2.4,3.9-2.4v1.7c0,0,0,0,0,0Z"></path>
    <path class="st3" d="M152.8,77.2v-1.9h4.1v-1.2h-4.1v-1.9h10.2v1.9h-4.3v1.2h4.3v1.9h-10.2Z"></path>
    <path class="st3" d="M152.8,69.1v-2.7l10.2-1.3v1.8l-2.3.3v1.5l2.3.3v1.6s-10.2-1.4-10.2-1.4ZM154.4,67.9h0s4.9.6,4.9.6v-1.2l-4.9.5Z"></path>
    <path class="st3" d="M152.8,63.4v-1.9h8.7v-2.4h1.6v4.3h-10.2Z"></path>
    <path class="st3" d="M152.8,57.2v-1.9h8.7v-2.4h1.6v4.3h-10.2Z"></path>
    <path class="st3" d="M152.8,51.1v-4.2h1.6v2.4h2.6v-1.7h1.7v1.7h2.8v-2.5h1.6v4.3h-10.2Z"></path>
    <path class="st3" d="M152.8,45v-1.8l5.4-1.7h0s-5.4,0-5.4,0v-1.5h10.2v1.5l-6.2,2h0s6.2,0,6.2,0v1.6h-10.2Z"></path>
    <path class="st3" d="M156.5,34.5c-.5,0-2.3-.1-2.3.7s.4.8,3.7.8,3.8-.3,3.8-.9-1.4-.8-1.9-.8v.7h-1.5v-2.3h4.8v.8l-.7.3c.4.3.9.8.9,1.5,0,2-2,2.7-5.3,2.7s-5.3-1.2-5.3-2.7.6-2.5,3.2-2.5h.7v1.7h0Z"></path>
    <path class="st3" d="M152.8,30.8v-4.2h1.6v2.4h2.6v-1.7h1.7v1.7h2.8v-2.5h1.6v4.3h-10.2Z"></path>
  </g>
  <g id="Tin_Cup_Black_">
    <path d="M114.1,74.6c0,3.5-.5,5-1.3,5s-1.3-.5-1.3-8,1-8,1.3-8c.5,0,1,.8,1,4.7v.7l5.5-.2v-.6c0-2.9,0-9.5-6.7-9.5s-7.3,1.7-7.3,12.9.8,12.9,7.3,12.9,6.8-7.1,6.8-9.7v-.6l-5.3-.2v.7s0,0,0,0Z"></path>
    <path d="M128.5,78.1c0,1.5-.8,1.5-1.1,1.5-.5,0-1-.1-1-1.5v-18.9h-6v18.4c0,4.6,2.3,7,6.7,7s6.7-2.4,6.7-7v-18.4h-5.3s0,18.9,0,18.9Z"></path>
    <path d="M140.7,59.1h-5.4v24.9h6v-9.5h1.2c4.4,0,6.9-2.8,6.9-7.8s-2.8-7.7-8.7-7.7h0ZM143.5,66.9c0,2.5-.8,2.9-2.1,2.9v-5.8c1.3,0,2.1.2,2.1,2.9Z"></path>
    <polygon points="109.4 56.4 116.5 56.4 116.5 31.7 121.5 31.7 121.5 25.9 104.4 25.9 104.4 31.7 109.4 31.7 109.4 56.4"></polygon>
    <rect x="122.6" y="25.9" width="7.1" height="30.5"></rect>
    <polygon points="138 41.6 143.1 56.4 148.8 56.4 148.8 25.9 142.8 25.9 142.8 38.4 138.5 25.9 131.8 25.9 131.8 56.4 138 56.4 138 41.6"></polygon>
  </g>
</svg>
