<?xml version="1.0" encoding="UTF-8"?>
<svg xmlns="http://www.w3.org/2000/svg" id="Layer_1" version="1.1" viewBox="0 0 1000 1000">
  <path d="M745.48,375.85c-6.01-35.74-19.21-82.77-39.95-114.7-57.31-88.24-66.88,76.72-92.18,29.23-18.72-51.95-50.94-125.92-82.56-170.8-4.78-6.75-30.88-14.59-37.48-9.85-7.11,5.09-5.95,20.49-8.54,28.55-16.25,50.57-44.2,96.94-75.57,137.66-4.85,6.29-13.84,4.82-20.22.11-10.89-8.04-33.41-33.44-48.24-26.11-14.29,7.05-20.12,25.23-26.65,39.51-3.39,7.4-6.96,14.18-11.5,20.79-3.93,5.73-12.35,22.22-17.94,24.38,7.7-2.99,15.35-6.13,22.93-9.44,6.39-2.79,13.06-5.32,18.29-10.21,10.05-9.4,11.27-25.18,21.36-34.48,5.73-5.28,14.46-8.2,21.37-3.4,12.87-1,26.72,17.77,39.2,9.78,3.15-2.02,5.57-5.13,8.15-7.97,8.25-9.06,19.22-16.44,30.71-19.12,12.66-2.95,27.17,2.13,37.87-8.07,22.89-21.86,15.02-49.63,12.96-78.64-.67-9.41-.85-23.95,4.92-31.81,7.07-9.63,13.37-1.26,21.37,5.67,14.74,12.78,26.3,29.34,35.75,47.05,9.76,18.27,17.32,37.83,24.55,57.43,3.59,9.74,7.05,19.53,10.67,29.26,2.48,6.7,5.4,21.49,10.31,26.27,28.81,28.09,58.44-30.52,71.69-41.69,3.52.13,6.08,3.3,8.07,6.22,18.04,26.47,33.99,61.61,42.47,92.62,19.07,69.79-5.23,131.86-44.67,186.06-21.7,29.83-58.03,67.2-89.22,86.18-48.8,29.7-119.29,28.89-168.3-.45-8.29-4.96-20.16-17.91-16.22-26.93,4.28-9.79,16.87-14.29,22.34-17.14,16.58-8.63,36.89-11.57,55.46-12.39.26,18.42,10.04,43.33,27.16,48.81,17.11,5.48,33.11,2.69,50.18-3.06,9.99-3.36,15.78-10.51,16.22-16.98.41-6.07-5.63-13.96-10.25-17.14-15.66-10.76-37.1-14.63-56.52-15.87-5.6-.36-16.38-1.34-16.38-1.34,0,0,.25-9.64.25-12.2,0-26.29,1.23-52.59,3.7-78.76,1.09-11.54,2.5-23.37,7.85-33.58,7.41-14.16,21.32-23.29,31.66-35.36,12.5-14.59,19.98-33.17,24.02-51.78,3.33-15.32,7.2-38.64-2.04-52.95-15.07,13.89-32.82,23.75-46.34,39.78-14.43,17.11-25.86,36.68-34.46,57.32-.17.42-.25.74-.32,1.02-.28-.17-.66-.33-1.2-.47-5.39-1.4-19.1-12.63-23.48-16.23-8.09-6.65-17.72-11.97-27.91-14.56-2.64-.67-5.64-1.02-8.29-.53-.97.18-1.43,30.24-1.25,33.44.92,16.33,7.52,31.77,17.93,44.3,4.86,5.84,10.67,11.56,16.89,15.91,8.55,5.98,20,5.55,26.42,14.81,4.46,6.43,4.99,14.55,5.7,22.09,1.11,11.68,1.46,24.34,1.26,36.42-.12,7.2-1.26,31.03-1.26,31.03,0,0-28.73,2.87-40.42,5.75-11.96,2.95-23.63,7.41-33.96,14.21-7.47,4.92-14.73,12.05-15.26,21.15-.58,10,7.14,18.41,15.04,24.27,14.8,10.97,32.17,17.86,49.91,22.23,33.79,8.34,69.75,7.79,103.01-2.57,39.1-12.17,73.48-37.44,101.5-67.98,37.98-41.39,68.99-92.69,79.11-149.25,4.07-22.75,3.88-44.53.35-65.51M496.69,579.74s7.15.5,10.43.75c10.78.83,22.12,1.22,32.64,4.06,11.09,2.99,25.07,7.45,31.81,18.52,7.29,11.97-13.7,16.18-20.35,17.46-13.49,2.59-29.71,4.95-41.26-5.16-7.46-6.53-13.78-19.02-13.27-29.43.05-.95,0-6.2,0-6.2M472.56,465.35c-23.01-2.03-47.18-28.84-46.97-69.4.02-3.1,3.03-5.3,5.99-4.42,25.89,7.76,46.07,37.82,46.08,69.15,0,2.76-2.37,4.9-5.09,4.66M548.79,329.6c3.04-2.15,7.3-.06,7.31,3.69,5.49,28.13-34.62,108.51-57.95,93.27-6.91-34.24,13.87-71.04,50.64-96.96" style="fill: #728355;"></path>
  <polygon points="167.12 780.19 187.72 746.34 195.4 746.34 195.4 802.89 184.49 802.89 184.49 771.38 170.92 793.6 163.33 793.6 149.76 771.38 149.76 802.89 138.85 802.89 138.85 746.34 146.52 746.34 167.12 780.19" style="fill: #728355;"></polygon>
  <path d="M233.78,745.53c17.45,0,29.49,13,29.49,29.08s-12.04,29.09-29.49,29.09-29.49-13.01-29.49-29.09,12.04-29.08,29.49-29.08M233.78,794c10.66,0,18.58-8.72,18.58-19.39s-7.92-19.39-18.58-19.39-18.58,8.72-18.58,19.39,7.92,19.39,18.58,19.39" style="fill: #728355;"></path>
  <path d="M279.43,797.88c-4.69-4.2-7.27-10.18-7.27-18.82v-32.72h10.91v33.52c0,5.17,1.37,8.32,3.72,10.5,2.42,2.34,5.82,3.64,9.61,3.64s7.18-1.29,9.61-3.64c2.34-2.18,3.72-5.33,3.72-10.5v-33.52h10.91v32.72c0,8.64-2.58,14.62-7.27,18.82-4.36,3.88-10.58,5.82-16.96,5.82s-12.61-1.94-16.97-5.82" style="fill: #728355;"></path>
  <polygon points="333.16 746.34 340.83 746.34 372.34 783.18 372.34 746.34 383.24 746.34 383.24 802.89 375.57 802.89 344.07 766.06 344.07 802.89 333.16 802.89 333.16 746.34" style="fill: #728355;"></polygon>
  <polygon points="432.54 746.34 432.54 756.04 417.59 756.04 417.59 802.89 406.68 802.89 406.68 756.04 391.74 756.04 391.74 746.34 432.54 746.34" style="fill: #728355;"></polygon>
  <path d="M430.12,802.89l24.24-56.55h7.67l24.24,56.55h-11.4l-5.33-12.52h-22.7l-5.34,12.52h-11.39ZM450.96,780.67h14.38l-7.19-16.72-7.19,16.72Z" style="fill: #728355;"></path>
  <rect x="492.73" y="746.34" width="10.91" height="56.55" style="fill: #728355;"></rect>
  <polygon points="516.57 746.34 524.24 746.34 555.75 783.18 555.75 746.34 566.65 746.34 566.65 802.89 558.98 802.89 527.47 766.06 527.47 802.89 516.57 802.89 516.57 746.34" style="fill: #728355;"></polygon>
  <path d="M612.31,777.85v25.04h-10.91v-56.55h20.6c5.82,0,9.53,1.61,12.36,4.2,3.07,2.91,5.01,7.03,5.01,11.55s-1.94,8.64-5.01,11.55c-1.54,1.46-3.39,2.58-5.66,3.31l21.16,25.93h-13.49l-20.12-25.04h-3.96ZM621.36,768.15c3.15,0,4.53-.65,5.49-1.7.97-1.05,1.61-2.67,1.61-4.28,0-1.69-.65-3.31-1.61-4.36-.97-1.05-2.34-1.78-5.49-1.78h-9.05v12.12h9.05Z" style="fill: #728355;"></path>
  <path d="M677.75,745.53c17.45,0,29.49,13,29.49,29.08s-12.04,29.09-29.49,29.09-29.48-13.01-29.48-29.09,12.04-29.08,29.48-29.08M677.75,794c10.66,0,18.58-8.72,18.58-19.39s-7.92-19.39-18.58-19.39-18.58,8.72-18.58,19.39,7.92,19.39,18.58,19.39" style="fill: #728355;"></path>
  <path d="M744.4,745.53c17.45,0,29.49,13,29.49,29.08s-12.04,29.09-29.49,29.09-29.49-13.01-29.49-29.09,12.04-29.08,29.49-29.08M744.4,794c10.66,0,18.58-8.72,18.58-19.39s-7.92-19.39-18.58-19.39-18.58,8.72-18.58,19.39,7.92,19.39,18.58,19.39" style="fill: #728355;"></path>
  <polygon points="817.93 746.34 817.93 756.04 802.98 756.04 802.98 802.89 792.08 802.89 792.08 756.04 777.13 756.04 777.13 746.34 817.93 746.34" style="fill: #728355;"></polygon>
  <path d="M828.68,787.78c3.23,3.56,8.16,6.22,13.33,6.22,4.85,0,8.24-2.99,8.24-7.11,0-7.27-10.5-8.16-18.1-12.6-4.44-2.58-8-6.46-8-12.84,0-10.1,9.29-15.92,18.66-15.92,5.73,0,11.07,1.37,16.4,5.33l-5.65,8.08c-2.26-2.1-6.06-3.72-9.77-3.72-4.12,0-8.72,1.78-8.72,6.14,0,9.13,26.09,6.31,26.09,25.37,0,10.02-8.97,16.97-19.15,16.97-7.59,0-14.62-3.15-20.44-8.48l7.11-7.43Z" style="fill: #728355;"></path>
  <polygon points="280.64 844.05 280.64 855.76 298.01 855.76 298.01 865.46 280.64 865.46 280.64 881.21 304.47 881.21 304.47 890.9 269.74 890.9 269.74 834.36 303.67 834.36 303.67 844.05 280.64 844.05" style="fill: #728355;"></polygon>
  <path d="M331.95,834.36c8.97,0,14.86,1.94,19.47,5.34,6.95,5.17,11.23,13.57,11.23,22.94s-4.28,17.77-11.23,22.94c-4.6,3.4-10.5,5.34-19.47,5.34h-17.78v-56.55h17.78ZM347.62,850.35c-3.15-3.96-7.75-6.3-14.46-6.3h-8.08v37.16h8.08c6.7,0,11.31-2.34,14.46-6.3,2.59-3.23,4.12-7.59,4.12-12.28s-1.53-9.05-4.12-12.28" style="fill: #728355;"></path>
  <path d="M378.81,885.9c-4.69-4.2-7.27-10.18-7.27-18.82v-32.72h10.91v33.52c0,5.17,1.37,8.32,3.72,10.5,2.42,2.34,5.82,3.64,9.62,3.64s7.18-1.29,9.61-3.64c2.34-2.18,3.72-5.33,3.72-10.5v-33.52h10.9v32.72c0,8.64-2.58,14.62-7.27,18.82-4.36,3.88-10.58,5.82-16.96,5.82s-12.61-1.94-16.97-5.82" style="fill: #728355;"></path>
  <path d="M439.81,862.63c0,10.99,8.4,19.39,19.3,19.39,7.35,0,12.68-3.56,16-7.84l7.51,6.7c-5.01,6.38-13.41,10.83-23.75,10.83-17.61,0-29.97-12.85-29.97-29.09s12.2-29.09,29.81-29.09c8.4,0,15.59,3.15,20.68,8.08l-7.03,7.43c-3.39-3.39-8.16-5.82-13.73-5.82-10.75,0-18.83,8.65-18.83,19.39" style="fill: #728355;"></path>
  <path d="M485.86,890.9l24.24-56.55h7.67l24.24,56.55h-11.39l-5.33-12.52h-22.7l-5.34,12.52h-11.39ZM506.7,868.69h14.38l-7.19-16.72-7.19,16.72Z" style="fill: #728355;"></path>
  <polygon points="580.39 834.36 580.39 844.05 565.44 844.05 565.44 890.9 554.54 890.9 554.54 844.05 539.59 844.05 539.59 834.36 580.39 834.36" style="fill: #728355;"></polygon>
  <rect x="588.87" y="834.36" width="10.91" height="56.55" style="fill: #728355;"></rect>
  <path d="M638.16,833.55c17.45,0,29.49,13.01,29.49,29.08s-12.04,29.09-29.49,29.09-29.48-13.01-29.48-29.09,12.04-29.08,29.48-29.08M638.16,882.02c10.66,0,18.58-8.72,18.58-19.39s-7.92-19.39-18.58-19.39-18.58,8.72-18.58,19.39,7.92,19.39,18.58,19.39" style="fill: #728355;"></path>
  <polygon points="676.54 834.36 684.21 834.36 715.72 871.19 715.72 834.36 726.62 834.36 726.62 890.9 718.95 890.9 687.44 854.07 687.44 890.9 676.54 890.9 676.54 834.36" style="fill: #728355;"></polygon>
</svg>
