<?xml version="1.0" encoding="UTF-8"?>
<svg xmlns="http://www.w3.org/2000/svg" id="Layer_2" viewBox="0 0 214.1182 140.8104">
  <g id="Components">
    <g id="ef8b4db3-834c-4ab0-a7b6-dc1cae5290ef_1">
      <g id="Community_Foundation">
        <path d="M5.4946,124.4315c-.9238,0-1.7324-.1436-2.4253-.4297-.6934-.2852-1.2651-.6787-1.7163-1.1797-.4512-.5-.7891-1.0889-1.0146-1.7646-.2256-.6768-.3384-1.4053-.3384-2.1865,0-.6494.1099-1.3037.3301-1.9639.2202-.6602.5664-1.2568,1.0396-1.79.4727-.5332,1.0781-.9678,1.8149-1.3037.7368-.335,1.6172-.5029,2.6401-.5029.561,0,1.0859.0381,1.5757.1152.4893.0771,1.02.1924,1.5923.3467.022.2969.0659.6768.1318,1.1387s.1597.9131.2808,1.3525c-.0552.0117-.127.0254-.2148.041-.0879.0166-.1538.0254-.1978.0254-.0884,0-.1626-.0137-.2227-.041-.0605-.0273-.1021-.0859-.124-.1738-.1211-.3633-.2583-.668-.4121-.916-.1543-.2471-.3384-.4453-.5532-.5938-.2144-.1484-.4648-.2559-.7505-.3213-.2861-.0664-.6216-.0996-1.0063-.0996-.5942,0-1.1196.1025-1.5762.3057-.4565.2031-.8389.4951-1.1465.874-.3081.3799-.542.8369-.7012,1.3701-.1597.5332-.2393,1.1357-.2393,1.8066,0,.7148.0962,1.3809.2886,1.9961.1924.6162.4565,1.1494.792,1.6006.3354.4512.7344.8037,1.1963,1.0566s.9624.3789,1.5015.3789c.4399,0,.8169-.041,1.1304-.124.3135-.082.583-.208.8086-.3789.2251-.1709.418-.3877.5771-.6523.1597-.2637.3057-.5713.4375-.9238.0332-.0879.085-.1504.1567-.1895.0713-.0381.1455-.0576.2227-.0576.0552,0,.124.0078.2065.0244s.1509.0361.2061.0576c-.0659.1875-.1348.3994-.2061.6357-.0718.2363-.146.4785-.2231.7256-.0771.248-.1455.4951-.2061.7432-.0605.2471-.1128.4863-.1567.7178-.5391.0986-1.0889.1699-1.6499.2139s-1.1772.0664-1.8481.0664Z" style="fill:#005281; stroke-width:0px;"></path>
        <path d="M10.5762,118.8709c0-.7705.1455-1.4902.4375-2.1621.291-.6709.6899-1.2588,1.1963-1.7646.5054-.5059,1.0972-.9053,1.7734-1.1963.6768-.292,1.3999-.4375,2.1699-.4375.792,0,1.5288.1377,2.2109.4121.6821.2754,1.2729.6602,1.7739,1.1553.5.4951.8936,1.084,1.1797,1.7656.2856.6816.4287,1.4248.4287,2.2275,0,.7695-.146,1.4932-.437,2.1699-.2915.6758-.6904,1.2646-1.1963,1.7646-.5063.501-1.1001.8975-1.7822,1.1885s-1.4082.4375-2.1777.4375c-.792,0-1.5293-.1377-2.2109-.4131-.6821-.2744-1.2705-.6592-1.7656-1.1543-.4951-.4951-.8857-1.0811-1.1714-1.7578-.2861-.6768-.4292-1.4209-.4292-2.2354ZM16.4009,123.5731c.4619,0,.8799-.1016,1.2539-.3047.374-.2041.6953-.4814.9653-.834.269-.3516.4785-.7637.627-1.2373.1484-.4727.2227-.9785.2227-1.5176,0-.7812-.0742-1.5068-.2227-2.1787-.1484-.6699-.374-1.251-.6768-1.7402s-.6821-.875-1.1382-1.1553c-.4565-.2803-.9878-.4209-1.5923-.4209-.3853,0-.7593.0859-1.1221.2559-.3628.1709-.6821.418-.957.7432-.2749.3242-.4951.7178-.6602,1.1797-.165.4619-.2476.9844-.2476,1.5674,0,.8135.0801,1.5674.2393,2.2598.1597.6934.3906,1.29.6934,1.791.3022.5.6733.8906,1.1138,1.1709.4395.2812.9404.4209,1.5015.4209Z" style="fill:#005281; stroke-width:0px;"></path>
        <path d="M33.2305,113.8221c.0439-.0996.1152-.1758.2144-.2314.0991-.0547.3408-.082.7261-.082.0879,0,.2173-.0029.3877-.0088.1704-.0049.355-.0107.5527-.0166.1982-.0049.396-.0137.5942-.0244.1978-.0107.3682-.0225.5112-.0332.022.0557.0332.1104.0332.165v.1318c0,.1768-.0605.2803-.1816.3135-.2202.0332-.3936.0664-.5195.0996-.127.0322-.2227.0742-.2891.123-.0659.0498-.1099.1074-.1318.1738-.022.0654-.0332.1426-.0332.2305,0,.0225.0083.2314.0249.627.0166.3965.0415.8857.0742,1.4688.0332.583.0659,1.2158.0991,1.8975.0332.6826.0659,1.3281.0991,1.9385.0327.6113.0601,1.1416.0825,1.5928.022.4512.0381.7256.0493.8252,0,.1094.0137.2002.041.2715.0273.0723.0771.1357.1489.1904.0713.0547.1729.1016.3052.1396.1318.0391.3022.0742.5112.1074.1211.0225.1816.127.1816.3135,0,.0771-.0112.1709-.0332.2803-.3848-.0215-.7339-.041-1.0474-.0576s-.6685-.0244-1.0645-.0244c-.3628,0-.7505.0078-1.1631.0244s-.7563.0361-1.0313.0576c-.0225-.1094-.0332-.2031-.0332-.2803,0-.1211.019-.2031.0576-.2471s.0742-.0664.1074-.0664c.4512-.0762.7427-.167.8745-.2725.1318-.1035.1982-.2666.1982-.4863,0-.0332-.0083-.209-.0249-.5283-.0166-.3184-.0332-.7148-.0498-1.1875-.0161-.4727-.0386-.9844-.0659-1.5352-.0273-.5498-.0552-1.0664-.0825-1.5508-.0273-.4834-.0493-.9014-.0659-1.2539-.0166-.3516-.0303-.5664-.041-.6436l-3.3828,7.8711c-.0552.0986-.1016.1729-.1401.2227-.0386.0488-.0908.0742-.1567.0742h-.0991c-.0439,0-.0771-.0059-.0986-.0166l-3.8281-9.1738c-.0112.1426-.0249.4316-.0415.8662-.0161.4346-.0386.9316-.0659,1.4932-.0273.5605-.0552,1.1523-.0825,1.7734-.0273.6221-.0522,1.1963-.0742,1.7246-.022.5273-.041.9707-.0576,1.3281s-.0249.5527-.0249.5859c0,.0986.0107.1836.0332.2559.022.0713.0659.1348.1318.1895s.165.1016.2969.1406c.1323.0381.3135.0791.5449.123.1206.0225.1812.127.1812.3135,0,.0332-.0029.0742-.0083.124s-.0137.1016-.0244.1562c-.2974-.0215-.5723-.041-.8252-.0576s-.5059-.0244-.7588-.0244c-.2202,0-.4951.0078-.8252.0244s-.627.0361-.8911.0576c-.022-.0439-.0327-.0928-.0327-.1484v-.1318c0-.1211.0161-.2002.0493-.2393.0332-.0381.0767-.0625.1318-.0742.3408-.0762.5884-.165.7427-.2637.1538-.0986.2417-.248.2642-.4453,0-.0879.0107-.3555.0327-.8008s.0498-.9736.0825-1.584c.0332-.6104.0659-1.2588.0991-1.9473.0332-.6865.063-1.3252.0908-1.9131.0273-.5889.0493-1.0811.0659-1.4775.0166-.3955.0249-.6045.0249-.627,0-.1865-.0605-.3213-.1816-.4043-.1211-.082-.3853-.1562-.792-.2227-.1211-.0107-.1816-.1152-.1816-.3135v-.1318c0-.0547.0107-.1094.0332-.165.1426.0107.3408.0225.5938.0332s.5117.0195.7759.0244c.2637.0059.5112.0117.7422.0166.231.0059.396.0088.4951.0088.1978,0,.3521.0078.4619.0244s.1982.0361.2642.0576c.0659.0225.1128.0557.1401.0986.0273.0449.0522.0889.0742.1328l3.0688,7.4082,3.1353-7.4082Z" style="fill:#005281; stroke-width:0px;"></path>
        <path d="M48.2451,113.8221c.0439-.0996.1152-.1758.2144-.2314.0991-.0547.3408-.082.7261-.082.0879,0,.2173-.0029.3877-.0088.1704-.0049.355-.0107.5527-.0166.1982-.0049.396-.0137.5942-.0244.1978-.0107.3682-.0225.5112-.0332.022.0557.0332.1104.0332.165v.1318c0,.1768-.0605.2803-.1816.3135-.2202.0332-.3936.0664-.5195.0996-.127.0322-.2227.0742-.2891.123-.0659.0498-.1099.1074-.1318.1738-.022.0654-.0332.1426-.0332.2305,0,.0225.0083.2314.0249.627.0166.3965.0415.8857.0742,1.4688.0332.583.0659,1.2158.0991,1.8975.0332.6826.0659,1.3281.0991,1.9385.0327.6113.0601,1.1416.0825,1.5928.022.4512.0381.7256.0493.8252,0,.1094.0137.2002.041.2715.0273.0723.0771.1357.1489.1904.0713.0547.1729.1016.3052.1396.1318.0391.3022.0742.5112.1074.1211.0225.1816.127.1816.3135,0,.0771-.0112.1709-.0332.2803-.3848-.0215-.7339-.041-1.0474-.0576s-.6685-.0244-1.0645-.0244c-.3628,0-.7505.0078-1.1631.0244s-.7563.0361-1.0313.0576c-.0225-.1094-.0332-.2031-.0332-.2803,0-.1211.019-.2031.0576-.2471s.0742-.0664.1074-.0664c.4512-.0762.7427-.167.8745-.2725.1318-.1035.1982-.2666.1982-.4863,0-.0332-.0083-.209-.0249-.5283-.0166-.3184-.0332-.7148-.0498-1.1875-.0161-.4727-.0386-.9844-.0659-1.5352-.0273-.5498-.0552-1.0664-.0825-1.5508-.0273-.4834-.0493-.9014-.0659-1.2539-.0166-.3516-.0303-.5664-.041-.6436l-3.3828,7.8711c-.0552.0986-.1016.1729-.1401.2227-.0386.0488-.0908.0742-.1567.0742h-.0991c-.0439,0-.0771-.0059-.0986-.0166l-3.8281-9.1738c-.0112.1426-.0249.4316-.0415.8662-.0161.4346-.0386.9316-.0659,1.4932-.0273.5605-.0552,1.1523-.0825,1.7734-.0273.6221-.0522,1.1963-.0742,1.7246-.022.5273-.041.9707-.0576,1.3281s-.0249.5527-.0249.5859c0,.0986.0107.1836.0332.2559.022.0713.0659.1348.1318.1895s.165.1016.2969.1406c.1323.0381.3135.0791.5449.123.1206.0225.1812.127.1812.3135,0,.0332-.0029.0742-.0083.124s-.0137.1016-.0244.1562c-.2974-.0215-.5723-.041-.8252-.0576s-.5059-.0244-.7588-.0244c-.2202,0-.4951.0078-.8252.0244s-.627.0361-.8911.0576c-.022-.0439-.0327-.0928-.0327-.1484v-.1318c0-.1211.0161-.2002.0493-.2393.0332-.0381.0767-.0625.1318-.0742.3408-.0762.5884-.165.7427-.2637.1538-.0986.2417-.248.2642-.4453,0-.0879.0107-.3555.0327-.8008s.0498-.9736.0825-1.584c.0332-.6104.0659-1.2588.0991-1.9473.0332-.6865.063-1.3252.0908-1.9131.0273-.5889.0493-1.0811.0659-1.4775.0166-.3955.0249-.6045.0249-.627,0-.1865-.0605-.3213-.1816-.4043-.1211-.082-.3853-.1562-.792-.2227-.1211-.0107-.1816-.1152-.1816-.3135v-.1318c0-.0547.0107-.1094.0332-.165.1426.0107.3408.0225.5938.0332s.5117.0195.7759.0244c.2637.0059.5112.0117.7422.0166.231.0059.396.0088.4951.0088.1978,0,.3521.0078.4619.0244s.1982.0361.2642.0576c.0659.0225.1128.0557.1401.0986.0273.0449.0522.0889.0742.1328l3.0688,7.4082,3.1353-7.4082Z" style="fill:#005281; stroke-width:0px;"></path>
        <path d="M63.0122,120.158c0,.627-.0659,1.2012-.1978,1.7236-.1323.5225-.3608.9736-.6851,1.3535-.3247.3789-.7588.6738-1.3032.8828-.5449.209-1.2295.3135-2.0542.3135-.9795,0-1.7686-.1104-2.3682-.3301s-1.0615-.5195-1.3857-.8994c-.3247-.3799-.542-.8252-.6519-1.3369-.1099-.5107-.165-1.0586-.165-1.6416v-5.4775c0-.2314-.0718-.3936-.2144-.4873-.1431-.0928-.4346-.167-.8745-.2227-.1211-.0215-.1816-.126-.1816-.3135v-.1318c0-.0547.0107-.1094.0332-.165.3188.0225.6572.041,1.0146.0576s.7837.0254,1.2788.0254c.3848,0,.7861-.0088,1.2046-.0254.418-.0166.792-.0352,1.1216-.0576.0112.0557.0195.1104.0249.165.0054.0557.0083.0986.0083.1318,0,.1875-.0605.292-.1816.3135-.4512.0557-.7563.1318-.9155.2314-.1597.0986-.2393.2588-.2393.4785v5.1152c0,1.1436.2114,2.0127.6353,2.6064.4233.5938,1.1523.8916,2.186.8916,1.0562,0,1.8071-.2783,2.2524-.834.4453-.5547.6685-1.46.6685-2.7139v-5.0654c0-.2197-.0771-.3799-.2314-.4785-.1538-.0996-.4453-.1758-.8745-.2314-.1318-.0332-.1978-.1367-.1978-.3135,0-.0332.0024-.0762.0083-.1318.0054-.0547.0137-.1094.0249-.165.3188.0332.6128.0557.8823.0664s.5586.0166.8662.0166c.3521,0,.6655-.0059.9409-.0166.2744-.0107.5444-.0332.8081-.0664.0112.0557.0195.1104.0249.165.0054.0557.0083.0986.0083.1318,0,.1768-.0659.2803-.1978.3135-.4072.0439-.688.1182-.8418.2227-.1543.1055-.231.2676-.231.4873v5.4121Z" style="fill:#005281; stroke-width:0px;"></path>
        <path d="M74.1333,120.6365v-5.8574c0-.2422-.0825-.4131-.2476-.5117-.165-.0996-.4565-.1758-.8745-.2314-.1431-.0332-.2144-.1367-.2144-.3135v-.1318c0-.0547.0107-.1094.0327-.165.2749.0332.5444.0557.8086.0664s.5718.0166.9238.0166.6543-.0059.9077-.0166c.2529-.0107.5059-.0332.7588-.0664.0107.0557.019.1104.0249.165.0054.0557.0083.0986.0083.1318,0,.1875-.0659.292-.1982.3135-.3628.0557-.6104.1318-.7422.2314-.1323.0986-.1982.2588-.1982.4785v9.6523c-.0439.0107-.1182.0186-.2227.0244s-.1733.0088-.2061.0088c-.0771,0-.1597-.0195-.2476-.0576-.0884-.0391-.1816-.1191-.2808-.2393l-6.501-8.25v7.1279c0,.1094.0083.2002.0249.2715.0166.0723.0601.1328.1318.1816.0718.0498.1758.0937.3135.1328.1377.0381.3218.0791.5527.123.0552.0117.1016.0361.1406.0742.0381.0391.0576.1182.0576.2393,0,.0771-.0112.1709-.0332.2803-.2749-.0215-.5337-.041-.7754-.0576-.2422-.0166-.5225-.0244-.8413-.0244-.3193,0-.6245.0078-.916.0244s-.5581.0361-.8003.0576c-.022-.0439-.0327-.0928-.0327-.1484v-.1318c0-.1094.019-.1865.0576-.2305s.085-.0713.1401-.083c.396-.0654.6602-.1484.792-.2471.1323-.0996.1982-.2529.1982-.4619v-8.3496c0-.1758-.0581-.3105-.1733-.4043-.1157-.0928-.377-.167-.7837-.2227-.1323-.0332-.1982-.1367-.1982-.3135v-.0742c0-.0273.0054-.0576.0166-.0908l.0166-.1318c.1538.0107.3022.0195.4453.0244.1431.0059.2861.0146.4292.0254.2417.0107.4868.0195.7344.0244.2471.0059.4478.0088.6021.0088.3188,0,.5278.0137.627.041s.187.0801.2642.1562l5.478,6.9307Z" style="fill:#005281; stroke-width:0px;"></path>
        <path d="M80.7988,123.0125c0,.1094.0083.2002.0249.2715.0166.0723.0605.1357.1323.1904.0713.0547.1758.1016.3135.1396.1372.0391.3218.0742.5527.1074.1099.0225.165.1152.165.2803,0,.0332-.0029.083-.0083.1494-.0059.0654-.0142.1201-.0249.1641-.3521-.0215-.729-.041-1.1304-.0576s-.7563-.0244-1.064-.0244c-.3193,0-.6768.0078-1.0728.0244s-.77.0361-1.1221.0576c-.022-.0439-.0327-.0986-.0327-.1641v-.1494c0-.1758.0547-.2686.165-.2803.231-.0332.415-.0684.5527-.1074.1372-.0381.2393-.085.3052-.1396s.1099-.1182.1318-.1904c.022-.0713.0332-.1621.0332-.2715v-8.2666c0-.1104-.0112-.2012-.0332-.2725s-.0659-.1348-.1318-.1895c-.0659-.0557-.168-.1016-.3052-.1406-.1377-.0381-.3218-.0742-.5527-.1074-.1104-.0332-.165-.126-.165-.2803v-.1484c0-.0664.0107-.126.0327-.1816.3521.0225.7261.041,1.1221.0576s.7534.0254,1.0728.0254c.3076,0,.6626-.0088,1.064-.0254s.7783-.0352,1.1304-.0576c.0107.0557.019.1152.0249.1816.0054.0664.0083.1152.0083.1484,0,.1543-.0552.2471-.165.2803-.231.0332-.4155.0693-.5527.1074-.1377.0391-.2422.085-.3135.1406-.0718.0547-.1157.1182-.1323.1895s-.0249.1621-.0249.2725v8.2666Z" style="fill:#005281; stroke-width:0px;"></path>
        <path d="M89.1812,114.3328v8.6797c0,.1094.0083.2002.0244.2715.0166.0723.0581.1357.124.1904s.1592.1016.2803.1396c.1211.0391.2915.0742.5117.1074.165.0332.2476.127.2476.2803,0,.0332-.0029.083-.0083.1494-.0059.0654-.0142.1201-.0249.1641-.3521-.0215-.729-.041-1.1304-.0576s-.7563-.0244-1.064-.0244c-.3193,0-.6738.0078-1.0645.0244s-.7617.0361-1.1138.0576c-.022-.0439-.0356-.0986-.041-.1641-.0059-.0664-.0083-.1162-.0083-.1494,0-.0762.0137-.1396.041-.1895s.1016-.085.2227-.1074c.4072-.0547.6626-.1289.7676-.2227.1045-.0928.1567-.25.1567-.4697v-8.6797h-1.4521c-.3081,0-.5693.0313-.7837.0908-.2144.0605-.4019.1543-.561.2813-.1597.126-.3027.291-.4287.4941-.127.2041-.2559.4492-.3882.7344-.0439.0996-.1265.1484-.2471.1484-.0664,0-.1436-.0137-.2314-.041s-.1538-.0518-.1978-.0742c.0767-.2637.1426-.4971.1978-.7012.0552-.2031.0991-.4043.1323-.6025.0439-.2529.0767-.4785.0991-.6758.0215-.1982.0493-.3408.082-.4297.0439-.0986.1323-.1484.2642-.1484.1211,0,.3604.0166.7178.0498s.7891.0498,1.2954.0498h5.082c.4946,0,.9209-.0166,1.2788-.0498.3569-.0332.6021-.0498.7339-.0498.1211,0,.209.0498.2642.1484.0332.0889.0576.2314.0742.4297.0166.1973.0522.4229.1074.6758.0327.1982.0742.3994.1235.6025.0498.2041.1182.4375.2065.7012-.0552.0225-.124.0469-.2065.0742s-.1567.041-.2227.041c-.1211,0-.209-.0488-.2642-.1484-.1318-.2852-.2612-.5303-.3877-.7344-.1265-.2031-.2695-.3682-.4287-.4941-.1597-.127-.3467-.2207-.561-.2813-.2148-.0596-.4702-.0908-.7676-.0908h-1.4517Z" style="fill:#005281; stroke-width:0px;"></path>
        <path d="M97.6782,119.7117l-2.6235-4.999c-.1211-.2314-.272-.3906-.4536-.4785s-.4155-.1543-.7012-.1982c-.1323-.0107-.1982-.1211-.1982-.3301v-.0742c0-.0273.0054-.0576.0166-.0908l.0166-.1152c.2417.0225.5527.041.9321.0576s.7944.0254,1.2456.0254c.1543,0,.3384-.0029.5527-.0088.2148-.0049.4316-.0107.6519-.0166.2197-.0049.4263-.0137.6187-.0244s.3491-.0225.4702-.0332c.022.0986.0332.168.0332.2061v.0908c0,.1875-.0659.292-.1982.3135-.2861.0332-.4839.0801-.5937.1406-.1104.0605-.165.1406-.165.2393,0,.0879.0386.2031.1157.3467l1.9302,3.8281,1.8975-3.5645c.1211-.209.1816-.3848.1816-.5283,0-.1318-.0605-.2275-.1816-.2881s-.3301-.1182-.627-.1738c-.1431-.0215-.2144-.126-.2144-.3135,0-.0439.0166-.1426.0493-.2969.231.0225.52.041.8662.0576.3467.0166.6519.0254.916.0254.2529,0,.5195-.0059.8003-.0166.2803-.0107.5635-.0332.8496-.0664.022.0771.0332.1406.0332.1895v.1074c0,.1982-.0664.3027-.1982.3135-.396.0557-.6709.127-.8247.2148-.1543.0879-.2866.2256-.396.4121l-2.7227,5.0166v3.2832c0,.1211.0166.2197.0493.2969.0332.0771.0933.1436.1816.1982.0879.0547.2061.1016.3545.1406.1489.0381.3438.0742.5859.1064.0552.0117.1016.0361.1401.0742.0386.0391.0581.1191.0581.2393,0,.0225-.0029.0469-.0083.0742-.0059.0283-.0083.0586-.0083.0908l-.0166.1162c-.1763,0-.3413-.0029-.4951-.0088-.1543-.0059-.3081-.0137-.4619-.0244-.2642-.0225-.5361-.0361-.8169-.041-.2803-.0059-.5142-.0088-.7012-.0088-.1978,0-.4263.0029-.6846.0088-.2588.0049-.5088.0186-.751.041-.1431.0107-.2832.0186-.4204.0244-.1377.0059-.2783.0088-.4209.0088l-.0166-.1162c-.0112-.0322-.0166-.0625-.0166-.0908v-.0742c0-.1201.019-.2002.0581-.2393.0381-.0381.085-.0625.1401-.0742.231-.0439.4233-.085.5776-.123.1538-.0391.2744-.083.3628-.1328.0879-.0488.1484-.1123.1816-.1895.0327-.0771.0493-.1758.0493-.2969v-3.251Z" style="fill:#005281; stroke-width:0px;"></path>
        <path d="M109.4263,114.7459c0-.0996-.0142-.1846-.0415-.2559s-.085-.1348-.1729-.1895c-.0884-.0557-.2095-.1016-.3633-.1406-.1543-.0381-.3521-.0801-.5938-.124-.1104-.0332-.165-.1318-.165-.2969v-.1562c0-.0498.0107-.1016.0327-.1572.4731.0332.8911.0557,1.2539.0664.3633.0107.6709.0166.9243.0166h3.3823c.5059,0,.938-.0166,1.2954-.0498s.5967-.0498.7178-.0498c.1206,0,.2085.0498.2637.1484.0332.0889.0605.251.0825.4873s.0605.4814.1157.7344c.0332.1865.0713.3682.1157.5439.0435.1758.1094.3906.1978.6436-.0439.0225-.1021.0439-.1733.0664-.0718.0215-.1401.0322-.2061.0322-.1211,0-.2036-.0488-.2476-.1484-.1318-.2852-.2612-.5303-.3877-.7334-.1265-.2041-.2695-.3691-.4292-.4951-.1597-.127-.3462-.2178-.561-.2725-.2144-.0547-.4756-.083-.7837-.083h-2.1777v4.1748h2.2769c.187,0,.3218-.0908.4043-.2725s.1509-.4531.2061-.8164c.0332-.1426.1377-.2148.3135-.2148.0332,0,.0854.0029.1567.0088.0718.0059.124.0137.1567.0244-.022.2529-.041.5479-.0576.8828-.0166.3359-.0249.6191-.0249.8496,0,.1982.0054.4316.0166.7012.0107.2695.0332.5752.0659.916-.0327.0225-.0825.0361-.1484.041-.0659.0059-.1152.0088-.1484.0088-.187,0-.2969-.0771-.3301-.2314-.0439-.3516-.1099-.6182-.1978-.7998-.0884-.1816-.2256-.2725-.4126-.2725h-2.2769v3.6963c0,.1094.0381.2002.1152.2715.0771.0723.1816.1328.3135.1816.1323.0498.2861.0889.4619.1162s.3633.0576.561.0898c.1323.0117.1982.1055.1982.2812,0,.0322-.0029.0879-.0083.165-.0059.0771-.0142.1367-.0249.1807-.1543,0-.3081-.002-.4619-.0078-.1543-.0059-.3081-.0137-.4619-.0244-.2861-.0225-.5913-.0361-.916-.042-.3242-.0049-.646-.0078-.9648-.0078-.1543,0-.3218.0029-.5034.0078-.1816.0059-.3711.0137-.5693.0254-.1978.0107-.3936.0186-.5854.0244-.1929.0059-.3716.0137-.5366.0244-.022-.0439-.0327-.1016-.0327-.1729v-.1562c0-.165.0547-.2529.165-.2646.3628-.0879.6489-.1729.8579-.2559.2085-.082.3135-.2334.3135-.4531v-8.2666Z" style="fill:#005281; stroke-width:0px;"></path>
        <path d="M117.0166,118.8709c0-.7705.1455-1.4902.4375-2.1621.291-.6709.6899-1.2588,1.1963-1.7646.5054-.5059,1.0972-.9053,1.7734-1.1963.6768-.292,1.3999-.4375,2.1699-.4375.792,0,1.5288.1377,2.2109.4121.6821.2754,1.2729.6602,1.7739,1.1553.5.4951.8936,1.084,1.1797,1.7656.2856.6816.4287,1.4248.4287,2.2275,0,.7695-.146,1.4932-.437,2.1699-.2915.6758-.6904,1.2646-1.1963,1.7646-.5063.501-1.1001.8975-1.7822,1.1885-.6821.291-1.4082.4375-2.1777.4375-.792,0-1.5293-.1377-2.2109-.4131-.6821-.2744-1.2705-.6592-1.7656-1.1543-.4951-.4951-.8857-1.0811-1.1714-1.7578-.2861-.6768-.4292-1.4209-.4292-2.2354ZM122.8413,123.5731c.4619,0,.8799-.1016,1.2539-.3047.374-.2041.6953-.4814.9653-.834.269-.3516.4785-.7637.627-1.2373.1484-.4727.2227-.9785.2227-1.5176,0-.7812-.0742-1.5068-.2227-2.1787-.1484-.6699-.374-1.251-.6768-1.7402s-.6821-.875-1.1382-1.1553c-.4565-.2803-.9878-.4209-1.5923-.4209-.3853,0-.7593.0859-1.1221.2559-.3628.1709-.6821.418-.957.7432-.2749.3242-.4951.7178-.6602,1.1797s-.2476.9844-.2476,1.5674c0,.8135.0801,1.5674.2393,2.2598.1597.6934.3906,1.29.6934,1.791.3022.5.6733.8906,1.1138,1.1709.4395.2812.9404.4209,1.5015.4209Z" style="fill:#005281; stroke-width:0px;"></path>
        <path d="M139.0107,120.158c0,.627-.0659,1.2012-.1978,1.7236-.1323.5225-.3608.9736-.6851,1.3535-.3247.3789-.7588.6738-1.3032.8828-.5449.209-1.2295.3135-2.0542.3135-.9795,0-1.7686-.1104-2.3682-.3301s-1.0615-.5195-1.3857-.8994c-.3247-.3799-.542-.8252-.6519-1.3369-.1099-.5107-.165-1.0586-.165-1.6416v-5.4775c0-.2314-.0718-.3936-.2144-.4873-.1431-.0928-.4346-.167-.8745-.2227-.1211-.0215-.1816-.126-.1816-.3135v-.1318c0-.0547.0107-.1094.0332-.165.3188.0225.6572.041,1.0146.0576s.7837.0254,1.2788.0254c.3848,0,.7861-.0088,1.2046-.0254.418-.0166.792-.0352,1.1216-.0576.0112.0557.0195.1104.0249.165.0054.0557.0083.0986.0083.1318,0,.1875-.0605.292-.1816.3135-.4512.0557-.7563.1318-.9155.2314-.1597.0986-.2393.2588-.2393.4785v5.1152c0,1.1436.2114,2.0127.6353,2.6064.4233.5938,1.1523.8916,2.186.8916,1.0562,0,1.8071-.2783,2.2524-.834.4453-.5547.6685-1.46.6685-2.7139v-5.0654c0-.2197-.0771-.3799-.2314-.4785-.1538-.0996-.4453-.1758-.8745-.2314-.1318-.0332-.1978-.1367-.1978-.3135,0-.0332.0024-.0762.0083-.1318.0054-.0547.0137-.1094.0249-.165.3188.0332.6128.0557.8823.0664s.5586.0166.8662.0166c.3521,0,.6655-.0059.9409-.0166.2744-.0107.5444-.0332.8081-.0664.0112.0557.0195.1104.0249.165.0054.0557.0083.0986.0083.1318,0,.1768-.0659.2803-.1978.3135-.4072.0439-.688.1182-.8418.2227-.1543.1055-.231.2676-.231.4873v5.4121Z" style="fill:#005281; stroke-width:0px;"></path>
        <path d="M150.1318,120.6365v-5.8574c0-.2422-.0825-.4131-.2476-.5117-.165-.0996-.4565-.1758-.8745-.2314-.1431-.0332-.2144-.1367-.2144-.3135v-.1318c0-.0547.0107-.1094.0327-.165.2749.0332.5444.0557.8086.0664s.5718.0166.9238.0166.6543-.0059.9077-.0166c.2529-.0107.5059-.0332.7588-.0664.0107.0557.019.1104.0249.165.0054.0557.0083.0986.0083.1318,0,.1875-.0659.292-.1982.3135-.3628.0557-.6104.1318-.7422.2314-.1323.0986-.1982.2588-.1982.4785v9.6523c-.0439.0107-.1182.0186-.2227.0244s-.1733.0088-.2061.0088c-.0771,0-.1597-.0195-.2476-.0576-.0884-.0391-.1816-.1191-.2808-.2393l-6.501-8.25v7.1279c0,.1094.0083.2002.0249.2715.0166.0723.0601.1328.1318.1816.0718.0498.1758.0937.3135.1328.1377.0381.3218.0791.5527.123.0552.0117.1016.0361.1406.0742.0381.0391.0576.1182.0576.2393,0,.0771-.0112.1709-.0332.2803-.2749-.0215-.5337-.041-.7754-.0576-.2422-.0166-.5225-.0244-.8413-.0244-.3193,0-.6245.0078-.916.0244s-.5581.0361-.8003.0576c-.022-.0439-.0327-.0928-.0327-.1484v-.1318c0-.1094.019-.1865.0576-.2305s.085-.0713.1401-.083c.396-.0654.6602-.1484.792-.2471.1323-.0996.1982-.2529.1982-.4619v-8.3496c0-.1758-.0581-.3105-.1733-.4043-.1157-.0928-.377-.167-.7837-.2227-.1323-.0332-.1982-.1367-.1982-.3135v-.0742c0-.0273.0054-.0576.0166-.0908l.0166-.1318c.1538.0107.3022.0195.4453.0244.1431.0059.2861.0146.4292.0254.2417.0107.4868.0195.7344.0244.2471.0059.4478.0088.6021.0088.3188,0,.5278.0137.627.041s.187.0801.2642.1562l5.478,6.9307Z" style="fill:#005281; stroke-width:0px;"></path>
        <path d="M164.6846,118.8709c0,.6494-.1099,1.292-.3301,1.9307-.2202.6377-.561,1.2119-1.0229,1.7236s-1.0503.9238-1.7656,1.2373c-.7148.3135-1.562.4707-2.541.4707h-3.3823c-.2861,0-.6187.0078-.998.0244-.3799.0166-.7402.0361-1.0811.0576-.022-.0439-.0327-.0928-.0327-.1484v-.1318c0-.1211.019-.2002.0576-.2393.0386-.0381.085-.0625.1401-.0742.3188-.0547.5747-.1289.7676-.2227.1919-.0928.2886-.2559.2886-.4863v-8.2666c0-.2197-.0801-.377-.2393-.4707-.1597-.0928-.4321-.1729-.8169-.2393-.0879-.0215-.1431-.0576-.165-.1074-.022-.0488-.0327-.1172-.0327-.2061v-.1318c0-.0547.0107-.1094.0327-.165.231.0225.4375.0361.6187.041.1816.0059.3491.0146.5034.0254.1538.0107.3081.0166.4619.0166h3.8281c.9351,0,1.7573.1426,2.4668.4287.7095.2861,1.3037.6709,1.7817,1.1553.4785.4834.8418,1.0498,1.0894,1.6992s.3711,1.3418.3711,2.0791ZM162.4077,119.1844c0-.8584-.0991-1.5947-.2969-2.2109-.1982-.6162-.4868-1.1191-.8667-1.5098-.3794-.3906-.8525-.6768-1.4189-.8584s-1.2124-.2725-1.9385-.2725h-1.0229v8.4814c0,.1104.0161.2041.0493.2803.0332.0771.0991.1377.1982.1816.0986.0439.2363.0771.4121.0986.1758.0225.4126.0332.7095.0332,1.4302,0,2.4834-.3789,3.1602-1.1387.6763-.7588,1.0146-1.7871,1.0146-3.085Z" style="fill:#005281; stroke-width:0px;"></path>
        <path d="M171.0537,120.6033h-3.4653l-.8579,2.293c-.0327.0557-.0552.1162-.0659.1816-.0112.0664-.0166.1162-.0166.1484,0,.1211.0576.2207.1733.2969.1157.0771.3491.1436.7012.1982.1538.0225.231.127.231.3135,0,.0771-.0107.1709-.0327.2803-.2974-.0215-.6108-.041-.9404-.0576-.3301-.0166-.6548-.0244-.9736-.0244-.2202,0-.4512.0059-.6929.0166-.2422.0107-.5117.0332-.8086.0654-.0225-.0439-.0332-.0928-.0332-.1484v-.1318c0-.209.0713-.3184.2144-.3301.3408-.0654.5859-.1367.7344-.2139s.2666-.209.355-.3965l3.9766-9.5039c.0879-.1865.2197-.2803.396-.2803.0547,0,.1099.0029.165.0078.0547.0059.1152.0146.1812.0254l3.9766,9.8008c.0659.165.1924.2891.3794.3711.187.083.3906.1406.6108.1729.165.0332.2476.1436.2476.3301,0,.0889-.0112.1875-.0332.2969-.3521-.0215-.6987-.041-1.0396-.0576-.3413-.0166-.6602-.0244-.957-.0244-.1543,0-.3408.0029-.561.0078-.2202.0059-.4453.0137-.6763.0254-.231.0107-.4595.0186-.6851.0244s-.415.0137-.5688.0244c-.0225-.0439-.0332-.0928-.0332-.1484v-.1318c0-.0986.019-.1729.0576-.2227s.0796-.0791.124-.0908c.2856-.0547.4976-.1182.6353-.1895.1372-.0713.2061-.1787.2061-.3223,0-.0654-.0166-.1484-.0493-.2471l-.8745-2.3594ZM170.7402,119.7781l-1.4028-3.7129-1.4355,3.7129h2.8384Z" style="fill:#005281; stroke-width:0px;"></path>
        <path d="M180.2939,114.3328v8.6797c0,.1094.0083.2002.0244.2715.0166.0723.0581.1357.124.1904s.1592.1016.2803.1396c.1211.0391.2915.0742.5117.1074.165.0332.2476.127.2476.2803,0,.0332-.0029.083-.0083.1494-.0059.0654-.0142.1201-.0249.1641-.3521-.0215-.729-.041-1.1304-.0576s-.7563-.0244-1.064-.0244c-.3193,0-.6738.0078-1.0645.0244s-.7617.0361-1.1138.0576c-.022-.0439-.0356-.0986-.041-.1641-.0059-.0664-.0083-.1162-.0083-.1494,0-.0762.0137-.1396.041-.1895s.1016-.085.2227-.1074c.4072-.0547.6626-.1289.7676-.2227.1045-.0928.1567-.25.1567-.4697v-8.6797h-1.4521c-.3081,0-.5693.0313-.7837.0908-.2144.0605-.4019.1543-.561.2813-.1597.126-.3027.291-.4287.4941-.127.2041-.2559.4492-.3882.7344-.0439.0996-.1265.1484-.2471.1484-.0664,0-.1436-.0137-.2314-.041s-.1538-.0518-.1978-.0742c.0767-.2637.1426-.4971.1978-.7012.0552-.2031.0991-.4043.1323-.6025.0439-.2529.0767-.4785.0991-.6758.0215-.1982.0493-.3408.082-.4297.0439-.0986.1323-.1484.2642-.1484.1211,0,.3604.0166.7178.0498s.7891.0498,1.2954.0498h5.082c.4946,0,.9209-.0166,1.2788-.0498.3569-.0332.6021-.0498.7339-.0498.1211,0,.209.0498.2642.1484.0332.0889.0576.2314.0742.4297.0166.1973.0522.4229.1074.6758.0327.1982.0742.3994.1235.6025.0498.2041.1182.4375.2065.7012-.0552.0225-.124.0469-.2065.0742s-.1567.041-.2227.041c-.1211,0-.209-.0488-.2642-.1484-.1318-.2852-.2612-.5303-.3877-.7344-.1265-.2031-.2695-.3682-.4287-.4941-.1597-.127-.3467-.2207-.561-.2813-.2148-.0596-.4702-.0908-.7676-.0908h-1.4517Z" style="fill:#005281; stroke-width:0px;"></path>
        <path d="M188.6753,123.0125c0,.1094.0083.2002.0249.2715.0166.0723.0605.1357.1323.1904.0713.0547.1758.1016.3135.1396.1372.0391.3218.0742.5527.1074.1099.0225.165.1152.165.2803,0,.0332-.0029.083-.0083.1494-.0059.0654-.0142.1201-.0249.1641-.3521-.0215-.729-.041-1.1304-.0576s-.7563-.0244-1.064-.0244c-.3193,0-.6768.0078-1.0728.0244s-.77.0361-1.1221.0576c-.022-.0439-.0327-.0986-.0327-.1641v-.1494c0-.1758.0547-.2686.165-.2803.231-.0332.415-.0684.5527-.1074.1372-.0381.2393-.085.3052-.1396s.1099-.1182.1318-.1904c.022-.0713.0332-.1621.0332-.2715v-8.2666c0-.1104-.0112-.2012-.0332-.2725s-.0659-.1348-.1318-.1895c-.0659-.0557-.168-.1016-.3052-.1406-.1377-.0381-.3218-.0742-.5527-.1074-.1104-.0332-.165-.126-.165-.2803v-.1484c0-.0664.0107-.126.0327-.1816.3521.0225.7261.041,1.1221.0576s.7534.0254,1.0728.0254c.3076,0,.6626-.0088,1.064-.0254s.7783-.0352,1.1304-.0576c.0107.0557.019.1152.0249.1816.0054.0664.0083.1152.0083.1484,0,.1543-.0552.2471-.165.2803-.231.0332-.4155.0693-.5527.1074-.1377.0391-.2422.085-.3135.1406-.0718.0547-.1157.1182-.1323.1895s-.0249.1621-.0249.2725v8.2666Z" style="fill:#005281; stroke-width:0px;"></path>
        <path d="M191.0679,118.8709c0-.7705.1455-1.4902.4375-2.1621.291-.6709.6899-1.2588,1.1963-1.7646.5054-.5059,1.0972-.9053,1.7734-1.1963.6768-.292,1.3999-.4375,2.1699-.4375.792,0,1.5288.1377,2.2109.4121.6821.2754,1.2729.6602,1.7739,1.1553.5.4951.8936,1.084,1.1797,1.7656.2856.6816.4287,1.4248.4287,2.2275,0,.7695-.146,1.4932-.437,2.1699-.2915.6758-.6904,1.2646-1.1963,1.7646-.5063.501-1.1001.8975-1.7822,1.1885s-1.4082.4375-2.1777.4375c-.792,0-1.5293-.1377-2.2109-.4131-.6821-.2744-1.2705-.6592-1.7656-1.1543-.4951-.4951-.8857-1.0811-1.1714-1.7578-.2861-.6768-.4292-1.4209-.4292-2.2354ZM196.8926,123.5731c.4619,0,.8799-.1016,1.2539-.3047.374-.2041.6953-.4814.9653-.834.269-.3516.4785-.7637.627-1.2373.1484-.4727.2227-.9785.2227-1.5176,0-.7812-.0742-1.5068-.2227-2.1787-.1484-.6699-.374-1.251-.6768-1.7402s-.6821-.875-1.1382-1.1553c-.4565-.2803-.9878-.4209-1.5923-.4209-.3853,0-.7593.0859-1.1221.2559-.3628.1709-.6821.418-.957.7432-.2749.3242-.4951.7178-.6602,1.1797-.165.4619-.2476.9844-.2476,1.5674,0,.8135.0801,1.5674.2393,2.2598.1597.6934.3906,1.29.6934,1.791.3022.5.6733.8906,1.1138,1.1709.4395.2812.9404.4209,1.5015.4209Z" style="fill:#005281; stroke-width:0px;"></path>
        <path d="M211.9897,120.6365v-5.8574c0-.2422-.0825-.4131-.2476-.5117-.165-.0996-.4565-.1758-.8745-.2314-.1431-.0332-.2144-.1367-.2144-.3135v-.1318c0-.0547.0107-.1094.0327-.165.2749.0332.5444.0557.8086.0664s.5718.0166.9238.0166.6543-.0059.9077-.0166c.2529-.0107.5059-.0332.7588-.0664.0107.0557.019.1104.0249.165.0054.0557.0083.0986.0083.1318,0,.1875-.0659.292-.1982.3135-.3628.0557-.6104.1318-.7422.2314-.1323.0986-.1982.2588-.1982.4785v9.6523c-.0439.0107-.1182.0186-.2227.0244s-.1733.0088-.2061.0088c-.0771,0-.1597-.0195-.2476-.0576-.0884-.0391-.1816-.1191-.2808-.2393l-6.501-8.25v7.1279c0,.1094.0083.2002.0249.2715.0166.0723.0601.1328.1318.1816.0718.0498.1758.0937.3135.1328.1377.0381.3218.0791.5527.123.0552.0117.1016.0361.1406.0742.0381.0391.0576.1182.0576.2393,0,.0771-.0112.1709-.0332.2803-.2749-.0215-.5337-.041-.7754-.0576-.2422-.0166-.5225-.0244-.8413-.0244-.3193,0-.6245.0078-.916.0244s-.5581.0361-.8003.0576c-.022-.0439-.0327-.0928-.0327-.1484v-.1318c0-.1094.019-.1865.0576-.2305s.085-.0713.1401-.083c.396-.0654.6602-.1484.792-.2471.1323-.0996.1982-.2529.1982-.4619v-8.3496c0-.1758-.0581-.3105-.1733-.4043-.1157-.0928-.377-.167-.7837-.2227-.1323-.0332-.1982-.1367-.1982-.3135v-.0742c0-.0273.0054-.0576.0166-.0908l.0166-.1318c.1538.0107.3022.0195.4453.0244.1431.0059.2861.0146.4292.0254.2417.0107.4868.0195.7344.0244.2471.0059.4478.0088.6021.0088.3188,0,.5278.0137.627.041s.187.0801.2642.1562l5.478,6.9307Z" style="fill:#005281; stroke-width:0px;"></path>
      </g>
      <g id="Teton_Valley">
        <path d="M45.8691,136.0926c0-.6533.1235-1.2646.3711-1.834.2471-.5693.5854-1.0684,1.0151-1.498.4292-.4297.9307-.7676,1.5049-1.0156.5737-.2471,1.1875-.3701,1.8408-.3701.6724,0,1.2974.1162,1.876.3496s1.0806.5596,1.5054.9795c.4243.4209.7578.9199,1.001,1.498.2422.5791.3638,1.209.3638,1.8906,0,.6533-.1235,1.2666-.3711,1.8408-.2471.5742-.5854,1.0732-1.0146,1.498-.4297.4248-.9336.7607-1.5122,1.0078s-1.1948.3711-1.8481.3711c-.6719,0-1.2974-.1172-1.876-.3496-.5786-.2334-1.0776-.5605-1.498-.9805-.4199-.4199-.7515-.917-.9937-1.4912-.2432-.5732-.3643-1.2061-.3643-1.8965ZM50.811,140.0828c.3921,0,.7466-.0869,1.064-.2598.3174-.1719.5903-.4082.8193-.707.2285-.2979.4058-.6484.5317-1.0498s.189-.8301.189-1.2881c0-.6621-.063-1.2783-.189-1.8477-.126-.5693-.3174-1.0615-.5737-1.4775-.2568-.415-.5791-.7412-.9663-.9795s-.8374-.3574-1.3506-.3574c-.3271,0-.644.0732-.9521.2178s-.5791.3545-.812.6299c-.2334.2754-.4199.6084-.5601,1.001-.1401.3916-.21.835-.21,1.3301,0,.6904.0674,1.3301.2031,1.918.1353.5879.3311,1.0938.5879,1.5186.2563.4248.5718.7559.9448.9941.3735.2383.7983.3574,1.2739.3574Z" style="fill:#005281; stroke-width:0px;"></path>
        <path d="M57.5591,132.5926c0-.084-.0117-.1562-.0347-.2168-.0234-.0605-.0728-.1143-.147-.1611-.0752-.0469-.1777-.0869-.3081-.1191-.1309-.0332-.2988-.0674-.5039-.1055-.0938-.0273-.1401-.1113-.1401-.252v-.1328c0-.042.0093-.0859.0278-.1328.4014.0283.7563.0469,1.064.0557.3081.0098.5693.0146.7842.0146h2.8701c.4292,0,.7954-.0146,1.0986-.042.3032-.0283.5063-.042.6094-.042.1025,0,.1772.042.2236.126.0283.0742.0513.2119.0703.4131.0186.2002.0513.4082.0977.6221.0283.1592.061.3135.0981.4629s.0933.3311.168.5459c-.0371.0186-.0864.0371-.147.0557s-.1191.0283-.1748.0283c-.103,0-.1729-.042-.21-.126-.1123-.2432-.2222-.4502-.3291-.623-.1074-.1729-.229-.3125-.3643-.4199s-.2939-.1846-.4756-.2314c-.1821-.0469-.4038-.0703-.665-.0703h-1.8481v3.542h1.9321c.1587,0,.2729-.0762.3428-.2305.0703-.1543.1284-.3848.1753-.6934.0278-.1211.1162-.1816.2656-.1816.0283,0,.0723.002.1333.0068.0605.0049.105.0117.1328.0215-.0186.2148-.0352.4639-.0488.749-.0142.2842-.021.5244-.021.7207,0,.168.0044.3662.0137.5947s.0283.4883.0562.7773c-.0278.0186-.0698.0303-.126.0352s-.0981.0068-.126.0068c-.1587,0-.252-.0654-.2798-.1963-.0376-.2988-.0938-.5254-.168-.6787-.0752-.1543-.1914-.2314-.3501-.2314h-1.9321v3.1357c0,.0938.0327.1709.0981.2314.0649.0605.1538.1123.2656.1543.1123.042.2427.0742.3921.0977s.3081.0488.4761.0771c.1118.0098.168.0889.168.2383,0,.0273-.0024.0742-.0068.1396-.0049.0654-.0117.1162-.021.1543-.1309,0-.2617-.0029-.3921-.0068-.1309-.0049-.2612-.0127-.3921-.0215-.2427-.0186-.502-.0303-.7769-.0352-.2754-.0049-.5483-.0068-.8188-.0068-.1309,0-.2734.002-.4272.0068s-.3149.0117-.4829.0215c-.168.0088-.334.0156-.4971.0205-.1636.0049-.3149.0117-.4551.0215-.0186-.0381-.0278-.0869-.0278-.1475v-.1328c0-.1396.0464-.2148.1401-.2236.3076-.0752.5503-.1475.728-.2178.1768-.0693.2656-.1982.2656-.3848v-7.0137Z" style="fill:#005281; stroke-width:0px;"></path>
        <path d="M72.3711,132.242v7.3643c0,.0938.0068.1709.021.2314s.0488.1143.105.1611c.0562.0459.1353.0859.2383.1182.1025.0332.2471.0635.4336.0918.1401.0273.21.1074.21.2373,0,.0283-.002.0703-.0068.126-.0049.0566-.0117.1025-.021.1406-.2988-.0195-.6182-.0352-.959-.0488-.3408-.0146-.6416-.0215-.9028-.0215-.271,0-.5718.0068-.9033.0215-.3311.0137-.646.0293-.9448.0488-.0186-.0381-.0303-.084-.0352-.1406-.0044-.0557-.0068-.0977-.0068-.126,0-.0645.0117-.1191.0352-.1611.0229-.042.0859-.0713.189-.0908.3452-.0459.562-.1094.6509-.1885.0884-.0791.1328-.2129.1328-.3994v-7.3643h-1.2319c-.2612,0-.4829.0264-.665.0771-.1816.0518-.3408.1309-.4756.2383-.1357.1074-.2568.2471-.3643.4199s-.2168.3809-.3291.623c-.0371.084-.1074.126-.21.126-.0557,0-.1211-.0117-.1958-.0352s-.1309-.0439-.168-.0625c.0649-.2246.1211-.4229.168-.5957.0464-.1719.084-.3428.1118-.5107.0371-.2148.0654-.4063.084-.5742s.042-.2891.0703-.3633c.0371-.084.1118-.126.2236-.126.1025,0,.3057.0137.6094.042.3027.0273.6694.042,1.0986.042h4.312c.4199,0,.7817-.0146,1.085-.042.3032-.0283.5112-.042.623-.042.1025,0,.1772.042.2241.126.0278.0742.0488.1953.063.3633s.0444.3594.0908.5742c.0283.168.063.3389.105.5107.042.1729.1006.3711.1753.5957-.0469.0186-.105.0391-.1753.0625-.0698.0234-.1328.0352-.189.0352-.1025,0-.1772-.042-.2236-.126-.1123-.2422-.2222-.4502-.3291-.623-.1074-.1729-.229-.3125-.3643-.4199s-.2939-.1865-.4761-.2383c-.1816-.0508-.3989-.0771-.6509-.0771h-1.2319Z" style="fill:#005281; stroke-width:0px;"></path>
        <path d="M79.6089,132.242v3.374h1.9741c.1772,0,.2983-.0723.3638-.2168s.1211-.3799.168-.707c.0093-.0742.0371-.123.084-.1465s.1074-.0352.1821-.0352c.0278,0,.0723.002.1328.0068.061.0049.105.0117.1333.0215-.019.2139-.0352.4639-.0493.748-.0137.2852-.021.5254-.021.7217,0,.168.0049.3662.0142.5947s.0278.4883.0562.7773c-.0283.0186-.0723.0303-.1333.0352-.0605.0039-.105.0068-.1328.0068-.168,0-.2568-.0654-.2661-.1963-.0557-.3545-.1187-.5947-.189-.7207-.0698-.126-.1841-.1895-.3428-.1895h-1.9741v3.1357c0,.1963.1211.3271.3638.3926s.6533.0977,1.2324.0977h.5879c.2798,0,.5156-.0371.707-.1113.1909-.0752.3613-.1797.5107-.3154.1494-.1348.2803-.2939.3921-.4756.1118-.1826.2241-.3857.3359-.6094.0283-.0654.0933-.0977.1963-.0977.0464,0,.1025.0137.168.042.0649.0273.1304.0557.1958.084-.0186.0742-.0396.1445-.063.21s-.0444.1309-.063.1953c-.0469.1035-.084.2148-.1118.3359-.0283.1221-.0562.2197-.084.2939-.019.0938-.04.1992-.063.3154-.0234.1172-.0469.2285-.0703.3359s-.0469.2031-.0698.2871c-.0234.084-.04.1396-.0488.168-.0376.0742-.1123.1123-.2241.1123-.0747,0-.1821-.0049-.3223-.0146-.1396-.0088-.2915-.0156-.4546-.0205-.1636-.0049-.3291-.0117-.4971-.0215-.168-.0088-.313-.0137-.4341-.0137h-3.1782c-.2705,0-.5811.0068-.9307.0215-.3501.0137-.665.0293-.9453.0488-.0186-.0381-.0278-.0869-.0278-.1475v-.1328c0-.1396.0464-.2148.1401-.2236.3545-.0654.6089-.1357.7627-.21.1543-.0752.231-.2061.231-.3926v-7.0137c0-.0937-.0137-.1699-.042-.2314-.0278-.0605-.0815-.1113-.1606-.1533-.0796-.042-.1821-.0801-.3081-.1123-.126-.0332-.2871-.0674-.4829-.1055-.0938-.0273-.1401-.1113-.1401-.252v-.1328c0-.042.0093-.0859.0278-.1328.4014.0283.7563.0469,1.064.0557.3081.0098.5742.0146.7983.0146h2.8696c.4204,0,.7817-.0146,1.085-.042.3032-.0283.5112-.042.623-.042.1025,0,.1772.042.2241.126.0278.0742.0513.2119.0698.4131.019.2002.0513.4082.0981.6221.0283.1592.0605.3135.0981.4629.0371.1494.0933.3311.168.5459-.0469.0186-.0981.0371-.1538.0557-.0562.0186-.1123.0283-.1685.0283-.1025,0-.1772-.042-.2236-.126-.1123-.2432-.2222-.4502-.3291-.623-.1074-.1729-.229-.3125-.3643-.4199s-.2939-.1846-.4756-.2314c-.1821-.0469-.3994-.0703-.6514-.0703h-1.8618Z" style="fill:#005281; stroke-width:0px;"></path>
        <path d="M90.1929,132.242v7.3643c0,.0938.0068.1709.021.2314s.0488.1143.105.1611c.0562.0459.1353.0859.2383.1182.1025.0332.2471.0635.4336.0918.1401.0273.21.1074.21.2373,0,.0283-.002.0703-.0068.126-.0049.0566-.0117.1025-.021.1406-.2988-.0195-.6182-.0352-.959-.0488-.3408-.0146-.6416-.0215-.9028-.0215-.271,0-.5718.0068-.9033.0215-.3311.0137-.646.0293-.9448.0488-.0186-.0381-.0303-.084-.0352-.1406-.0044-.0557-.0068-.0977-.0068-.126,0-.0645.0117-.1191.0352-.1611.0229-.042.0859-.0713.189-.0908.3452-.0459.562-.1094.6509-.1885.0884-.0791.1328-.2129.1328-.3994v-7.3643h-1.2319c-.2612,0-.4829.0264-.665.0771-.1816.0518-.3408.1309-.4756.2383-.1357.1074-.2568.2471-.3643.4199s-.2168.3809-.3291.623c-.0371.084-.1074.126-.21.126-.0557,0-.1211-.0117-.1958-.0352s-.1309-.0439-.168-.0625c.0649-.2246.1211-.4229.168-.5957.0464-.1719.084-.3428.1118-.5107.0371-.2148.0654-.4063.084-.5742s.042-.2891.0703-.3633c.0371-.084.1118-.126.2236-.126.1025,0,.3057.0137.6094.042.3027.0273.6694.042,1.0986.042h4.312c.4199,0,.7817-.0146,1.085-.042.3032-.0283.5112-.042.623-.042.1025,0,.1772.042.2241.126.0278.0742.0488.1953.063.3633s.0444.3594.0908.5742c.0283.168.063.3389.105.5107.042.1729.1006.3711.1753.5957-.0469.0186-.105.0391-.1753.0625-.0698.0234-.1328.0352-.189.0352-.1025,0-.1772-.042-.2236-.126-.1123-.2422-.2222-.4502-.3291-.623-.1074-.1729-.229-.3125-.3643-.4199s-.2939-.1865-.4761-.2383c-.1816-.0508-.3989-.0771-.6509-.0771h-1.2319Z" style="fill:#005281; stroke-width:0px;"></path>
        <path d="M94.4346,136.0926c0-.6533.1235-1.2646.3711-1.834.2471-.5693.5854-1.0684,1.0151-1.498.4292-.4297.9307-.7676,1.5049-1.0156.5737-.2471,1.1875-.3701,1.8408-.3701.6724,0,1.2974.1162,1.876.3496s1.0806.5596,1.5054.9795c.4243.4209.7578.9199,1.001,1.498.2422.5791.3638,1.209.3638,1.8906,0,.6533-.1235,1.2666-.3711,1.8408-.2471.5742-.5854,1.0732-1.0146,1.498-.4297.4248-.9336.7607-1.5122,1.0078s-1.1948.3711-1.8481.3711c-.6719,0-1.2974-.1172-1.876-.3496-.5786-.2334-1.0776-.5605-1.498-.9805-.4199-.4199-.7515-.917-.9937-1.4912-.2432-.5732-.3643-1.2061-.3643-1.8965ZM99.3765,140.0828c.3921,0,.7466-.0869,1.064-.2598.3174-.1719.5903-.4082.8193-.707.2285-.2979.4058-.6484.5317-1.0498.126-.4014.189-.8301.189-1.2881,0-.6621-.063-1.2783-.189-1.8477-.126-.5693-.3174-1.0615-.5737-1.4775-.2568-.415-.5791-.7412-.9663-.9795s-.8374-.3574-1.3506-.3574c-.3271,0-.644.0732-.9521.2178s-.5791.3545-.812.6299c-.2334.2754-.4199.6084-.5601,1.001-.1401.3916-.21.835-.21,1.3301,0,.6904.0674,1.3301.2031,1.918.1353.5879.3311,1.0938.5879,1.5186.2563.4248.5718.7559.9448.9941.3735.2383.7983.3574,1.2739.3574Z" style="fill:#005281; stroke-width:0px;"></path>
        <path d="M112.1865,137.5906v-4.9707c0-.2051-.0698-.3496-.21-.4336s-.3872-.1494-.7422-.1963c-.1211-.0273-.1816-.1162-.1816-.2656v-.1123c0-.0459.0088-.0928.0278-.1396.2329.0283.4619.0469.686.0557.2241.0098.4854.0146.7837.0146.2988,0,.5557-.0049.77-.0146.2148-.0088.4292-.0273.644-.0557.0093.0469.0166.0938.021.1396.0049.0469.0073.084.0073.1123,0,.1592-.0562.2471-.168.2656-.3081.0469-.5181.1123-.6304.1963-.1118.084-.168.2197-.168.4062v8.1895c-.0371.0098-.1001.0166-.189.0215s-.147.0068-.1748.0068c-.0654,0-.1353-.0166-.21-.0488-.0747-.0332-.1543-.1006-.2383-.2031l-5.5156-7v6.0479c0,.0938.0068.1709.021.2314.0137.0605.0508.1113.1118.1533.0605.042.1494.0801.2661.1123.1167.0332.2729.0684.4688.1055.0469.0088.0864.0303.1191.0625.0327.0332.0488.1006.0488.2031,0,.0654-.0093.1445-.0278.2383-.2334-.0195-.4526-.0352-.6582-.0488-.2051-.0146-.4434-.0215-.7139-.0215-.271,0-.5298.0068-.7769.0215-.2476.0137-.4741.0293-.6792.0488-.0186-.0381-.0278-.0791-.0278-.126v-.1123c0-.0928.0161-.1582.0488-.1963.0327-.0371.0723-.0605.1191-.0693.3359-.0566.5601-.126.6719-.21.1123-.084.168-.2148.168-.3926v-7.084c0-.1494-.0488-.2637-.147-.3428-.0977-.0791-.3198-.1426-.665-.1895-.1118-.0273-.168-.1162-.168-.2656v-.0635c0-.0225.0049-.0488.0142-.0762l.0142-.1123c.1304.0098.2563.0166.3779.0205.1211.0049.2427.0127.3638.0215.2051.0098.4131.0166.623.0205.21.0049.3804.0078.5112.0078.2705,0,.4478.0117.5317.0342.084.0234.1587.0684.2241.1338l4.648,5.8799Z" style="fill:#005281; stroke-width:0px;"></path>
        <path d="M124.8281,132.7186c.0469-.1211.0703-.2197.0703-.2939,0-.1309-.061-.2266-.1821-.2871-.1216-.0605-.3315-.1094-.6299-.1475-.1123-.0088-.1685-.0977-.1685-.2656,0-.0186.0024-.04.0073-.0635.0044-.0225.0068-.0488.0068-.0762l.0142-.1123c.084.0098.1865.0186.3081.0283.1211.0088.2539.0156.3989.0205.1445.0049.2891.0098.4341.0137.1445.0049.2773.0078.3989.0078.2705,0,.5293-.0049.7769-.0146.2471-.0088.4595-.0273.6372-.0557l.0137.1123c.0093.0273.0142.0557.0142.084v.0693c0,.1777-.0562.2715-.168.2803-.2988.0283-.5112.0771-.6372.1475-.126.0693-.2261.1934-.3008.3701l-3.458,8.2607c-.0469.0088-.084.0137-.1123.0137h-.0977c-.0747,0-.1284-.0137-.1611-.042s-.0679-.0938-.105-.1963l-3.2759-8.1055c-.0283-.0654-.0586-.124-.0913-.1748-.0327-.0518-.0815-.0957-.147-.1338-.0654-.0371-.1519-.0674-.2588-.0908-.1074-.0234-.25-.0439-.4272-.0625-.1211-.0098-.1816-.1074-.1816-.2939v-.1191c0-.0518.0093-.0908.0278-.1191.1401.0098.2988.0186.4761.0283.1772.0088.3569.0156.5391.0205.1816.0049.3589.0098.5317.0137.1729.0049.3242.0078.4551.0078.3081,0,.644-.0078,1.0083-.0215.3638-.0137.6904-.0303.98-.0488.0186.0469.0278.0938.0278.1396v.1123c0,.168-.0562.2568-.168.2656-.2988.0283-.5088.0752-.6299.1406-.1216.0654-.1821.1533-.1821.2656,0,.0654.0142.1396.042.2236l2.0439,5.5303,2.1699-5.4316Z" style="fill:#005281; stroke-width:0px;"></path>
        <path d="M130.9048,137.5623h-2.9399l-.728,1.9463c-.0283.0469-.0469.0977-.0562.1533-.0093.0566-.0142.0986-.0142.127,0,.1025.0493.1865.1475.252.0977.0654.2959.1211.5947.168.1309.0186.1958.1074.1958.2656,0,.0654-.0093.1445-.0278.2383-.252-.0195-.5181-.0352-.7979-.0488-.2803-.0146-.5557-.0215-.8262-.0215-.1865,0-.3828.0049-.5879.0137-.2056.0098-.4341.0283-.686.0566-.0186-.0381-.0278-.0791-.0278-.126v-.1123c0-.1768.0605-.2705.1816-.2803.2896-.0557.4971-.1162.623-.1816s.2266-.1777.3013-.3359l3.374-8.0645c.0742-.1582.1865-.2373.3359-.2373.0464,0,.0933.002.1401.0068.0464.0049.0977.0117.1538.0205l3.374,8.3164c.0562.1396.1631.2451.3218.3145.1587.0703.3315.1191.5181.1475.1401.0283.21.1211.21.2803,0,.0742-.0093.1582-.0278.252-.2988-.0195-.5928-.0352-.8818-.0488-.2896-.0146-.5601-.0215-.812-.0215-.1309,0-.2896.002-.4761.0068-.187.0049-.3779.0117-.5742.0215-.1958.0088-.3896.0156-.5811.0205s-.3521.0117-.4829.0215c-.0186-.0381-.0278-.0791-.0278-.126v-.1123c0-.084.0161-.1475.0488-.1895s.0679-.0674.105-.0762c.2427-.0469.4224-.1006.5391-.1611s.1753-.1523.1753-.2734c0-.0557-.0142-.126-.0425-.21l-.7417-2.002ZM130.6387,136.8621l-1.1899-3.1494-1.2178,3.1494h2.4077Z" style="fill:#005281; stroke-width:0px;"></path>
        <path d="M138.1987,139.452c0,.1963.126.3271.3779.3926s.6675.0977,1.2461.0977h.5317c.2334,0,.4365-.0254.6094-.0771.1724-.0508.3242-.1377.4551-.2588.1304-.1211.2495-.2773.3569-.4688.1069-.1914.2119-.4219.3149-.6934.0278-.0742.0981-.1113.21-.1113.0464,0,.1025.0137.168.042.0649.0273.1304.0557.1958.084-.0747.2988-.1421.623-.2026.9727-.061.3496-.1147.6934-.1611,1.0293-.0093.1113-.04.1816-.0908.21-.0518.0273-.1055.042-.1611.042-.0747,0-.1797-.0049-.3149-.0146-.1357-.0088-.2827-.0156-.4414-.0205s-.3193-.0117-.4829-.0215c-.1631-.0088-.3057-.0137-.4268-.0137h-3.1782c-.2705,0-.5811.0068-.9307.0215-.3501.0137-.665.0293-.9453.0488-.0186-.0381-.0278-.0869-.0278-.1475v-.1328c0-.1396.0464-.2148.1401-.2236.3545-.0654.6089-.1357.7627-.21.1543-.0752.231-.2061.231-.3926v-7.0137c0-.0937-.0093-.1699-.0278-.2314-.019-.0605-.0562-.1143-.1118-.1611-.0562-.0459-.1426-.0859-.2593-.1182-.1167-.0332-.2729-.0635-.4688-.0918-.0938-.0273-.1401-.1064-.1401-.2373v-.126c0-.0566.0093-.1074.0278-.1543.2988.0186.6162.0352.9521.0488s.6348.0215.896.0215c.1304,0,.2798-.0029.4478-.0078.1685-.0039.3433-.0088.5254-.0137.1816-.0049.3638-.0117.5459-.0205.1821-.0098.3477-.0186.4971-.0283.0093.0469.0161.0977.021.1543.0044.0557.0068.0977.0068.126,0,.1309-.0469.21-.1401.2373-.4014.0566-.6694.1289-.8047.2178-.1357.0889-.2031.2256-.2031.4121v6.832Z" style="fill:#005281; stroke-width:0px;"></path>
        <path d="M146.1787,139.452c0,.1963.126.3271.3779.3926s.6675.0977,1.2461.0977h.5317c.2334,0,.4365-.0254.6094-.0771.1724-.0508.3242-.1377.4551-.2588.1304-.1211.2495-.2773.3569-.4688.1069-.1914.2119-.4219.3149-.6934.0278-.0742.0981-.1113.21-.1113.0464,0,.1025.0137.168.042.0649.0273.1304.0557.1958.084-.0747.2988-.1421.623-.2026.9727-.061.3496-.1147.6934-.1611,1.0293-.0093.1113-.04.1816-.0908.21-.0518.0273-.1055.042-.1611.042-.0747,0-.1797-.0049-.3149-.0146-.1357-.0088-.2827-.0156-.4414-.0205s-.3193-.0117-.4829-.0215c-.1631-.0088-.3057-.0137-.4268-.0137h-3.1782c-.2705,0-.5811.0068-.9307.0215-.3501.0137-.665.0293-.9453.0488-.0186-.0381-.0278-.0869-.0278-.1475v-.1328c0-.1396.0464-.2148.1401-.2236.3545-.0654.6089-.1357.7627-.21.1543-.0752.231-.2061.231-.3926v-7.0137c0-.0937-.0093-.1699-.0278-.2314-.019-.0605-.0562-.1143-.1118-.1611-.0562-.0459-.1426-.0859-.2593-.1182-.1167-.0332-.2729-.0635-.4688-.0918-.0938-.0273-.1401-.1064-.1401-.2373v-.126c0-.0566.0093-.1074.0278-.1543.2988.0186.6162.0352.9521.0488s.6348.0215.896.0215c.1304,0,.2798-.0029.4478-.0078.1685-.0039.3433-.0088.5254-.0137.1816-.0049.3638-.0117.5459-.0205.1821-.0098.3477-.0186.4971-.0283.0093.0469.0161.0977.021.1543.0044.0557.0068.0977.0068.126,0,.1309-.0469.21-.1401.2373-.4014.0566-.6694.1289-.8047.2178-.1357.0889-.2031.2256-.2031.4121v6.832Z" style="fill:#005281; stroke-width:0px;"></path>
        <path d="M154.1587,132.242v3.374h1.9741c.1772,0,.2983-.0723.3638-.2168s.1211-.3799.168-.707c.0093-.0742.0371-.123.084-.1465s.1074-.0352.1821-.0352c.0278,0,.0723.002.1328.0068.061.0049.105.0117.1333.0215-.019.2139-.0352.4639-.0493.748-.0137.2852-.021.5254-.021.7217,0,.168.0049.3662.0142.5947s.0278.4883.0562.7773c-.0283.0186-.0723.0303-.1333.0352-.0605.0039-.105.0068-.1328.0068-.168,0-.2568-.0654-.2661-.1963-.0557-.3545-.1187-.5947-.189-.7207-.0698-.126-.1841-.1895-.3428-.1895h-1.9741v3.1357c0,.1963.1211.3271.3638.3926s.6533.0977,1.2324.0977h.5879c.2798,0,.5156-.0371.707-.1113.1909-.0752.3613-.1797.5107-.3154.1494-.1348.2803-.2939.3921-.4756.1118-.1826.2241-.3857.3359-.6094.0283-.0654.0933-.0977.1963-.0977.0464,0,.1025.0137.168.042.0649.0273.1304.0557.1958.084-.0186.0742-.0396.1445-.063.21s-.0444.1309-.063.1953c-.0469.1035-.084.2148-.1118.3359-.0283.1221-.0562.2197-.084.2939-.019.0938-.04.1992-.063.3154-.0234.1172-.0469.2285-.0703.3359s-.0469.2031-.0698.2871c-.0234.084-.04.1396-.0488.168-.0376.0742-.1123.1123-.2241.1123-.0747,0-.1821-.0049-.3223-.0146-.1396-.0088-.2915-.0156-.4546-.0205-.1636-.0049-.3291-.0117-.4971-.0215-.168-.0088-.313-.0137-.4341-.0137h-3.1782c-.2705,0-.5811.0068-.9307.0215-.3501.0137-.665.0293-.9453.0488-.0185-.0381-.0278-.0869-.0278-.1475v-.1328c0-.1396.0464-.2148.1401-.2236.3545-.0654.6089-.1357.7627-.21.1543-.0752.231-.2061.231-.3926v-7.0137c0-.0937-.0137-.1699-.042-.2314-.0278-.0605-.0815-.1113-.1606-.1533-.0796-.042-.1821-.0801-.3081-.1123-.126-.0332-.2871-.0674-.4829-.1055-.0938-.0273-.1401-.1113-.1401-.252v-.1328c0-.042.0093-.0859.0278-.1328.4014.0283.7564.0469,1.064.0557.3081.0098.5742.0146.7983.0146h2.8696c.4204,0,.7817-.0146,1.085-.042.3032-.0283.5112-.042.623-.042.1025,0,.1772.042.2241.126.0278.0742.0513.2119.0698.4131.019.2002.0513.4082.0981.6221.0283.1592.0605.3135.0981.4629.0371.1494.0933.3311.168.5459-.0469.0186-.0982.0371-.1538.0557-.0562.0186-.1123.0283-.1685.0283-.1025,0-.1772-.042-.2236-.126-.1123-.2432-.2222-.4502-.3291-.623-.1074-.1729-.229-.3125-.3643-.4199s-.2939-.1846-.4756-.2314c-.1821-.0469-.3994-.0703-.6514-.0703h-1.8618Z" style="fill:#005281; stroke-width:0px;"></path>
        <path d="M162.3491,136.8065l-2.2261-4.2422c-.103-.1963-.231-.3311-.3853-.4062-.1538-.0742-.3521-.1299-.5947-.168-.1123-.0088-.168-.1025-.168-.2793v-.0635c0-.0234.0044-.0488.0137-.0771l.0142-.0977c.2051.0186.4692.0352.791.0488s.6743.0215,1.0571.0215c.1304,0,.2871-.0029.4688-.0078.1821-.0039.3662-.0088.5532-.0137.1865-.0049.3613-.0117.5249-.0205.1631-.0098.2964-.0186.3989-.0283.0186.084.0278.1426.0278.1748v.0771c0,.1592-.0557.2471-.168.2656-.2427.0283-.4106.0684-.5039.1191-.0933.0518-.1396.1191-.1396.2031,0,.0752.0322.1729.0977.2939l1.6382,3.248,1.6099-3.0234c.1025-.1777.1543-.3271.1543-.4482,0-.1123-.0518-.1934-.1543-.2451s-.2798-.1006-.5317-.1475c-.1216-.0186-.1821-.1064-.1821-.2656,0-.0371.0142-.1211.042-.252.1958.0186.4409.0352.7349.0488s.5532.0215.7769.0215c.2148,0,.4414-.0049.6792-.0146.2378-.0088.478-.0273.7212-.0557.0186.0654.0278.1191.0278.1611v.0908c0,.168-.0562.2568-.168.2656-.3359.0469-.5693.1074-.7002.1826-.1309.0742-.2427.1914-.3359.3496l-2.3101,4.2559v2.7861c0,.1025.0142.1865.042.252.0283.0654.0796.1211.1543.168.0742.0469.1748.0869.3008.1191.126.0332.2915.0635.4971.0908.0464.0098.0864.0303.1191.0635.0322.0322.0488.1006.0488.2031,0,.0186-.0024.0391-.0068.0625-.0049.0234-.0073.0488-.0073.0771l-.0137.0977c-.1494,0-.2896-.002-.4199-.0068-.1309-.0049-.2617-.0117-.3921-.0205-.2241-.0195-.4551-.0303-.6929-.0352-.2383-.0049-.4365-.0068-.5952-.0068-.168,0-.3618.002-.5811.0068s-.4316.0156-.6372.0352c-.1211.0088-.2402.0156-.3569.0205s-.2358.0068-.3569.0068l-.0137-.0977c-.0098-.0283-.0142-.0537-.0142-.0771v-.0625c0-.1025.0161-.1709.0488-.2031.0327-.0332.0723-.0537.1191-.0635.1958-.0371.3594-.0723.4897-.1045.1309-.0332.2334-.0703.3081-.1123s.126-.0957.1543-.1611c.0278-.0654.042-.1494.042-.252v-2.7578Z" style="fill:#005281; stroke-width:0px;"></path>
      </g>
      <path d="M195.4263,106.0151c-.978-.1953-2.6655-1.6035-6.0205-4.5488-1.4795-1.2988-3.4824-3.0576-4.1118-3.375-.7524.0977-2.4678.5869-3.4355.8926l-2.793,1-10.4502-7.9014-2.771-.5479-2.1362-6.415-18.1396-19.248-11.7173-10.6211c-3.4263-1.8682-7.5786-3.8662-8.3853-3.8701-1.2363.0937-2.8848.6299-3.5234,1.0469-.5444.5225-2.2622,4.8359-2.3047,6.8379-.0493,2.2676-2.7305,13.709-3.0361,15.0059l-.127.5391-.5386.1299c-4.1909,1.0068-9.0654,2.5615-9.6416,3.2715-.6826.8711-2.1719,6.4014-3.0112,10.0498l-.0449.1953-7.6494,9.7598-3.8794-4.5283c-1.6187-2.7432-3.814-5.8867-4.502-6.1924-.9614-.2578-4.4409-.5293-7.2368-.7471-3.1152-.2432-4.9082-.3887-5.5264-.5674-.5957-.1699-1.0938-.7979-2.1631-2.2012-.9785-1.2832-2.1963-2.8818-3.4844-3.877-1.1548-.8955-6.7139-3.5371-8.7583-4.4785l-.1484-.0684-.1147-.1172c-1.2988-1.3135-2.9858-2.7939-3.6426-3.1133-.6543.4131-2.585,2.0303-4.1621,3.4395l-.145.1055-1.748,1.0225c-.1006.0518-2.5659,1.2061-3.8184,2.7217-.4517.5479-1.4033,1.3975-2.5049,2.3809-1.6836,1.5029-4.2271,3.7734-4.5576,4.7412-.1494.4385-.2358.8037-.3086,1.1064-.2822,1.1836-.5962,1.9687-2.3208,2.0957-1.6499.1025-7.1001-1.9727-8.5464-2.542-.1519.0547-.2441.373-.2773.5166-.3179,1.3945-2.3701,6.458-2.6035,7.0312-.1128.2227-1.8882,3.4854-5.4414,4.2471-2.8604.6113-4.6055,2.3438-4.6226,2.3613l-1.2832-1.2617c.085-.0859,2.1177-2.1289,5.5293-2.8594,2.7212-.583,4.1777-3.2246,4.1924-3.252.5771-1.4326,2.2334-5.6074,2.4751-6.666.3911-1.7197,1.6997-2.0049,2.3364-1.9053l.2021.0537c2.7026,1.0742,6.9419,2.5664,7.9067,2.4814.4233-.0303.5259-.0947.5298-.0977.0396-.0586.1143-.3701.1738-.6201.083-.3477.1836-.7676.356-1.2715.4478-1.3125,2.3804-3.1074,5.0615-5.501,1.0034-.8955,1.9507-1.7422,2.3154-2.1846,1.5166-1.835,4.2583-3.1152,4.3745-3.1689l1.5928-.9365c1.2241-1.0918,3.9897-3.5068,4.8325-3.8135.4351-.1523,1.3188-.4648,5.2681,3.5088,1.2534.5791,7.5054,3.4941,8.9585,4.6211,1.4741,1.1396,2.7715,2.8418,3.814,4.21.4712.6182,1.0518,1.3799,1.2988,1.5791.6133.1357,2.9912.3213,5.1001.4854,3.1675.2471,6.4424.502,7.5928.8135,1.4575.3926,4.063,4.4814,5.5146,6.9365l2.3052,2.6777,6.0518-7.7207c.4419-1.9014,2.1694-9.1123,3.3037-10.5605,1.1289-1.4404,7.4502-3.126,10.0977-3.7793.8911-3.8174,2.8262-12.4209,2.8623-14.0957.0469-2.1895,1.9204-7.5234,3.1211-8.3057.9595-.626,2.9258-1.2236,4.3833-1.334.0273-.0029.0562-.0039.0864-.0039,1.6274,0,7.0781,2.8828,9.3779,4.1406l.1724.123,11.8472,10.7422,18.4619,19.5859,1.9312,5.7979,2.1499.4248,10.0049,7.5654,1.9097-.6826c.3252-.1035,2.9326-.9199,4.0127-.9971.771-.0654,1.7554.7236,5.2954,3.8311,1.7939,1.5752,4.5054,3.9551,5.1929,4.1387l-.3594,1.7627ZM185.4297,98.0766c-.002.001-.0039.001-.0059.001.002,0,.0039,0,.0059-.001ZM74.9404,84.4516s.0015.001.002.001c-.0005,0-.0015-.001-.002-.001Z" style="fill:#808285; stroke-width:0px;"></path>
      <path d="M115.9267.0803C68.3504-1.9461,28.8239,34.6282,25.7919,80.992l-.0294.4696h-.0004s.0003.0005.0003.0008l-.0003.0046h.002c.0026.054.0394.1039.0999.1039h1.1564c.0485,0,.0832-.0364.0936-.0818h-.0008s.0341-.5035.0341-.5035C30.1535,38.7815,66.0089,4.1804,108.9661,4.1804c44.9258,0,81.3454,36.4196,81.3454,81.3454,0,2.5667-.1261,5.1036-.3593,7.6093-.0209.2247.0753.4417.2556.5771,2.2531,1.6934,4.4542,3.4519,6.6078,5.265.3969.3342,1.009.1068,1.0803-.4072.5634-4.0601.8453-8.2101.8253-12.43C198.5023,40.1985,161.8272,2.0353,115.9267.0803Z" style="fill:#005282; stroke-width:0px;"></path>
    </g>
  </g>
</svg>
