<?xml version="1.0" encoding="utf-8"?>
<svg xmlns="http://www.w3.org/2000/svg" width="220.46" height="59.781" viewBox="0 0 220.46 59.781">
  <g id="Color_Logo" data-name="Color Logo" transform="translate(110.23 29.89)">
    <g id="Color_Logo-2" data-name="Color Logo" transform="translate(-110.23 -29.89)">
      <!--<g id="Group_1" data-name="Group 1" transform="translate(46.813 46.942)">
        <path id="Path_1" data-name="Path 1" d="M39.2,33.19A4.134,4.134,0,0,0,36.438,32.1a4.2,4.2,0,1,0,0,8.409,4.038,4.038,0,0,0,2.856-1.128l.859.961a5.745,5.745,0,0,1-3.714,1.42,5.462,5.462,0,1,1,0-10.914,5.673,5.673,0,0,1,3.673,1.35Z" transform="translate(-30.753 -30.834)" fill="#a59c96"/>
        <path id="Path_2" data-name="Path 2" d="M45.135,30.851a5.5,5.5,0,1,1-3.986,1.533,5.462,5.462,0,0,1,3.986-1.533Zm0,9.661a4.194,4.194,0,1,0-3-1.216,4.2,4.2,0,0,0,3,1.216Z" transform="translate(-26.204 -30.833)" fill="#a59c96"/>
        <path id="Path_3" data-name="Path 3" d="M59.976,30.96h1.35V41.539h-1.35V33.7h-.029l-4.32,7.949L51.307,33.7h-.029v7.838h-1.35V30.96h1.35l4.347,7.99Z" transform="translate(-20.74 -30.775)" fill="#a59c96"/>
        <path id="Path_4" data-name="Path 4" d="M70.717,30.96h1.35V41.539h-1.35V33.7h-.029l-4.32,7.949L62.048,33.7h-.029v7.838H60.67V30.96h1.35l4.347,7.99Z" transform="translate(-15.131 -30.775)" fill="#a59c96"/>
        <path id="Path_5" data-name="Path 5" d="M71.375,30.96h1.35v6.348a2.857,2.857,0,1,0,5.685,0V30.96h1.35V37.7a4.2,4.2,0,0,1-8.386,0Z" transform="translate(-9.541 -30.775)" fill="#a59c96"/>
        <path id="Path_6" data-name="Path 6" d="M87.1,30.96h1.35V41.539H87.183l-5.74-8.185h-.027v8.185h-1.35V30.96h1.271l5.742,8.185h.029Z" transform="translate(-5.003 -30.775)" fill="#a59c96"/>
        <path id="Path_7" data-name="Path 7" d="M88.753,30.96H90.1V41.539H88.753Z" transform="translate(-0.466 -30.775)" fill="#a59c96"/>
        <path id="Path_8" data-name="Path 8" d="M101.05,33.19A4.134,4.134,0,0,0,98.292,32.1a4.2,4.2,0,1,0,0,8.409,4.038,4.038,0,0,0,2.856-1.128l.859.961a5.745,5.745,0,0,1-3.714,1.42,5.462,5.462,0,1,1,0-10.914,5.673,5.673,0,0,1,3.673,1.35Z" transform="translate(1.547 -30.834)" fill="#a59c96"/>
        <path id="Path_9" data-name="Path 9" d="M108.459,39.075h-4.981l-.971,2.464h-1.478l4.349-10.579h1.181l4.349,10.579H109.43Zm-2.49-6.361-2.026,5.192h4.044Z" transform="translate(5.945 -30.775)" fill="#a59c96"/>
        <path id="Path_10" data-name="Path 10" d="M111.562,32.213h-2.673V30.96h6.7v1.253h-2.673v9.327h-1.35Z" transform="translate(10.049 -30.775)" fill="#a59c96"/>
        <path id="Path_11" data-name="Path 11" d="M116,30.96h1.35V41.539H116Z" transform="translate(13.762 -30.775)" fill="#a59c96"/>
        <path id="Path_12" data-name="Path 12" d="M125.531,30.851a5.5,5.5,0,1,1-3.986,1.533,5.462,5.462,0,0,1,3.986-1.533Zm0,9.661a4.194,4.194,0,1,0-3-1.217,4.2,4.2,0,0,0,3,1.217Z" transform="translate(15.779 -30.833)" fill="#a59c96"/>
        <path id="Path_13" data-name="Path 13" d="M137.324,30.96h1.352V41.539h-1.266l-5.742-8.185h-.027v8.185h-1.352V30.96h1.266l5.742,8.185h.027Z" transform="translate(21.224 -30.775)" fill="#a59c96"/>
        <path id="Path_14" data-name="Path 14" d="M144.193,34.044a2.058,2.058,0,0,0-2.055-2.018,1.687,1.687,0,0,0-1.927,1.712c0,.793.507,1.3,1.562,1.684l1.352.5c1.7.626,2.49,1.615,2.49,2.892a3.075,3.075,0,0,1-3.434,2.952,3.174,3.174,0,0,1-3.49-3.133h1.352A1.958,1.958,0,0,0,142.25,40.6a1.827,1.827,0,0,0,2.012-1.674c0-.822-.69-1.35-1.661-1.726l-1.37-.53c-1.591-.609-2.378-1.531-2.378-2.892a3.028,3.028,0,0,1,3.293-2.923,3.131,3.131,0,0,1,3.306,3.187Z" transform="translate(25.611 -30.838)" fill="#a59c96"/>
      </g>-->
      <path id="Path_15" data-name="Path 15" d="M36.7,27.49H31.751l3.2-15.87H39.9Z" transform="translate(16.581 6.068)" fill="#a59c96"/>
      <path id="Path_16" data-name="Path 16" d="M52.173,27.49H36.7l3.2-15.87h4.924L42.41,23.58H52.962Z" transform="translate(19.165 6.068)" fill="#a59c96"/>
      <path id="Path_17" data-name="Path 17" d="M56.771,27.49H51L45.674,11.62h5.431l3.742,11.453L63.205,11.62h5.433Z" transform="translate(23.851 6.068)" fill="#a59c96"/>
      <path id="Path_18" data-name="Path 18" d="M76.657,27.49H59.211l3.2-15.87H79.575l-.744,3.687h-12.3L66.052,17.7H77.7l-.715,3.545H65.338l-.483,2.391H77.433Z" transform="translate(30.92 6.068)" fill="#a59c96"/>
      <path id="Path_19" data-name="Path 19" d="M90.661,27.491H85.79l.283-1.407a7.1,7.1,0,0,0,.177-1.575,1.066,1.066,0,0,0-.44-.886,2.81,2.81,0,0,0-1.33-.381q-.913-.084-2.487-.084H77.471L76.6,27.492H71.726l3.2-15.87H87.3a17.172,17.172,0,0,1,3.188.239,3.869,3.869,0,0,1,1.851.8,2.221,2.221,0,0,1,.723,1.505,8.1,8.1,0,0,1-.187,2.321l-.108.534a7.154,7.154,0,0,1-1.04,2.716,4.078,4.078,0,0,1-2.107,1.449,4.09,4.09,0,0,1,1.066.408,1.32,1.32,0,0,1,.569.661,2.588,2.588,0,0,1,.134,1.084,11.752,11.752,0,0,1-.222,1.644Zm-6.8-8.019q1.154,0,1.857-.07a3.213,3.213,0,0,0,1.1-.268,1.265,1.265,0,0,0,.58-.577,4.247,4.247,0,0,0,.32-1.027l.056-.282a3.592,3.592,0,0,0,.088-1,.769.769,0,0,0-.346-.591,2.2,2.2,0,0,0-.985-.282q-.676-.07-1.827-.07H79.048l-.84,4.165Z" transform="translate(37.456 6.067)" fill="#a59c96"/>
      <path id="Path_20" data-name="Path 20" d="M38.427,22.862a10.808,10.808,0,0,1-.913,2.8,4.175,4.175,0,0,1-1.772,1.766,9.238,9.238,0,0,1-3.238.913,44.681,44.681,0,0,1-5.317.254h-.795q-3.818,0-6-.222a7.9,7.9,0,0,1-3.174-.827,2.079,2.079,0,0,1-1.079-1.674,10.41,10.41,0,0,1,.259-2.784l.167-.827h5.5l-.128.636a1.5,1.5,0,0,0,.012.811.913.913,0,0,0,.62.478,5.856,5.856,0,0,0,1.53.222q1.024.047,2.711.047h.636q1.845,0,2.892-.064a7.1,7.1,0,0,0,1.607-.239,1.292,1.292,0,0,0,.749-.476,2.362,2.362,0,0,0,.285-.779,1.626,1.626,0,0,0,.011-.761q-.085-.286-.609-.457a6.355,6.355,0,0,0-1.609-.224q-1.088-.047-3.029-.047-3.722,0-5.841-.222a8.138,8.138,0,0,1-3.13-.811A2.037,2.037,0,0,1,17.683,18.7a10.594,10.594,0,0,1,.262-2.8l.026-.126a10.578,10.578,0,0,1,.913-2.8,4.028,4.028,0,0,1,1.743-1.7,8.879,8.879,0,0,1,3.1-.843A44.946,44.946,0,0,1,28.7,10.2h1.084a47.066,47.066,0,0,1,5.736.271,7.73,7.73,0,0,1,3.044.89,2.087,2.087,0,0,1,1.05,1.655,9.661,9.661,0,0,1-.23,2.562l-.142.7h-5.5l.09-.446a2.117,2.117,0,0,0,.04-.747.711.711,0,0,0-.473-.493,4.273,4.273,0,0,0-1.282-.271q-.86-.079-2.387-.079h-.761q-1.813,0-2.857.047a6.733,6.733,0,0,0-1.6.222,1.279,1.279,0,0,0-.752.493,2.731,2.731,0,0,0-.3.859,1.4,1.4,0,0,0-.011.683q.079.239.639.382a8.626,8.626,0,0,0,1.746.175q1.187.032,3.286.032,3.436,0,5.446.207a7.611,7.611,0,0,1,3,.8,2.172,2.172,0,0,1,1.123,1.687,9.7,9.7,0,0,1-.236,2.91Z" transform="translate(8.423 5.325)" fill="#a59c96"/>
      <path id="Path_21" data-name="Path 21" d="M116.277,27.49h-4.9l2.436-12.1H107.1l.761-3.77h18.374l-.761,3.77H118.72Z" transform="translate(55.928 6.068)" fill="#293c7d"/>
      <path id="Path_22" data-name="Path 22" d="M137.615,27.49h-5.29l-.845-2.786h-9.742q-.5.647-1.012,1.393t-.985,1.393h-5.233l11.838-15.87h5.807Zm-7.25-6.331q-.481-1.522-.924-3.025t-.93-3v.027l-4.247,5.994Z" transform="translate(59.796 6.068)" fill="#293c7d"/>
      <path id="Path_23" data-name="Path 23" d="M149.735,27.491h-4.871l.283-1.407a7.1,7.1,0,0,0,.177-1.575,1.066,1.066,0,0,0-.44-.886,2.81,2.81,0,0,0-1.33-.381q-.913-.084-2.487-.084h-4.527l-.868,4.332H130.8l3.2-15.87h12.382a17.173,17.173,0,0,1,3.188.239,3.869,3.869,0,0,1,1.851.8,2.221,2.221,0,0,1,.723,1.505,8.1,8.1,0,0,1-.187,2.321l-.108.534a7.154,7.154,0,0,1-1.04,2.716,4.078,4.078,0,0,1-2.107,1.449,4.09,4.09,0,0,1,1.066.408,1.32,1.32,0,0,1,.569.661,2.588,2.588,0,0,1,.134,1.084,11.751,11.751,0,0,1-.233,1.645Zm-6.8-8.019q1.154,0,1.857-.07a3.214,3.214,0,0,0,1.1-.268,1.265,1.265,0,0,0,.58-.577,4.251,4.251,0,0,0,.32-1.027l.056-.282a3.594,3.594,0,0,0,.088-1,.769.769,0,0,0-.346-.591,2.2,2.2,0,0,0-.985-.282q-.676-.07-1.827-.07h-5.657l-.84,4.165Z" transform="translate(68.304 6.067)" fill="#293c7d"/>
      <path id="Path_24" data-name="Path 24" d="M112.885,22.862a10.808,10.808,0,0,1-.913,2.8,4.175,4.175,0,0,1-1.772,1.766,9.238,9.238,0,0,1-3.238.913,44.681,44.681,0,0,1-5.317.254h-.795q-3.818,0-6-.222a7.9,7.9,0,0,1-3.174-.827A2.079,2.079,0,0,1,90.6,25.871a10.411,10.411,0,0,1,.259-2.784l.167-.827h5.5L96.4,22.9a1.5,1.5,0,0,0,.012.811.913.913,0,0,0,.62.478,5.856,5.856,0,0,0,1.53.222q1.024.047,2.711.047h.636q1.845,0,2.892-.064a7.1,7.1,0,0,0,1.607-.239,1.292,1.292,0,0,0,.749-.476,2.363,2.363,0,0,0,.285-.779,1.626,1.626,0,0,0,.011-.761q-.085-.286-.609-.457a6.355,6.355,0,0,0-1.609-.224q-1.088-.047-3.029-.047-3.722,0-5.841-.222a8.138,8.138,0,0,1-3.13-.811A2.037,2.037,0,0,1,92.141,18.7a10.6,10.6,0,0,1,.262-2.8l.026-.126a10.578,10.578,0,0,1,.913-2.8,4.028,4.028,0,0,1,1.743-1.7,8.879,8.879,0,0,1,3.1-.843,44.945,44.945,0,0,1,4.976-.222h1.082a47.067,47.067,0,0,1,5.736.271,7.73,7.73,0,0,1,3.044.89,2.087,2.087,0,0,1,1.05,1.655,9.661,9.661,0,0,1-.23,2.562l-.142.7h-5.5l.09-.446a2.118,2.118,0,0,0,.04-.747.711.711,0,0,0-.473-.493,4.273,4.273,0,0,0-1.282-.271q-.86-.079-2.387-.079h-.761q-1.813,0-2.857.047a6.733,6.733,0,0,0-1.6.222,1.279,1.279,0,0,0-.752.493,2.731,2.731,0,0,0-.3.859,1.4,1.4,0,0,0-.011.683q.079.239.639.382a8.627,8.627,0,0,0,1.746.175q1.187.032,3.286.032,3.436,0,5.446.207a7.611,7.611,0,0,1,3,.8,2.172,2.172,0,0,1,1.123,1.687,9.7,9.7,0,0,1-.236,2.91Z" transform="translate(47.305 5.325)" fill="#293c7d"/>
      <path id="Path_25" data-name="Path 25" d="M64.679,1.344C48.231.674,33.017,2.639,21.762,6.9,10.571,11.133,4.509,17.152,4.7,23.848c.2,7.063,7.8,14.128,20.475,19.484C17.7,38.655,11.5,32.689,11.335,26.638c-.209-7.459,5.617-13.983,16.4-18.374,10.808-4.4,26.1-6.393,43.048-5.6,5.577.259,12.765,1.011,19.615,1.979A153.135,153.135,0,0,0,65.6,1.39Z" transform="translate(2.451 0.635)" fill="#a59c96"/>
      <path id="Path_26" data-name="Path 26" d="M25.635,45.55C9.662,37.1,4.29,30.66,4.142,24.338,3.958,16.51,9.392,11.69,20.154,6.991,30.118,2.641,46.1.142,60.949.04L58.436,0c-16.1.03-30.814,1.7-41.719,6.337C5.654,11.037-.248,17.094.008,24.13c.374,10.3,13.717,16.44,25.559,21.44" transform="translate(0)" fill="#293c7d"/>
      <path id="Path_27" data-name="Path 27" d="M37.733,29.846a69.716,69.716,0,0,0-9.406,3.184,77.27,77.27,0,0,0-5.2-8.864c-.064-.065-.3-.152-.709.046s-.5.448-.492.54a79.636,79.636,0,0,0,3.015,9.928,71.935,71.935,0,0,0-8.395,5.488c-.064.069-.152.323.041.75s.423.528.511.521a69.891,69.891,0,0,0,9.406-3.177,77.264,77.264,0,0,0,5.2,8.862c.062.067.3.152.709-.044s.5-.444.493-.54a87.759,87.759,0,0,0-2.693-9c-.253-.693-.1-.292-.32-.935h0a72.164,72.164,0,0,0,8.387-5.489c.062-.067.145-.32-.044-.75S37.826,29.838,37.733,29.846Z" transform="translate(8.602 12.58)" fill="#293c7d"/>
    </g>
  </g>
</svg>
