<?xml version="1.0" encoding="UTF-8"?>
<svg xmlns="http://www.w3.org/2000/svg" xmlns:xlink="http://www.w3.org/1999/xlink" version="1.1" viewBox="0 0 214.4 159.6">
  <defs>
    <style>
      .st0 {
        fill: #fff;
      }

      .st1 {
        fill: #636466;
      }

      .st2 {
        fill: #005282;
      }

      .st3 {
        fill: #c7c8ca;
      }

      .st4 {
        fill: #be1e2d;
      }

      .st5 {
        fill: url(#linear-gradient);
      }
    </style>
    <linearGradient id="linear-gradient" x1="33.7" y1="53.25" x2="81.6" y2="53.25" gradientUnits="userSpaceOnUse">
      <stop offset="0" stop-color="#fff"></stop>
      <stop offset=".2" stop-color="#fbfbfb"></stop>
      <stop offset=".3" stop-color="#f2f2f2"></stop>
      <stop offset=".4" stop-color="#e2e1e1"></stop>
      <stop offset=".6" stop-color="#cbcaca"></stop>
      <stop offset=".7" stop-color="#aeacad"></stop>
      <stop offset=".8" stop-color="#8a8788"></stop>
      <stop offset=".9" stop-color="#5f5c5d"></stop>
      <stop offset="1" stop-color="#2e2b2c"></stop>
      <stop offset="1" stop-color="#231f20"></stop>
    </linearGradient>
  </defs>
  <g id="Layer_5">
    <path class="st5" d="M52.5,28.4c-12.2,0-16.9,2.9-17.4,3.7-.4.9-1.3,42.1-1.3,42.1.7-.5,2-1,4.2-1.3,2.9-.4,8.8,0,15,.8h.3c1.7,0,3.7.2,5.8.3.5-3,.8-4.1.8-4.1,0,0,4.6-3.8,7.7-4.4,3.1-.7,3.4-.6,3.4-.6,0,0,.5-.8,1.3-1.2.8-.4,2.6-.8,2.6-.8,0,0-.6.1-1.1.6-.5.4-1,.6-1,.9v.5s2.3,0,2.7.7c.4.6,1.1,2,.7,2.9-.4,1-1.2,1.7-1.9,1.9-.7.3-1.2.2-1.2.4s.2.5.3.6c.2,0,1,.3,1,.3,0,0-1.4.2-1.9,0s-1.3-.9-1.3-.9c0,0-2.8.2-3.7.4-.9.2-2.6.7-2.6.7,0,0-.2,1.2-.3,2.9,3.4.4,6.6,1,9,1.5,1,.2,3.3,1,4.8,1.9l.8-1c.2-3.3,1-17.9,1.6-28.5-.6.3-1.2.6-1.5.9-.5.5-1.2,1.1-1.5,1.1h-1.6l-.3.9s.5.3,1,.2c.9,0,2.2-.8,2.2-.8,0,0-1.1,1.3-1.7,1.6-.9.4-2.1.2-2.1.2,0,0-.4.9-.9,1.5-.7.9-2.3,2.1-2.3,2.1,0,0,2.3-2.9,3.1-6.5.8-3.6.5-5.1,0-6.4-.5-1.3-2.4-3.1-2.4-3.1,0,0,2.1,1,2.9,2,.4.5.7,1.6.7,1.6,0,0,.4,0,.8.3.4.2,1.1.3,1.1.3,0,0,1.8-1.2,2.8-1.6l.6-8.5c.2-3.6-16.8-6.2-29.1-6.2h0l-.1.1Z"></path>
  </g>
  <g id="Layer_2">
    <path d="M42.2,42.2s-1.7.8-2.7,2.3c-.93,1.26-1.14,2.37-1.19,2.7l.99-.2s.2-1.2.6-1.9c.8-1.4,2.3-2.9,2.3-2.9Z"></path>
    <path d="M49,44.1c-.2-1.6-1-2.6-1.8-2.9-1.3-.5-3.9.2-5.7,3-1.3,2-1.9,4.8-1.9,4.8l-.1.1s2,1.2,4.7,1.2c1.3,0,4.5-1.2,4.5-1.2,0,0,.5-3.4.3-5Z"></path>
    <path d="M50.4,53.9c.6.3,2.3.8,2.3.6.2-.5-.6-.7-.9-1-.2-.3-1.3-.7-1.1-1.4s2.9-3.5,3.3-3.9c.4-.4.6-1.2.6-1.2,0,0-.8.3-2.7,1.9v.1c-1.9,1.6-2.6,3.3-2.6,3.6,0,.2.4,1,1.1,1.3Z"></path>
    <path d="M46.2,37.6c.7,0,1,.8,1.2,1,.2.2.4.8.9.8.3,0-.1-1.3-.3-1.8s-.9-.9-1.2-.9-2.1.4-3.9,1.7l-.1-.1c-1.8,1.3-2.2,1.8-2.2,1.8,0,0,.8-.1,1.3-.4s3.5-2.1,4.3-2.1Z"></path>
    <path d="M67.8,51.3c0-1.1-.1-2.2-.4-3.3-.3-1-.6-2-1.1-2.9-.5-.9-1.3-1.7-2.2-2.1-1.2-.6-2.6-.4-3.8.1s-2.1,1.5-2.8,2.6c-.1.1-.2.2-.2.3-.5.9-.8,1.8-1.1,2.7v.7c.2.1.3.3.5.4.3.2.6.5,1,.7.7.4,1.5.8,2.3,1.1s1.7.6,2.5.7c.8.2,1.6.2,2.5.2h2.5c-.1-.1-.3-.3-.4-.4.3.2.5.2.6,0,.2-.1.2-.2.2-.4l-.1-.2v-.2Z"></path>
    <path d="M60.3,58c-2.1-.7-3.1.2-2.9.2,1.5-.4,2-.2,2,0,.3.4-1.6,3.3-5.4,4.9-3.8,1.5-7.6.2-7.2.4,2.1,1.3,5.7,1,8.4-.1,3.8-1.6,4.8-4.4,5.3-4.7s1.2,1.3,1.2,1.3v.1s.2-1.5-1.4-2.1Z"></path>
    <path d="M65.2,38.7c-1.6-1.1-2.5-.3-3.5.3-.98.59-1.19,1.08-1.29,1.38.02-.03.07-.11.29-.18.3-.2,2-1.1,2.6-1.2.6-.1,1.9.8,3.3,2.3h-.1c1.4,1.5,2.8,3.7,2.8,3.7,0,0-.1-.5-.3-1.3-.3-1-2.2-3.9-3.8-5Z"></path>
    <path d="M66.3,43.5s1.3,1.8,1.7,3c.4,1.1.6,2.7.6,2.7h.6s.2-1.3-.5-2.8c-1.1-2.2-2.4-2.9-2.4-2.9Z"></path>
    <path class="st2" d="M59.9,46.1c-1,1.6-1.1,4.7-1,5.2.1,0,.4.2.9.4h0c0-1.6.8-4,1.4-4.9,1.2-1.7,3.3-1.9,3.3-1.9,0,0-.3-.4-.8-.6s-.8-.3-.8-.3c-.8.3-2.2,1.1-2.9,2.2h0l-.1-.1Z"></path>
    <path class="st2" d="M46.8,41.7c-1.4.4-2.6,1.3-3.4,2.5-.6.8-.9,1.8-1.1,2.8-.2.9-.2,1.7-.3,2.6.1,0,.8.2,1,.2,0,0,.1-3.5,1.1-5,1.2-1.9,3.6-2.6,3.6-2.6-.2-.2-.4-.4-.7-.5h-.3.1Z"></path>
    <path class="st4" d="M96.9,75.4c-.5-1.1-1.4-1.9-2.6-2.4.1,1.3-.4,2.7-.7,3.2-.4.7-1.9,2.5-3.9,3.2.3.1.5.3.7.4.3,0,1,0,1.5.3.2.2.5.6.4,1.3,0,.6-.4,1-.7,1.2.2.3.3.7,0,1.4-.2.7-.6,1-.9,1.2h0c.2.3.4.9,0,1.7-.3.7-.7,1-1.1,1.1h-.8c-.4,0-.7-.3-.8-.3h0c-1.6-.6-3.4-1-4.4-1.2-.3,1.2-.6,4.2,2.7,5.6,1.8.8,4.1-1.1,6-3.5,1.6-2,3-4.3,3.7-5.7,0,0,2.2-4.3.8-7.4h0l.1-.1Z"></path>
    <path class="st4" d="M89.2,76.1h0c-.1,0-1.4.6-3.2,1.2.6.6,1.2.9,1.9,1h.7c2-.2,3.7-2.2,4-2.8.3-.6.9-2.3.3-3.4-.3-.5-.8-.8-1.5-1h-.5c-1.9-.2-3.1.7-3.8,1.4.3-.1.6-.2,1-.4h0c.7-.1,2.1,0,2.6,1.2.5,1.3-.7,2.3-1.5,2.7h0v.1Z"></path>
    <path class="st4" d="M64.2,93.9l-.1.1c-.2.1-.6.3-1.2.2-.2,0-.4-.2-.6-.3.3.1,1.4,1.6,2.7,3.6v-.3c-.1-1.5-.5-2.6-.8-3.3h0Z"></path>
    <path class="st4" d="M60.9,88.6c.4.2,1.1.6,1.7,1.2.2,0,.3,0,.5.1,1.1.5,1.4,1.6,1.5,2.2,0,0,.1.2.3.4,0-.7,0-1.6-.8-2.6-1.2-1.5-2.5-2.1-3.4-2.3h0c.2.4.3.7.3,1h-.1Z"></path>
    <path class="st4" d="M61.5,90.4c-.3-.2-.6-.4-.8-.6-.1.3-.3.5-.3.5l-.4.6-3-2.8h0l-2.8-2.5v-.2h0l-3.9-1.4v-.3c-.2-.4-.4-.7-.6-1-.3-.5-.5-.9-.8-1.2h0c-3.8-1.8-6.9-.1-8.4,1,.9,0,2.1.2,3.3.5,1.1.3,2.2.7,3.3,1.4,3.4,2,10.2,6.6,11.4,7.3.5,0,1.7.1,3,1.3.1.1.3.3.4.4-.4-.6-.6-1.4-.7-1.9,0-.5,0-.9.2-1.2h0l.1.1Z"></path>
    <path class="st3" d="M83.6,85.1v-.8c2.2.3,4,.9,4.8,1.3-.1.3-.1.4-.3.7-1.9-.6-3.7-1-4.6-1.2h.1Z"></path>
    <path class="st3" d="M84.3,81.4c2.6.4,4.3,1.3,5,1.7,0,.2,0,.3-.2.6-2.2-1-4.1-1.5-5-1.7,0-.3.1-.3.2-.6Z"></path>
    <path class="st3" d="M89.8,81.1c-1.6-.9-3.3-1.4-4.4-1.6,0,0,0-.1.1-.2,2.4.4,3.8,1.2,4.3,1.6v.2h0Z"></path>
    <path class="st3" d="M88.4,73.4c-2.5,1-5.5,1.7-6.5,1.9-.3.5-.6.9-1,1.3,1.7-.4,5.7-1.6,8.1-3.2-.2,0-.5,0-.6,0Z"></path>
    <path class="st3" d="M89.6,73.9c-.1-.3-.4-.4-.6-.4-2.3,1.6-6.4,2.7-8.1,3.2-.4.5-.7,1-1.1,1.4,3.9-1,8.6-2.9,8.9-3,0,0,.8-.5.9-.9v-.2h0v-.1Z"></path>
    <path class="st3" d="M22.3,51.6c.3-.8.4-2.5,0-2.2s-3.8,2-5.1,1.7c-1.3-.3-1.9-2-2.4-2-.3,0-.3.5-.3.8,0,.2.2.4.3.6.5.7,1.4,1.3,2.5,1.4,1.3.2,3.6-.8,4.8-1.8,0,0-.3,1.2-1.1,2.2.1.6.3,1.9.1,3.1,1-.9,1.7-2,2.2-3-.6.2-1.2-.3-.9-1l-.1.2Z"></path>
    <path class="st3" d="M14.6,59.3c-1.4-.2-6.3-4.7-7.1-5.4-.8-.7-2-1.4-2.1-.8,0,.4.4,1.2.6,1.5v-.2c3,2.4,7.3,5.7,8,5.9,1,.2,2.1,0,2.5-.5.5-.6.6-1.4.1-2.2-.3-.6-3.2-4.1-5-6.3,1,1.4,3.3,4.7,3.9,5.6.9,1.2.6,2.5-.8,2.3h0l-.1.1Z"></path>
    <path class="st3" d="M11.4,61.1s1,2.3-1.3,2.1c-2.1-.2-6.3-3.8-7.1-4.5,0,.1,0,.3.1.4.3,1.1,3.8,3.8,5.8,4.6,1.9.7,3.9.3,4.7-.5.4-.4.5-1,.5-1.5h-.4c-.9-.2-3.9-2.5-6-4.1l-1.2-.4c2.1,1.2,4.9,4,4.9,4h0v-.1Z"></path>
    <path class="st3" d="M19.8,53c-.9.3-1.9.4-2.8.3-1.4-.2-2.5-.9-3.3-1.9-.6-.8-.7-1.6-.6-2.3-.5-.7-1.1-.8-1.2-.3v1.2l.9,1.6c1.7,1.8,4.3,4.6,4.8,5.5,0,.2.2.3.2.5.3,0,.9-.2,1.6-1s.6-2.5.4-3.6Z"></path>
    <path class="st3" d="M32.3,63.7c-1.4.5-3.5.7-3.5.7-2.3-.2-6.8-2.1-8-2.7-.2.3-.3.5-.5.7,1.6.8,5.1,2.6,8.4,3.4v-.6s.8,1.5,1.3,1.4c.7,0,.6-.4.8-.7l1.5-.5v-1.8h0v.1Z"></path>
    <path class="st3" d="M59.5,96.6c-.1.2-.3.5-.4.8l-6.6,4.5c0-.7-.1-1.6-.1-1.6h-.6s-2.5.5-4-.1-9.4-4.8-11.2-9.1c-.4-.8-.4-1.6-.3-2.3h0v-.2c0-.1,0-.3.1-.4.3-.7.8-1.1,1.4-1.2,3.8-1,12.4,5.2,15.2,7.2l.7.5c1.2.9,2.3,1.4,3.2,1.6l-4,3.5,6.5-3.3h0l.1.1Z"></path>
    <path class="st3" d="M63.5,104.3c0,.8-.3,1.1-.4,1.1-1.4,1.3-6.6-.7-10-2.5l6.4-4.3c3.1,2.7,3.9,4.5,4,5.6v.1h0Z"></path>
    <path class="st3" d="M74.5,66.4c-.4,1.1-1.5.7-5.6,1.3-4.6.6-7.4,3-7.4,3-1.2,3.7-.6,13.3-.4,15.7.6.2,1.3.5,2,.9-.6-8-.1-12.8.2-15-.4-.5-1.4-.4-1.4-.4,1.7-1.8,5.7-2.1,8.6-2.3,1,0,1.8-.1,2.2-.2,1.7-.4,2.1-1,2-1.9,0-.5-.1-.8-.3-1.1h.1Z"></path>
    <path class="st3" d="M78.1,49.3l.6-.5c2.5-2,4.6-3.3,8.3-3.9l-.8.5c1.3.5,4.4,1.9,7,5,0,0,.4,0,.7-.2.1-.1.2-.3,0-.7-1.2-2.3-2.9-4-4.4-5.1-1.6-.8-3.1-.9-3.1-.9-3.4-.2-7.3,3.8-8.1,3.6-.4-.1-.4-.4-.3-.7-.5.4-.9.7-1,.9,0,.7-.1,1.5-.3,2.3.3,0,.9.1,1.5-.4h0l-.1.1Z"></path>
    <path class="st3" d="M94.3,52.9c-1.4.8-2.7.2-3.2-.1h0c.6,1,1.6,1.1,2.2,1.1,1.3,0,2.5-1,3.1-2.3,1.1-2.6-.4-4.1-1-4.5,1.4,1.9.7,4.8-1.1,5.8h0Z"></path>
    <path class="st3" d="M101.3,53.5c.3-1.1.5-3.5-.3-4.2,0,0-.1-.1-.2-.2.7,1.6-.6,5.1-.6,5.1.3,2.1-1.7,2.5-1.7,2.5,0,0-1.7,2.1-2.9,2.1s-4.4-1.2-4.4-1.2c0,1.2-.7,1.4-1.2,1.4.2.2.7.5,2,.9h0c.2,0,.5-.2,1-.4-1.1-.6-1.4-1.5-1.5-1.6,0,0,2.8,1.5,4.6,1.6.8,0,1.6-.6,2.3-1,.3-.2.6-.4.8-.6.2-.1.5-.2.8-.3.6-.2,1.6-.6,1.6-1s0-.8-.1-1.2c-.1-.6-.3-1.3,0-1.9h-.2Z"></path>
    <path class="st1" d="M62.7,43.8c-.9.4-2.2,1.1-2.9,2.2-1.1,1.8-1,5.2-1,5.2l-.4-.2c0-.7,0-3.3,1.1-5.1.6-1.1,1.5-1.7,2.3-2.1h.4c.2,0,.5,0,.5,0Z"></path>
    <path class="st1" d="M46.3,41.5c-1.6.4-2.8,1.6-3.6,3.1-.6,1.1-.9,2.4-1,3.6v1.2h.4c0-.8,0-1.6.3-2.5.2-1,.6-1.9,1.1-2.8.8-1.2,2.3-2.1,3.6-2.5h-.7l-.1-.1Z"></path>
    <path class="st0" d="M46.3,41.5c-1.6.4-2.8,1.6-3.6,3.1-.6,1.1-.9,2.4-1,3.6v1.2l-1.3-.6c0-.9.3-2.5,1.8-4.7,1.5-2.3,4.2-2.6,4.2-2.6h-.1Z"></path>
    <path class="st3" d="M34.1,32s-.6-.1-.9-.6c-.4-.8-.3-2.5,2.6-4,4.7-2.5,16.8-2.2,16.8-2.2,0,0,12.6.4,20.8,2.1,8.3,1.8,9.6,4.3,9.3,5.8,0,0-1.5-3-9.4-4.2s-26-3.2-33.3-1-6,4.1-6,4.1h.1Z"></path>
    <path class="st3" d="M58.8,75.3c-1.5-.1-4.5,0-6.1-.1-2.6-.3-9.4-1.3-13-1-4.4.3-6.2,1.6-5.9,2.5.5,1.8,3.1,2.8,6.8,3.5.3-.1,3.8-1.3,5.5-1.1,1.8.1,4.4.8,5.3,1.4.8.5,1.8.8,2.8.9,2,.1,2.4.3,4.5.5h0v-6.6h.1Z"></path>
    <path class="st3" d="M64.3,75.9c-.1,1.5-.2,3.7-.1,6.2,8.8.3,14-.5,14.2-1.8.2-1.4-5.1-3.2-14-4.5l-.1.1Z"></path>
    <path class="st0" d="M15.1,62.6c0-.2,0-.4.1-.6,1,.1,2,0,2.7-.6,1.3-1,1.7-2.7,1.7-3.4,0,0,.2-.2.3-.2.3.6.6,1.9-.2,3.3-1.3,2.1-3.2,2.1-4.6,1.5h0Z"></path>
    <path class="st0" d="M14.7,49.1c.4,0,1.1,1.6,2.4,2,1.3.3,4.7-1.4,5.1-1.7.4-.3.4,1.4,0,2.2-.2.7.3,1.2.9,1,.2-.5.4-1.1.4-1.7.2-1.9-.5-3.3-1-3.9-1.1-1.2-2.5-1.3-3.3-1,0,0-4.5,2.1-4.7,2.2,0,0,0,.1-.2.2-.2.3-.4.8-.2,1.5,0-.3,0-.8.3-.8h.3Z"></path>
    <path class="st0" d="M13.1,49c0-.8.5-1.4.8-1.7h0l.8-.5c-1.5-.7-3.4-.8-3.8-.4-1,.9-2.7,2-4.3,2.3-1.3.2-2.1,1.3-2.3,2.9-.2,2-.5,3.1-1,4.1-.4.7-.7,1.8-.5,2.9.8.7,5,4.3,7.1,4.5,2.3.3,1.3-2.1,1.3-2.1,0,0-2.8-2.8-4.9-4l-1.2-.4,1.3-.2c-.1,0-.4-1.4-.5-1.9-.2-.4-.7-1.1-.6-1.5,0-.6,1.3,0,2.1.8.8.7,5.7,5.2,7.1,5.4,1.4.2,1.7-1.1.8-2.3-.7-1-2.9-4.2-3.9-5.6-.8-1-1.5-1.8-1.5-1.8,0,0,1.5,1.1,1.6,1.2l.2-.9h0v-1.2c.1-.5.7-.4,1.2.3h0l.2.1Z"></path>
    <path class="st0" d="M17.3,55.5s-.9-.8-.4-1.1c.5-.2,1.9-.3,2,.3s-.9,1.6-1.6.8Z"></path>
    <path class="st0" d="M56.2,85.3v.4c-.4-.4-.7-.7-.9-.8,0-.3,0-.5-.1-.7.4.2.7.3.8.4,0,.2.1.4.2.7Z"></path>
    <path class="st0" d="M58.2,87c.7.6,1.2,1.2,1.3,1.2,0,.1,0,.3.1.4v.3c-.6-.6-1.2-1.1-1.5-1.4v-.5h.1Z"></path>
    <path class="st0" d="M51.9,82c.4.4.7,1,.9,1.6-.7-.3-1.3-.5-1.6-.6-.2-.6-.5-1.1-.8-1.5.7.3,1.4.5,1.5.5Z"></path>
    <path class="st0" d="M63.3,93h0c-.4-.1-.8-.9-.8-1.5v-.5h0c.7.3.8,1,.8,1.6v.5-.1Z"></path>
    <path class="st0" d="M64.6,103.6c-.3-1.7-1.8-3.7-4.3-5.9.2-.5,1.2-2.6,1.2-2.6l-1.1.2c-1.6.2-3.1.5-5.9-1.5l-.7-.5c-5.5-4-12.4-8.5-16.3-7.4-.2,0-.4.1-.6.2.4-.9,1-1.9,1.8-2.4.8,0,4.5-.1,7.6,1.8,3.6,2.2,11.4,7.4,11.5,7.4h.2c0,.1.2,0,.2,0,0,0,1-.1,2.3,1,1.5,1.3,3.6,4.4,4.3,6,.1.3.3.9.4,1,0,.3,0,1.4-.7,2.6h0l.1.1Z"></path>
    <path class="st0" d="M61.5,70.7s2.8-2.4,7.4-3c4.1-.6,5.3-.2,5.6-1.3-.2-.2-.5-.3-1-.4,0,0-7.7-.4-12.5,4.3-.1.1-.3.2-.4.3-.2.8-1.2,5.1-.7,11.7,0,1.2.2,2.5.4,3.9.2,0,.4,0,.7.2-.2-2.4-.8-12,.4-15.7h.1Z"></path>
    <path class="st0" d="M90.1,93c-.6.2-1.2.3-1.8.3,1.6-.4,3.4-1.9,5.4-4.3,1.4-1.8,2.5-3.6,3.1-4.7-.2.6-.4,1.3-.9,2.2-1.1,2.2-3.6,5.7-5.8,6.6h0v-.1Z"></path>
    <path class="st0" d="M99.3,79.6c-.1.9-.4,1.9-1,3.1,0,0-.4-.2-.7-.4.5-1.3,1.3-3.8.8-6.1.3.3.7.7.9,1.1,0,.3,0,1.1-.2,2.2l.2.1Z"></path>
    <path class="st0" d="M78.2,47.2c.9.3,4.8-3.7,8.1-3.6,0,0,1.5.1,3.1.9-.9-.6-1.7-1.1-2.2-1.4-.4-.2,0-.9-.6-1.2-.2,0-.9.4-1.5.8l.6.2c-3.5.4-6.4,2.3-7.9,3.5-.1.3-.1.6.3.7h0l.1.1Z"></path>
    <path class="st0" d="M94.4,51.4c-.7.4-1.6.5-2.1,0-.5-.6-1-1.1-1.5-1.6-.2.7-.4,1.8.3,3,.5.3,1.7.9,3.2.1,1.8-1,2.6-3.8,1.1-5.8,0,0-.1-.1-.2-.1-.7-.4-1.3-.4-1.8-.3.6.7,1.1,1.5,1.6,2.4.4.9.2,1.8-.6,2.3h0Z"></path>
    <path class="st0" d="M91.2,57.6s3.2,1.1,4.4,1.2c1.2,0,2.9-2.1,2.9-2.1,0,0,2-.4,1.7-2.5,0,0,1.2-3.5.6-5.1-.6-.6-2-1.6-3.6-1.9.8,1.1,1.2,2.8.3,4.9-.7,1.7-2.4,2.9-4.1,3-1.4.1-2.6-.5-3.3-1.6v-.1c-.3.6-.6,1.3-.6,2.1,0,2,.2,3.1.5,3.4l.1.1c.4,0,1.2-.3,1.2-1.4h-.1Z"></path>
    <path class="st0" d="M28.1,63.9l.6-.4-4.3-1c-1.4-.3-2.6-.9-3.3-1.3,0,.1-.1.3-.2.4h0c1.2.5,5.7,2.5,8,2.7,0,0,2.1-.3,3.5-.7v-.8c-1.3.5-3.1,1.2-4.2,1.1h-.1Z"></path>
    <path class="st0" d="M45.1,43.1l.9-.5s.5.6.9,1.5c.3.9,0,1.9,0,1.9,0,0,0-1.3-.8-2.1-.5-.5-1-.8-1-.8Z"></path>
    <path class="st0" d="M61.7,45.1l1-.5s.6.7,1,1.7c.4,1,.2,2,.2,2,0,0-.3-1.2-1.2-2.2-.5-.6-.9-1-.9-1h-.1Z"></path>
    <path class="st0" d="M64.1,49.3c0,.2-.2.4-.3.3-.1,0-.2-.2-.2-.4s.2-.4.3-.3c.1,0,.2.2.2.4Z"></path>
    <path class="st0" d="M65.1,52.4c1,0,1.4-.2,1.6-.2,0,0,.2,0,.2-.2.2-.7-.2-2.8-.2-2.8l-1.6,3.2Z"></path>
    <path class="st0" d="M59.5,45.9c.6-1.1,1.5-1.7,2.2-2.1-1,0-3.4.5-5.3,5.9l2,1.3c0-.7,0-3.3,1.1-5.1Z"></path>
    <path class="st0" d="M47,46.8c0,.2-.1.4-.3.4s-.3-.2-.3-.4.1-.4.3-.4.3.2.3.4Z"></path>
  </g>
  <g id="Layer_4">
    <path d="M103.1,54v-.3c0-.6.3-1.1.3-1.5s-.3-3-.8-4.1-2.2-1.7-3.7-2.5-3.1-.4-3.1-.4c0,0-.8-.3-1.5-.5-.7-.2-1.8,0-1.8,0,0,0-.8-.9-1.5-1.4s-2.3-1.6-2.3-1.6c0,0-.8-1-1.5-1.4-1-.5-1.4,0-2.1.4-.4.2-1.3.8-2.1,1.4.1-3.6.2-5.9.2-5.9,0,0,.4-.8,1-1.6.4-.5.2-2.2,0-3.2-.3-1-.8-1.7-1.4-2.2-.9-.6-1.4-.8-4-1.9-2.6-1.1-8.9-2.4-11.3-2.6-2.7-.3-9.5-1.2-13.3-1.3-3.8,0-8.4,0-12.9.7,0,0-4.6.8-6.6,1.9-1.3.7-2.9,2.4-3,3.6-.3,2.6,1.3,3.7,1.3,3.7,0,0-.4,15.4-.8,27.5l-2.5,1.1s-3.6-.8-4.5-1c-.9-.2-3.2-1.2-3.2-1.2v-1.3c-.1-.6-.3-1.1-.3-1.1,0,0,3-2,3.6-4.8.6-2.8-.3-6.5-1.9-7.5-1.6-1.1-3.8-1.4-4.7-.9-.9.5-2.5,1.3-2.5,1.3,0,0-3-1.2-4.2-1.1-1.2,0-1.9.5-2.3.8-.4.3-1.9,1.4-2.9,1.6-1,.2-2.3.8-3,1.6-.7.8-1.3,2.1-1.4,3.1,0,1-.5,2.4-.7,2.9s-1.5,4.1-.7,5.4,4.4,4.8,6.4,5.6c2,.8,5.6.4,6.4,0,.8-.5,1-.8,1-.8,0,0,1.6.6,2.6.4,1-.3,1.8-.6,1.8-.6,0,0,3,1.4,4.8,2.1s3.8,1.1,3.8,1.1c0,0,.3.9,1.3,1.1.6.1,1.9-.3,2.9-.8,0,2-.1,3.7-.2,4.9-.3,6.3,1.3,6.3,4.9,7.6.8.3,1.6.5,2.6.8-.6.4-1.1.8-1.1.8,0,0-.4.3-1.3.9-.9.6-1.9,2.2-2.5,5.1-.5,2.9.1,4.8,2.8,7.8s9.1,6.3,10.2,6.6c1.1.3,3,.4,3,.4v1.1c.1,0,7.6,3.8,10.3,4,2.7.2,3.4-.6,4.8-2.2,1.4-1.5,1.6-4.5,1.5-4.9,0-.4-.3-1.1-.3-1.1,0,0,.1-2.4,0-3.3-.1-.8-.6-2.3-.6-2.3,0,0,.1-.4.4-1.4s-.5-2.8-1.1-3.6c-.6-.9-1.4-1.1-1.4-1.1,0,0,0-2.3-.1-4.7h2.8c6.7-.2,11.2.3,13.3-2.2.1-.2.3-.6.4-1.1,1.4-.4,2.7-.7,2.7-.7v.4h-.5l-1.3,4.1h.2c0,.1-.3,3.1-.3,3.1h.2c0,.1-.5,3.6,2.1,6.4,2.6,2.8,5.9,2.8,9.2.4,3.3-2.4,5.5-8.4,5.5-8.4l.7.4s1.6-3.2,1.9-4.7c.2-1.5.4-2.8.3-4,0,0-.7-.9-1.5-1.7-.8-.8-2.3-2.3-3.5-3.1s-2-.9-2-.9c0,0-.5-.6-1.2-1.1-.7-.5-1.4-.7-3.9-.6-3,0-4.6,3.6-4.6,3.6l-2.9.9-.3.4c.7-7,1.2-18.1,1.5-26.4.3,0,.7,0,1-.1.7-.2,1.6-.4,1.6-.4l.6.4c.6.4,2.8,1.4,2.8,1.4,0,0,0,.8-.2,1.4-.2.6,0,1.6,0,1.6,0,0-.6.6-1.2,2.6s.5,5.2,1.2,5.8c.7.6,2.6,1.3,3.5,1.3s2.2-.5,2.2-.5l1.1.3c1.1.3,2.6-.3,3.3-1s1.6-1,2.4-1.4c.8-.4,2.2-1.4,2.5-2.1s-.3-2.7-.4-3.3ZM19.2,46c.8-.3,2.2-.2,3.3,1,.5.6,1.2,2,1,3.9,0,.53-.16,1.06-.33,1.53.04,0,.09-.01.13-.03-.5,1-1.2,2.1-2.2,3,.2-1.2,0-2.5-.1-3.1.8-1,1.1-2.2,1.1-2.2-1.2,1-3.5,2-4.8,1.8-1.1-.1-2-.7-2.5-1.4-.1-.2-.3-.4-.3-.6,0-.28,0-.72.25-.78-.02,0-.04-.02-.05-.02h-.3c-.3,0-.3.5-.3.8-.2-.7,0-1.2.2-1.5.2-.1.2-.2.2-.2.2-.1,4.7-2.2,4.7-2.2ZM14,60.3c-.7-.2-5-3.5-8-5.9v.2c-.2-.3-.6-1.1-.6-1.5.1-.6,1.3.1,2.1.8s5.7,5.2,7.1,5.4l.1-.1c-.07,0-.12,0-.2,0-1.4-.2-6.3-4.7-7.1-5.4-.8-.8-2.1-1.4-2.1-.8-.1.4.4,1.1.6,1.5.1.5.4,1.9.5,1.9l-1.3.2,1.2.4c.15.09.31.19.47.29l.93.31c2.1,1.6,5.1,3.9,6,4.1h.4c0,.5-.1,1.1-.5,1.5-.8.8-2.8,1.2-4.7.5-2-.8-5.5-3.5-5.8-4.6-.08-.08-.09-.22-.1-.32-.08-.07-.15-.13-.2-.18-.2-1.1.1-2.2.5-2.9.5-1,.8-2.1,1-4.1.2-1.6,1-2.7,2.3-2.9,1.6-.3,3.3-1.4,4.3-2.3.4-.4,2.3-.3,3.8.4l-.8.5c-.3.3-.8.9-.8,1.7l-.17-.09c.06.06.12.11.17.19-.1.7,0,1.5.6,2.3.8,1,1.9,1.7,3.3,1.9.9.1,1.9,0,2.8-.3.2,1.1.3,2.8-.4,3.6-.7.8-1.3,1-1.6,1,0-.2-.2-.3-.2-.5-.5-.9-3.1-3.7-4.8-5.5l-.9-1.6v-1.2c.07-.37.42-.4.79-.13-.45-.46-.9-.51-.99-.07v1.2l-.2.9c-.1-.1-1.6-1.2-1.6-1.2,0,0,.7.8,1.5,1.8,1,1.4,3.2,4.6,3.9,5.6.78,1.05.66,2.17-.32,2.3,1.14-.01,1.35-1.19.52-2.3-.6-.9-2.9-4.2-3.9-5.6,1.8,2.2,4.7,5.7,5,6.3.5.8.4,1.6-.1,2.2-.4.5-1.5.7-2.5.5ZM19.7,61.1c-1.3,2.1-3.2,2.1-4.6,1.5,0-.2,0-.4.1-.6,1,.1,2,0,2.7-.6,1.3-1,1.7-2.7,1.7-3.4,0,0,.2-.2.3-.2.3.6.6,1.9-.2,3.3ZM32.3,65.4l-1.5.5c-.2.3-.1.7-.8.7-.5.1-1.3-1.4-1.3-1.4v.6c-3.3-.8-6.8-2.6-8.4-3.4.2-.2.3-.4.5-.7,1.2.6,5.7,2.5,8,2.7,0,0,2.1-.2,3.5-.7v1.7ZM32.4,63.6c-1.4.4-3.5.7-3.5.7-2.3-.2-6.8-2.2-8-2.7.1-.1.2-.3.2-.4.7.4,1.9,1,3.3,1.3l4.3,1-.6.4h.1c1.1.1,2.9-.6,4.2-1.1v.8ZM95.2,47c.1,0,.2.1.2.1.6.4,2.1,1.9,1,4.5-.6,1.3-1.8,2.3-3.1,2.3-.6,0-1.6-.1-2.2-1.1-.7-1.2-.5-2.3-.3-3,.5.5,1,1,1.5,1.6.5.5,1.4.4,2.1,0,.8-.5,1-1.4.6-2.3-.5-.9-1-1.7-1.6-2.4.5-.1,1.1-.1,1.8.3ZM33.2,31.4c-.4-.8-.3-2.5,2.6-4,4.7-2.5,16.8-2.2,16.8-2.2,0,0,12.6.4,20.8,2.1,8.3,1.8,9.6,4.3,9.3,5.8,0,0-1.5-3-9.4-4.2-7.9-1.2-26-3.2-33.3-1-6.78,2.04-6.14,3.83-6.02,4.07.07.02.12.03.12.03h-.1s0-.01-.02-.03c-.19-.06-.56-.2-.78-.57ZM33.8,76.7c-.3-.9,1.5-2.2,5.9-2.5,3.6-.3,10.4.7,13,1,1.6.1,4.6,0,6.1.1h-.1v6.6c-2.1-.2-2.5-.4-4.5-.5-1-.1-2-.4-2.8-.9-.9-.6-3.5-1.3-5.3-1.4-1.7-.2-5.2,1-5.5,1.1-3.7-.7-6.3-1.7-6.8-3.5ZM61.9,93.4c-.1-.1-.3-.3-.4-.4-1.3-1.2-2.5-1.3-3-1.3-1.2-.7-8-5.3-11.4-7.3-1.1-.7-2.2-1.1-3.3-1.4-1.2-.3-2.4-.5-3.3-.5,1.5-1.1,4.6-2.8,8.4-1,.3.3.5.7.8,1.2.2.3.4.6.6,1v.3l3.9,1.4v.2l2.8,2.5,3,2.8.4-.6s.2-.2.3-.5c.17.17.43.35.69.52,0,0,0-.02.01-.02l.1.1s-.07-.05-.11-.08c-.19.3-.19.69-.19,1.18.1.5.3,1.3.7,1.9ZM50.4,81.5c.7.3,1.4.5,1.5.5.4.4.7,1,.9,1.6-.7-.3-1.3-.5-1.6-.6-.2-.6-.5-1.1-.8-1.5ZM55.2,84.2c.4.2.7.3.8.4,0,.2.1.4.2.7v.4c-.4-.4-.7-.7-.9-.8,0-.3,0-.5-.1-.7ZM59.6,88.9c-.6-.6-1.2-1.1-1.5-1.4v-.5h.1c.7.6,1.2,1.2,1.3,1.2,0,.1,0,.3.1.4v.3ZM57.8,85.1v-.1h-.3l-.5-1.3s-1.5-.4-2.1-.7c1.4,0,2.7.1,4,.2.1,1.8.3,3.1.3,3.1l-1.4-1.2ZM52.4,100.3h-.6s-2.5.5-4-.1c-1.5-.6-9.4-4.8-11.2-9.1-.4-.8-.4-1.6-.3-2.3v-.2c0-.1,0-.3.1-.4.3-.7.8-1.1,1.4-1.2,3.8-1,12.4,5.2,15.2,7.2l.7.5c1.2.9,2.3,1.4,3.2,1.6l-4,3.5,6.5-3.3.1.1c-.1.2-.3.5-.4.8l-6.6,4.5c0-.7-.1-1.6-.1-1.6ZM63.5,104.3c0,.8-.3,1.1-.4,1.1-1.4,1.3-6.6-.7-10-2.5l6.4-4.3c3.1,2.7,3.9,4.5,4,5.6v.1ZM64.6,103.6l-.1-.1s.03-.06.05-.1c-.38-1.66-1.84-3.59-4.25-5.7.2-.5,1.2-2.6,1.2-2.6l-1.1.2c-1.6.2-3.1.5-5.9-1.5l-.7-.5c-5.5-4-12.4-8.5-16.3-7.4-.2,0-.4.1-.6.2.4-.9,1-1.9,1.8-2.4.8,0,4.5-.1,7.6,1.8,3.6,2.2,11.4,7.4,11.5,7.4h.2c0,.1.2,0,.2,0,0,0,1-.1,2.3,1,1.5,1.3,3.6,4.4,4.3,6,.1.3.3.9.4,1,0,.29,0,1.34-.65,2.5.01.06.04.13.05.2ZM65,97.2v.3c-1.3-2-2.4-3.5-2.7-3.6.2.1.4.3.6.3.6.1,1-.1,1.2-.2l.1-.1c.3.7.7,1.8.8,3.3ZM62.5,91.5v-.5c.7.3.8,1,.8,1.6v.4c-.4-.1-.8-.9-.8-1.5ZM64.1,89.9c.8,1,.8,1.9.8,2.6-.2-.2-.3-.4-.3-.4-.1-.6-.4-1.7-1.5-2.2-.2-.1-.3-.1-.5-.1-.6-.6-1.3-1-1.7-1.2h.1c0-.3-.1-.6-.3-1,.9.2,2.2.8,3.4,2.3ZM61.9,71.9s1-.1,1.4.4c-.3,2.2-.8,7-.2,15-.7-.4-1.4-.7-2-.9-.2-2.4-.8-12,.4-15.7h-.1c-1.2,3.7-.6,13.3-.4,15.7-.3-.2-.5-.2-.7-.2-.2-1.4-.4-2.7-.4-3.9-.5-6.6.5-10.9.7-11.7.1-.1.3-.2.4-.3,4.8-4.7,12.5-4.3,12.5-4.3.5.1.8.2,1,.4-.01.04-.03.07-.04.11.16.27.24.55.24.99.1.9-.3,1.5-2,1.9-.4.1-1.2.2-2.2.2-2.9.2-6.9.5-8.6,2.3ZM64.2,82.1c-.1-2.5,0-4.7.1-6.2l.1-.1c8.9,1.3,14.2,3.1,14,4.5-.2,1.3-5.4,2.1-14.2,1.8ZM79.2,77.2l-.8,1c-1.5-.9-3.8-1.7-4.8-1.9-2.4-.5-5.6-1.1-9-1.5.1-1.7.3-2.9.3-2.9,0,0,1.7-.5,2.6-.7s3.7-.4,3.7-.4c0,0,.8.7,1.3.9.5.2,1.9,0,1.9,0,0,0-.8-.3-1-.3-.1-.1-.3-.4-.3-.6s.5-.1,1.2-.4c.7-.2,1.5-.9,1.9-1.9.4-.9-.3-2.3-.7-2.9-.4-.7-2.7-.7-2.7-.7v-.5c0-.3.5-.5,1-.9.5-.5,1.1-.6,1.1-.6,0,0-1.8.4-2.6.8-.8.4-1.3,1.2-1.3,1.2,0,0-.3-.1-3.4.6-3.1.6-7.7,4.4-7.7,4.4,0,0-.3,1.1-.8,4.1-2.1-.1-4.1-.3-5.8-.3h-.3c-6.2-.8-12.1-1.2-15-.8-2.2.3-3.5.8-4.2,1.3,0,0,.9-41.2,1.3-42.1.5-.8,5.2-3.7,17.4-3.7l.1-.1c12.3,0,29.3,2.6,29.1,6.2l-.6,8.5c-1,.4-2.8,1.6-2.8,1.6,0,0-.7-.1-1.1-.3-.4-.3-.8-.3-.8-.3,0,0-.3-1.1-.7-1.6-.8-1-2.9-2-2.9-2,0,0,1.9,1.8,2.4,3.1.5,1.3.8,2.8,0,6.4-.8,3.6-3.1,6.5-3.1,6.5,0,0,1.6-1.2,2.3-2.1.5-.6.9-1.5.9-1.5,0,0,1.2.2,2.1-.2.6-.3,1.7-1.6,1.7-1.6,0,0-1.3.8-2.2.8-.5.1-1-.2-1-.2l.3-.9h1.6c.3,0,1-.6,1.5-1.1.3-.3.9-.6,1.5-.9-.6,10.6-1.4,25.2-1.6,28.5ZM79.8,78.1c.4-.4.7-.9,1.1-1.4,1.7-.5,5.8-1.6,8.1-3.2.2,0,.5.1.6.4v.1c0,.1,0,.2,0,.2-.1.4-.9.9-.9.9-.3.1-5,2-8.9,3ZM84.1,82c0-.3.1-.3.2-.6,2.6.4,4.3,1.3,5,1.7,0,.2,0,.3-.2.6-2.2-1-4.1-1.5-5-1.7ZM88.4,85.6c-.1.3-.1.4-.3.7-1.9-.6-3.7-1-4.6-1.2h.1v-.8c2.2.3,4,.9,4.8,1.3ZM85.4,79.5s0-.1.1-.2c2.4.4,3.8,1.2,4.3,1.6v.2c-1.6-.9-3.3-1.4-4.4-1.6ZM95.9,86.5c-1.1,2.2-3.6,5.7-5.8,6.6v-.1c-.6.2-1.2.3-1.8.3,1.6-.4,3.4-1.9,5.4-4.3,1.4-1.8,2.5-3.6,3.1-4.7-.2.6-.4,1.3-.9,2.2ZM98.4,76.2c.3.3.7.7.9,1.1,0,.3,0,1.1-.2,2.2l.2.1c-.1.9-.4,1.9-1,3.1,0,0-.4-.2-.7-.4.5-1.3,1.3-3.8.8-6.1ZM94.3,73c1.2.5,2.1,1.3,2.6,2.4l-.1.1c1.4,3.1-.8,7.4-.8,7.4-.7,1.4-2.1,3.7-3.7,5.7-1.9,2.4-4.2,4.3-6,3.5-3.3-1.4-3-4.4-2.7-5.6,1,.2,2.8.6,4.4,1.2.1,0,.4.3.8.3h.8c.4-.1.8-.4,1.1-1.1.4-.8.2-1.4,0-1.7.3-.2.7-.5.9-1.2.3-.7.2-1.1,0-1.4.3-.2.7-.6.7-1.2.1-.7-.2-1.1-.4-1.3-.5-.3-1.2-.3-1.5-.3-.2-.1-.4-.3-.7-.4,2-.7,3.5-2.5,3.9-3.2.3-.5.8-1.9.7-3.2ZM90.9,71.1h.5c.7.2,1.2.5,1.5,1,.6,1.1,0,2.8-.3,3.4-.3.6-2,2.6-4,2.8h-.7c-.7-.1-1.3-.4-1.9-1,1.8-.6,3.1-1.2,3.2-1.2v-.1c.8-.4,2-1.4,1.5-2.7-.5-1.2-1.9-1.3-2.6-1.2-.4.2-.7.3-1,.4.7-.7,1.9-1.6,3.8-1.4ZM81.9,75.3c1-.2,4-.9,6.5-1.9h.6c-2.4,1.6-6.4,2.8-8.1,3.2.4-.4.7-.8,1-1.3ZM86.2,45.4l.8-.5c-3.7.6-5.8,1.9-8.3,3.9l-.6.5.1-.1c-.6.5-1.2.4-1.5.4.2-.8.3-1.6.3-2.3.08-.17.38-.4.75-.7,0-.06.02-.13.05-.2,1.5-1.2,4.4-3.1,7.9-3.5l-.6-.2c.6-.4,1.3-.8,1.5-.8.6.3.2,1,.6,1.2.38.23.92.56,1.55.97.24.09.49.2.75.33,1.5,1.1,3.2,2.8,4.4,5.1.2.4.1.6,0,.7-.3.2-.7.2-.7.2-2.6-3.1-5.7-4.5-7-5ZM100,57.6c-.3.1-.6.2-.8.3-.2.2-.5.4-.8.6-.7.4-1.5,1-2.3,1-1.8-.1-4.6-1.6-4.6-1.6.1.1.4,1,1.5,1.6-.5.2-.8.4-1,.4-1.3-.4-1.8-.7-2-.9.03,0,.06,0,.09,0-.09-.09-.09-.09-.09-.09-.3-.3-.5-1.4-.5-3.4,0-.8.3-1.5.6-2.1v.1c.7,1.1,1.9,1.7,3.3,1.6,1.7-.1,3.4-1.3,4.1-3,.9-2.1.5-3.8-.3-4.9,1.6.3,3,1.3,3.6,1.9.1.1.2.2.2.2.8.7.6,3.1.3,4.2h.2c-.3.6-.1,1.3,0,1.9.1.4.1.8.1,1.2s-1,.8-1.6,1Z"></path>
  </g>
  <g id="Layer_3">
    <g id="Teton_Valley">
      <path class="st0" d="M45.9,154.8c0-.7.1-1.3.4-1.8.2-.6.6-1.1,1-1.5s.9-.8,1.5-1,1.2-.4,1.8-.4,1.3.1,1.9.3,1.1.6,1.5,1,.8.9,1,1.5.4,1.2.4,1.9-.1,1.3-.4,1.8c-.2.6-.6,1.1-1,1.5s-.9.8-1.5,1-1.2.4-1.8.4-1.3-.1-1.9-.3c-.6-.2-1.1-.6-1.5-1s-.8-.9-1-1.5-.4-1.2-.4-1.9h0ZM50.8,158.8c.4,0,.7,0,1.1-.3.3-.2.6-.4.8-.7s.4-.6.5-1,.2-.8.2-1.3c0-.7,0-1.3-.2-1.8s-.3-1.1-.6-1.5-.6-.7-1-1-.8-.4-1.4-.4-.6,0-1,.2-.6.4-.8.6c-.2.3-.4.6-.6,1-.1.4-.2.8-.2,1.3s0,1.3.2,1.9c.1.6.3,1.1.6,1.5s.6.8.9,1c.4.2.8.4,1.3.4h0l.2.1Z"></path>
      <path class="st0" d="M57.6,151.3v-.2s0-.1-.1-.2c0,0-.2,0-.3-.1-.1,0-.3,0-.5-.1,0,0-.1-.1-.1-.3h0v-.3h6.5c.1,0,.2,0,.2.1v1.5c0,.2,0,.3.2.5h-.3c-.1,0-.2,0-.2-.1-.1-.2-.2-.5-.3-.6-.1-.2-.2-.3-.4-.4s-.3-.2-.5-.2h-2.5v3.5h1.9c.2,0,.3,0,.3-.2s.1-.4.2-.7c0-.1.1-.2.3-.2s0,0,.1,0h.1v2.8h-.2c-.2,0-.3,0-.3-.2,0-.3,0-.5-.2-.7,0-.2-.2-.2-.4-.2h-1.9v3.3s.2.1.3.2h.9c.1,0,.2,0,.2.2s0,0,0,.1v.2h-4.3v-.1h0q0-.3.1-.4c.3,0,.6-.1.7-.2.2,0,.3-.2.3-.4v-7h0l.2.4Z"></path>
      <path class="st0" d="M72.4,151v7.6s0,.1.1.2c0,0,.1,0,.2.1h.4c.1,0,.2.1.2.2v.2h-3.7v-.4h.2c.3,0,.6-.1.7-.2,0,0,.1-.2.1-.4v-7.4h-1.9c-.2,0-.3.1-.5.2-.1.1-.3.2-.4.4l-.3.6s-.1.1-.2.1h-.4c0-.2.1-.4.2-.6,0-.2,0-.3.1-.5v-1s.1-.1.2-.1h7.7c.1,0,.2,0,.2.1v1c0,.2,0,.3.1.5,0,.2.1.4.2.6h-.4c-.1,0-.2,0-.2-.1-.1-.2-.2-.5-.3-.6-.1-.2-.2-.3-.4-.4s-.3-.2-.5-.2h-1.9l.5.1Z"></path>
      <path class="st0" d="M79.6,151v3.4h2c.2,0,.3,0,.4-.2s.1-.4.2-.7v-.1h.4v2.8h-.2c-.2,0-.3,0-.3-.2,0-.4-.1-.6-.2-.7,0-.1-.2-.2-.3-.2h-2v3.1c0,.2.1.3.4.4s.7,0,1.2,0h.6c.3,0,.5,0,.7-.1.2,0,.4-.2.5-.3s.3-.3.4-.5l.3-.6h.6v.4c0,.1,0,.2-.1.3v1.4s-.1.1-.2.1h-6.7v-.1h0q0-.3.1-.4c.4,0,.6-.1.8-.2.2,0,.2-.2.2-.4v-7.2s0-.1-.2-.2c0,0-.2,0-.3-.1-.1,0-.3,0-.5-.1,0,0-.1-.1-.1-.3h0v-.3h6.5c.1,0,.2,0,.2.1v1.5c0,.1,0,.3.2.5h-.4c-.1,0-.2,0-.2-.1-.1-.2-.2-.5-.3-.6-.1-.2-.2-.3-.4-.4s-.3-.2-.5-.2h-2.6l-.2.2Z"></path>
      <path class="st0" d="M90.2,151v7.6s0,.1.1.2c0,0,.1,0,.2.1h.4c.1,0,.2.1.2.2v.2h-3.7v-.4h.2c.3,0,.6-.1.7-.2,0,0,.1-.2.1-.4v-7.4h-1.9c-.2,0-.3.1-.5.2-.1.1-.3.2-.4.4l-.3.6s-.1.1-.2.1h-.4c0-.2.1-.4.2-.6,0-.2,0-.3.1-.5v-1s.1-.1.2-.1h7.7c.1,0,.2,0,.2.1v1c0,.2,0,.3.1.5,0,.2.1.4.2.6h-.4c-.1,0-.2,0-.2-.1-.1-.2-.2-.5-.3-.6-.1-.2-.2-.3-.4-.4s-.3-.2-.5-.2h-1.9l.5.1Z"></path>
      <path class="st0" d="M94.4,154.8c0-.7.1-1.3.4-1.8.2-.6.6-1.1,1-1.5s.9-.8,1.5-1,1.2-.4,1.8-.4,1.3.1,1.9.3,1.1.6,1.5,1,.8.9,1,1.5.4,1.2.4,1.9-.1,1.3-.4,1.8c-.2.6-.6,1.1-1,1.5s-.9.8-1.5,1-1.2.4-1.8.4-1.3-.1-1.9-.3-1.1-.6-1.5-1-.8-.9-1-1.5-.4-1.2-.4-1.9h0ZM99.4,158.8c.4,0,.7,0,1.1-.3.3-.2.6-.4.8-.7.2-.3.4-.6.5-1s.2-.8.2-1.3c0-.7,0-1.3-.2-1.8s-.3-1.1-.6-1.5c-.3-.4-.6-.7-1-1s-.8-.4-1.4-.4-.6,0-1,.2-.6.4-.8.6c-.2.3-.4.6-.6,1-.1.4-.2.8-.2,1.3s0,1.3.2,1.9c.1.6.3,1.1.6,1.5.3.4.6.8.9,1,.4.2.8.4,1.3.4h0l.2.1Z"></path>
      <path class="st0" d="M112.2,156.3v-5c0-.2,0-.3-.2-.4s-.4-.1-.7-.2c-.1,0-.2-.1-.2-.3h0v-.3h2.9v.2q0,.2-.2.3c-.3,0-.5.1-.6.2-.1,0-.2.2-.2.4v8.2h-.6s-.2-.1-.2-.2l-5.5-7v6.2s0,.1.1.2c0,0,.1,0,.3.1.1,0,.3,0,.5.1h.1v.4h-2.9v-.1h0v-.3h.1c.3,0,.6-.1.7-.2.1,0,.2-.2.2-.4v-7.1c0-.1,0-.3-.1-.3,0,0-.3-.1-.7-.2-.1,0-.2-.1-.2-.3h0v-.1h0c.1-.1.3,0,.4,0h2s.2,0,.2.1l4.6,5.9h0l.2.1Z"></path>
      <path class="st0" d="M124.8,151.5v-.3c0-.1,0-.2-.2-.3-.1,0-.3-.1-.6-.1-.1,0-.2,0-.2-.3s0,0,0,0h0c0-.1.2,0,.3,0h2.6v.2h0c0,.2,0,.3-.2.3-.3,0-.5,0-.6.1-.1,0-.2.2-.3.4l-3.5,8.3h-.3c-.1,0,0,0-.1-.2l-3.3-8.1v-.2l-.1-.1h-.7c-.1,0-.2-.1-.2-.3h0v-.2h4v.1h0c0,.3,0,.4-.2.4-.3,0-.5,0-.6.1-.1,0-.2.2-.2.3v.2l2,5.5,2.2-5.4h0l.2-.4Z"></path>
      <path class="st0" d="M130.9,156.3h-2.9l-.7,1.9v.3c0,.1,0,.2.1.3,0,0,.3.1.6.2.1,0,.2.1.2.3v.2h-2.9v-.1h0c0-.3,0-.4.2-.4.3,0,.5-.1.6-.2s.2-.2.3-.3l3.4-8.1c0-.2.2-.2.3-.2h.3l3.4,8.3c0,.1.2.2.3.3.2,0,.3.1.5.1.1,0,.2.1.2.3v.3h-3.9v-.1h0v-.3h.1c.2,0,.4-.1.5-.2s.2-.2.2-.3v-.2l-.7-2h0l-.1-.1ZM130.6,155.6l-1.2-3.1-1.2,3.1h2.4Z"></path>
      <path class="st0" d="M138.2,158.2c0,.2.1.3.4.4s.7,0,1.2,0h1.1c.2,0,.3-.1.5-.3.1-.1.2-.3.4-.5.1-.2.2-.4.3-.7,0,0,0-.1.2-.1h.4c0,.3-.1.6-.2,1,0,.3-.1.7-.2,1v.2h-6.8v-.1h0q0-.3.1-.4c.4,0,.6-.1.8-.2.2,0,.2-.2.2-.4v-7.2s0-.1-.1-.2c0,0-.1,0-.3-.1h-.5s-.1-.1-.1-.2h0v-.3h3.8v.3c0,.1,0,.2-.1.2-.4,0-.7.1-.8.2-.1,0-.2.2-.2.4v6.8h0l-.1.2Z"></path>
      <path class="st0" d="M146.2,158.2c0,.2.1.3.4.4s.7,0,1.2,0h1.1c.2,0,.3-.1.5-.3.1-.1.2-.3.4-.5.1-.2.2-.4.3-.7,0,0,0-.1.2-.1h.4c0,.3-.1.6-.2,1,0,.3-.1.7-.2,1v.2h-6.8v-.1h0q0-.3.1-.4c.4,0,.6-.1.8-.2.2,0,.2-.2.2-.4v-7.2s0-.1-.1-.2c0,0-.1,0-.3-.1h-.5s-.1-.1-.1-.2h0v-.3h3.8v.3c0,.1,0,.2-.1.2-.4,0-.7.1-.8.2-.1,0-.2.2-.2.4v6.8h0l-.1.2Z"></path>
      <path class="st0" d="M154.1,151v3.4h2c.2,0,.3,0,.4-.2s.1-.4.2-.7v-.1h.4v2.8h-.2c-.2,0-.3,0-.3-.2,0-.4-.1-.6-.2-.7,0-.1-.2-.2-.3-.2h-2v3.1c0,.2.1.3.4.4s.7,0,1.2,0h.6c.3,0,.5,0,.7-.1.2,0,.4-.2.5-.3s.3-.3.4-.5c.1-.2.2-.4.3-.6h.6v.4c0,.1,0,.2-.1.3v1.4s-.1.1-.2.1h-6.7v-.1h0q0-.3.1-.4c.4,0,.6-.1.8-.2.2,0,.2-.2.2-.4v-7.2s0-.1-.2-.2c0,0-.2,0-.3-.1-.1,0-.3,0-.5-.1,0,0-.1-.1-.1-.3h0v-.3h6.5c.1,0,.2,0,.2.1v1.5c0,.1,0,.3.2.5h-.4c-.1,0-.2,0-.2-.1-.1-.2-.2-.5-.3-.6-.1-.2-.2-.3-.4-.4s-.3-.2-.5-.2h-2.6l-.2.2Z"></path>
      <path class="st0" d="M162.3,155.6l-2.2-4.2c-.1-.2-.2-.3-.4-.4-.2,0-.4-.1-.6-.2-.1,0-.2-.1-.2-.3h0v-.1h3.9v.2h0c0,.2,0,.3-.2.3s-.4,0-.5.1c0,0-.1.1-.1.2v.3l1.6,3.2,1.6-3c.1-.2.2-.3.2-.4s0-.2-.2-.2-.3-.1-.5-.1c-.1,0-.2-.1-.2-.3v-.3h2.9v.2h0q0,.3-.2.4c-.3,0-.6.1-.7.2-.1,0-.2.2-.3.3l-2.3,4.3v3.1s0,.1.2.2c0,0,.2,0,.3.1h.6v.2c0,.1,0,0,0,0h-4.1v-.2h0v-.3h.1c.2,0,.4,0,.5-.1.1,0,.2,0,.3-.1s.1,0,.2-.2v-3.1h0l.3.2Z"></path>
    </g>
    <g id="Community_Foundation">
      <path class="st0" d="M5.5,143.2c-.9,0-1.7-.1-2.4-.4-.7-.3-1.3-.7-1.7-1.2-.5-.5-.8-1.1-1-1.8-.3-.7-.4-1.4-.4-2.2s.1-1.3.3-2c.2-.7.6-1.3,1-1.8.5-.5,1.1-1,1.8-1.3.7-.3,1.6-.5,2.6-.5s1.1,0,1.6.1c.5,0,1,.2,1.6.3,0,.3,0,.7.1,1.1s.2.9.3,1.4h-.6s-.1,0-.1-.2c-.1-.4-.3-.7-.4-.9-.2-.2-.3-.4-.6-.6-.2-.1-.5-.3-.8-.3h-1c-.6,0-1.1.1-1.6.3s-.8.5-1.1.9-.5.8-.7,1.4c-.2.5-.2,1.1-.2,1.8s0,1.4.3,2c.2.6.5,1.1.8,1.6s.7.8,1.2,1.1,1,.4,1.5.4.8,0,1.1-.1c.3,0,.6-.2.8-.4s.4-.4.6-.7.3-.6.4-.9c0,0,0-.2.2-.2h.6c0,.2-.1.4-.2.6,0,.2-.1.5-.2.7,0,.2-.1.5-.2.7,0,.2-.1.5-.2.7-.5,0-1.1.2-1.6.2h-1.8v.2Z"></path>
      <path class="st0" d="M10.6,137.6c0-.8.1-1.5.4-2.2.3-.7.7-1.3,1.2-1.8s1.1-.9,1.8-1.2,1.4-.4,2.2-.4,1.5.1,2.2.4c.7.3,1.3.7,1.8,1.2s.9,1.1,1.2,1.8c.3.7.4,1.4.4,2.2s-.1,1.5-.4,2.2-.7,1.3-1.2,1.8-1.1.9-1.8,1.2c-.7.3-1.4.4-2.2.4s-1.5-.1-2.2-.4c-.7-.3-1.3-.7-1.8-1.2s-.9-1.1-1.2-1.8-.4-1.4-.4-2.2h0ZM16.4,142.3c.5,0,.9-.1,1.3-.3s.7-.5,1-.8c.3-.4.5-.8.6-1.2.1-.5.2-1,.2-1.5,0-.8,0-1.5-.2-2.2-.1-.7-.4-1.3-.7-1.7s-.7-.9-1.1-1.2c-.5-.3-1-.4-1.6-.4s-.8,0-1.1.3c-.4.2-.7.4-1,.7s-.5.7-.7,1.2-.2,1-.2,1.6,0,1.6.2,2.3.4,1.3.7,1.8.7.9,1.1,1.2c.4.3.9.4,1.5.4h0v-.2Z"></path>
      <path class="st0" d="M33.2,132.6s.1-.2.2-.2h2.8v.2h0c0,.3,0,.4-.2.4h-.5c-.1,0-.2,0-.3.1,0,0-.1.1-.1.2v8.8s0,.1.1.2c0,0,.2.1.3.1s.3,0,.5.1c.1,0,.2.1.2.3v.3h-4.3v-.5h.1c.5,0,.7-.2.9-.3.1-.1.2-.3.2-.5v-6.7l-3.4,7.9-.1.2h-.2l-3.8-9.2v8.1s0,.1.1.2.2.1.3.1.3,0,.5.1c.1,0,.2.1.2.3s0,0,0,.1v.2h-3.3v-.1h0v-.4h.1c.3,0,.6-.2.7-.3.2,0,.2-.2.3-.4v-8.3c0-.2,0-.3-.2-.4-.1,0-.4-.2-.8-.2-.1,0-.2-.1-.2-.3h0v-.3h3.5v.1l3.1,7.4,3.1-7.4h0l.2.1Z"></path>
      <path class="st0" d="M48.2,132.6s.1-.2.2-.2h2.8v.2h0c0,.3,0,.4-.2.4h-.5c-.1,0-.2,0-.3.1,0,0-.1.1-.1.2v8.8s0,.1.1.2c0,0,.2.1.3.1s.3,0,.5.1c.1,0,.2.1.2.3v.3h-4.3v-.5h.1c.5,0,.7-.2.9-.3.1-.1.2-.3.2-.5v-6.7l-3.4,7.9-.1.2h-.2l-3.8-9.2v8.1s0,.1.1.2.2.1.3.1.3,0,.5.1c.1,0,.2.1.2.3s0,0,0,.1v.2h-3.3v-.1h0v-.4h.1c.3,0,.6-.2.7-.3.2,0,.2-.2.3-.4v-8.3c0-.2,0-.3-.2-.4-.1,0-.4-.2-.8-.2-.1,0-.2-.1-.2-.3h0v-.3h3.5v.1l3.1,7.4,3.1-7.4h0l.2.1Z"></path>
      <path class="st0" d="M63,138.9c0,.6,0,1.2-.2,1.7-.1.5-.4,1-.7,1.4s-.8.7-1.3.9-1.2.3-2.1.3-1.8-.1-2.4-.3-1.1-.5-1.4-.9c-.3-.4-.5-.8-.7-1.3-.1-.5-.2-1.1-.2-1.6v-5.5c0-.2,0-.4-.2-.5-.1,0-.4-.2-.9-.2-.1,0-.2-.1-.2-.3h0v-.3h4.6v.3c0,.2,0,.3-.2.3-.5,0-.8.1-.9.2-.2,0-.2.3-.2.5v5.1c0,1.1.2,2,.6,2.6.4.6,1.2.9,2.2.9s1.8-.3,2.3-.8c.4-.6.7-1.5.7-2.7v-5.1c0-.2,0-.4-.2-.5-.2,0-.4-.2-.9-.2-.1,0-.2-.1-.2-.3s0,0,0-.1v-.2h3.5v.3c0,.2,0,.3-.2.3-.4,0-.7.1-.8.2-.2.1-.2.3-.2.5v5.4h0l.2-.1Z"></path>
      <path class="st0" d="M74.1,139.4v-5.9c0-.2,0-.4-.2-.5-.2,0-.5-.2-.9-.2-.1,0-.2-.1-.2-.3h0v-.3h3.4v.3c0,.2,0,.3-.2.3-.4,0-.6.1-.7.2-.1,0-.2.3-.2.5v9.7h-.6s-.2-.1-.3-.2l-6.5-8.2v7.4s0,.1.1.2c0,0,.2,0,.3.1.1,0,.3,0,.6.1h.1v.5h-3.3v-.1h0v-.4c0-.1,0,0,.1,0,.4,0,.7-.1.8-.2.1,0,.2-.3.2-.5v-8.3c0-.2,0-.3-.2-.4-.1,0-.4-.2-.8-.2-.1,0-.2-.1-.2-.3h0v-.2h0c.2-.1.3-.1.4-.1h2.3c.1,0,.2,0,.3.2l5.5,6.9h0l.2-.1Z"></path>
      <path class="st0" d="M80.8,141.8v.3s0,.1.1.2c0,0,.2.1.3.1s.3,0,.6.1c.1,0,.2.1.2.3s0,0,0,.1v.2h-4.4v-.2h0c0-.3,0-.4.2-.4s.4,0,.6-.1c.1,0,.2,0,.3-.1s.1-.1.1-.2v-8.9q0-.1-.1-.2s-.2-.1-.3-.1-.3,0-.6-.1c-.1,0-.2-.1-.2-.3h0v-.3h4.4v.3q0,.2-.2.3c-.2,0-.4,0-.6.1-.1,0-.2,0-.3.1,0,0-.1.1-.1.2v8.6h0Z"></path>
      <path class="st0" d="M89.2,133.1v9s0,.1.1.2.2.1.3.1.3,0,.5.1c.2,0,.2.1.2.3s0,0,0,.1v.2h-4.4v-.5c0-.1.1,0,.2-.1.4,0,.7-.1.8-.2.1,0,.2-.2.2-.5v-8.7h-2.3c-.2,0-.4.2-.6.3s-.3.3-.4.5-.3.4-.4.7c0,0-.1.1-.2.1h-.4c0-.3.1-.5.2-.7,0-.2,0-.4.1-.6v-1.1s.1-.1.3-.1h9.1c.1,0,.2,0,.3.1v.4c0,.2,0,.4.1.7,0,.2,0,.4.1.6,0,.2.1.4.2.7h-.4c-.1,0-.2,0-.3-.1-.1-.3-.3-.5-.4-.7s-.3-.4-.4-.5c-.2-.1-.3-.2-.6-.3h-2.3.4Z"></path>
      <path class="st0" d="M97.7,138.5l-2.6-5c-.1-.2-.3-.4-.5-.5s-.4-.2-.7-.2c-.1,0-.2-.1-.2-.3h0v-.2h4.5v.2h0c0,.3,0,.4-.2.4-.3,0-.5,0-.6.1-.1,0-.2.1-.2.2s0,.2.1.3l1.9,3.8,1.9-3.6c.1-.2.2-.4.2-.5s0-.2-.2-.3-.3-.1-.6-.2c-.1,0-.2-.1-.2-.3v-.3h3.4v.2h0c0,.3,0,.4-.2.4-.4,0-.7.1-.8.2-.2,0-.3.2-.4.4l-2.7,5v3.6s0,.1.2.2c0,0,.2.1.4.1.1,0,.3,0,.6.1h.1v.2c0,.1,0,0,0,0h0c-.2.1-.3.1-.5.1h-4.3v-.2h0v-.3h.1c.2,0,.4,0,.6-.1.2,0,.3,0,.4-.1,0,0,.1-.1.2-.2v-3.6h0l.3.4Z"></path>
      <path class="st0" d="M109.4,133.5v-.3q0-.1-.2-.2s-.2-.1-.4-.1-.4,0-.6-.1c-.1,0-.2-.1-.2-.3v-.4h7.6c.1,0,.2,0,.3.1v.5c0,.2,0,.5.1.7,0,.2,0,.4.1.5,0,.2.1.4.2.6h-.4c-.1,0-.2,0-.2-.1-.1-.3-.3-.5-.4-.7s-.3-.4-.4-.5c-.2-.1-.3-.2-.6-.3h-3v4.2h2.3c.2,0,.3,0,.4-.3s.2-.5.2-.8c0-.1.1-.2.3-.2s0,0,.2,0h.2v3.3h-.2c-.2,0-.3,0-.3-.2,0-.4-.1-.6-.2-.8,0-.2-.2-.3-.4-.3h-2.3v3.7c0,.1,0,.2.1.3,0,0,.2.1.3.2.1,0,.3,0,.5.1s.4,0,.6,0c.1,0,.2.1.2.3v.4h-5.1v-.4c0-.2,0-.3.2-.3.4,0,.6-.2.9-.3.2,0,.3-.2.3-.5v-8.3h0l-.1.5Z"></path>
      <path class="st0" d="M117,137.6c0-.8.1-1.5.4-2.2s.7-1.3,1.2-1.8,1.1-.9,1.8-1.2c.7-.3,1.4-.4,2.2-.4s1.5.1,2.2.4c.7.3,1.3.7,1.8,1.2s.9,1.1,1.2,1.8.4,1.4.4,2.2-.1,1.5-.4,2.2c-.3.7-.7,1.3-1.2,1.8s-1.1.9-1.8,1.2c-.7.3-1.4.4-2.2.4s-1.5-.1-2.2-.4c-.7-.3-1.3-.7-1.8-1.2s-.9-1.1-1.2-1.8c-.3-.7-.4-1.4-.4-2.2h0ZM122.8,142.3c.5,0,.9-.1,1.3-.3s.7-.5,1-.8c.3-.4.5-.8.6-1.2.1-.5.2-1,.2-1.5,0-.8,0-1.5-.2-2.2-.1-.7-.4-1.3-.7-1.7s-.7-.9-1.1-1.2c-.5-.3-1-.4-1.6-.4s-.8,0-1.1.3c-.4.2-.7.4-1,.7s-.5.7-.7,1.2-.2,1-.2,1.6,0,1.6.2,2.3.4,1.3.7,1.8c.3.5.7.9,1.1,1.2s.9.4,1.5.4h0v-.2Z"></path>
      <path class="st0" d="M139,138.9c0,.6,0,1.2-.2,1.7-.1.5-.4,1-.7,1.4s-.8.7-1.3.9-1.2.3-2.1.3-1.8-.1-2.4-.3-1.1-.5-1.4-.9c-.3-.4-.5-.8-.7-1.3-.1-.5-.2-1.1-.2-1.6v-5.5c0-.2,0-.4-.2-.5-.1,0-.4-.2-.9-.2-.1,0-.2-.1-.2-.3h0v-.3h4.6v.3c0,.2,0,.3-.2.3-.5,0-.8.1-.9.2-.2,0-.2.3-.2.5v5.1c0,1.1.2,2,.6,2.6.4.6,1.2.9,2.2.9s1.8-.3,2.3-.8c.4-.6.7-1.5.7-2.7v-5.1c0-.2,0-.4-.2-.5-.2,0-.4-.2-.9-.2-.1,0-.2-.1-.2-.3s0,0,0-.1v-.2h3.5v.3c0,.2,0,.3-.2.3-.4,0-.7.1-.8.2-.2.1-.2.3-.2.5v5.4h0l.2-.1Z"></path>
      <path class="st0" d="M150.1,139.4v-5.9c0-.2,0-.4-.2-.5-.2,0-.5-.2-.9-.2-.1,0-.2-.1-.2-.3h0v-.3h3.4v.3c0,.2,0,.3-.2.3-.4,0-.6.1-.7.2-.1,0-.2.3-.2.5v9.7h-.6s-.2-.1-.3-.2l-6.5-8.2v7.4s0,.1.1.2c0,0,.2,0,.3.1.1,0,.3,0,.6.1h.1v.5h-3.3v-.1h0v-.4c0-.1,0,0,.1,0,.4,0,.7-.1.8-.2.1,0,.2-.3.2-.5v-8.3c0-.2,0-.3-.2-.4-.1,0-.4-.2-.8-.2-.1,0-.2-.1-.2-.3h0v-.2h0c.2-.1.3-.1.4-.1h2.3c.1,0,.2,0,.3.2l5.5,6.9h0l.2-.1Z"></path>
      <path class="st0" d="M164.7,137.6c0,.6-.1,1.3-.3,1.9-.2.6-.6,1.2-1,1.7s-1.1.9-1.8,1.2-1.6.5-2.5.5h-5.5v-.1h0v-.4h.1c.3,0,.6-.1.8-.2.2,0,.3-.3.3-.5v-8.3c0-.2,0-.4-.2-.5-.2,0-.4-.2-.8-.2,0,0-.1,0-.2-.1v-.2h0v-.3h5.4c.9,0,1.8.1,2.5.4s1.3.7,1.8,1.2.8,1,1.1,1.7.4,1.3.4,2.1h0l-.1.1ZM162.4,137.9c0-.9,0-1.6-.3-2.2-.2-.6-.5-1.1-.9-1.5s-.9-.7-1.4-.9c-.6-.2-1.2-.3-1.9-.3h-1v8.8s0,.1.2.2h1.1c1.4,0,2.5-.4,3.2-1.1.7-.8,1-1.8,1-3.1h0v.1Z"></path>
      <path class="st0" d="M171,139.4h-3.5l-.9,2.3v.3c0,.1,0,.2.2.3.1,0,.3.1.7.2.2,0,.2.1.2.3v.3h-3.4v-.1h0c0-.3,0-.5.2-.5.3,0,.6-.1.7-.2s.3-.2.4-.4l4-9.5c0-.2.2-.3.4-.3h.4l4,9.8c0,.2.2.3.4.4.2,0,.4.1.6.2.2,0,.2.1.2.3v.3h-4.6v-.1h0v-.4c0-.1,0,0,.1,0,.3,0,.5-.1.6-.2.1,0,.2-.2.2-.3v-.2l-.9-2.4h0v-.1ZM170.7,138.5l-1.4-3.7-1.4,3.7h2.8,0Z"></path>
      <path class="st0" d="M180.3,133.1v9s0,.1.1.2.2.1.3.1.3,0,.5.1c.2,0,.2.1.2.3s0,0,0,.1v.2h-4.4v-.5c0-.1.1,0,.2-.1.4,0,.7-.1.8-.2.1,0,.2-.2.2-.5v-8.7h-2.3c-.2,0-.4.2-.6.3-.2.1-.3.3-.4.5-.1.2-.3.4-.4.7,0,0-.1.1-.2.1h-.4c0-.3.1-.5.2-.7,0-.2,0-.4.1-.6v-1.1s.1-.1.3-.1h9.1c.1,0,.2,0,.3.1v.4c0,.2,0,.4.1.7,0,.2,0,.4.1.6,0,.2.1.4.2.7h-.4c-.1,0-.2,0-.3-.1-.1-.3-.3-.5-.4-.7-.1-.2-.3-.4-.4-.5-.2-.1-.3-.2-.6-.3h-2.3.4Z"></path>
      <path class="st0" d="M188.7,141.8v.3s0,.1.1.2c0,0,.2.1.3.1s.3,0,.6.1c.1,0,.2.1.2.3s0,0,0,.1v.2h-4.4v-.2h0c0-.3,0-.4.2-.4s.4,0,.6-.1c.1,0,.2,0,.3-.1s.1-.1.1-.2v-8.9q0-.1-.1-.2s-.2-.1-.3-.1-.3,0-.6-.1c-.1,0-.2-.1-.2-.3h0v-.3h4.4v.3q0,.2-.2.3c-.2,0-.4,0-.6.1-.1,0-.2,0-.3.1,0,0-.1.1-.1.2v8.6h0Z"></path>
      <path class="st0" d="M191,137.6c0-.8.1-1.5.4-2.2.3-.7.7-1.3,1.2-1.8s1.1-.9,1.8-1.2,1.4-.4,2.2-.4,1.5.1,2.2.4c.7.3,1.3.7,1.8,1.2s.9,1.1,1.2,1.8.4,1.4.4,2.2-.1,1.5-.4,2.2c-.3.7-.7,1.3-1.2,1.8s-1.1.9-1.8,1.2-1.4.4-2.2.4-1.5-.1-2.2-.4c-.7-.3-1.3-.7-1.8-1.2s-.9-1.1-1.2-1.8-.4-1.4-.4-2.2h0ZM196.9,142.3c.5,0,.9-.1,1.3-.3.4-.2.7-.5,1-.8.3-.4.5-.8.6-1.2.1-.5.2-1,.2-1.5,0-.8,0-1.5-.2-2.2-.1-.7-.4-1.3-.7-1.7s-.7-.9-1.1-1.2c-.5-.3-1-.4-1.6-.4s-.8,0-1.1.3c-.4.2-.7.4-1,.7s-.5.7-.7,1.2-.2,1-.2,1.6,0,1.6.2,2.3.4,1.3.7,1.8.7.9,1.1,1.2c.4.3.9.4,1.5.4h0v-.2Z"></path>
      <path class="st0" d="M212,139.4v-5.9c0-.2,0-.4-.2-.5-.2,0-.5-.2-.9-.2-.1,0-.2-.1-.2-.3h0v-.3h3.4v.3c0,.2,0,.3-.2.3-.4,0-.6.1-.7.2-.1,0-.2.3-.2.5v9.7h-.6s-.2-.1-.3-.2l-6.5-8.2v7.4s0,.1.1.2c0,0,.2,0,.3.1.1,0,.3,0,.6.1h.1v.5h-3.3v-.1h0v-.4c0-.1,0,0,.1,0,.4,0,.7-.1.8-.2.1,0,.2-.3.2-.5v-8.3c0-.2,0-.3-.2-.4-.1,0-.4-.2-.8-.2-.1,0-.2-.1-.2-.3h0v-.2h0c.2-.1.3-.1.4-.1h2.3c.1,0,.2,0,.3.2l5.5,6.9h0l.2-.1Z"></path>
    </g>
    <g id="Challengev_Grey_">
      <path class="st0" d="M156.5,81c-1.7,0-2.3.2-2.3.7s.3.8,3.7.8,3.7-.2,3.7-.8-.9-.8-2.4-.8v-1.6c1.9,0,4,.3,4,2.4s-2,2.7-5.3,2.7-5.3-1.2-5.3-2.7c0-2.2,2-2.4,3.9-2.4v1.7h0Z"></path>
      <path class="st0" d="M152.8,77.2v-1.9h4.1v-1.2h-4.1v-1.9h10.2v1.9h-4.3v1.2h4.3v1.9h-10.2Z"></path>
      <path class="st0" d="M152.8,69.1v-2.7l10.2-1.3v1.8l-2.3.3v1.5l2.3.3v1.6l-10.2-1.4v-.1ZM154.4,67.9h0l4.9.6v-1.2l-4.9.5v.1Z"></path>
      <path class="st0" d="M152.8,63.4v-1.9h8.7v-2.4h1.6v4.3h-10.3Z"></path>
      <path class="st0" d="M152.8,57.2v-1.9h8.7v-2.4h1.6v4.3h-10.3Z"></path>
      <path class="st0" d="M152.8,51.1v-4.2h1.6v2.4h2.6v-1.7h1.7v1.7h2.8v-2.5h1.6v4.3h-10.3Z"></path>
      <path class="st0" d="M152.8,45v-1.8l5.4-1.7h-5.4v-1.5h10.2v1.5l-6.2,2h6.2v1.6h-10.2v-.1Z"></path>
      <path class="st0" d="M156.5,34.5c-.5,0-2.3-.1-2.3.7s.4.8,3.7.8,3.8-.3,3.8-.9-1.4-.8-1.9-.8v.7h-1.5v-2.3h4.8v.8l-.7.3c.4.3.9.8.9,1.5,0,2-2,2.7-5.3,2.7s-5.3-1.2-5.3-2.7.6-2.5,3.2-2.5h.7v1.7h-.1Z"></path>
      <path class="st0" d="M152.8,30.8v-4.2h1.6v2.4h2.6v-1.7h1.7v1.7h2.8v-2.5h1.6v4.3h-10.3Z"></path>
    </g>
    <g id="Tin_Cup_Black_">
      <path class="st0" d="M114.1,74.6c0,3.5-.5,5-1.3,5s-1.3-.5-1.3-8,1-8,1.3-8c.5,0,1,.8,1,4.7v.7l5.5-.2v-.6c0-2.9,0-9.5-6.7-9.5s-7.3,1.7-7.3,12.9.8,12.9,7.3,12.9,6.8-7.1,6.8-9.7v-.6l-5.3-.2v.7h0v-.1Z"></path>
      <path class="st0" d="M128.5,78.1c0,1.5-.8,1.5-1.1,1.5-.5,0-1-.1-1-1.5v-18.9h-6v18.4c0,4.6,2.3,7,6.7,7s6.7-2.4,6.7-7v-18.4h-5.3v18.9Z"></path>
      <path class="st0" d="M140.7,59.1h-5.4v24.9h6v-9.5h1.2c4.4,0,6.9-2.8,6.9-7.8s-2.8-7.7-8.7-7.7h0v.1ZM143.5,66.9c0,2.5-.8,2.9-2.1,2.9v-5.8c1.3,0,2.1.2,2.1,2.9Z"></path>
      <polygon class="st0" points="109.4 56.4 116.5 56.4 116.5 31.7 121.5 31.7 121.5 25.9 104.4 25.9 104.4 31.7 109.4 31.7 109.4 56.4"></polygon>
      <rect class="st0" x="122.6" y="25.9" width="7.1" height="30.5"></rect>
      <polygon class="st0" points="138 41.6 143.1 56.4 148.8 56.4 148.8 25.9 142.8 25.9 142.8 38.4 138.5 25.9 131.8 25.9 131.8 56.4 138 56.4 138 41.6"></polygon>
    </g>
    <g id="_16th_Annual">
      <polygon class="st0" points="105.8 18.2 104.3 18.7 104.3 17.5 106 16.8 107.2 16.8 107.2 23.8 105.8 23.8 105.8 18.2"></polygon>
      <path class="st0" d="M114.7,19.6v-1.9h-.4v-.6h.4v-.8h.8v.8h.6v.6h-.6v1.9c0,.2,0,.3.3.3h.3v.6h-.5c-.6,0-.9-.3-.9-.9"></path>
      <path class="st0" d="M116.8,16.2h.8v1.6c.2-.3.5-.4.9-.4.7,0,1.1.4,1.1,1.2v1.9h-.8v-1.8c0-.4-.2-.6-.6-.6s-.6.2-.6.6v1.8h-.8v-4.3Z"></path>
      <path class="st0" d="M128.7,23.8h-1.4l-.5-1.5h-2.7l-.5,1.5h-1.4l2.5-7h1.4l2.5,7h.1ZM124.5,21.2h2l-1-3.2-1,3.2Z"></path>
      <polygon class="st0" points="129.7 16.8 131 16.8 134.1 21.4 134.1 16.8 135.5 16.8 135.5 23.8 134.1 23.8 131.1 19.1 131.1 23.8 129.7 23.8 129.7 16.8"></polygon>
      <polygon class="st0" points="137 16.8 138.3 16.8 141.4 21.4 141.4 16.8 142.7 16.8 142.7 23.8 141.4 23.8 138.4 19.1 138.4 23.8 137 23.8 137 16.8"></polygon>
      <path class="st0" d="M144.2,21.3v-4.5h1.4v4.5c0,.9.6,1.4,1.5,1.4s1.5-.5,1.5-1.4v-4.5h1.4v4.5c0,1.6-1.1,2.7-2.9,2.7s-2.9-1.1-2.9-2.7"></path>
      <path class="st0" d="M157.1,23.8h-1.4l-.5-1.5h-2.7l-.5,1.5h-1.4l2.5-7h1.4l2.5,7h.1ZM152.9,21.2h2l-1-3.2-1,3.2h0Z"></path>
      <polygon class="st0" points="158.1 16.8 159.5 16.8 159.5 22.6 162.7 22.6 162.7 23.8 158.1 23.8 158.1 16.8"></polygon>
      <path class="st0" d="M111.9,20.2c.8-.3,1.3-.9,1.3-1.7,0-1.3-1.3-1.9-2.6-1.9s-2.6.6-2.6,1.9.5,1.3,1.3,1.7c-.7.3-1.4.9-1.4,1.8s1.1,2,2.7,2,2.7-.8,2.7-2-.7-1.5-1.4-1.8ZM110.6,17.7c.7,0,1.3.3,1.3.9s-1.1,1-1.3,1-1.3-.3-1.3-1,.5-.9,1.3-.9ZM109.6,21.1c.6-.4,1.4-.4,2,0s.4.4.4.7c0,.6-.7,1-1.4,1s-1.4-.3-1.4-1,.2-.5.4-.7Z"></path>
    </g>
    <path id="Mtns" class="st0" d="M207.3,126.9c-.7-.1-4.8-4-7.2-6.1-1-.8-3-2-3.4-2.2-.5,0-1.6.4-2.2.6l-2,.7-5-4-2-.4-1.5-4.5-12.4-13.2-8-7.3c-2.3-1.2-5-2.6-5.6-2.6-.8,0-1.8.4-2.2.6-.4.5-1.5,3.3-1.5,4.5,0,1.6-1.9,9.5-2.1,10.4v.5c-.1,0-.6.1-.6.1-2.8.7-6,1.7-6.5,2.2-.4.5-1.3,3.9-2,6.8v.2l-5.5,7-2.9-3.4c-1.1-1.8-2.5-3.9-3-4.2-.6-.2-3-.3-4.9-.5-2.2-.2-3.4-.3-3.8-.4-.5-.1-.9-.6-1.6-1.6-.7-.9-1.5-2-2.3-2.6-.7-.5-4-2.2-6-3h-.1l-.1-.2c-.9-.9-1.9-1.7-2.3-2-.5.4-1.7,1.4-2.7,2.3h-.1c0,.1-1.3.8-1.3.8,0,0-1.7.8-2.5,1.8-.3.4-.9.9-1.7,1.7-1,.9-2.9,2.6-3.1,3.2,0,.3-.2.5-.2.7-.2.8-.5,1.5-1.8,1.6-1.1,0-4.4-1.2-5.8-1.7v.1c-.2,1-1.6,4.5-1.8,4.9h0c0,.2-1.3,2.5-3.9,3.1-1.9.4-3,1.5-3,1.6l-1.2-1.2s1.5-1.5,3.9-2c1.6-.3,2.6-1.8,2.7-2.1.6-1.5,1.6-3.9,1.7-4.5.3-1.3,1.3-1.6,1.9-1.5h.2c2.1.9,4.8,1.8,5.3,1.7h.2v-.3c0-.2.1-.5.3-.9.3-1,1.7-2.2,3.6-3.9.7-.6,1.3-1.2,1.6-1.5,1-1.2,2.8-2.1,3-2.2l1.1-.6c1.2-1.1,2.8-2.4,3.4-2.7.4-.1,1-.4,3.8,2.4.9.4,5.2,2.4,6.2,3.2,1,.8,1.9,2,2.7,2.9.3.4.6.8.8,1,.5,0,2.1.2,3.4.3,2.6.2,4.5.4,5.3.6s2.1,1.9,3.9,4.9l1.4,1.6,3.9-5c.4-1.7,1.5-6.3,2.3-7.3s4.5-2,6.9-2.6c.8-3.4,1.9-8.5,1.9-9.5,0-1.5,1.3-5.3,2.3-5.9.7-.5,2.1-.9,3.1-1,1.1,0,4.6,1.8,6.6,2.9h.2c0,.1,8.1,7.5,8.1,7.5l12.7,13.5,1.3,3.9,1.4.3,4.6,3.7,1.2-.4c.4-.1,2.1-.6,2.8-.7.6,0,2,.4,4.6,2.7,1.1,1,6,5.6,6.4,5.8l-.4,1.7h0l-.5-.3Z"></path>
    <path id="Blue_Arc" class="st0" d="M126.9.16c-25.3-1.1-48.4,8.2-65.6,23.8l3.6.4c15-12.4,34-19.9,54.6-19.9,47.5,0,86,38.5,86,86s-2.9,20.4-4.1,23.3c0,.2,0,.5.3.6,2.4,1.8,4.7,3.6,7,5.6.4.4.9,0,1.1-.4,1.7-4.6,4.6-17,4.6-28.4C214.4,42.56,175.4,2.26,126.9.16Z"></path>
  </g>
</svg>
