<?xml version="1.0" encoding="UTF-8"?>
<svg xmlns="http://www.w3.org/2000/svg" id="Layer_1" version="1.1" viewBox="0 0 360 360">
  <defs>
    <style>
      .st0 {
        fill: #2b448f;
      }

      .st1 {
        fill: #27418d;
      }

      .st2 {
        fill: #2d4590;
      }

      .st3 {
        fill: #2c4490;
      }

      .st4 {
        fill: #29428f;
      }

      .st5 {
        fill: #0b7558;
      }

      .st6 {
        fill: #29428e;
      }

      .st7 {
        fill: #2b4490;
      }

      .st8 {
        fill: #27408d;
      }

      .st9 {
        fill: #27418e;
      }

      .st10 {
        fill: #2a438f;
      }
    </style>
  </defs>
  <path class="st5" d="M314.2,135.58h7.72v-3.32c0-.36-1.72-3.15-1.72-3.65v-3.11l1.31-.13,3.74-8.22.1-1.3h4.6c.77,3.3,2.75,6.33,3.96,9.52l1.31.13v3.11c0,.43-1.72,3.22-1.72,3.65v152.36h-11.59v-125.02l-8.52-3.6c-2.07.05-5.93-.38-7.11-2.33-.08-.14-.46-.98-.46-1.04v-4.61h-81.31c.09.73-.16,1.74.04,2.42s2.44,2.16,2.7,3.09c.45,1.6.34,4.18.97,5.9s1.75,1.93,1.67,4.57c-.03,1-.75,1.56-.82,2.17-.02.24.18,2.25.26,2.44l23.8,23.18c.53.66.36,1.48.08,2.21l-64.23.37-.34-.14c-.26-.89-.6-1.69.12-2.46l23.67-23.3c-.05-.68.29-1.45.25-2.07-.05-.78-.81-1.58-.84-2.18-.16-2.58,1.16-3.22,1.77-5.07.52-1.58.49-4.64,1.06-5.81.4-.82,2.4-2.4,2.52-3.06-.34-20.25-1.11-41.41,11.93-58.19,13.79-17.73,42.87-22.55,61.86-10.62,18.05,11.35,23.28,34.02,23.19,54.13ZM305.83,143.94v-6.76c0-.08.97-.9,1.16-1.2,1.55-2.4.83-8.49.55-11.45-2.46-26.58-16.99-45.06-45.37-43.42-25.69,1.48-36.88,22.28-37.88,45.77-.24,5.67.51,11.38.22,17.06h81.31Z"></path>
  <path class="st8" d="M24.78,255.88l.65-12.32v-28.54s-.65-12.75-.65-12.75c.78-.14,1.51.2,2.24.22,6.46.23,12.26-.05,18.67-.23,13.17-.37,24.8,3.35,27.69,17.59,2.51,12.4-.36,25.66-11.98,32.21-10.18,5.74-22.12,3.26-33.3,3.6-1.04.03-2.2.42-3.32.22ZM39.32,205.76c-2.23.11-4.46.48-6.68.61l-.35.51c-.46,13.92-.75,27.92,0,41.81.06,1.13-.09,2.28.02,3.41.13.38.84.43,1.21.5,6.26,1.26,16.92.76,22.58-2.4,10.22-5.7,12.07-20.86,9.33-31.21-3.41-12.85-14.66-13.8-26.11-13.23Z"></path>
  <path class="st8" d="M103.73,229.5l21.02,26.37-9.22-.1c-4.48-6.14-8.92-12.34-13.74-18.22-1.48-1.81-3.11-3.92-4.71-5.59s-1.95-1.81-4.51-1.6v13.63s.65,11.89.65,11.89c-2.58-.31-5.15-.24-7.73,0,.07-2.75.12-5.51.21-8.27.37-12.43.37-24.23,0-36.65-.09-2.9-.14-5.8-.21-8.69l5.46.44c6.02.25,11.77-1.04,17.75.05,8.15,1.49,12.4,7.28,10.31,15.54-1.61,6.39-9.17,10.4-15.29,11.2ZM92.6,226.91c9.2,1.71,20.85-1.28,19.94-12.74-.77-9.66-12.29-9.62-19.5-8.43l-.44,21.18Z"></path>
  <path class="st1" d="M256.24,251.34l-.18-20.12c2.36.45,4.73.57,7.08,0l-.24,22.28c-5.14,1.59-10.59,2.74-15.96,3.24-20.4,1.87-35.34-8.22-34-29.91,1.34-21.78,22.39-28.72,41.19-24.45,1.28.29,8.43,2.56,8.91,3.32.22.34-.91,2.98-1.09,3.65-.23.83-.09,2.33-.86,2.59-.57.04-2.92-2.46-3.65-3.01-9.21-7.02-24.3-6.27-31.73,3.02-6.35,7.93-6.65,23.34-1.5,31.92,6.46,10.76,21.32,12.07,32.02,7.49Z"></path>
  <path class="st8" d="M202.64,205.7l-1.83,6.23c-1.2.22-2.51-1.8-3.43-2.58-9.49-7.96-26.58-6.68-33.36,4.17-5.31,8.5-5.41,23.28.38,31.58,6.66,9.53,20.93,10.57,30.95,6.39.2-.23.41-2.1.44-2.57.35-5.76-.16-11.94-.44-17.7,2.48.42,4.81.61,7.29,0l-.31,22.1c-5,1.89-10.76,2.93-16.1,3.42-16.84,1.54-32.61-5.54-33.8-24.11-1.43-22.42,13.92-33.03,35.09-31.21,5.31.46,10.37,1.96,15.13,4.29Z"></path>
  <path class="st8" d="M298.99,211.47c-1.72-5.83-7.13-8.61-12.95-6.58-4.34,1.52-6.55,5.62-6.16,10.13,1.04,12.15,23.33,8.65,24.46,22.94.69,8.77-4.34,16.11-12.88,18.24-6.33,1.57-14.07.9-19.02-3.64.34-1.02.68-2.05.9-3.11.19-.91.22-4.89,1.61-3.55,5.32,12.05,24.47,10.09,23.17-4.72-.72-8.17-12.75-9.54-18.31-13.44-9.4-6.58-7.85-20.6,2.64-24.94,6.02-2.49,14.6-2.19,19.72,2.16-.33.91-.83,1.78-1.12,2.71-.2.66-.69,3.33-.9,3.6-.23.3-.81.25-1.16.19Z"></path>
  <path class="st9" d="M140.63,202.27c-.04,1.46.05,2.94.01,4.4-.44,15.1-.43,29.92,0,45.02.04,1.39-.05,2.8,0,4.19-2.51-.26-5-.26-7.51,0,.04-1.39-.05-2.8,0-4.19.43-15.06.44-29.92,0-45.02-.04-1.46.05-2.94.01-4.4,2.48.56,5.03.56,7.51,0Z"></path>
  <path class="st0" d="M26.28,193.48v-22.52c2.75,0,5.51,0,8.27,0,2.97.01,5.17-.3,8.01,1.19,5.62,2.95,5.97,12.53,2.38,17.13-1.39,1.78-5.12,4.19-7.4,4.19h-11.26ZM29.53,191.94c6.06,1.22,12.65.2,14.07-6.79.59-2.91.48-6.9-1.11-9.49-2.61-4.24-8.75-3.24-12.98-2.99l.03,19.27Z"></path>
  <path class="st3" d="M70.68,177.83l4.19,12.43,4.18-12.44h2.14c.97,3.95,2.31,7.98,3.81,11.75.11.26-.1.57.37.47l4.4-12.23c.79.15,1.35.31,2.14,0l-6.43,15.56-1.92.08c-1.16-3.6-2.17-7.71-3.79-11.13-.12-.25.03-.52-.42-.43l-4.08,11.37-2.05.11-5.78-15.24c-.19-.64,1.23-.08,1.6-.08.55,0,1.05-.3,1.6-.23Z"></path>
  <path class="st3" d="M141.69,177.84l4.2,12.43,4.18-12.44h2.14s3.97,12.23,3.97,12.23l4.63-11.88.32-.31,1.8-.03-6.43,15.56-1.92.08-3.89-11.77-4.39,11.58-2.05.11-5.57-15.56c1.08.32,1.91.15,2.99.01Z"></path>
  <path class="st7" d="M148.34,261.69l9.67,23.14c-1.06-.4-2.34-.27-3.43,0l-3.24-8.45c-.15-.33-.41-.32-.72-.35-.81-.09-7.31-.08-7.63.12l-3.22,8.69c-.9-.3-1.67-.28-2.57,0l10.1-22.82,1.04-.32ZM150.71,274.54l-3.44-8.15c-.18-.13-.53.62-.61.78-1.15,2.27-2.05,5-3.03,7.37h7.08Z"></path>
  <path class="st3" d="M57.99,177.44c11.75-.24,11.1,19.29-2.37,16.18-8.12-1.87-7.49-15.98,2.37-16.18ZM57.12,178.73c-6.3,1.07-5.36,17.02,3.06,13.78,4.45-1.71,4.74-15.1-3.06-13.78Z"></path>
  <path class="st0" d="M129.01,177.44c4.02-.08,7.77,2.55,8.19,6.71.62,6.24-2.65,10.31-9.11,9.75-9.68-.83-9.32-16.25.92-16.46ZM128.13,178.73c-5.38.91-5.38,12.95-.17,14.01,5.72,1.16,6.67-4.67,6.21-8.99-.36-3.35-2.51-5.61-6.04-5.02Z"></path>
  <path class="st3" d="M270.59,268.8c5.98-.81,10.04,2.82,9.71,8.85-.29,5.23-4.13,7.77-9.13,7.4-9.49-.72-9.21-15.08-.58-16.25ZM271.23,269.87c-4.56.77-4.77,8.24-3.27,11.53,1,2.2,3.04,2.87,5.34,2.56,5.57-.77,5.88-15.43-2.08-14.08Z"></path>
  <path class="st3" d="M191.86,268.8c5.95-.8,10.06,2.81,9.71,8.85-.3,5.22-4.13,7.77-9.13,7.4-9.43-.71-9.33-15.07-.58-16.25ZM192.49,269.87c-2.45.42-3.79,2.94-4.02,5.2-.44,4.4.47,9.66,6.09,8.88s5.86-15.43-2.08-14.08Z"></path>
  <path class="st6" d="M283.95,284.83v-15.87c.89.41,1.89.23,2.79,0v2.36c3-4,9.87-3.61,10.49,2.06.4,3.71-.59,7.51-.08,11.23l-2.42.17-.47-.29c.39-1.66.16-3.44.19-5.14.05-2.24.58-4.66-.38-6.89-1.32-3.09-6.06-2.35-7.06.74-.66,2.05-.3,7.77-.29,10.24,0,.52.51,1.33-.26,1.34s-1.63-.43-2.52.04Z"></path>
  <path class="st10" d="M166.16,193.48v-15.65c1,.25,1.79.25,2.79,0l.11,2.36c2.94-4.22,9.92-3.53,10.41,2.24.32,3.69-.51,7.39,0,11.05h-2.79c-.34-3.63.83-7.85-.09-11.38-1.15-4.4-7.25-3.63-7.64,1.61-.23,3.08.03,6.69.22,9.77h-3Z"></path>
  <path class="st4" d="M108.45,193.48h-3c0-.48.21-.9.22-1.38.08-2.24.33-9.24-.47-10.91-1.31-2.73-5.29-2.38-6.65.14-1.23,2.26-.67,5.12-.6,7.54.05,1.54-.19,3.12.21,4.62h-3v-15.65c1,.25,1.79.25,2.79,0l.11,2.36c1.77-3.13,7.16-3.66,9.33-.75,2.47,3.31,0,10.14,1.07,14.05Z"></path>
  <path class="st2" d="M242.17,283.49l1.44.05-.03.83c-1.58.52-3.84.72-4.37-1.26-2.16,1.46-3.8,2.4-6.55,1.84-2.58-.52-3.65-3.42-2.72-5.75,1.41-3.53,8.37-2.56,9.06-4.02.31-.66.1-2.14-.15-2.85-.94-2.6-4.27-2.6-6.25-1.19-.69.49-.8,1.35-1.64,1.25,0-.93-.23-1.49.53-2.15,1.43-1.23,3.97-1.68,5.8-1.51,7.49.69,2.98,10.36,4.88,14.75ZM239.11,276.68c-1.65.4-3.76.4-5.22,1.32-3.35,2.12-.73,7.52,3.44,5.16.28-.16,1.78-1.53,1.78-1.65v-4.83Z"></path>
  <path class="st3" d="M168.51,271.95h-.6c-1.21-3.74-6.99-1.55-5.15,2.02,1.26,2.45,8.01.98,7.48,6.46-.46,4.84-6.76,5.57-10.3,3.74l.64-2.56c.73-.15.9.67,1.5,1.18,1.57,1.33,4.53,1.55,5.47-.54,2.23-4.91-6.75-3.27-7.39-7.41-.87-5.6,4.81-7.63,8.98-5.1l-.64,2.2Z"></path>
  <path class="st3" d="M181.39,271.96c-.82.21-.73-.57-1.2-1.05-1.7-1.74-4.96-.86-4.94,1.76.02,3.44,5.38,2.48,7.09,4.88,2.06,2.88-.47,6.9-3.68,7.44-1.23.21-4.66.07-5.64-.7-.54-.42.45-2.02.43-2.68,1.02.37,1.45,1.59,2.63,1.98,1.54.51,3.59.25,4.32-1.36,1.72-3.84-3.58-3.82-5.6-5.08-3.38-2.12-2.01-7.37,1.69-8.26,1.75-.42,4.09-.25,5.53.84l-.64,2.23Z"></path>
  <path class="st3" d="M216.58,272.39c-2.21-3.92-7.68-3.22-9.12,1.08-2.59,7.73,3.48,13.76,10.18,7.93.74,2.41-2.77,3.5-4.6,3.65-11.84,1-11.9-15.38-1.94-16.3,1.23-.11,5.84.06,6.44,1.28.26.52-.49,2.71-.97,2.36Z"></path>
  <path class="st2" d="M250.05,270.89c-.16,3.12-.46,6.65-.22,9.77.2,2.73,1.23,3.87,4.08,3.1v.95c-2.7.75-6.21.68-6.63-2.8s.56-7.47.19-11.02h-2.15s0-1.38,0-1.38l2.15-.12-.18-3.61c.8-.23,1.86-.99,2.65-1.11.44-.07.28.04.32.32.21,1.47-.34,2.94-.22,4.4h3.43v1.5h-3.43Z"></path>
  <path class="st2" d="M119.61,178.25v1.5c-.18.18-2.9-.65-3.34-.01-.25,3.08-.58,6.69-.32,9.78.22,2.58,1.36,3.94,4.08,3.1l-.2.97c-2.01.54-4.97.66-5.99-1.53-.93-1.99-.26-4.19-.23-6.19.03-2.11-.04-4.23,0-6.34l-2.15.21v-1.5s2.15,0,2.15,0l-.12-3.66,2.91-1.06-.21,4.72h3.43Z"></path>
  <path class="st2" d="M259.92,268.96v15.87c-1.08-.17-1.92-.31-3,0v-15.87c1.01.31,1.99.31,3,0Z"></path>
  <path class="st3" d="M225.16,268.96v15.87c-1.04-.36-1.96-.21-3,0v-15.87c1.01.31,1.99.31,3,0Z"></path>
  <path class="st2" d="M222.95,261.72c3.28-.98,3.16,4.28.05,3.29-1.47-.47-1.33-2.91-.05-3.29Z"></path>
  <path class="st2" d="M257.19,264.61c-1.88-1.88,1.56-4.31,2.74-2.2,1.12,2-1.39,3.55-2.74,2.2Z"></path>
</svg>
