<?xml version="1.0" encoding="UTF-8"?>
<svg xmlns="http://www.w3.org/2000/svg" id="Layer_1" width="6.1in" height="6in" version="1.1" viewBox="0 0 437 432">
  <defs>
    <style>
      .st0 {
        fill: #5f041d;
      }
    </style>
  </defs>
  <path class="st0" d="M185.3,357c-2.4-1.1-5.6-2.1-9.4-3.2-2.7-.7-4.9-1.4-6.4-2-1.4-.5-2.5-1.3-3.3-2.2-.7-.7-1.1-1.7-1.1-2.9,0-2,.6-3.4,1.8-4.4,1.3-1.1,3.1-1.6,5.3-1.6s4.4.6,5.8,1.8c1.4,1.1,2.1,2.4,2.2,3.9v1.7h14.2l-.2-2c-.4-5.3-2.6-9.5-6.5-12.6-3.8-3-8.7-4.5-14.6-4.5s-7.8.7-10.9,2.1c-3.2,1.4-5.8,3.5-7.6,6.3-1.8,2.7-2.7,6-2.7,9.6s.9,7.1,2.8,9.6c1.8,2.4,4,4.1,6.6,5.2,2.4,1,5.5,2.1,9.2,3.1,2.8.7,5.1,1.4,6.6,2,1.4.5,2.5,1.3,3.4,2.3.8.8,1.2,1.9,1.2,3.3s-.7,3.3-2,4.5c-1.4,1.2-3.5,1.8-6.2,1.8s-4.6-.6-5.9-1.8c-1.4-1.2-2.1-2.8-2.3-4.8l-.2-1.7h-13.5v1.9c0,3.6,1,6.9,2.9,9.6,1.9,2.7,4.6,4.8,7.9,6.3,3.2,1.4,6.9,2.1,11,2.1s8.1-.9,11.3-2.5c3.2-1.7,5.8-4,7.5-6.8,1.7-2.8,2.6-5.9,2.6-9.1s-1-7.2-2.9-9.7c-1.8-2.4-4.1-4.2-6.7-5.3Z"></path>
  <path class="st0" d="M235.5,345.2c-1.1-.8-2.2-1.6-3.5-2.2-2.9-1.5-6.3-2.3-10.1-2.3s-8.1,1.1-11.6,3.1c-3.5,2.1-6.3,5-8.3,8.8-2,3.7-3,8-3,12.8s1,9.1,3,12.9c2,3.8,4.8,6.8,8.3,9,3.5,2.1,7.4,3.2,11.5,3.2s7.1-.8,10.1-2.3c1.3-.7,2.5-1.5,3.6-2.3v3.9h13.1v-48.4h-13.1v3.8ZM233.8,372.8c-1.1,2-2.5,3.5-4.3,4.5-1.8,1-3.6,1.5-5.7,1.5s-3.8-.5-5.6-1.6c-1.8-1-3.2-2.5-4.3-4.6-1.1-2-1.7-4.4-1.7-7.2s.6-5.1,1.7-7c1.1-2,2.5-3.4,4.3-4.4,1.8-1,3.6-1.5,5.7-1.5s3.9.5,5.7,1.5c1.8,1,3.2,2.5,4.3,4.5,1.1,2,1.7,4.4,1.7,7.1s-.6,5.1-1.7,7.1Z"></path>
  <path class="st0" d="M291.7,343.1c-3-1.6-6.5-2.4-10.3-2.4s-5.7.6-8.3,1.7c-1.1.5-2.2,1.1-3.1,1.7v-2.7h-13v48.4h13v-26.9c0-3.5.8-6.1,2.5-7.9,1.7-1.8,3.9-2.6,6.8-2.6s5.2.9,6.8,2.6c1.6,1.8,2.5,4.4,2.5,7.9v26.9h13v-28.2c0-4.4-.9-8.1-2.6-11.3-1.7-3.2-4.2-5.6-7.3-7.2Z"></path>
  <path class="st0" d="M324.1,330.3h-13.1v11.1h-5.3v11.3h5.3v22.8c0,4.9,1.3,8.6,4,10.9,2.6,2.2,6.2,3.4,10.8,3.4h9.2v-11.5h-7.6c-1.9,0-2.5-.4-2.7-.6-.4-.3-.6-1.1-.6-2.2v-22.8h10.9v-11.3h-10.9v-11.1Z"></path>
  <path class="st0" d="M373.1,345.2c-1.1-.8-2.2-1.6-3.5-2.2-2.9-1.5-6.3-2.3-10.1-2.3s-8.1,1.1-11.6,3.1c-3.5,2.1-6.3,5-8.3,8.8-2,3.7-3,8-3,12.8s1,9.1,3,12.9c2,3.8,4.8,6.9,8.3,9,3.5,2.1,7.4,3.2,11.5,3.2s7.1-.8,10.1-2.3c1.3-.7,2.5-1.5,3.6-2.3v3.9h13.1v-48.4h-13.1v3.8ZM371.5,372.8c-1.1,2-2.5,3.5-4.3,4.5-1.8,1-3.6,1.5-5.7,1.5s-3.8-.5-5.6-1.6c-1.8-1-3.2-2.5-4.3-4.6-1.1-2-1.7-4.4-1.7-7.2s.6-5.1,1.7-7c1.1-2,2.5-3.4,4.3-4.4,1.8-1,3.6-1.5,5.7-1.5s3.9.5,5.7,1.5c1.8,1,3.2,2.5,4.3,4.5,1.1,2,1.7,4.4,1.7,7.1s-.6,5.1-1.7,7.1Z"></path>
  <path class="st0" d="M168.3,312.9c1.5-3.3,2-6.8,1.7-10.4-.4-4.5-1.8-8-4.1-10.7-2.2-2.5-4.7-4.3-7.5-5.3-2.5-.9-5.6-1.7-9.3-2.5-2.5-.5-4.5-.9-5.9-1.4-1.1-.4-2-.9-2.7-1.6-.6-.6-.9-1.4-1-2.5-.2-1.9.1-3.3,1-4.3.9-1.1,2.2-1.8,3.9-2.1.5,0,1-.1,1.5-.1,1.3,0,2.3.3,3.2.9,1.3.9,2,2,2.2,3.5l.4,2.5,15.2-2.2-.5-2.7c-1-5.7-3.6-10-7.7-12.8,3.8-.8,7.9-2.2,11.9-3.9l-.7.4,3.8,37.5c.6,5.8,2.1,10.8,4.4,14.8,2.4,4.2,5.6,7.4,9.4,9.5,3.9,2.2,8.2,3.3,12.8,3.3h.3c4.7,0,9-1.1,12.8-3.3,4.1-2.4,7.3-6,9.4-10.8,2.1-4.8,2.9-10.6,2.2-17.3l-5.1-55.1c2.7-.9,5.4-1.8,8.2-2.7l7.9,83.2,33,.4c5.7,0,10.8-1.1,15.1-3.3,4.7-2.4,8.3-5.8,10.6-10.1,2.4-4.4,3.3-9.3,2.8-14.7-.6-6.2-3.1-11.7-7.4-16.3-2.4-2.6-5.1-4.5-8-5.8,2.2-1.8,4.1-4,5.6-6.4,2.8-4.5,3.9-9.8,3.3-15.9-.5-5.1-2.2-9.5-5.2-13.1-2.9-3.6-6.9-6.1-11.9-7.4-2.3-.6-4.8-.9-7.3-.9s-5.6.3-8.6,1l-1.2.3c22-6.7,44.2-12.9,66.4-19.5,8.2-2.4,47.7-23,50.5-29.2,4-8.9-6.4-40.7-14-47.5-3.8-3.4-13.1-4.4-16.4-9-3.4-4.7-1.6-11.5-4.9-16.8-1.5-2.4-36.6-37.8-39.6-40.1-26.7-20.1-73.1-30.9-106-26.3-36.3,5-97.6,73.8-113.7,105.9-15.8,31.4-17.9,68.4-10.9,102.4-16.5,11.3-28.4,3.7-26.5,29.4,2.2,29.3,43.7,47.6,70.1,47-4.5-27.6,42.3-91.2-12.1-86.9-1.9-12.9,2.8-32.5,18.6-33.4,9.1-.5,1,8.7,2.3,16,.4,2.4,16.9,35.7,19,39,.8,1.3,1.8,2.4,2.8,3.2-3.4.8-6.4,2.1-8.9,4-2.7,2-4.7,4.6-6,7.7-1.2,3-1.7,6.4-1.3,10,.4,4,1.5,7.2,3.4,9.5,1.8,2.3,4,4,6.5,5,2.2.9,5,1.7,8.6,2.4,2.6.5,4.7,1.1,6.1,1.6,1.2.4,2.3,1.1,3.2,2,.8.8,1.2,1.8,1.3,3.2.2,1.9-.2,3.3-1.3,4.5-1,1.2-2.6,1.7-4.8,1.8-.1,0-.3,0-.4,0-1.9,0-3.3-.5-4.4-1.5-1.2-1.1-2-2.6-2.3-4.5l-.4-2.3-13.4.8.3,2.7c.4,3.7,1.5,6.9,3.5,9.6,2,2.8,4.5,4.9,7.6,6.4,3.1,1.4,6.5,2.2,10.2,2.2h.3c4.2,0,7.9-1.1,10.9-3,3.2-2,5.5-4.7,7-8ZM277.3,288.8c.3,3.5-.4,6.1-2.3,8.1-2,2-4.9,3-8.8,3.1l-14.7.3-2-20.7,13.9-1.3c.6,0,1.2,0,1.8,0,3.1,0,5.7.8,7.9,2.4,2.5,1.9,3.9,4.6,4.3,8.3ZM259.1,241.6c1.2-.2,2.3-.3,3.4-.3,2.1,0,3.9.5,5.3,1.4,2.1,1.4,3.2,3.6,3.5,6.8.3,3.3-.4,5.9-2.2,7.9-1.9,2-4.7,3.3-8.4,3.7l-12.8,1.6-1.8-18.6,13-2.5ZM209.1,292.9c.5,4.9-.2,8.6-2,11-1.7,2.2-4.2,3.3-7.7,3.4h-.3c-3.2,0-5.7-1-7.6-3-2-2.1-3.3-5.5-3.7-10.1l-4-43.2c5.7-2.9,10.8-5.6,14.5-7,2-.7,4-1.5,6-2.2l4.9,51.1ZM104.8,194.1c-15.9,6.7-17.4,55.4-24.2,71.1,47-34.6,19.7,23.5,24.1,48.3-21.9.4-57.1-20.2-55.7-44.7,1.1-19.7,21-3,24-12.5,1.4-4.4-2.7-37.8-2.2-48,1.9-34.7,13.2-67.3,38.7-91.6,17.5-16.6,37.5-31.4,59.5-41.5,23.4-10.7,46.4-13.6,71-5.1,2.4.8,4.7,1.7,7.1,2.7,7.8,3.2,15.4,7.2,21.3,13.1,6.5,6.4,10.7,14.6,14.3,22.8,2.4,5.6,8.4,15,6.8,21.3-1.8,7.4-15.8,16.1-23.2,13.1-7.5-3.1-16.9-8.2-23.3-12.8-5.4.4-7.6,3.4-9.4.8-1.7-2.4-12.3-7.4-15.5-7.8-3-.3-5.7,1-8.8.5-6.9-1.1-27.9-10.4-33.6-8-1.9.8-5.4,8.3-5.4,8.3,0,0,6.6,22.3,5.2,27.8-1.7,6.2-12.8,9.1-14.1,14.1-.9,3.2,1.4,5.4,1.3,7.7-.2,4.2,0,14.2-2.7,17.7-4.8,6.5-20.1,3.5-26.6,2.4-9.4-1.6-19.5-3.9-28.7,0ZM134.1,220c-4.1-21.7,13.7-14.7,26.2-18.6,5.3-1.6,13-8.7,20-11.4,35.4-13.6,66.4-25.1,103.5-34.1,13.8-3.3,20.4-12.9,34.9,1.5,7.9,7.9,13.5,26.3,1.6,32.6-42.8,20-92.1,31.6-134.8,51-8.1,3.7-27.4,19.9-35,15.9-7-3.7-4.7-13.6-7.1-19.4-2.3-5.8-8.3-11.8-9.4-17.5Z"></path>
  <path class="st0" d="M395.2,284c-.8-8.4-3.8-15-9-19.7-4.8-4.4-10.4-7.4-16.7-9-5.8-1.5-13-2.8-21.6-3.8-6-.7-10.7-1.4-14.1-2.2-3-.7-5.5-1.8-7.5-3.4-1.6-1.3-2.5-3-2.7-5.5-.4-3.8.7-6.9,3.1-9.5,2.7-2.8,6.6-4.7,11.5-5.7,2.1-.4,4.1-.6,6-.6,3.1,0,5.8.6,8.1,1.8,3.6,1.8,5.6,4.2,6.2,7.4l.5,2.7,30-5-.6-2.9c-2.1-10.9-8.2-18.7-18.1-23-5.3-2.3-11.2-3.4-17.5-3.4s-9.7.6-14.9,1.8c-8.1,1.9-15.2,4.9-20.9,8.8-5.6,3.9-9.9,8.6-12.7,14-2.8,5.4-3.9,11.4-3.3,17.8.6,6.9,2.9,12.4,6.6,16.3,3.6,3.8,8,6.5,12.9,7.9,4.8,1.5,11,2.7,18.9,3.9,6.3.9,11.3,1.8,14.9,2.8,3.5.9,6.5,2.3,9,4.3,2.2,1.8,3.4,4.1,3.7,7.2.4,4-1,7.2-4.1,9.9-3.3,2.8-8.2,4.3-14.6,4.4h-.7c-5.6,0-9.9-1.2-13.1-3.6-3.1-2.4-5-5.5-5.7-9.3l-.4-2.4-23.6,1.3.3,3c.6,6.4,2.9,12,6.8,16.7,3.9,4.7,9.1,8.4,15.6,11,6.6,2.7,14.1,4.1,22.3,4.2.4,0,.7,0,1.1,0,8.8,0,16.6-1.6,23.2-4.6,7.3-3.4,12.9-8.1,16.5-13.9,3.8-6.1,5.4-12.6,4.8-19.4Z"></path>
  <path class="st0" d="M137.9,362.6c-1.3.2-2.4,1-3.4,1.7-1.5,1.5-3,1.9-4.6,3.1-1.8.6-5.1,2.5-6.7,2.7-.5.3-1.2.6-1.9.7-.1.2-1.9.6-2.3-.2,0-.5.2-1.2.3-1.4h.2c.4-1.2.6-1.5,1.3-2.1.9-1,2.1-2.1,3.2-3.1,2.6-2.1,2.6-3.8.6-6.1-.4-.4-.7-.5-1-.9,1.2-1,2.5-2.2,3.3-3.5,1.7-2.8,2.1-7.1-2.1-7.4-2.5.3-5.4,1.8-7.2,3.2-2.3,1.5-3.4,4.5-1.8,7.4,0,.3,0,.8.5,1.3-3,2-6.9,4.3-10.1,6.1-.5.4-1.6,1-3.2,1.7-1.3.3-2.9.7-4.2.9,3.7-4.6,7.6-12.8-1.2-13.6-2.3,0-3.5,0-4.7.8-3.1.3-6.7,2.5-9,4.3-2.1,2-3,2.2-5.2,5.2-1.4.5-2.2,1.6-3.8,2.2-.8.3-2,.6-2.5,1.2-1.8.2-3.4.9-5.6.9-1.3,0-1.5-.8-2.4-1.4.1-.2.3-.4.4-.5.2-.4.3-.6.7-.8,1.6-.9,2.8-2.5,4-4.3,1.7-2,4.3-3.2,6.1-5.7,1.3-1.9,3.3-2.5,4.2-4.6.2-.2.5-.5.8-.7.3-.6,1.3-1.8,2.1-2.5.7-.4,1-.7,1.3-1.2,1-.8,2.4-1.8,3-3.1.3-.4.3-.5.7-.8,0,0,.2-.2.2-.2.3-.4.8-.4,1.2-.7.2-.3.3-.4.6-.6.9-.6,2.1-1.9,3.1-2.3h0c.4-.2,1.5-.4,1.9-.4,2.4,0,2.2-4.2-.2-4.2-1,0-2.1.5-2.8.9-.6.2-1.2.2-2,.6-1.3.6-3.8,2.3-5,3.2-2.3,1-3.8,3.3-5.7,4.6-.8.5-.9.6-1.8,1.5-3,2.5-6.3,4.9-8.7,8.1.2.4-8.5,8.5-10.2,10.9-1.8,1.9-3.3,4-5.1,5.7-1.8,1.6-2.9,3.7-4.4,5.5-2.4,3-1.7,3.2-4.7,7.3-.9,1.3-1,2.6-1.6,3.8-.7,1.5-.8,5.3-.8,6.1,0,2,2,4.9,5.3,4.9,2.2,0,6.1-1.9,7.6-4.1.2-.4.4-.6.9-.9,3.1-2.3,7.2-8.4,8.3-11.4,1.3-2.1,2.4-6.3,2.1-8.8,2.8,0,5.1-1,7.4-1.5.9-.2,1.7-.6,2.1-.9.2,0,.5-.1.8-.3-.5,4.5,6.7,7.9,10.1,5.6,1,0,1.7-.6,2.6-.8,0,0,2.8-1,3.8-1.9.6-.5,1.2-.7,2-.7,1.8,0,4.5-.5,6.3-1.1.6-.2,1.3-.4,2.5-.7,2.5-.6,4.3-2,6.3-3,1.5-.7,3.2-1.9,4.5-2.7,1.1-.4,1.4-.7,2-1.1h0c.9-.5,2.1-1.2,3.1-1.9.2.1.4.2.6.3-2,1.4-5,2.6-6.4,4.7,0,0,0,.2,0,.2-3,1.5-2.9,7,.2,8,2.9,1.4,7.1,1.6,10.2,0,4.7-1.5,9.3-4.2,13.4-6.9.6-.4.9-.5,1.4-.8,1.6-.6,1.6-3.5-.8-3.4ZM122.5,352.9s0,0,0,0h0s0,0,0,0ZM121.1,351.3c1-1.8,2.4-1,1.4.8-1,1.8-2.4,1-1.4-.8ZM61.3,374.2v.2c0,.7,0,1-.3,1.4,0,2.5-3.4,7.1-4.9,9.6-.6.4-.9,1-1.2,1.7h0c-.3.3-.8.8-1.2,1-1.3,1.2-2.4,2.8-3.8,3.7-.5.2-1.6.7-2.1.7,0,0-.3,0-.3-.6,0-.9.3-2.3.5-3.2.5-.6.7-1.2.8-1.8.4-.9,1.1-1.1,1.5-2.2.7-.9,1.8-3,2.9-4.3,1.2-1.2,1.7-2.8,2.8-4.1.6-.6.9-1.3,1.5-2.1,1-1.1,1.4-2.7,2.5-3.5.5.2,1.3.6,1.7.9,0,.9-.2,1.9-.4,2.3ZM97.6,357.3c-.1,1,0,3-.6,3.6-.6,1.1-2.1,3.7-3,4.5-1.7-.6-5.8,1.5-5,3.9-1.2.8-1.7.9-1.6.9-.9,0-1.8.7-2.5.9-.2,0-.7-.4-.9-.6-.7-1.1.5-3.8,1.7-5,.9-1.1,1.4-2.1,2.5-2.9.5-.6.8-1.3,1.5-1.7,2.1-1.6,5.1-4.2,7.5-3.9,0,0,.2,0,.3.2h0c0,.1,0,.2,0,.2,0,0,0,0,0,0Z"></path>
</svg>
