<?xml version="1.0" encoding="UTF-8"?>
<svg xmlns="http://www.w3.org/2000/svg" xmlns:xlink="http://www.w3.org/1999/xlink" id="Layer_1" width="5in" height="5in" version="1.1" viewBox="0 0 360 360">
  <defs>
    <style>
      .st0 {
        fill: url(#linear-gradient);
      }
    </style>
    <linearGradient id="linear-gradient" x1="85.3" y1="165.8" x2="281.4" y2="165.8" gradientUnits="userSpaceOnUse">
      <stop offset="0" stop-color="#652e8a"></stop>
      <stop offset=".4" stop-color="#c4b0d6"></stop>
      <stop offset=".5" stop-color="#d2c2df"></stop>
      <stop offset=".6" stop-color="#c0a8d0"></stop>
      <stop offset="1" stop-color="#692f8e"></stop>
    </linearGradient>
  </defs>
  <g>
    <path d="M13,158.1c.9-2.2,3.1-1,4.8-1.5,2.8,0,3.3.4,3.5,3.1.5,7.2.2,15.1.3,22.3s-.2,6.9-.2,10.4.1,8.6.2,12.9c2.6-1.3,4.4-3.5,6.8-5,5.1-3.3,7.7-3.1,13.4-3.8s6.2-1.7,11.5-.5,12.8,4.9,17.5,5,6.4-1.5,8.4-2,4-.3,6-1.3,1.7-1.3,2.7-1.6,2.5-.3,2.9-.5c.7-.3.6-2,1-2.8s1-.9,1-.9c1.2-.3,2.7,1.2,3.8,1.6s1.2-1,1.8-1.9,1.3-1.2,1.6-1.6c.9-1,3.3-5.3,4.7-5.3s1.1.7,1.2.7c.6.1.4-.3.7-.7,1.1-1.3,1.8-1,2.8-1.7s.3-.7,1.1-.8c1.6-.2,1.5,1.3,2.2,2.2,1.2,1.7,4.4.9,5.2,1.8s0,1.2,1.4.9l-.2.3c1.1,0,.8,2.1,1.8.2.3,0,1.6,2.3,2.1,2.6s3.1.5,3.6.4.6-.6.9-.6c1-.1,2.1,1,2.4,1.9s.2,2,.6,1.5c1-1.8,1.8-3.8,2.8-5.6s.6-1.1.9-1.4c.7-.6,4.3-1.6,5.2-1.7s1.1,0,1.6,0c.7-.9.8-1.9,1.3-2.9,1-2.1.9-1.6,1.5-4s2.1-8.4,3.3-9.3.9-.3,1.4-.7c.8-.6,1.2-1.8,2.3-2.1,1.6-.4,2.3.3,3.7.6s2,.1,3.4.8c2.1,1,3.1,2.8,4.8,4s1.8.9,2.5,1.5,1.6,1.8,2.5,2.7c1.3,1.3,2.1,2.8,3.4,3.9s2.8,1.7,3.4,3.4.1,1.2.4,1.8.7.7,1,1,2.8,5.5,2.9,5.9c.3,1-.1,1.9,1.4,2.1-.2-2.1,2.2-2.1,3.5-1.2s2.1,1.8,2.1,1.9c.7.9-.1,1.7,1.5,2.8,2.8,1.7,9,3.8,12.2,4,5.6.3,9.9-3.8,14.6-5.8s2-.4,3-1.5,1.2-2.1,1.4-2.1.4.6.8.5c.6-1.1,1.3-1.2,1.9,0,.7-2,1.5-4.1,2.5-6s1.1-1.3,1.9-2.2.2-1.1,1.2-1,.7.3,1,.3c1.1.2,1.9-.7,2.7-1.3s0-.4.2-.5c.4-.4,1.6-.8,2.2-.8,2.8-.2,7,1,9,2.9s1.1,1.3,1.7,1.9,2,1.3,2.5,2.4.2,1.3.5,1.7.9.5,1.3.7.8.8,1.3.7l-.2.3c2,0,3.4,4.5,5,4.8s1.3-.1,1.8,0,.9,1.4,1.2,1.6c.7.3,3.9.9,4.6.9s1.8-.3,2.5-.3c1.8,0,6.6,2.8,8.7,3.5s6.3,2.2,8.1,2c3.6-.3,4.8-2.5,7.7-3.8s4.8-1.1,6.4-2.8.9-1,2-1.9c1.7-1.4,2-3.3,3.3-4.8s1.8-1.7,2.6-1.6,2.4.9,3,.9,1.3-1.3,2.6-.5.6,1,1.3.9c-.2-1.6,1.1-1.4,1.9-2.1s.8-1.9,2.5-2.8,2.5-1.1,4.1-.2c4.1,2.2,7.6,5.6,11.2,8.5s1.7,1,2.3,1.6,1.6,2.5,2.1,2.8c.8.5,3.1-.5,4.2.5,0-2.9.4-5.9.2-8.8s-.4-2.5-.3-4.4c0-7.8.2-15.6.5-23.3,0-1.3-.4-3.8.6-4.7s4.5,0,6.2-.3l1.3,1.2v8c-.3.2-.2.6-.2.9,0,2.4-.1,4.9-.2,7.3,0,4,.3,9-.2,12.9s-.6,1.9-.7,2.9c-.4,3.9,0,8.4-.2,12.4s-.3,1.7-.2,2.6l1.4-.2-.2,14.4-.3,2.6-1.2-.2-.3,7.9c-.1.1-.2.2-.4.3-.5.2-4.2.2-5,.1s-1.4-.3-1.5-.7v-10.6c-1.7,1.2-.3,3.7-.3,5.4-.7-.5-.8-.3-1.4.2-.5-1.6,0-5.5-2.6-5.1s-1.6,1.4-1.5,2.6.9,2.7,0,3.5c-1.4-.6-.8-2.3-1.4-3.4l-1.1.2c0,1.2.9,2.6,0,3.6-1.3-.3-1.2-2.1-1.3-3.2h-.9c-.2,1.2.8,2.6,0,3.6-1.1,0-1.2-2.4-1.3-3.2h-1.2c-.4.4,1.2,3.6-.4,3.6-1.4-.4,0-5.6-2.9-5.3s-.8,4.2-.8,5.6c-.7-.5-.8-.3-1.4.2-.5-1.8.2-5.7-2.8-5.1s-1.3,1.4-1.3,2.3.6,2.6.5,3-.5.4-.5.8c-1.3-.6-1.1-2.2-1.2-3.4h-1.2c-.2.8.7,3.2,0,3.6-1.1.7-1.4-2.6-1.3-3.2h-.9c-.2,1.2.7,2.5,0,3.6-1.5-.2-1.1-2.1-1.3-3.2h-1.2c0,.9.7,2.7,0,3.4-.1.2-.2.2-.4,0-1.6-.4,0-5.4-2.8-5.2-2.4.2-1,4.2-.9,5.6l-.6-.5-.7.5c-.5-1.8.2-5.6-2.6-5.1s-1.3.8-1.4,1.3c-.2.9.9,4.5-.1,4.6s-.8-3-1.2-3.3h-1c-.2.8.8,3.5-.3,3.7-1.3-.5-.9-2.3-1.1-3.4l-.8.2c-.2,1.2.8,2.6-.3,3.5-1.3-.6-.9-2.2-1.1-3.4h-1.2c-.1,1.3.8,2.8-.3,3.7-.2-.3-.6-.4-.8-.6-.6-1.3.3-5.1-2.1-4.9s-1,4.2-1.1,5.6l-.6-.3-.7.5c-.3-1.6.2-5.5-2.4-5.3s-.5,5.2-1.6,5.9-1.1-3.2-1.4-3.3l-1,.2c-.2,1.3.5,2.4-.2,3.6l-1-.6-.2-2.8h-.9c-.2.6.7,3.7-.4,3.6s-.8-2.4-1-3.2h-1.1c-.2,1.3.6,2.4-.2,3.6-2.2-.6,0-5.4-2.8-5.5s-1.2,4.1-1.3,5.6l-.9-.5-.4.5c-.4-1.7.4-5.6-2.5-5.3s-.4,5.7-1.7,6-1.1-2.8-1.1-3.4h-1.2c-.1.8.7,3.4-.3,3.6-1.4-.5-.8-2.2-1.1-3.4h-.9c-.3.3.9,3.4-.4,3.6-1.2-.7-.7-2.2-1-3.4l-1.2.2c0,1.2.7,2.7-.3,3.6-2-.9.1-5.6-2.7-5.6s-1.2,4.2-1.3,5.6l-.7-.5-.6.5c-.3-1.8.5-5.5-2.3-5.3-2.4.2-1.3,3.7-1.3,5.2l-.5.7c-1.7-.5-.5-2.4-1.3-3.5l-.9.2c-.3,1.2.6,2.7-.4,3.6-.7-.5-.9-.7-.9-1.6s.4-2.4-.9-1.7c-.2,1.2.6,2.6-.4,3.5-.7-.5-.8-1-.9-1.8s.2-1.7-.3-1.8l-.9.2c-.3,1.2.7,2.7-.4,3.6l-.7-.5c-.4-1.4.4-5-1.8-5.1s-1.2,4-1.4,5.5l-.6-.5-.7.7c-.3-1.7.4-6.1-2.5-5.4-1.6.4-1.3,2.6-1.3,3.8s.5,1.4-.4,2.1c-1.2-.8-.9-2.3-.9-3.6l-1.2.3c-.2,1.3.6,2.3-.3,3.5-1.2-.6-.9-2.4-1-3.6h-.9c-.2.8.7,3.4-.4,3.6s-.9-2.8-.9-3.4h-1.2c-.2,1,.6,2.4,0,3.2s-1,.1-1.1-.3c-.5-1.5.6-5.2-2-5s-1,4.1-1.3,5.5l-.8-.5-.6.7c-.1-1.3.4-4.3-.9-5.2s-1.6-.5-2.3.1c-1.6,1.3.4,4.7-1,5.4s-1-2.9-1-3.5l-1.2.2c0,1.3.6,2.4-.3,3.6-1.3-.6-.8-2.4-1-3.6h-.9c-.2.9.7,2.8-.3,3.4s-1-3.4-1.2-3.4l-1.1.2c0,1.3.7,2.5-.4,3.6-1.5-.6-.4-4.1-1.3-5.2s-1.5-.8-2.2-.1-.5.6-.5.7v4.3l-.7-.5-.6.7v-4c0,0-.4-.8-.4-.9-1-1.3-3-.5-3.3,1s.9,3.5-.6,4.1c-1.3-.7-.1-2.4-.9-3.4h-1.1c.2.6.4,3.6-.4,3.6-.1-.1-.8-.7-.8-.8v-2.6l-.6-.3-.4.3c.2.6.4,3.5-.6,3.3-.1,0-.6-.5-.6-.6v-2.7c0-.4-.9-.2-1.2,0v2.8s-.5.6-.7.6c-.9-.2-.6-2.6-.6-3.3-.1-1.3-.4-2.6-2.1-2.3s-1.1.9-1.1,1.2v4.2l-.6-.5-.7.5v-4.2c0,0-.5-.8-.6-.9-1-.9-2.8-.4-3,1s.4,4.1-.6,4.3c-.2,0-.7-.5-.7-.6v-2.8h-1.2v2.8s-.5.5-.6.6c-.2,0-.7-.5-.7-.6v-2.8h-.9v2.8s-.5.6-.7.6c-.1,0-.6-.5-.6-.6v-2.8h-1.2v2.8s-.5.6-.7.6c-1-.2-.5-3.4-.6-4.3s-1-1.5-1.7-1.4-1.3.9-1.3,1.2v4.3l-.8-.7-.6.5v-4c0-.4-.8-1.3-1.3-1.4-1.9-.4-2.3,1.1-2.4,2.6s.4,2.5-.6,3.1c-1.2-.7-.8-2.4-.6-3.6h-1.2c-.4.7.3,3.6-.7,3.4s-.7-.7-.8-.9c-.1-.7.2-2.1.2-2.4s-.6-.4-.8-.3c-.5.4.3,3.1-.8,3.6-.3-.3-.7-.5-.8-.9-.1-.7.2-2.1.2-2.4-.1-.4-.8-.3-1.2-.3-.4,1.2.3,2.8-.8,3.6-1.6-1.1-.2-3.2-.7-4.8s-1.8-1.4-2.6-.5-.4,3.6-.6,4.8l-.7-.5-.6.5c-.3-1.5.8-4-.5-5.1s-2.9,0-3.1,1.6.3,3.9-.8,3.7c0-.1-.6-.7-.6-.8v-2.8h-1.2v2.8s-.5.6-.7.6c-.1,0-.6-.5-.6-.6v-2.8l-.6-.2-.2.3c-.3,1,.6,2.8-.8,3.3,0-.1-.6-.7-.6-.8v-2.8h-1.2v3.1s-.7.3-.7.3c-1.2-.2-.3-3.7-.5-4.5s-.9-1.3-1.4-1.3c-2.1-.1-1.8,4.1-1.8,5.4l-.8-.7-.6.5c-.3-1.4.7-3.9-.4-5.1s-2.5-.6-3,.6.5,3.6-1,4.6c0,0-.6-.7-.6-.8v-2.8h-.9c0-.1-.2,0-.2,0v2.6c0,.3-.5.6-.8.7,0,0-.6-.5-.6-.6v-3h-.9v2.8s-.5.5-.6.6c-.2,0-.7-.5-.7-.6v-3h-1.2v2.8s-.5.5-.6.6c-2-.9.7-5.1-1.7-5.7s-1.8,4.9-2.3,5.2l-.7-.5-.6.5.3-4.3c-.4-1.6-2.6-1.9-3.4-.4s.2,3.6-1.1,4.7l-.8-.9.2-2.6c-2.2-.9-.4,2.6-1.9,3.4-1.3-.4-.2-3.2-.6-3.5s-.8-.3-.8,0c0,1.1.2,2.5-.8,3.3l-.7-.8v-2.8c.1,0-.9-.1-.9-.1-.5,1.1.3,2.7-.9,3.5-1.7-1.2.4-4.2-1-5.5s-1-.6-1.7-.2c-1.4.9-.8,3.6-1.2,5l-.7-.5-.6.5c0-1.5.9-4.2-.3-5.3s-1.4-.6-2.1-.2c-1.8,1-.5,4.8-1.8,5.3-.3,0-.7-.8-.8-.9,0-.4.4-2.4.2-2.6h-.9c-.5,0,0,3-1,3.4l-.8-.9.3-2.6-.8-.2c-.6.1,0,3.1-1,3.5-1.3-.5-.6-2.4-.5-3.5l-1.2-.2c-.4.2.2,3.7-1.1,3.4s-.3-2.8-.3-3.5-.1-2.5-1.4-2.5c-2.1,0-1.6,3.9-2,5.3l-.7-.5-.6.5c0-1.6,1.3-5.8-1.5-5.8s-1.7,3.5-2.1,4.8-.4.8-.9.4c-1.2-.8,1.1-3.9-1.3-3.4-.3.9.1,3.3-1.1,3.4-1-.9-.3-2.3-.3-3.6h-.8c-.3,1.1.1,2.6-.9,3.4-1.2-.8-.4-2.3-.4-3.5l-1.2-.3c-.2.7,0,3.5-1.1,3.4s-.5-.7-.5-.8c-.1-1,.5-2.8.4-3.9-.5-1-1.3-1.8-2.4-1s-.8,3.6-1.1,4.9l-.6-.7-.8.5c0-1.5,1.1-4.1,0-5.2s-2.8-.2-3.1,1.3,0,4.5-1.3,3.4,0-2.4,0-3.4h-1.2c-.1,1.2.1,2.6-.9,3.4-1.2-.9-.2-2.3-.4-3.3s-.8-.5-.9-.3c0,.7,0,3.3-.9,3.3s-.3-2.9-.4-3.5h-1c-.4.2,0,3.4-1.1,3.2s-.2-3.4-.3-4.3c0-1.4-1.4-2.2-2.5-1.1s-.8,3.4-.9,4.6c-.7-.1-.6-.8-1.4-.2-.2-1.4,1-4,0-5.1s-1.6-.7-2.3-.2c-1.3.8-.8,3.4-1.2,4.6s-.6.4-.7.6c-1.1-1-.3-2.4-.3-3.6l-1.2-.2c-.3,1.2,0,2.8-1.1,3.4-1.1-.9-.2-2.3-.2-3.3s-.8-.6-.9-.3c0,.6-.2,3.5-1.1,3.3-1.1-.9-.2-2.3-.3-3.6l-1.2-.2c-.2.2.1,3.4-1.2,3.4,0-.4-.5-.6-.5-.9,0-1.2,1-3.5.2-4.6s-1.5-.7-2.1-.1-.8,3.6-1.1,4.8l-.6-.7-.8.5c0-1.6,1.6-5.5-.9-5.8s-2.1,3-2.6,4.6-.5.9-1,.5c-.7-.7,0-2.5,0-3.4l-1.2-.2c-.2,4.5-2.4,4.4-1.4-.2l-.8-.2c-.2.7-.1,3.5-1.1,3.4-1.2-.8-.2-2.3-.2-3.4l-1.2-.3c-.2,1.2,0,2.8-1.1,3.4-1.1-1-.1-2.8,0-4.2s-.2-1.5-1.1-2v11.2c-.4.7-4.9.6-5.8.5s-1.2-.2-1.3-.9c-.2-1.6.1-3.8,0-5.5s-.3-1.3-.2-2l-1.2.2c-.6-5.7-.2-11.4-.5-17l1.4.2c0-1.5,0-3,0-4.5-.1-4.5-.3-8.5-.8-12.9s0-5.9-.2-8.8c-.1-5-.3-10.1-.3-15.1s.1-.8-.2-.9v-4.6ZM129,215.8c1.2.1,2.6,0,3.8,0-.4,1.2-1,2.2-1.5,3.3s-1.7,3.5-1.8,3.8c-.2.7.2,1.4-.4,2.2,0,.6.9.7,1.3.6,1.3-.2,0-1.1,0-1.8s.6-1.3.7-1.7c.5-1.1,2-3.4,2.8-4.4s1.1-1,1.5-1.5c.5,1.2.5,2.5.8,3.8s.3.6.4.9c.2.7.2,2.2.5,2.8s.6.4.9.7c.7.7.4,1.4,1.9.9.2-1-1-1.2-1.4-1.7s-.8-2-.8-2.7c-.1-1.2-.3-2.5-.4-3.7-.1-2.1.2-1.5,1.1-2.9s.3-.9.6-1.4,3.1-3.2,3.4-3c.4.8,1.1,1.2,1.7,2s.2.7.3.9.7.3.9.6c.4.5.5,1.5,1,2.2s1.3,1.4,2,1.4l-1,1.4.9-.8c.1,0,.1.2,0,.3-.3.7-1.6,1.8-1.4,2.6.2-.1,1.2-1.8,1.4-1.5.2.7-.6,1.4-.7,1.8s.4.8-.2,1.2l.3.3v-.3c0,0,.3.5.3.5.9-.2,1.1-1,1.8-1.5l2-3.2c-.2,1.1-.3,2.2-.6,3.2s-.9,1.6-.6,2.5c-.9.4-1.2.7-1,1.7s1.3,0,1.7-.6c1.1-1.7.9-3.1,1.6-4.7s1.6-2.5,1.9-2.1c0,.5-.2,1-.1,1.6s.6,1.1.8,1.6c.3.7,1,3.5,1.2,3.9s.7.2.8.3,0,.9.5,1.1h1.5c.2-1-.8-1.2-1.3-1.8-1.2-1.3-1.7-4.3-1.6-6s.3-3,.9-3.4,1.3-.7,1.4-.7c.2,0,.7.5,1,.6,2,.8,3.8,1.3,6,1.2.7,1.4,2.4,3.3,2.3,5s-1.3,1.7-1.6,2.6c-1.4-.2-1.3,2.2,0,1.9s1.1-1.4,1.7-1.7c-.3.9.9,1.3,1,1.6s0,.6.1.9c.2.4,1.3.3,1.8.3.3-1.1-.7-1.4-1.1-2.1-1-1.6-.2-3.1,0-4.7s.4-3.1,1.1-4.8,1.3-1.9,1.4-2.7-.2-1-.1-1.5,1-1,1.3-1.3c.1.8,1.2,1,1.5,1.7s0,1.6.6,2.3.8.1,1,.3,1,1.9,1.7,2.5,1.9.9,2,1c.3.4,1,3.5.6,4.1,1.1-.3,1-1.8,1.2-2.6s.3-.1.3-.2c.1-.5,0-1.1.4-1.6l.5.2.4-.5c.1.6-.6.8-.8,1-.4.6-.3,2.3-.5,3.1s-.6,2.1-.7,2.6.3.6.3.8-.3.8-.2,1.2c0,.4,1.6.3,1.9.3,0-.6-.6-1-.7-1.6-.5-3.3,2.1-6,3.7-8.6.4,1.3-1,2.1-.7,3.4s2.3,3.4,2.3,5h.7c0,0,0,1.3,0,1.3l1.8.2c0-.7-.8-1.1-1.2-1.8s-1.1-2.1-1.4-2.7-.4-1-.5-1.6c.9-1.5,1.1-4.1,2.1-5.4s.1-.3.4-.2c.7,0,2.3,1.1,3.1,1.3s1.7.5,2,.5h3.1s.1-.2.3-.2c.3,1,.2,2,.2,3,0,1.7-.4,4-.3,5.6s.5.5.6.8,0,.7.2.9c.5.3,1.3,0,1.8,0,0-.8-1-1.2-1.2-2-.3-1.5.2-2.3.4-3.6s0-.9,0-1.3c.2-.7.6-1.4.6-2.2,1,.7,2.2,1,2.2,2.5s-.9,1.7-1.2,2.3,0,.6-.2.8-.4.1-.4.3c-.2.5.2,1.2.1,1.8h.5c.3-.8,1.1-1.7,1.4-2.4s0-.7.2-1c.3-.7.9-1.5.9-2.3s-1.4-2.7-1.8-3.7c1.5-1.8,1.5-4.3,4-5.4,0,1,.9,1.3,1.3,2s.2,1.5.3,2.3c.4,2,1.8,4,3.9,4.4l-.7,1.2,1-.7c0,.5-.2.9-.5,1.3.6.2.9-.8,1.4-1.1l-.5,2.6.7-.7v.3c0,0,.3-.1.3-.1,0,.5-.2,1,.3,1.4l.4-.7c.3.6-.3,1.3-.3,1.8s.3.6.4.9,0,1,.2,1.2h1.9c0-.6-.6-.9-.8-1.4-.6-1.3,1-4.5,1.9-5.6s1.9-1.1,3-1.5c.1.6-.2,1.1-.2,1.6,0,1.1,1.6,3.7,2.2,4.8.9,1.8.7,3,3.4,2.6.4-.4-1.3-1.7-1.5-2-.7-.9-1.7-2.9-1.9-4.1s-.2-3.9.3-4.4c1-.9,2.1.4,3.2.7,1.8.6,2.9.2,4.6.3s.4.3.8.3.7-.3,1.1-.2c.1.1-.9,2.9-1,3.4s0,.9,0,1.3c-.1.6-.6,1.7-.6,2.3s.5.9.6,1.3-.2.5,0,.9c.3.7,1.4.5,2,.5.1-.9-1-1.6-1.2-2.2-.3-1.1,1.3-4.7,2-5.8s.4-.8.6-.7c1.5,1.6,3,2.3,3,4.7s-1.1,3.6,1.2,4.2c.2-2.3,0-4.4-.2-6.7l-2.2-3.8c1.8-.7,1.4-2.7,2-3.8s1.8-1.8,2.3-2.7c.4-.2,2.5,1.1,3.1,1.3s1,.4,1.1.5c.9.3,1.7.6,2.2-.5s-1-2.8-1.5-3.8-1.2-2.4-.1-3.6l-.4-.4c-.3.3-.8.8-1.2.8-1.4.3-2.3-.1-3.4-.3-2.4-.3-3.6,2.4-5.6,2.5s-1.3-1.4-2.5-1.5l.2-.5c-.3,0-.7.2-1,0s-1.8-1.8-1.8-2,.2-.4.3-.6c.2-1.3-1.3-2.4-1-3.7l.8.2c.3-.8.6-1.2.4-2l1.5.2c.5-1.3-1.3-1.3-1.5-1.6s.2-1.1-.2-1.4c-.8-.2-2.2-.5-2.8,0s-.3,1.1-.4,1.2c-.2.1-2.1.2-1.6,1.1h.8s-.2,2.8-.2,2.8l.3.2c.5-.4.8-.9.9-1.6,1.2.7,0,2-.3,2.9-.6,1.7,0,3-.3,4.8l-.7-.2-.2,1.8c-.8.5-1.2,0-1.9,0-1.7,0-3.3.8-4.8,1s-2.5-.4-3.8,1.3-.8,2.9-1.1,4.5-1.2,2.9-1.8,4.2.3.7-.3.9c-1,.2-2.7-1.6-3.1-2.4s-.8-1.7-.2-1.6c.9.1,1.4.2,1.8-.8,0-.9-.1-2,0-2.9.3-2.2.6-1.6-.1-4s0-1.2-.5-1.6l-.4.5c-.3.2-.5-1.5-1.1-.7s0,.3,0,.5c-.7-.5-1.5-.5-2.3-.6-2.4-.2-4.8.6-7.1,1.1s-.9,1.3-1.7,1c0-2.2-2.5-1.8-3.8-2.3s-.6-.8-1.6-.8-1.2.9-1.5,1-.9-.3-1.6,0-1.1.8-1.2.9c-.4.5-.4,1.8-.7,2s-1.4.7-1.5.7c-.2,0-.4-.3-.8-.3-.6,0-1.4.5-1.8,1-.6.7-.6,1.8-1.5,1.6.7.9-.4,1.4-.6,2.2s-.5,1.2-.7,1.7-.2,2.9-.3,2.9c-1.1,0-3-2.2-3.1-3.2s.3-.8.3-1.3-.2-1.2-.2-1.9.8-2.7.8-3.4-.7-1.2-.6-1.7,1-1,.6-1.8l-1.4,1c-.4-.6-1.1-.4-1.7-.7s-.1-.3-.2-.3c-.3,0-.5.3-.8.3-2.2.4-4.6.8-6.8,1.1s-1.2.3-1.5.5.2.5-.3.4c.4-2.2-1.6-1.5-2.7-2s-.5-.8-1.1-1c-1.5,0-4.6-.8-5.4,1s0,.6,0,.9c-.1.5-.5,1.1-.5,1.7-1.7,1.1-3.2.9-4.4,2.6s-.8,3.7-1.5,5.6-.7,1.8-1.2,1.8c-1.1.1-2.8-2.3-2.9-3.2s.6-.6.7-.9c.4-.9-.2-1.7-.2-2.3s.4-1,.4-1.6-.8-1.5-.8-1.8.6-.5.5-.9c-.4,0-.6.3-.9.3s-.5-.4-.9-.5c-1.2-.3-3.6-.2-4.9,0s-1.9.8-2.6.8-.5-.4-.9-.3v.3c-.4,0-1.6-.6-2-1s-.4-1.4-.9-1.6-2.7-.3-3.4,0-1.1,1.2-2.3,1.3-1-.5-1.6-.6c-1.6-.3-2.8.1-2.6,2l-4.1,1.1c-2.7,1.6-1.8,4.7-2.9,7.1-.5,1.1-1.5,1.9-2.3,2.8.4.3.7-.5,1-.6.2.2-1.6,2.1-1.3,2.6l1.3-1.4c.3.7-.5,1.3-.6,1.7s.2.9,0,1.4l.4-.3v.5c.3.3,1.8-1.5,2-1.9,1.1-1.5,2.5-4.9,2.5-6.7s-.4-2.1-.2-3.1l.9,4.7c.2,1.2-1.6,3.4-1.7,4.1s.2.6.1,1c0,1.1-.7,3.5-.5,4.4s.5.4.6.6-.2.8.3,1.1c.3.2,1.7.2,1.7-.2-2.3-1.9-.9-5,.2-7.2.2-.1,2,2.1,2.3,2.4s1.3,2,1.3,2.1c0,.4-.8,1,.3,1.8s.8-1.9.7-2.4c-.3-1.7-2.5-2.3-1.9-4.3s2.3-3,2.5-3.1c1,.3,1.9.9,3,1ZM25.7,220.5v-.9c0,0-1-.3-1-.3l-.2,1,1.2.2ZM28,219.9l-.8.2v.7c0,0,.8.2.8.2v-1ZM30.5,221.2l-.2-.9h-1c0,0,0,.8,0,.8l1.2.2ZM330.7,220.5c-1.6-.3-1.7,1.4,0,.8v-.8ZM328.1,220.9l-.8.2v.8c0,0,.9,0,.9,0l-.2-.8ZM325.9,221.2l-1.2.2.2.8,1.2-.2-.2-.8ZM42.3,222.1l-1-.2-.2,1h1.2s0-.8,0-.8ZM44.5,222.4h-.9v.9h.9v-.9ZM47,222.8h-1c0,0-.2.8-.2.8h1.2s0-.8,0-.8ZM314,222.9l-1.2.2.2.8,1.2-.2-.2-.8ZM311.4,223.3l-.8.2.2.8.8-.2v-.9ZM309.4,224.4c.2-.9-.4-1-1.2-.6v.8s1.2-.2,1.2-.2ZM58.8,225.3c.2-1,0-1.1-1-1l-.2.8,1.2.2ZM61.2,224.6h-1s0,.9,0,.9h.8s.2-.9.2-.9ZM63.5,225l-1.2-.2v.9c0,0,1.2.2,1.2.2v-.8ZM297.5,226c.2-.9-.6-1.1-1.3-.7v.9c0,0,1.3-.2,1.3-.2ZM294.9,225.5h-.9v.9h.9v-.9ZM292.7,225.7l-1.2.2v.8s1.2,0,1.2,0v-1ZM75.5,226.3h-1.2v.9h1.2v-.9ZM77.7,226.5h-.8s-.2.8-.2.8h.9c0,0,.2-.8.2-.8ZM80.2,226.8l-1.2-.2c-.2,1,0,1.1,1,1l.2-.8ZM280.8,227.9l-.2-.8h-1c0,0,0,.9,0,.9l1.2-.2ZM277.4,228.2c1.2.2,1.2-1.4,0-.8v.8ZM276,227.5h-1.2s0,1,0,1l1.2-.2v-.9ZM92,228h-1c0,0-.2.8-.2.8h1.2s0-.8,0-.8ZM94.2,228.2h-.9v.9h.9v-.9ZM96.7,228.4h-1.2s0,.8,0,.8l1.2.2v-1ZM263.9,228.5l-1.2.2c0,.9.5,1.1,1.3.7v-.9ZM260.7,229.7c.2,0,.6,0,.8-.1v-.9c0,0-.9.2-.9.2,0,0,.1.8.2.8ZM259.1,229.1h-1.2s.2.8.2.8h1.2s-.2-.8-.2-.8ZM108.7,229.4h-1.2v.9h1.2v-.9ZM110.9,229.6h-.9v.9h.9v-.9ZM113.4,229.7h-1.2v.9h1.2v-.9ZM247.3,229.9h-1.2v.9h1.2v-.9ZM244.7,230.1h-.9v.9h.9v-.9ZM242.5,230.2h-1.2v.9h1.2v-.9ZM125.3,230.6l-1.2-.2v1s1.2,0,1.2,0v-.8ZM127.6,230.6h-.9c-.2,1.4,1,1.4.9,0ZM130.1,230.8h-1.2v.9h1.2v-.9ZM228,232l-.2-.9h-.9c0,0,.2.9.2.9h.8ZM230.4,231h-1.2s.2.8.2.8h1c.3-.2,0-.8,0-.8ZM225.8,231.9v-.8c-.1,0-1.2,0-1.2,0v1s1.2-.2,1.2-.2ZM142,232.3l-.2-.9h-1c0,0,0,.9,0,.9h1.2ZM144.2,231.4h-.9v.9h.9v-.9ZM146.8,232.5l-.2-.9h-1c0,0,0,.9,0,.9h1.2ZM211.2,231.6l-.8.2v.9c0,0,.8,0,.8,0v-1ZM213.7,231.6h-1.2v.9h1.2v-.9ZM208.9,231.8h-1.2v.9h1.2v-.9ZM158.7,232h-1.2v.9h1.2v-.9ZM160.9,232h-.9v.9h.9v-.9ZM163.5,232h-1.2v.9h1.2v-.9ZM196.9,232c-.7,0-1.5,0-1.1.9l1.1.2v-1ZM192.1,232.1h-1.2v.9h1.2v-.9ZM194.3,232.1h-.9v.9h.9v-.9Z"></path>
    <path d="M126.5,281.3c-4.1-.5-4.3-4.6-4.6-7.9l-.2-26.2c-.2-.9-1.4-.6-2-.9s-.4-.2-.2-.4l8.3.3c0,.4,0,.3-.3.3-.6,0-1.8,0-1.8.8.3,8.5-.4,17.4,0,25.9,0,1.2.2,2.8.5,4,.5,2.2,1.8,3.3,4.2,2.9s2.7-4.6,2.8-6.5c.5-8.4-.4-17.1,0-25.6-.2-1.4-1-.9-2-1.2s-.4,0-.4-.4c.8-.2,1.6.2,2.3.2,1.3,0,2.6.1,3.9.2s2.8-.2,3.9,0,.4,0,.6.3c.5.5,1.7,2.9,2.1,3.7.7,1.3,1.2,2.7,1.9,4.1l5.4,15.5v-22.4c0-.5-2.1-.7-2.6-.6-.5-.4.9-.4,1.1-.3,1.5,0,3,.3,4.5.2.3.2,0,.3-.3.3-.7,0-1.6-.2-2.1.4v33.3c-.9-.4-1.7-1.7-2.2-2.5-4.1-6.9-6-16.3-9.1-23.8l-.9-2v26.6c0,.8.9,1,1.5,1.1s1.4-.2,1.3.4c-2-.3-4.1,0-6.1,0,0-.4,0-.3.3-.3.8-.1,1.6,0,2.3-.4.5-.5.4-7.4.3-8.7-.9-6.9.5-14.8-.2-21.6s-.4-1.8-.8-2.2-4.1-1.4-4.1,0c-.4,8.7.5,17.8,0,26.4s-.7,6.8-4.3,7.2-2.5,0-3.2,0Z"></path>
    <path d="M13,237.4c.9,0,1.9,0,2.8.2,2.9.3,8.1.4,10,2.8s1.7,13.1-1.4,16.2l-1.8,1.3c2.6,1.7,3.9,3.9,4.7,6.9s1.7,12.7-1.9,15-8.6,1.1-11.4,1.1-.6,0-.9-.2v-.3l1.8-.3.4-1.8v-38.7c-.2-1.6-1-1.4-2.2-1.8v-.3ZM19.1,257.3c2.4,0,3.2-1.4,3.7-3.5s.5-5.5.4-8.1.3-6.8-2.8-6.9-1.2.3-1.2.8v17.8ZM19.1,258.3v21.2c0,0,.5.5.6.6,1.1.3,2.3-.1,2.9-1.1,1.8-2.7,1.2-12.3.7-15.6s-1.1-5.1-4.2-5.1Z"></path>
    <path d="M258.8,281.3c-2-.5-3.2-2.1-3.7-4.1-.8-3.4,0-11.5-2-14s-1-.9-1.8-.8v17.5c0,.8,1.5.5,2.1.7s.4,0,.3.4h-8.7c0-.4,0-.3.3-.3.6,0,1.8,0,2-.8,0-8.1,0-16.2,0-24.4,0-.4.2-.9.2-1.3,0-2.4,0-4.9-.2-7.3l-2-.6c.2-.3.4-.2.8-.3,2.8-.2,6.5-.5,9.2-.3s3.2.7,3.9,2.6c1.3,3.4,0,9.8-3,12.2s-1.9.8-2.6,1.3-.3.2-.3.5c4.3.3,5.2,5.5,5.6,9s.2,4.1.4,6.1.2,3.4,1.8,3.5c.5-.4-.4-.7-.4-1.3,0-1.1,1.3-1.6,1.5-.5s0,1.9-1,2.3h-2.2ZM251.3,261.4c3.5.1,4-5.3,4.1-7.9s.5-8.3-3.3-7.2-.8,1.1-.8,1.6v13.5Z"></path>
    <path d="M184.1,281.3c-4.9-1.1-3.9-7.1-4.3-11s-.4-7.4-3.4-7c.2,4.6-.2,9.4,0,14s.2,2.7.3,2.9c.4.6,1.4.3,2,.4s.3,0,.3.3h-8.7c.5-.7,1.6,0,2.1-.9v-31.1c-.1-1.9-.9-.9-2.1-1.5.2-.3.5-.2.8-.3,1.6-.1,3.2.1,4.8.2,3.7.1,8.3-.9,8.8,4.2s-1.1,10.2-6.1,11v.5c4.3.6,5.2,5.7,5.6,9.3s.1,3.8.4,5.6.4,3.2,1.8,2.8.3-.2.2-.3c-1.8-1,.7-2.8.9-.9s-.2,1.3-.8,1.8h-2.4ZM176.4,262.3c2.3.3,3.2-1.9,3.6-3.8s.9-8-.2-9.7-2.9-1.6-3.3-.4-.2,1.3-.2,1.3v12.5Z"></path>
    <path d="M57.1,281.3c-4.5-.2-6.4-4.3-7.4-8.1-1.8-6.9-2.2-23.1,1.8-29.1s5.2-3.3,8-2,1.8,1.7,2.8,1.3.5-.7.8-.8c.5-.2,0,.6,0,.6v10.4s-.3.3-.3.3c-.5-3.3-.3-11.9-5.4-11.6-3,.2-3.6,6.1-3.8,8.4-.7,6.2-1.1,21.8,1.3,27.3s1.7,2.8,3.7,2.6c2.9-.2,3.7-3.9,4.1-6.3s.2-3.5.6-4.7.1-.3.3-.3l-.2,11.7-1.6-1.9c-.6.6-1.2,1.2-2,1.6s-1.5.6-2,.6h-.7Z"></path>
    <path d="M262.4,281.3c.3-2.3.4-4.7.3-7.1s-.4-1.7,0-2.6c.3,0,.3.4.3.6.4,1.7.3,3.4.9,5.2,1.6,4.6,7.2,4.6,7.6-.6s-4.4-8.3-6.7-13.1c-2.6-5.6-4.5-21,5.7-18.9.5,0,1.5.6,1.8.5.5,0,.4-1.1.9-1v7.5c-.3,0-.3-.3-.4-.6-.5-1.7-.4-3.4-1.5-4.9-1.6-2.3-5.5-1.3-5.9,1.5-.9,6.3,4.9,9.7,7.3,14.8,1.9,3.9,2.5,11.1,1,15.1s-3.5,3.7-6.7,3.3-3.2-1.2-3.6-1.2-.6.9-.8,1.4h-.3Z"></path>
    <path d="M92.5,281.3c-5.7-.4-7.4-7-8-11.7-.9-6.6-1.9-29.4,10.4-25.1,1.5.5,2.4,2.3,3.8.5.5,0,0,.2,0,.3v9.9s-.3.3-.3.3c-.6-3.3-.3-10.8-5.2-10.7-2.5,0-3.2,3.1-3.6,5.1-.9,4.5-1,10.5-.9,15.1s.4,12.4,2.7,14.8,4.5.9,5.6-1,1.1-5.4,1.8-8,0-.5.3-.6l-.2,10.9-1.6-1.7c-.6.5-1.1,1.1-1.8,1.4s-1.5.5-2,.6-.8,0-1.2,0Z"></path>
    <path d="M182,104.1c2.1,0,4.4.2,6.6.3s.6,0,.8.3c-.4.2-2.2,0-2.4.5l3.4,11.1,4.1-10.5c0-1.2-1.4-.4-2-1,.4-.5,1.1,0,1.6,0,1.2,0,2.5-.2,3.7.2.2.2,0,.3-.3.3-1.3.2-1.6-.3-2.3,1.1l-6.4,15.9c-.3,0-.2-.1-.3-.3-.2-.4-.3-.9-.4-1.3-1.7-5.1-3.3-10.1-4.9-15.2-.5-1.1-.9-.9-2-1.1s-.6.2-.3-.3c.4,0,.8,0,1.2,0Z"></path>
    <path d="M147.6,108.6c10.8-1.4,13.2,16.8,2.8,18s-13.7-16.6-2.8-18ZM146.9,109.1c-.7.1-1.4.7-1.8,1.3-2.1,3.4.8,13.1,4.1,15.3s3.5.3,4-1.4c.9-3-1-9.9-2.6-12.6-.8-1.4-1.9-2.8-3.7-2.5Z"></path>
    <path d="M261.7,128.8c-.7,1-1.2,2.8-1.9,3.6s-.3.3-.7.3c2.2-3.7-1.2-6-4.3-7.4l-4.1,6.3c1.4.9,2.8,2.3,4.4,1.2s1.1-1.3,1.5-1.4.3,0,.3.3l-4.2,6.2c0-2,1.9-2.9-.2-4.6s-1.8-1.3-2.1-1.1l-4.6,7,1.4,1.1c1.8.9,3.5,2.8,5.7,1.7s1.9-2.1,2.3-1.7l-2.6,4.1-11.9-7.9v-.3c1.6.9,1.8,1.1,2.9-.3,2.8-3.8,5.1-8.2,7.8-12.1.4-1.3-.9-.9-1.1-1.9l11.4,7Z"></path>
    <path d="M120.2,123.8c-.8-.2-1.1-1.1-1.9-1.5-2.3-1.2-5.1.9-6.8,2.2l4,6.4c.8-.5,2.6-1.5,2.9-2.3s-.6-2.1-.6-3.2l.8,1c0,.8,3.5,5.5,3.3,5.7s-.4,0-.6-.2c-.6-.6-1.3-2-2.3-2.1s-2.6,1.2-3.4,1.7l4.5,7.2c.3,0,2.5-1.3,2.9-1.6,1.3-.9,2.7-1.7,2.6-3.6s-.7-1.7-.7-2.6c1.1,1.1,1.8,2.8,2.5,4.2l-12.4,7.3,1.4-1.4v-.5c0,0-8-13.4-8-13.4-.8-.7-1.4.6-2.1.3l11.2-7c.2,0,.3.1.4.2.3.3,1.7,2.3,2,2.8s.3.4.2.7Z"></path>
    <path d="M169.8,105.1c0-.3.3-.3.6-.3.9-.1,2-.2,2.9-.3s1.5-.3,2,0l-2.1.6v.4c0,0,1.8,16.6,1.8,16.6-.2.2-2-1.5-2.3-1.7-3.7-3.3-7.1-7.3-10.6-10.7l1.4,12.7c.3.7,1.6.4,2.2.4s.4,0,.5.3l-6,.6c1.6-1.1,2.7.2,2.6-2.4-.2-4.2-1.2-8.9-1.7-13.1-.7-1.9-1.7-1.2-3.2-1.4s-.5,0-.3-.3l5.8-.6,10.2,10.3-1.4-10.9h-2.4Z"></path>
    <path d="M106.6,132.7c-1.1,0-1.8-1.2-2.9-1.4-1.7-.4-3,.5-4.1,1.7l10.1,12.3c.7.5,1.5-.7,2.3-.7l-6.6,5.4,1.2-1.3.3-.9-10.1-12.4c-.2-.2-.3,0-.4,0-.7.5-2,2-2.1,2.8-.2,1.5,1,2.4,1.2,3.8-.3,0-.4-.2-.6-.4-.9-1-1.6-2.6-2.5-3.6l11-9.1,3.3,3.6Z"></path>
    <path d="M135,112.4c.4,1.6,1.8,2.9,2,4.4-1.9-1.7-2.2-3.5-5.2-2.6s-1.6.5-1.6.9l6.4,14.7c.1,0,.3,0,.4,0,.7,0,2.2-1.1,2,0l-7.8,3.2c-.4-.4,2-1,1.8-1.9l-6.3-14.8c-2.4.7-3.6,1.7-3.4,4.3s.6,1.4,0,2l-1.6-4.8,13.1-5.6Z"></path>
    <path d="M270.9,136.6c-.3.3-1.8-2.2-2.7-.6s-1.6,5.5-1.8,6.7-.1.6,0,.9c1.9-.8,3.8-1.5,5.6-2.4s2.9-1.1.9-2.9c.3,0,.5,0,.7.2.8.6,2.2,1.9,2.9,2.6s.4.3.3.6c-.2.2-1.7-1.3-2.3-1l-8.5,3.8-4.9,5.5c-.2.8,1.6,1.8,1.3,2.1l-6.5-5.5v-.3c.7.4,1.5,1.5,2.4,1.1l4.4-5c1.2-3.2,1.9-6.6,2.6-10,0-.9-1.1-1.2-1.4-1.9.3-.3,3,2.5,3.4,2.8.9.8,2,1.5,2.9,2.4s.9.8.7.9Z"></path>
    <path d="M241.8,117.5c-.6.2-1.4-.7-1.9-.2l-6.8,14.6c0,.2.1.3.3.4.8.6,4.1,1.9,5.1,1.9,1.7,0,2.4-1.7,3.5-2.7l-2,4.4-12.4-5.7v-.3c0,0,1.8.5,1.8.5l.8-.8c1.6-3.6,3.4-7.1,5-10.7s1.3-2.7,1.3-3.1c0-.9-1.1-.8-1.5-1.4.3,0,.5,0,.8.1,1.3.5,4.5,1.9,5.7,2.7s.5.2.5.4Z"></path>
    <path d="M226.1,111.4h-1.9c0,0-4.9,15.6-4.9,15.6,1.7.5,4,1.6,5.8,1.2s2-1.6,2.6-2.7,0-.4.4-.3l-1.5,4.8-13.3-4.4c.2-.6,1,0,1.5,0,1.1,0,1.1-.7,1.4-1.6,1.6-4.3,2.7-9,4.2-13.3.2-1.1-1-1.1-1.7-1.5.3-.4.3-.1.6,0,1.6.4,4.7,1.3,6.2,2s.5,0,.5.4Z"></path>
    <path d="M207.6,106.3l3.1,16.9c.4,1.5.6,1.3,1.9,1.7s.5-.1.4.4l-8.5-1.4c-.3-.2,0-.3.3-.3.6,0,1.9.5,2.1-.1l-.6-4.8c0-.2-.2-.2-.4-.3-.3-.1-4.2-.8-4.4-.7-.3,1-2.1,3.2-2.2,4.2s.8.9,1.5,1.1.5-.1.4.4l-5.1-.9,1.8-.2.6-.4c3-4.8,5.6-9.8,8.5-14.6,0-.2.5-1,.7-.7ZM205.2,111.6c-.3,0-.3,0-.5.3-.8,1-2.2,3.7-2.8,4.9s-.3.1,0,.3l4.3.8-1-6.3Z"></path>
    <path d="M303,281l-.2-.3c.3-.5,2.6.3,2.8-.9,0-11.7.3-23.3.2-35-.2,0-.2.3-.3.5-.1.5-.2,1.2-.3,1.7-1.8,9.7-2.2,19.8-3.8,29.5-.2,1.4-.4,3-1.1,4.2-.5,0-1.3-5.2-1.4-5.9-1.5-9.1-2.2-18.3-3.8-27.4s0-1-.3-1.1c0,8.3,0,16.6,0,25,0,.5-.2.9-.2,1.3,0,1.3-.2,6.5.2,7.3s2.5.4,2.5.9c-.5.5-1.3,0-1.9,0-1,0-3.2.3-3.9.2s-.3,0-.4-.3c0-.6,2.2.3,2.8-1v-30.9c.3-1.5,0-3,0-4.5-.5-.7-1.2-.5-1.9-.5s-.7.2-.6-.3c.2-.3.5-.2.8-.3,2-.2,3.9-.3,5.9-.3l3.7,26,3.8-26.6c1.9-.3,3.8-.5,5.7-.6s1.8,0,1.3.3c-1.8.3-2.7,0-2.9,2.1v35.5c.6,1,2,.3,2.9.7,0,.1-.2.5-.3.5h-9.2Z"></path>
    <path d="M212.5,261.7c.1.2.3.2.6.3.6,0,5.7,0,5.9-.2-.3-3.8.4-7.9.2-11.7s-.1-2.3-.7-2.5-1.3,0-1.5-.4l8.7-.3c-.5.6-1.4.2-2.1.7s-.5,1.1-.5,1.5c-.8,9.5.6,20.2,0,29.8.2,1,.1,1.5,1.1,1.7s1.4,0,1.2.4c-.2.3-.4,0-.5,0h-7.8s-.3-.2-.3-.3c.8,0,1.7-.1,2.2-.8v-16.8l-6.5.2v16.6c0,.7,2,.6,2.2,1.1h-8.5c0-.4,0-.3.3-.3.6,0,1.8,0,2-.8,0-8.5,0-16.9,0-25.4s.4-3.6.2-5.4-.9-1.5-2.4-1.7l8.5-.3c0,.8-1.4.3-1.8.7s-.4.9-.4,1v12.9Z"></path>
    <path d="M108.1,245.3c5.3-.6,7.7,1.9,9.1,6.6,1.8,6.2,2.4,22.5-2.3,27.5-2.1,2.2-6.8,2.5-9.2.7-4.8-3.6-4.9-16.8-4.4-22.3s1.5-11.8,6.8-12.5ZM109.3,245.6c-1.4.2-2,1.6-2.3,2.8-1.8,5.7-1.4,21.9-.1,27.8s1,4.9,3.9,4.6,2.4-3.4,2.6-5c.9-6.7.8-16.9,0-23.6s-.7-7.1-4.1-6.5Z"></path>
    <path d="M240,279.6c-2,1.9-6.6,2.2-8.9.7-5.2-3.5-5-17.3-4.3-22.9s2-10.6,7.6-11.2,6.8,1.4,8.1,5.6c1.9,6.2,2.4,22.9-2.5,27.7ZM234.8,246.6c-1.3.2-1.9,1.4-2.3,2.6-1.9,5.3-1.5,19.6-.6,25.3.3,1.8.8,5.9,3,6.2,3.5.5,3.6-2.9,4-5.5.9-6.6,1-18-.2-24.4s-.9-4.7-3.7-4.2Z"></path>
    <path d="M64.9,280.8c0-.8,1.4-.3,1.9-.7s.3-.7.3-.9c.8-9.8-.6-20.6,0-30.5-.5-1.3.2-3.9-.2-5.1s-1.5-.4-2-.6c-.4-.4.8-.4.9-.3,1.6,0,3.5.2,5.1.4s2.1.2,2.1.4c-.4.6-1.5,0-1.9.3-.5.8-.1,1.6-.2,2.4,0,4.7,0,9.5,0,14.2.3,0,.3-.5.4-.7,1.3-2.8,2.2-5.9,3.5-8.8s2.8-5.4,2.8-6.3-1-.4-1.7-.7-.3,0-.2-.4l5.4.3v.5c-2.4-.6-3.5,2.2-4.4,4s-3.3,7.4-3.3,8.5c2.1,6.5,3.9,13.5,6.6,19.8s1.3,2.9,1.8,3.4,1.5.1,2,.7h-8.3c0-.5.1-.3.4-.4s.9,0,1.1-.4c-2.5-5-4-10.4-5.5-15.8l-.6-1.3v16.3c0,1.4,1.3.9,2,1.2s.3,0,.2.4h-8.3Z"></path>
    <path d="M343.3,239.7c-.7-1-2.4.3-2.6-.8l5.8-.5c-.1.9-1.5.5-2.1.9s-.4.6-.4.8v40.9c-.4,0-.6-.5-.9-.8-1.4-2.1-2.6-5.6-3.4-8-2.8-8.1-4.9-16.5-7.6-24.6,0,1-.2,2-.3,3-.4,9.3.3,18.9,0,28.3,0,1.5,1.6,1.5,2.7,1.4v.5c-1.1,0-2.1-.2-3.2-.2s-2.3.5-3.1,0c.7-.4,2.3-.2,2.7-.8s.3-2.6.3-3.1c.5-11.1-.2-22.5-.3-33.6-.4-1.9-1.4-2.3-3.3-2.2v-.5s6.1-.7,6.1-.7c1.4,3,2.8,6.1,3.9,9.3l5.4,18.3v-27.5Z"></path>
    <path d="M323.6,280.1c4.3-.5,3.4-5.8,4-8.9.3,0,.3.7.3.9.2,2.9-.4,5.9-.2,8.8l-15.2-.2c0-.7,1-.4,1.4-.5.7-.2.9-.7,1-1.4.6-6.6-.5-14.1,0-20.8,0-4.6.6-10,.2-14.5s-.2-1-.4-1.4c-.3-.2-1.5.3-1.8-.3,0-.2.9-.4,1.1-.4,4.3-.6,8.7-.7,13-1.4.2,1.6.1,3.1.2,4.7s.4,2.5.2,3.7-.1.4-.3.4c-.4-2.5,0-6.5-3.1-7.4s-3,0-4.7.1l-.3.2v16.9c5.6.6,4.4-5.4,5-9.1s0-.5.3-.5c.4,1,0,1.9,0,2.8,0,5.9,0,11.8,0,17.6-.4.2-.5-.9-.5-1.1-.2-1.9,0-6.1-.9-7.6s-2.8-1.2-3.9-.7l-.2,19.8c1.5-.1,3.2.2,4.7,0Z"></path>
    <path d="M286.5,280.3c4-.4,3.4-5,3.8-8l.3.3-.2,8.4-15-.2c-.1-.6.8-.3,1.2-.4,1.1-.2,1.1-1.3,1.2-2.3.7-10.5-.5-21.8,0-32.4,0-1.2-1-.8-1.8-.9s-.5-.1-.3-.3l14.1-1.2.3,7.7-.2.3-.2-.3c-.2-2.3-.1-5.6-2.8-6.4s-3.5-.1-5.3,0v15.8c5.4.5,4.5-4.2,5-7.9s.1-.9.5-1c0,5.5-.3,11.1-.2,16.6s.4,1.6,0,2.5l-.3-.3c-.3-2.2-.1-4.8-.7-7s-2.4-1.7-4.3-1.7v18.6c1.5-.1,3.2.2,4.7,0Z"></path>
    <path d="M39.4,269.1h-5.1c0,0-1.7,10.1-1.7,10.1.2,1.1,1,.9,1.8,1.1s.6-.1.6.3c-.2.3-.5.2-.8.3-1.1,0-3,0-4.1,0s-.6,0-.8-.3l2-.8c.5-.4.5-1,.7-1.5.7-2.5,1-5.5,1.4-8.1,1.4-9,2.1-18.3,4-27.2s.4-2.2.9-3.2c.9,2.7,1.4,5.6,1.9,8.5,1.3,7.4,2.1,14.9,3.3,22.4s.9,6.9,1.8,8.6,1.5.3,2.5,1.3c-.2.3-.5.2-.8.3-1.6.1-3.1-.2-4.6-.2s-4,.5-4,0c.5-.8,2.4,0,2.6-1l-1.5-10.5ZM39,267.5l-2.3-16.5-2.3,16.1v.2c.2,0,.4.2.4.2h4.2Z"></path>
    <path d="M203.5,247.3c0,.4,0,.3-.3.3-1.5.3-1.9,0-2.6,1.5-1.3,2.9-3.5,13.3-3.8,16.6s.3,9.5,0,14.1c.2.8,1.5.7,2.1.8s.3,0,.3.3c-3-.1-6,0-9,0-.1-.6.8-.3,1.3-.4,1.3-.2,1.4-.5,1.5-1.8.8-8.7-.8-17.9-3.3-26.2-.3-.9-1.3-4.5-2-4.8s-1.5.1-2-.4l9.5-.3c.1.6-.8.3-1.3.4s-.7.2-1.1.4c-.3.5.9,4.2,1.2,5,.9,3.4,1.6,6.8,2.5,10.1l3.7-14.8c0-1-1.2-.7-1.8-.7s-.3,0-.3-.3h5.4Z"></path>
    <path d="M157.4,281c.3-.6,1.1-.3,1.6-.3.8-.1,1-.7,1.1-1.4,0-10.5-.1-20.9-.2-31.4-5.6-.7-4.5,3.4-5.4,7s0,.6-.4.5l.3-8.2,15.2.2c0,2.4.4,4.8.3,7.2s.1.6-.2.6c-.8-3.8-.4-8.1-5.8-7.3v32.1c0,.5,1.7.7,2.1.8s.5-.2.4.3h-9.2Z"></path>
    <path d="M152.4,216.3c0-.9.5-1.8.5-2.6s-.2-1.3-.2-2-.1-.6.2-.6c0,2.2,2.7,4.3-.5,5.3Z"></path>
    <path d="M216.8,217.3l.6-3.6.5-1.1c0,.8.6,1.8.5,2.6s-1.1,1.7-1.5,2.2Z"></path>
    <path d="M245,210.2l-.7-.2c-.2-.2-1.9-.7-1.8-1.1s.4-.4.7-.2l1.9,1.4Z"></path>
    <path d="M221.2,215.8v.8s-1.5.5-1.5.5c.1-.2,1.3-1.6,1.5-1.4Z"></path>
  </g>
  <path class="st0" d="M182.6,127.9c-46.4,0-85.5,29.4-97.3,69.5.9-.5,1.6-1.2,2.6-1.5.8-.3,2.5-.3,2.9-.5.7-.3.6-2,1-2.8,0-.1,1-.9,1-.9,1.2-.3,2.7,1.2,3.8,1.6,1.2.4,1.2-1,1.8-1.9.4-.7,1.3-1.2,1.6-1.6.9-1,3.3-5.3,4.7-5.3.8,0,1.1.7,1.2.7.6.1.4-.3.7-.7,1.1-1.3,1.8-1,2.8-1.7.4-.3.3-.7,1.1-.8,1.6-.2,1.5,1.3,2.2,2.2,1.2,1.7,4.4.9,5.2,1.8.5.6,0,1.2,1.4.9l-.2.3c1.1,0,.8,2.1,1.8.2.3,0,1.6,2.3,2.1,2.6.5.3,3.1.5,3.6.4.4-.1.6-.6.9-.6,1-.1,2.1,1,2.4,1.9,0,.2.2,2,.6,1.5,1-1.8,1.8-3.8,2.8-5.6.2-.3.6-1.1.9-1.4.7-.6,4.3-1.6,5.2-1.7.5,0,1.1,0,1.6,0,.7-.9.8-1.9,1.3-2.9,1-2.1.9-1.6,1.5-4,.4-1.7,2.1-8.4,3.3-9.3.4-.3.9-.3,1.4-.7.8-.6,1.2-1.8,2.3-2.1,1.6-.4,2.3.3,3.7.6,1.4.3,2,.1,3.4.8.7.3,1.2.7,1.7,1.1-.9-2.5-1.3-5.3-1.3-8.1,0-14,11.4-25.4,25.4-25.4s25.4,11.4,25.4,25.4-11.4,25.4-25.4,25.4-6.1-.6-8.9-1.6c0,.2,0,.4.2.6.3.6.7.7,1,1,.3.4,2.8,5.5,2.9,5.9.3,1-.1,1.9,1.4,2.1-.2-2.1,2.2-2.1,3.5-1.2.2.1,2.1,1.8,2.1,1.9.7.9-.1,1.7,1.5,2.8,2.8,1.7,9,3.8,12.2,4,5.6.3,9.9-3.8,14.6-5.8,1.2-.5,2-.4,3-1.5.3-.3,1.2-2.1,1.4-2.1,0,0,.4.6.8.5.6-1.1,1.3-1.2,1.9,0,.7-2,1.5-4.1,2.5-6,.8-1.4,1.1-1.3,1.9-2.2.4-.5.2-1.1,1.2-1,.4,0,.7.3,1,.3,1.1.2,1.9-.7,2.7-1.3.2-.1,0-.4.2-.5.4-.4,1.6-.8,2.2-.8,2.8-.2,7,1,9,2.9.5.5,1.1,1.3,1.7,1.9.8.7,2,1.3,2.5,2.4.2.6.2,1.3.5,1.7.3.3.9.5,1.3.7.4.3.8.8,1.3.7l-.2.3c2,0,3.4,4.5,5,4.8.6,0,1.3-.1,1.8,0,.4.2.9,1.4,1.2,1.6.7.3,3.9.9,4.6.9.9,0,1.8-.3,2.5-.3,1.8,0,6.6,2.8,8.7,3.5,1.8.7,6.3,2.2,8.1,2,0,0,0,0,0,0-9.4-43.2-50.1-75.6-98.8-75.6Z"></path>
</svg>
