<?xml version="1.0" encoding="UTF-8"?>
<svg xmlns="http://www.w3.org/2000/svg" id="Layer_1" width="5in" height="5in" version="1.1" viewBox="0 0 360 360">
  <defs>
    <style>
      .st0 {
        fill: #fff;
      }

      .st1 {
        fill: #f26828;
      }

      .st2 {
        fill: #582d41;
      }
    </style>
  </defs>
  <g>
    <path class="st1" d="M258.7,143.8c0,49.7-40.3,89.9-89.9,89.9s-89.9-40.3-89.9-89.9,40.3-89.9,89.9-89.9,89.9,40.3,89.9,89.9"></path>
    <path class="st2" d="M168.7,58.4c47.2,0,85.4,38.2,85.4,85.4s-38.3,85.4-85.4,85.4-85.4-38.2-85.4-85.4,38.2-85.4,85.4-85.4M168.7,49.8c-12.7,0-25,2.5-36.6,7.4-11.2,4.7-21.3,11.5-29.9,20.2-8.6,8.6-15.4,18.7-20.2,29.9-4.9,11.6-7.4,23.9-7.4,36.6s2.5,25,7.4,36.6c4.7,11.2,11.5,21.3,20.2,29.9,8.6,8.6,18.7,15.4,29.9,20.2,11.6,4.9,23.9,7.4,36.6,7.4s25-2.5,36.6-7.4c11.2-4.7,21.3-11.5,29.9-20.2,8.6-8.6,15.4-18.7,20.1-29.9,4.9-11.6,7.4-23.9,7.4-36.6s-2.5-25-7.4-36.6c-4.7-11.2-11.5-21.3-20.1-29.9-8.6-8.6-18.7-15.4-29.9-20.2-11.6-4.9-23.9-7.4-36.6-7.4"></path>
    <path class="st0" d="M136.8,271.7l.8-11c0,0,.5-9.3-3.5-20.3l-11.8-6.1c-.5-.3-12-6.2-20.8-16.7-3.7-4.4-6-9.6-7.5-14.3-7.3,3.8-13.2,4.1-17.3,4-3.6-.1-7.5-1.5-7.5-1.5,0,0,12.6-8.2,16.6-34.4,1.3-8.5,6.8-16.8,11.3-23.2-2.4,0-5.3-.3-8.5-.6-10.1-1.1-17.9-4.5-21.4-9.4-1.7-2.4-2.4-5.1-1.8-7.6,1.3-6.2,7.3-7.3,9.9-7.8.4,0,.9-.2,1.1-.2.7-.4,1.4-.7,2.1-1,1.5-.6,3.5-1.5,8.3-5.5,8.3-7,18.5-11.4,28.9-12.5,2.9-.3,7.4-3,10.4-5.3,1.3-2.9,4.2-8.7,8.6-12.4.2-.2,19.6-15.9,26.4-18.6,4.2-1.7,13.4-3.5,17.7-4.2,1.4-1.2,4-3.4,8.3-6.9,7.3-6,26-17.5,26.7-18l1.8-1.1,17.9,1.6,1.3,4.2c.4,1.3,1.5,3.3,2.6,5.3,1.7,3,3.8,6.8,5.2,11.1,3.4,10.7-.7,21.4-1.2,22.6l-.6,1.2s3.3,3.8,4.5,5.7c1.4,2.3,2.9,4.6,2.6,10.5-.4,8.2-4,13.2-14.1,19.7-4.5,2.8-12.1,14.9-11.8,21.7,0,1.4,1.5,5.9,2.7,9.9,3.5,11.1,8.2,26.4,7.3,40.1-2.8,42-34.6,47.7-34.6,47.7-6.3,6.6-15.9,14.4-27.9,18.1-23.8,7.4-32.6,15.1-32.6,15.1"></path>
    <path class="st2" d="M229.8,44.4l-13-1.2s-18.6,12.2-25.6,18c-7,5.8-9.5,8-9.5,8,0,0-14.8,2-19.4,3.9-4.6,1.9-18.8,14.1-23.4,17.9-4.5,3.7-7.4,11.3-7.4,11.3,0,0-9.8,7-16.7,7.9-8.6,1.2-16.3,6.1-23.8,10.8-7.5,4.8-9.5,5.8-11.6,7-2.1,1.2-6.9.9-7.5,3.8-.6,2.9,5.4,7.9,17.5,9.2,12.1,1.3,18.2.2,19.6.5l1.4.3s-16.1,15.5-18.2,31c-3,22.7-11.6,27.3-11.6,27.3,0,0,4.4-.5,9.4-3.1,5-2.6,7.8-8,7.8-8,0,0,.7,14.7,8.7,24.2,8,9.5,18.7,15,18.7,15,0,0-3.4-4.2-5.5-8.6-2-4.4-1.5-8-1.5-8,0,0,15.7,13.7,21.6,24.8,8,15,5,23.3,5,23.3,0,0,6.9-4.6,21.8-9.3,13.2-4.1,26.6-15.5,34.2-25.7,7.7-10.2,8.1-15.1,8.1-15.1,0,0,1.3,3-.9,10.3-2,6.8-6.8,11.9-6.8,11.9,0,0,21.1-7.8,23.4-41.7,1.6-24.2-9.5-36.6-9.2-51.4.2-6.8,8.4-21.5,14.8-25.5,9.7-6.1,11.8-11,11.8-15.9,0-9.8-4.4-7.3-4.6-10-.4-5.2-1.5-9.7-1.5-9.7,0,0,4-9.3.8-17.9-3.2-8.6-5.6-11.1-7-15.6"></path>
    <path class="st0" d="M228.5,63.2s1.4,0,2.8-.8c1-.6,1.9-1.4,1.9-1.4,0,0,2.2,1.8,2,8.1-.2,4.1-1.2,5.5-1.2,5.5,0,0-.1-1.7-2.3-4.4-2.5-2.9-2.7-4.1-3.1-7"></path>
    <path class="st0" d="M221.5,92.7s-1.1-3-1.7-5.2c-.7-2.1-.9-2.3-.1-2.6.8-.3,1.6.6,2.5,1.6.9,1,3.4,4.7,3.4,4.7,0,0-2.2.3-4,1.4"></path>
    <path class="st0" d="M230.6,90.5s.9-1.9,1.7-4c.5-1.5.6-2.5,1.1-2.7.7-.2.9,1.6,1,3.5.1,1.7.1,2.7.1,2.7,0,0-.7-.1-1.9,0-1.1,0-2,.5-2,.5"></path>
    <path class="st0" d="M125.6,113.7l-8.5,3.9s-9.2-1.1-18.1,4.9c-8.3,5.6-11.1,6.2-12.2,6.5-1,.3-2.4.9-2.4.9,0,0,8.8,4.8,18.7-.5,4.8-2.5,7.9-4.8,11.6-4.1,4.6.9,7.7-4.4,10.9-11.6"></path>
    <path class="st0" d="M199.2,205.1h0s-2-2.8-12.6-.6c-14,2.9-17.9,9.6-17.9,9.6,0,0,2.7-1.7,5.8-2-4.5,5-6,11.1-19.4,19.5,0,0,8.3-2.5,14-5.7,7.7-4.3,11.4-8,11.4-8,0,0-2.8,6.2-9,14.1-5.4,7-15,15.9-15,15.9,0,0,21-7.9,36.1-23.8,22.5-23.7,15.7-46.5,15.7-46.5,0,0,3.7,2.5,6.1,10.1,2.8,9,.8,19.8.8,19.8,0,0,3.6-5.4,4.3-17.4.7-10.4-3.6-20.9-8.1-30.8-7.2-16.1-3.3-25.5-3.3-25.5h-.2s-3.3,4.6-5.6,10.6c-2.3,6.1-3.1,9.9-3.1,9.9,0,0-1.9-3.2-2.4-8.3-.5-5.1,1.7-9.9,1.7-9.9,0,0-4.4,3.2-8.7,11.2-4.3,8-6.5,16.2-6.5,16.2,0,0,0-23.2,10.5-38.8,9-12.5,28.1-18.8,28.1-18.8,10.1.6,13-1.1,15-4.1,1.6-2.3,1-5.6.6-8-.1-.7-.7-1.3-1.5-1.4-1.2-.2-3.2-.2-6,.4-5.6,1.2-11.4,4.5-15,2.9-3.1-1.4-5.8-.2-5.8-.2,0,0-1.4-3.3,1.7-5.8,4-3.3,4.7-7.7,6-10.4,1.6-3.3,3.7-4.7,6.3-7.4,5-5.1,2.7-8.6,2.7-8.6,0,0-4.9.2-9-1.6-3-1.3-5.7-7.1-5.7-7.1-3.6,2.3-11.4,8.6-17.2,14-7,6.5-15.7,15.1-15.7,15.1,0,0-1,7.7-9.2,8-7,.3-13.1,3.4-13.1,3.4,0,0,6.9-4.4,9.4-7.2,2.5-2.8,2.5-4.4,2.5-4.4,0,0,.4-.9,4.4-2.1,4-1.2,5.9-1.3,5.9-1.3,0,0-10.1-2.9-15.7.3-6.2,3.6-8.5,6-12.9,12.8-5.8,9.2-8.6,26.2-8.6,26.2,0,0,2.9-3.1,10.2-7,7.3-3.9,10.4-3.2,10.4-3.2,0,0-9,7.5-17,22-8,14.5-10.6,24-10.6,24,0,0,7.7-9.2,16.5-17.7,8.8-8.5,16.7-10.6,16.7-10.6,0,0-1.9,1.8-4.8,5.1-2.6,3.1-5.8,7.4-8.8,13-5.7,10.9-6.7,16.9-6.7,16.9,0,0-1.9-1.3-2.9-4.1-.1-.4-.2-.7-.3-1.1-2,3.1-4,6.5-5.9,10-11.3,21-10.1,22.3-10.3,23.5.3-.6,1.8-4.1,4.4-6.9,5.4-5.7,9.1-6.9,9.1-6.9,0,0,.7,2.6,2.9,4.5,3,2.5,5.8,2.1,5.8,2.1,0,0,.9-.6,2.3-2.8,1.1-1.6,1.4-2.9,1.4-2.9,0,0,.3.7,1.2,1.5.5.4,1.1.5,1.1.5,0,0,.2-2.9,2.8-6.3,3-3.8,3.7-5,3.7-5,0,0,4.5,2.2,7.8,8.4,2.4,4.8,2.5,8.2,2.5,8.2,0,0,.4-.3.9-1,.9-1.2,1.1-1.8,1.1-1.8,0,0,.6,4.7,3.9,7.1,3.1,2.3,5.4,2.1,7.2,1,2-1.2,3.3-3.5,3.3-3.5,0,0,0,.7.1,1.6,0,.9-.1,1.8-.1,1.8,0,0,1.4-3.2,3.4-4.8,3.1-2.6,3.5-4,3.5-4,0,0,11.3,9.8,2.7,24.2"></path>
    <polyline class="st2" points="72.1 65.9 87.8 79.1 84.7 82.9 69 69.6 65.8 73.4 62.7 70.1 71.5 59.6 75.3 62.2"></polyline>
    <polyline class="st2" points="99.7 66.7 91.8 74.5 74.2 56.7 82.1 48.9 85.5 51.9 80.9 56.5 84.8 60.4 88.6 56.7 91.6 59.8 87.8 63.5 92.1 67.8 96.7 63.3"></polyline>
    <polyline class="st2" points="95.1 43.9 107.5 60.3 103.6 63.3 91.2 46.9 87.3 49.8 85 45.9 95.9 37.7 99 41"></polyline>
    <path class="st2" d="M117.6,54.8c-4.5,2.6-9.7,0-13.8-7.3-4.1-7.2-3.8-13,.7-15.6,4.5-2.6,9.7,0,13.8,7.3,4.1,7.2,3.8,13-.7,15.6M106.7,35.8c-1.8,1-1.8,3.8,1.3,9.3,3.1,5.4,5.5,6.9,7.3,5.8,1.8-1,1.8-3.8-1.3-9.3-3.1-5.4-5.5-6.9-7.3-5.8"></path>
    <path class="st2" d="M125.9,36.9l4.2,10.9-4.5,1.8-9-23.4c0,0,0-.2.1-.1l13.7,7.3-4.2-10.9,4.5-1.8,9,23.4c0,0,0,.2-.1.1"></path>
    <polyline class="st2" points="204 245.8 210.2 265.4 205.5 266.8 199.4 247.3 194.7 248.8 193.8 244.3 206.8 240.2 208.7 244.3"></polyline>
    <polygon class="st2" points="220.8 261.3 210.4 238.6 214.8 236.5 225.3 259.3 220.8 261.3"></polygon>
    <path class="st2" d="M244.2,247.7l-6.1-9.1-.4,8.5-8-3,6.1,9.1-4.2,2.8-14-21.1c0-.1,0-.3.2-.2l15.5,5.6.8-16.4c0-.2.2-.2.3,0l14,21.1"></path>
    <path class="st2" d="M258.4,235.9l-4.9,4.4-16.8-18.6,4.9-4.4c3.4-3,7.5-2.6,9.6-.3,1.8,2,2.2,4.5,1.1,6.1h0c1.8-.8,4.5-.9,6.9,1.8,3.2,3.5,2.7,7.7-.9,10.9M242.8,221.3l4.2,4.6c1.8-1.6,2.4-3.1.7-4.9-1.6-1.8-2.9-1.6-4.9.2M249.6,228.8l4.7,5.2c2.1-1.9,2.9-3.6,1-5.6-1.9-2.1-3.6-1.4-5.7.5"></path>
    <polyline class="st2" points="274.5 216.9 267.7 225.9 247.7 210.8 254.6 201.8 258.4 204.2 254.3 209.6 258.7 213 262.1 208.6 265.5 211.2 262.2 215.6 267 219.3 271.1 213.9"></polyline>
    <path class="st2" d="M273.5,195.8l11.9,2.3-2.4,4.4-10.6-2.3-.8,1.5,9.2,5-2.3,4.3-22-12,2.7-4.9c2.5-4.6,6.3-6.5,10.6-4.1,2.6,1.4,3.8,3.2,3.9,5.8M262.7,197l4.9,2.7c1.3-2.4,1.9-4.1-.3-5.3-2.1-1.2-3.3.2-4.6,2.6"></path>
    <path class="st2" d="M292.6,178.1l-13.4.5,10.7,8.1c.1,0,0,.3,0,.3h-26.6c0,0,1.6-4.9,1.6-4.9h11.6c0,.1-9-7.1-9-7.1,0,0,0-.2,0-.3l11.6-.6-9.6-6.7,1.6-5,21.6,15.5c.1,0,0,.3,0,.3"></path>
    <path class="st2" d="M297,157.5c-.6,5.2-5.8,7.7-14.1,6.8-8.2-.9-12.8-4.6-12.2-9.8.6-5.2,5.8-7.7,14.1-6.8,8.3.9,12.8,4.6,12.2,9.8M275.2,155.1c-.2,2.1,2,3.7,8.2,4.4,6.2.7,8.8-.4,9-2.5.2-2.1-2-3.7-8.2-4.4-6.2-.7-8.8.4-9,2.5"></path>
    <polyline class="st2" points="296.9 133.1 297.3 143.8 272.3 144.8 272.1 139.9 292.4 139.1 292.1 132.6"></polyline>
    <path class="st2" d="M295.9,124.3l-23.9,11.7-.7-4.9s10.3-4.8,11-4.9h0c-.7,0-11.9-1.7-11.9-1.7l-.7-4.9,26.2,4.4c.2,0,.2.3,0,.3"></path>
    <polyline class="st2" points="289.8 100.1 293 110.7 269.1 118.1 265.8 107.6 270 105.9 272 112.1 277.3 110.5 275.7 105.4 279.9 104.1 281.4 109.2 287.3 107.4 285.3 101.2"></polyline>
    <path class="st2" d="M285.2,87.6c1.8,3.8.2,6.9-1.9,9l-3.5-2.6c1.6-1.5,1.9-3.2,1.3-4.5-.6-1.3-1.7-1.9-3.2-1.2-3.5,1.6-2.1,11-8,13.9-3.5,1.6-6.7.5-8.5-3.3-1.6-3.3-.7-6.1,1.3-8.1l3.2,2.9c-1.3,1.4-1.3,2.2-.7,3.4.4.9,1.4,1.3,2.6.7,3.8-1.8,1.8-10.9,8-13.9,4.4-2.1,7.6-.2,9.4,3.6"></path>
  </g>
  <rect class="st1" x="103.7" y="289.1" width="152.6" height="7.2"></rect>
  <g>
    <path class="st2" d="M73.3,313.3h8.2c4.5,0,7.8,2.6,7.8,6.7s-1.3,4.7-3.3,5.7c2.4,1,4.1,3,4.1,6.2s-3.5,7-8.3,7h-8.5v-25.6ZM81.5,317.4h-3.9v6.3h3.9c1.9,0,3.4-.9,3.4-3.1s-1.5-3.2-3.4-3.2ZM81.8,327.8h-4.2v7h4.2c2.1,0,3.9-1.1,3.9-3.5s-1.7-3.5-3.9-3.5Z"></path>
    <path class="st2" d="M103.3,318.5c5.9,0,10.4,4.5,10.4,10.4s-4.5,10.4-10.4,10.4-10.4-4.5-10.4-10.4,4.5-10.4,10.4-10.4ZM103.3,335.3c3.6,0,6.3-2.8,6.3-6.4s-2.7-6.4-6.3-6.4-6.3,2.8-6.3,6.4,2.7,6.4,6.3,6.4Z"></path>
    <path class="st2" d="M126.8,318.5c5.9,0,10.4,4.5,10.4,10.4s-4.5,10.4-10.4,10.4-10.4-4.5-10.4-10.4,4.5-10.4,10.4-10.4ZM126.8,335.3c3.6,0,6.3-2.8,6.3-6.4s-2.7-6.4-6.3-6.4-6.3,2.8-6.3,6.4,2.7,6.4,6.3,6.4Z"></path>
    <path class="st2" d="M151.5,323.6c-1-.8-2.8-1.5-4.5-1.5s-2.4.9-2.4,2,.4,1.4,1.2,1.9l3,1.8c2.7,1.5,3.6,3.3,3.6,5.5s-2.1,5.9-6.7,5.9-3.8-.5-5-1.1v-4.4c1.1.9,3,1.7,4.9,1.7s2.6-.9,2.6-2-.5-1.5-1.5-2.1l-3-1.9c-2.6-1.5-3.4-3.1-3.4-5.4s1.8-5.8,6.9-5.8,3.1.4,4.3.9v4.2Z"></path>
    <path class="st2" d="M159.8,322.6h-4.9v-3.8h13.8v3.8h-4.9v16.2h-3.9v-16.2Z"></path>
    <path class="st2" d="M172.3,338.9v-20h11.4v3.8h-7.4v4.2h6.8v3.8h-6.8v4.4h7.4v3.8h-11.4Z"></path>
    <path class="st2" d="M188.6,318.8h6.8c3.9,0,6.6,2.1,6.6,5.8s-1.7,4.6-3.7,5.1c2.5,1.3,4.1,4.8,4.6,9.1h-4.1c-.8-4.4-2.6-7.6-5-7.6h-1.2v7.6h-3.9v-20ZM195.3,322.6h-2.8v4.9h2.8c1.5,0,2.6-.9,2.6-2.4s-1.1-2.4-2.6-2.4Z"></path>
    <path class="st2" d="M233.7,337.7c-1.8,1-3.9,1.6-6.2,1.6-7.5,0-13.2-5.7-13.2-13.2s5.7-13.2,13.2-13.2,4.4.6,6.2,1.6v5c-1.5-1.4-3.8-2.3-6.2-2.3-5,0-8.8,3.9-8.8,8.9s3.8,8.9,8.8,8.9,4.7-.9,6.2-2.2v4.9Z"></path>
    <path class="st2" d="M238.2,338.9v-20h3.9v16.2h7.4v3.8h-11.4Z"></path>
    <path class="st2" d="M267.9,318.8v12.6c0,4.9-2.9,7.8-7.6,7.8s-7.6-2.9-7.6-7.8v-12.6h3.9v12.9c0,2.1,1.4,3.7,3.6,3.7s3.6-1.5,3.6-3.7v-12.9h3.9Z"></path>
    <path class="st2" d="M273.1,318.8h6.8c3.7,0,6.2,2.1,6.2,5.3s-1,3.6-2.4,4.4c1.8.8,3,2.4,3,4.8s-2.6,5.5-6.6,5.5h-7v-20ZM279.9,322.6h-2.8v4.1h2.8c1.2,0,2.3-.6,2.3-2s-1-2-2.3-2ZM280.1,330.5h-3v4.6h3c1.4,0,2.6-.7,2.6-2.3s-1.1-2.3-2.6-2.3Z"></path>
  </g>
</svg>
